G04 #@! TF.FileFunction,Soldermask,Top*
%FSLAX46Y46*%
G04 Gerber Fmt 4.6, Leading zero omitted, Abs format (unit mm)*
G04 Created by KiCad (PCBNEW 4.0.4-stable) date 07/22/17 12:12:15*
%MOMM*%
%LPD*%
G01*
G04 APERTURE LIST*
%ADD10C,2.000000*%
%ADD11C,3.000000*%
%ADD12C,1.416000*%
%ADD13R,2.000000X1.400000*%
%ADD14R,2.279600X2.279600*%
%ADD15C,2.279600*%
%ADD16C,2.200000*%
%ADD17C,3.516000*%
%ADD18C,2.178000*%
%ADD19R,1.289000X1.289000*%
%ADD20C,1.720800*%
%ADD21C,4.514800*%
%ADD22R,2.051000X1.400000*%
%ADD23R,2.167840X2.198320*%
%ADD24R,2.198320X2.167840*%
%ADD25R,2.200000X1.500000*%
%ADD26C,1.924000*%
%ADD27C,1.900000*%
%ADD28C,1.670000*%
%ADD29C,1.748740*%
%ADD30R,1.748740X1.748740*%
G04 APERTURE END LIST*
D10*
D11*
X18224567Y-62500000D02*
G75*
G03X18224567Y-62500000I-6024567J0D01*
G01*
X18224567Y-62500000D02*
G75*
G03X18224567Y-62500000I-6024567J0D01*
G01*
X43224567Y-62500000D02*
G75*
G03X43224567Y-62500000I-6024567J0D01*
G01*
X43224567Y-62500000D02*
G75*
G03X43224567Y-62500000I-6024567J0D01*
G01*
X68224567Y-62500000D02*
G75*
G03X68224567Y-62500000I-6024567J0D01*
G01*
X68224567Y-62500000D02*
G75*
G03X68224567Y-62500000I-6024567J0D01*
G01*
X93224567Y-62500000D02*
G75*
G03X93224567Y-62500000I-6024567J0D01*
G01*
X93224567Y-62500000D02*
G75*
G03X93224567Y-62500000I-6024567J0D01*
G01*
X18224567Y-87500000D02*
G75*
G03X18224567Y-87500000I-6024567J0D01*
G01*
X18224567Y-87500000D02*
G75*
G03X18224567Y-87500000I-6024567J0D01*
G01*
X43224567Y-87500000D02*
G75*
G03X43224567Y-87500000I-6024567J0D01*
G01*
X43224567Y-87500000D02*
G75*
G03X43224567Y-87500000I-6024567J0D01*
G01*
X68224567Y-87500000D02*
G75*
G03X68224567Y-87500000I-6024567J0D01*
G01*
X68224567Y-87500000D02*
G75*
G03X68224567Y-87500000I-6024567J0D01*
G01*
X93224567Y-87500000D02*
G75*
G03X93224567Y-87500000I-6024567J0D01*
G01*
X93224567Y-87500000D02*
G75*
G03X93224567Y-87500000I-6024567J0D01*
G01*
X18224567Y-112500000D02*
G75*
G03X18224567Y-112500000I-6024567J0D01*
G01*
X18224567Y-112500000D02*
G75*
G03X18224567Y-112500000I-6024567J0D01*
G01*
X43201567Y-112500000D02*
G75*
G03X43201567Y-112500000I-6024567J0D01*
G01*
X43201567Y-112500000D02*
G75*
G03X43201567Y-112500000I-6024567J0D01*
G01*
X68224567Y-112500000D02*
G75*
G03X68224567Y-112500000I-6024567J0D01*
G01*
X68224567Y-112500000D02*
G75*
G03X68224567Y-112500000I-6024567J0D01*
G01*
X93224567Y-112500000D02*
G75*
G03X93224567Y-112500000I-6024567J0D01*
G01*
X93224567Y-112500000D02*
G75*
G03X93224567Y-112500000I-6024567J0D01*
G01*
X18224567Y-137500000D02*
G75*
G03X18224567Y-137500000I-6024567J0D01*
G01*
X18224567Y-137500000D02*
G75*
G03X18224567Y-137500000I-6024567J0D01*
G01*
X43224567Y-137500000D02*
G75*
G03X43224567Y-137500000I-6024567J0D01*
G01*
X43224567Y-137500000D02*
G75*
G03X43224567Y-137500000I-6024567J0D01*
G01*
X68224567Y-137500000D02*
G75*
G03X68224567Y-137500000I-6024567J0D01*
G01*
X68224567Y-137500000D02*
G75*
G03X68224567Y-137500000I-6024567J0D01*
G01*
X93224567Y-137500000D02*
G75*
G03X93224567Y-137500000I-6024567J0D01*
G01*
X93224567Y-137500000D02*
G75*
G03X93224567Y-137500000I-6024567J0D01*
G01*
D12*
X12800000Y-58010000D03*
X14570000Y-55390000D03*
D13*
X9700000Y-60800000D03*
X9700000Y-64000000D03*
X14700000Y-64000000D03*
X14700000Y-60800000D03*
D12*
X35400000Y-66650000D03*
X33050000Y-68750000D03*
D13*
X34700000Y-60800000D03*
X34700000Y-64000000D03*
X39700000Y-64000000D03*
X39700000Y-60800000D03*
D14*
X8000000Y-2500000D03*
D15*
X10540000Y-2500000D03*
X13080000Y-2500000D03*
X15620000Y-2500000D03*
X18160000Y-2500000D03*
X20700000Y-2500000D03*
X23240000Y-2500000D03*
X25780000Y-2500000D03*
X28320000Y-2500000D03*
X30860000Y-2500000D03*
X33400000Y-2500000D03*
X35940000Y-2500000D03*
X38480000Y-2500000D03*
X41020000Y-2500000D03*
X43560000Y-2500000D03*
X46100000Y-2500000D03*
D16*
X89495000Y-15360000D03*
X86995000Y-15360000D03*
X84495000Y-15360000D03*
D17*
X92545000Y-22860000D03*
X81445000Y-22860000D03*
D18*
X84495000Y-29860000D03*
X89495000Y-29860000D03*
D19*
X81788000Y-4572000D03*
X81788000Y-6096000D03*
D20*
X50000000Y-57587000D03*
X50000000Y-62413000D03*
D21*
X52025400Y-13670800D03*
X52050800Y-6350000D03*
X55787000Y-10493000D03*
D22*
X9900000Y-38400000D03*
X15054000Y-38400000D03*
X15054000Y-41600000D03*
X9900000Y-41600000D03*
X34923000Y-38400000D03*
X40077000Y-38400000D03*
X40077000Y-41600000D03*
X34923000Y-41600000D03*
X59923000Y-38400000D03*
X65077000Y-38400000D03*
X65077000Y-41600000D03*
X59923000Y-41600000D03*
X84900000Y-38400000D03*
X90054000Y-38400000D03*
X90054000Y-41600000D03*
X84900000Y-41600000D03*
X9900000Y-45900000D03*
X15054000Y-45900000D03*
X15054000Y-49100000D03*
X9900000Y-49100000D03*
X34900000Y-45900000D03*
X40054000Y-45900000D03*
X40054000Y-49100000D03*
X34900000Y-49100000D03*
X59923000Y-45900000D03*
X65077000Y-45900000D03*
X65077000Y-49100000D03*
X59923000Y-49100000D03*
X84923000Y-45900000D03*
X90077000Y-45900000D03*
X90077000Y-49100000D03*
X84923000Y-49100000D03*
X9923000Y-155900000D03*
X15077000Y-155900000D03*
X15077000Y-159100000D03*
X9923000Y-159100000D03*
X34900000Y-155900000D03*
X40054000Y-155900000D03*
X40054000Y-159100000D03*
X34900000Y-159100000D03*
X59900000Y-155900000D03*
X65054000Y-155900000D03*
X65054000Y-159100000D03*
X59900000Y-159100000D03*
X84900000Y-155900000D03*
X90054000Y-155900000D03*
X90054000Y-159100000D03*
X84900000Y-159100000D03*
D12*
X60400000Y-66650000D03*
X58050000Y-68750000D03*
D13*
X59700000Y-60800000D03*
X59700000Y-64000000D03*
X64700000Y-64000000D03*
X64700000Y-60800000D03*
D12*
X85400000Y-66650000D03*
X83050000Y-68750000D03*
D13*
X84700000Y-60800000D03*
X84700000Y-64000000D03*
X89700000Y-64000000D03*
X89700000Y-60800000D03*
D12*
X10400000Y-91650000D03*
X8050000Y-93750000D03*
D13*
X9700000Y-85800000D03*
X9700000Y-89000000D03*
X14700000Y-89000000D03*
X14700000Y-85800000D03*
D12*
X35400000Y-91650000D03*
X33050000Y-93750000D03*
D13*
X34700000Y-85800000D03*
X34700000Y-89000000D03*
X39700000Y-89000000D03*
X39700000Y-85800000D03*
D12*
X60400000Y-91650000D03*
X58050000Y-93750000D03*
D13*
X59700000Y-85800000D03*
X59700000Y-89000000D03*
X64700000Y-89000000D03*
X64700000Y-85800000D03*
D12*
X85400000Y-91650000D03*
X83050000Y-93750000D03*
D13*
X84700000Y-85800000D03*
X84700000Y-89000000D03*
X89700000Y-89000000D03*
X89700000Y-85800000D03*
D12*
X10400000Y-116650000D03*
X8050000Y-118750000D03*
D13*
X9700000Y-110800000D03*
X9700000Y-114000000D03*
X14700000Y-114000000D03*
X14700000Y-110800000D03*
D12*
X35377000Y-116650000D03*
X33027000Y-118750000D03*
D13*
X34677000Y-110800000D03*
X34677000Y-114000000D03*
X39677000Y-114000000D03*
X39677000Y-110800000D03*
D12*
X60400000Y-116650000D03*
X58050000Y-118750000D03*
D13*
X59700000Y-110800000D03*
X59700000Y-114000000D03*
X64700000Y-114000000D03*
X64700000Y-110800000D03*
D12*
X85400000Y-116650000D03*
X83050000Y-118750000D03*
D13*
X84700000Y-110800000D03*
X84700000Y-114000000D03*
X89700000Y-114000000D03*
X89700000Y-110800000D03*
D12*
X10400000Y-141650000D03*
X8050000Y-143750000D03*
D13*
X9700000Y-135800000D03*
X9700000Y-139000000D03*
X14700000Y-139000000D03*
X14700000Y-135800000D03*
D12*
X35400000Y-141650000D03*
X33050000Y-143750000D03*
D13*
X34700000Y-135800000D03*
X34700000Y-139000000D03*
X39700000Y-139000000D03*
X39700000Y-135800000D03*
D12*
X60400000Y-141650000D03*
X58050000Y-143750000D03*
D13*
X59700000Y-135800000D03*
X59700000Y-139000000D03*
X64700000Y-139000000D03*
X64700000Y-135800000D03*
D12*
X85400000Y-141650000D03*
X83050000Y-143750000D03*
D13*
X84700000Y-135800000D03*
X84700000Y-139000000D03*
X89700000Y-139000000D03*
X89700000Y-135800000D03*
D23*
X7500000Y-37960380D03*
X7500000Y-42039620D03*
X32155000Y-42229620D03*
X32155000Y-38150380D03*
X57955000Y-42229620D03*
X57955000Y-38150380D03*
X81800000Y-42000020D03*
X81800000Y-37920780D03*
D24*
X81526380Y-35052000D03*
X85605620Y-35052000D03*
D23*
X5595000Y-48519620D03*
X5595000Y-44440380D03*
X30250000Y-48459620D03*
X30250000Y-44380380D03*
X56050000Y-48459620D03*
X56050000Y-44380380D03*
X79895000Y-48459620D03*
X79895000Y-44380380D03*
D24*
X17645380Y-153035000D03*
X21724620Y-153035000D03*
X39235380Y-153035000D03*
X43314620Y-153035000D03*
X64635380Y-153035000D03*
X68714620Y-153035000D03*
X93937380Y-153035000D03*
X98016620Y-153035000D03*
D25*
X23454000Y-38150000D03*
X17254000Y-38150000D03*
X17254000Y-41850000D03*
X23454000Y-41850000D03*
X48454000Y-38150000D03*
X42254000Y-38150000D03*
X42254000Y-41850000D03*
X48454000Y-41850000D03*
X73454000Y-38150000D03*
X67254000Y-38150000D03*
X67254000Y-41850000D03*
X73454000Y-41850000D03*
X98454000Y-38150000D03*
X92254000Y-38150000D03*
X92254000Y-41850000D03*
X98454000Y-41850000D03*
X23454000Y-45650000D03*
X17254000Y-45650000D03*
X17254000Y-49350000D03*
X23454000Y-49350000D03*
X48454000Y-45650000D03*
X42254000Y-45650000D03*
X42254000Y-49350000D03*
X48454000Y-49350000D03*
X73454000Y-45650000D03*
X67254000Y-45650000D03*
X67254000Y-49350000D03*
X73454000Y-49350000D03*
X98431000Y-45650000D03*
X92231000Y-45650000D03*
X92231000Y-49350000D03*
X98431000Y-49350000D03*
X23454000Y-155650000D03*
X17254000Y-155650000D03*
X17254000Y-159350000D03*
X23454000Y-159350000D03*
X48454000Y-155650000D03*
X42254000Y-155650000D03*
X42254000Y-159350000D03*
X48454000Y-159350000D03*
X73454000Y-155650000D03*
X67254000Y-155650000D03*
X67254000Y-159350000D03*
X73454000Y-159350000D03*
X98454000Y-155650000D03*
X92254000Y-155650000D03*
X92254000Y-159350000D03*
X98454000Y-159350000D03*
D26*
X41820000Y-21030000D03*
X41820000Y-18490000D03*
X41820000Y-15950000D03*
X41820000Y-13410000D03*
X41820000Y-10870000D03*
X41820000Y-8330000D03*
X39280000Y-22300000D03*
X36740000Y-22300000D03*
X34200000Y-22300000D03*
X31660000Y-22300000D03*
X29120000Y-22300000D03*
X26580000Y-22300000D03*
X24040000Y-22300000D03*
X21500000Y-22300000D03*
X18960000Y-22300000D03*
X16420000Y-22300000D03*
X13880000Y-22300000D03*
X11340000Y-22300000D03*
X39280000Y-7060000D03*
X36740000Y-7060000D03*
X34200000Y-7060000D03*
X31660000Y-7060000D03*
X29120000Y-7060000D03*
X26580000Y-7060000D03*
X24040000Y-7060000D03*
X21500000Y-7060000D03*
X18960000Y-7060000D03*
X16420000Y-7060000D03*
X13880000Y-7060000D03*
X11340000Y-7060000D03*
D27*
X30517000Y-9981000D03*
X27977000Y-9981000D03*
X20103000Y-9981000D03*
X17563000Y-9981000D03*
D24*
X89460380Y-33000000D03*
X93539620Y-33000000D03*
D28*
X3500000Y-30000640D03*
X3500000Y-34999360D03*
X96500000Y-34999360D03*
X96500000Y-30000640D03*
D29*
X5801080Y-14940000D03*
X5801080Y-9860000D03*
D30*
X8297900Y-12400000D03*
M02*
