G04 #@! TF.FileFunction,Paste,Top*
%FSLAX46Y46*%
G04 Gerber Fmt 4.6, Leading zero omitted, Abs format (unit mm)*
G04 Created by KiCad (PCBNEW 4.0.4-stable) date 07/22/17 12:12:15*
%MOMM*%
%LPD*%
G01*
G04 APERTURE LIST*
%ADD10C,2.000000*%
%ADD11R,1.600000X1.000000*%
%ADD12R,0.889000X0.889000*%
%ADD13C,1.320800*%
%ADD14R,1.651000X1.000000*%
%ADD15R,1.767840X1.798320*%
%ADD16R,1.798320X1.767840*%
%ADD17R,1.800000X1.100000*%
%ADD18C,1.270000*%
%ADD19C,1.348740*%
%ADD20R,1.348740X1.348740*%
G04 APERTURE END LIST*
D10*
D11*
X9700000Y-60800000D03*
X9700000Y-64000000D03*
X14700000Y-64000000D03*
X14700000Y-60800000D03*
X34700000Y-60800000D03*
X34700000Y-64000000D03*
X39700000Y-64000000D03*
X39700000Y-60800000D03*
D12*
X81788000Y-4572000D03*
X81788000Y-6096000D03*
D13*
X50000000Y-57587000D03*
X50000000Y-62413000D03*
D14*
X9900000Y-38400000D03*
X15054000Y-38400000D03*
X15054000Y-41600000D03*
X9900000Y-41600000D03*
X34923000Y-38400000D03*
X40077000Y-38400000D03*
X40077000Y-41600000D03*
X34923000Y-41600000D03*
X59923000Y-38400000D03*
X65077000Y-38400000D03*
X65077000Y-41600000D03*
X59923000Y-41600000D03*
X84900000Y-38400000D03*
X90054000Y-38400000D03*
X90054000Y-41600000D03*
X84900000Y-41600000D03*
X9900000Y-45900000D03*
X15054000Y-45900000D03*
X15054000Y-49100000D03*
X9900000Y-49100000D03*
X34900000Y-45900000D03*
X40054000Y-45900000D03*
X40054000Y-49100000D03*
X34900000Y-49100000D03*
X59923000Y-45900000D03*
X65077000Y-45900000D03*
X65077000Y-49100000D03*
X59923000Y-49100000D03*
X84923000Y-45900000D03*
X90077000Y-45900000D03*
X90077000Y-49100000D03*
X84923000Y-49100000D03*
X9923000Y-155900000D03*
X15077000Y-155900000D03*
X15077000Y-159100000D03*
X9923000Y-159100000D03*
X34900000Y-155900000D03*
X40054000Y-155900000D03*
X40054000Y-159100000D03*
X34900000Y-159100000D03*
X59900000Y-155900000D03*
X65054000Y-155900000D03*
X65054000Y-159100000D03*
X59900000Y-159100000D03*
X84900000Y-155900000D03*
X90054000Y-155900000D03*
X90054000Y-159100000D03*
X84900000Y-159100000D03*
D11*
X59700000Y-60800000D03*
X59700000Y-64000000D03*
X64700000Y-64000000D03*
X64700000Y-60800000D03*
X84700000Y-60800000D03*
X84700000Y-64000000D03*
X89700000Y-64000000D03*
X89700000Y-60800000D03*
X9700000Y-85800000D03*
X9700000Y-89000000D03*
X14700000Y-89000000D03*
X14700000Y-85800000D03*
X34700000Y-85800000D03*
X34700000Y-89000000D03*
X39700000Y-89000000D03*
X39700000Y-85800000D03*
X59700000Y-85800000D03*
X59700000Y-89000000D03*
X64700000Y-89000000D03*
X64700000Y-85800000D03*
X84700000Y-85800000D03*
X84700000Y-89000000D03*
X89700000Y-89000000D03*
X89700000Y-85800000D03*
X9700000Y-110800000D03*
X9700000Y-114000000D03*
X14700000Y-114000000D03*
X14700000Y-110800000D03*
X34677000Y-110800000D03*
X34677000Y-114000000D03*
X39677000Y-114000000D03*
X39677000Y-110800000D03*
X59700000Y-110800000D03*
X59700000Y-114000000D03*
X64700000Y-114000000D03*
X64700000Y-110800000D03*
X84700000Y-110800000D03*
X84700000Y-114000000D03*
X89700000Y-114000000D03*
X89700000Y-110800000D03*
X9700000Y-135800000D03*
X9700000Y-139000000D03*
X14700000Y-139000000D03*
X14700000Y-135800000D03*
X34700000Y-135800000D03*
X34700000Y-139000000D03*
X39700000Y-139000000D03*
X39700000Y-135800000D03*
X59700000Y-135800000D03*
X59700000Y-139000000D03*
X64700000Y-139000000D03*
X64700000Y-135800000D03*
X84700000Y-135800000D03*
X84700000Y-139000000D03*
X89700000Y-139000000D03*
X89700000Y-135800000D03*
D15*
X7500000Y-37960380D03*
X7500000Y-42039620D03*
X32155000Y-42229620D03*
X32155000Y-38150380D03*
X57955000Y-42229620D03*
X57955000Y-38150380D03*
X81800000Y-42000020D03*
X81800000Y-37920780D03*
D16*
X81526380Y-35052000D03*
X85605620Y-35052000D03*
D15*
X5595000Y-48519620D03*
X5595000Y-44440380D03*
X30250000Y-48459620D03*
X30250000Y-44380380D03*
X56050000Y-48459620D03*
X56050000Y-44380380D03*
X79895000Y-48459620D03*
X79895000Y-44380380D03*
D16*
X17645380Y-153035000D03*
X21724620Y-153035000D03*
X39235380Y-153035000D03*
X43314620Y-153035000D03*
X64635380Y-153035000D03*
X68714620Y-153035000D03*
X93937380Y-153035000D03*
X98016620Y-153035000D03*
D17*
X23454000Y-38150000D03*
X17254000Y-38150000D03*
X17254000Y-41850000D03*
X23454000Y-41850000D03*
X48454000Y-38150000D03*
X42254000Y-38150000D03*
X42254000Y-41850000D03*
X48454000Y-41850000D03*
X73454000Y-38150000D03*
X67254000Y-38150000D03*
X67254000Y-41850000D03*
X73454000Y-41850000D03*
X98454000Y-38150000D03*
X92254000Y-38150000D03*
X92254000Y-41850000D03*
X98454000Y-41850000D03*
X23454000Y-45650000D03*
X17254000Y-45650000D03*
X17254000Y-49350000D03*
X23454000Y-49350000D03*
X48454000Y-45650000D03*
X42254000Y-45650000D03*
X42254000Y-49350000D03*
X48454000Y-49350000D03*
X73454000Y-45650000D03*
X67254000Y-45650000D03*
X67254000Y-49350000D03*
X73454000Y-49350000D03*
X98431000Y-45650000D03*
X92231000Y-45650000D03*
X92231000Y-49350000D03*
X98431000Y-49350000D03*
X23454000Y-155650000D03*
X17254000Y-155650000D03*
X17254000Y-159350000D03*
X23454000Y-159350000D03*
X48454000Y-155650000D03*
X42254000Y-155650000D03*
X42254000Y-159350000D03*
X48454000Y-159350000D03*
X73454000Y-155650000D03*
X67254000Y-155650000D03*
X67254000Y-159350000D03*
X73454000Y-159350000D03*
X98454000Y-155650000D03*
X92254000Y-155650000D03*
X92254000Y-159350000D03*
X98454000Y-159350000D03*
D16*
X89460380Y-33000000D03*
X93539620Y-33000000D03*
D18*
X3500000Y-30000640D03*
X3500000Y-34999360D03*
X96500000Y-34999360D03*
X96500000Y-30000640D03*
D19*
X5801080Y-14940000D03*
X5801080Y-9860000D03*
D20*
X8297900Y-12400000D03*
M02*
