G04 #@! TF.FileFunction,Copper,L2,Bot,Signal*
%FSLAX46Y46*%
G04 Gerber Fmt 4.6, Leading zero omitted, Abs format (unit mm)*
G04 Created by KiCad (PCBNEW 4.0.4-stable) date 07/22/17 12:12:15*
%MOMM*%
%LPD*%
G01*
G04 APERTURE LIST*
%ADD10C,2.000000*%
%ADD11C,1.016000*%
%ADD12C,3.000000*%
%ADD13R,3.000000X1.000000*%
%ADD14R,1.879600X1.879600*%
%ADD15C,1.879600*%
%ADD16C,1.800000*%
%ADD17C,3.116000*%
%ADD18C,1.778000*%
%ADD19R,0.650000X1.060000*%
%ADD20C,0.497840*%
%ADD21R,0.889000X1.270000*%
%ADD22R,2.247900X1.597660*%
%ADD23R,2.247900X1.498600*%
%ADD24R,0.635000X1.270000*%
%ADD25R,1.143000X1.016000*%
%ADD26R,1.016000X1.143000*%
%ADD27R,0.889000X0.889000*%
%ADD28R,1.651000X1.016000*%
%ADD29R,6.197600X5.298440*%
%ADD30C,1.320800*%
%ADD31C,4.114800*%
%ADD32R,0.698500X1.597660*%
%ADD33R,1.399540X1.597660*%
%ADD34R,1.399540X2.199640*%
%ADD35R,1.798320X1.399540*%
%ADD36R,1.270000X0.635000*%
%ADD37R,1.300000X1.400000*%
%ADD38R,1.000000X3.000000*%
%ADD39R,1.798320X1.767840*%
%ADD40R,1.270000X1.270000*%
%ADD41R,1.100000X1.800000*%
%ADD42R,1.200000X0.400000*%
%ADD43C,1.524000*%
%ADD44C,1.500000*%
%ADD45R,1.767840X1.798320*%
%ADD46C,1.270000*%
%ADD47C,1.348740*%
%ADD48R,1.348740X1.348740*%
%ADD49C,0.600000*%
%ADD50C,0.250000*%
G04 APERTURE END LIST*
D10*
D11*
X12800000Y-58010000D03*
X14570000Y-55390000D03*
D12*
X2500000Y-52500000D03*
D13*
X1905000Y-77470000D03*
X7445000Y-77470000D03*
X1905000Y-74930000D03*
X7445000Y-74930000D03*
X1905000Y-72390000D03*
X7445000Y-72390000D03*
X1905000Y-69850000D03*
X7445000Y-69850000D03*
X1905000Y-67310000D03*
X7445000Y-67310000D03*
D11*
X35400000Y-66650000D03*
X33050000Y-68750000D03*
D12*
X37500000Y-75000000D03*
D14*
X8000000Y-2500000D03*
D15*
X10540000Y-2500000D03*
X13080000Y-2500000D03*
X15620000Y-2500000D03*
X18160000Y-2500000D03*
X20700000Y-2500000D03*
X23240000Y-2500000D03*
X25780000Y-2500000D03*
X28320000Y-2500000D03*
X30860000Y-2500000D03*
X33400000Y-2500000D03*
X35940000Y-2500000D03*
X38480000Y-2500000D03*
X41020000Y-2500000D03*
X43560000Y-2500000D03*
X46100000Y-2500000D03*
D16*
X89495000Y-15360000D03*
X86995000Y-15360000D03*
X84495000Y-15360000D03*
D17*
X92545000Y-22860000D03*
X81445000Y-22860000D03*
D18*
X84495000Y-29860000D03*
X89495000Y-29860000D03*
D19*
X4450000Y-19600000D03*
X3500000Y-19600000D03*
X2550000Y-19600000D03*
X2550000Y-17400000D03*
X4450000Y-17400000D03*
D20*
X7962280Y-23500000D03*
X7037720Y-23500000D03*
X8962280Y-20500000D03*
X8037720Y-20500000D03*
X50462280Y-47500000D03*
X49537720Y-47500000D03*
X50462280Y-134000000D03*
X49537720Y-134000000D03*
X50462280Y-112500000D03*
X49537720Y-112500000D03*
X87630000Y-33482280D03*
X87630000Y-32557720D03*
X35780020Y-77280000D03*
X36704580Y-77280000D03*
X35817720Y-78780000D03*
X36742280Y-78780000D03*
X38970000Y-73496280D03*
X38970000Y-72571720D03*
D21*
X2611000Y-7000000D03*
X4389000Y-7000000D03*
D22*
X94246220Y-2796500D03*
X94246220Y-5996900D03*
X94246220Y-8696920D03*
X87499980Y-9095700D03*
D23*
X87499980Y-1795740D03*
D22*
X87499980Y-4096980D03*
X87499980Y-6797000D03*
X94246220Y-10896560D03*
X84830820Y-2796500D03*
X84830820Y-5996900D03*
X84830820Y-8696920D03*
X78084580Y-9095700D03*
D23*
X78084580Y-1795740D03*
D22*
X78084580Y-4096980D03*
X78084580Y-6797000D03*
X84830820Y-10896560D03*
D24*
X57970000Y-15240000D03*
X58870000Y-15240000D03*
D22*
X66000020Y-2796500D03*
X66000020Y-5996900D03*
X66000020Y-8696920D03*
X59253780Y-9095700D03*
D23*
X59253780Y-1795740D03*
D22*
X59253780Y-4096980D03*
X59253780Y-6797000D03*
X66000020Y-10896560D03*
X75415420Y-2796500D03*
X75415420Y-5996900D03*
X75415420Y-8696920D03*
X68669180Y-9095700D03*
D23*
X68669180Y-1795740D03*
D22*
X68669180Y-4096980D03*
X68669180Y-6797000D03*
X75415420Y-10896560D03*
D25*
X36494000Y-103737000D03*
X36494000Y-101959000D03*
X38526000Y-102848000D03*
D26*
X18034000Y-79375000D03*
X16256000Y-79375000D03*
X17145000Y-77343000D03*
D25*
X93468000Y-104919000D03*
X93468000Y-103141000D03*
X95500000Y-104030000D03*
X76032000Y-129771000D03*
X76032000Y-131549000D03*
X74000000Y-130660000D03*
X49532000Y-142961000D03*
X49532000Y-144739000D03*
X47500000Y-143850000D03*
X75532000Y-104651000D03*
X75532000Y-106429000D03*
X73500000Y-105540000D03*
D20*
X3173720Y-23274000D03*
X4098280Y-23274000D03*
D27*
X81026000Y-15748000D03*
X81026000Y-14224000D03*
X95330000Y-18028000D03*
X95330000Y-19552000D03*
X90170000Y-72644000D03*
X91694000Y-72644000D03*
X76738000Y-25000000D03*
X78262000Y-25000000D03*
X34280000Y-77268000D03*
X34280000Y-78792000D03*
X40908000Y-103554000D03*
X42432000Y-103554000D03*
X34208000Y-103610000D03*
X34208000Y-102086000D03*
X16500000Y-75057000D03*
X16500000Y-73533000D03*
X17907000Y-83185000D03*
X16383000Y-83185000D03*
X94838000Y-107300000D03*
X96362000Y-107300000D03*
X91690000Y-104792000D03*
X91690000Y-103268000D03*
X73262000Y-128755000D03*
X71738000Y-128755000D03*
X77810000Y-129898000D03*
X77810000Y-131422000D03*
X46762000Y-141945000D03*
X45238000Y-141945000D03*
X51310000Y-143088000D03*
X51310000Y-144612000D03*
X72762000Y-103635000D03*
X71238000Y-103635000D03*
X77310000Y-104778000D03*
X77310000Y-106302000D03*
X46000000Y-12262000D03*
X46000000Y-10738000D03*
D28*
X64674600Y-22786000D03*
D29*
X71999960Y-20500000D03*
D28*
X64674600Y-18214000D03*
D30*
X50000000Y-57587000D03*
X50000000Y-62413000D03*
D31*
X52025400Y-13670800D03*
X52050800Y-6350000D03*
X55787000Y-10493000D03*
D32*
X60453600Y-149850000D03*
X61553420Y-149850000D03*
X62653240Y-149850000D03*
X63750520Y-149850000D03*
X64850340Y-149850000D03*
X65950160Y-149850000D03*
X67049980Y-149850000D03*
X68149800Y-149850000D03*
X69249620Y-149850000D03*
D33*
X70550100Y-150449440D03*
D34*
X70550100Y-159949040D03*
X54852900Y-159949040D03*
D35*
X55752060Y-150347840D03*
D36*
X2540000Y-84640000D03*
X2540000Y-85540000D03*
D27*
X94488000Y-69500000D03*
X96012000Y-69500000D03*
D37*
X90712000Y-67318000D03*
X93252000Y-67318000D03*
X95792000Y-67318000D03*
X98332000Y-67318000D03*
X90782000Y-57778000D03*
X93322000Y-57778000D03*
X95862000Y-57778000D03*
X98402000Y-57778000D03*
D11*
X60400000Y-66650000D03*
X58050000Y-68750000D03*
X85400000Y-66650000D03*
X83050000Y-68750000D03*
X10400000Y-91650000D03*
X8050000Y-93750000D03*
X35400000Y-91650000D03*
X33050000Y-93750000D03*
X60400000Y-91650000D03*
X58050000Y-93750000D03*
X85400000Y-91650000D03*
X83050000Y-93750000D03*
X10400000Y-116650000D03*
X8050000Y-118750000D03*
X35377000Y-116650000D03*
X33027000Y-118750000D03*
X60400000Y-116650000D03*
X58050000Y-118750000D03*
X85400000Y-116650000D03*
X83050000Y-118750000D03*
X10400000Y-141650000D03*
X8050000Y-143750000D03*
X35400000Y-141650000D03*
X33050000Y-143750000D03*
X60400000Y-141650000D03*
X58050000Y-143750000D03*
X85400000Y-141650000D03*
X83050000Y-143750000D03*
D38*
X98000000Y-18480000D03*
X98000000Y-24020000D03*
X81520000Y-33960000D03*
X81520000Y-28420000D03*
X78980000Y-33960000D03*
X78980000Y-28420000D03*
X76440000Y-33960000D03*
X76440000Y-28420000D03*
D13*
X79500000Y-139840000D03*
X79500000Y-144920000D03*
X79500000Y-150000000D03*
X79500000Y-155080000D03*
X79500000Y-160160000D03*
X76500000Y-142380000D03*
X76500000Y-147460000D03*
X76500000Y-152540000D03*
X76500000Y-157620000D03*
X76500000Y-162700000D03*
D38*
X78000000Y-21270000D03*
X78000000Y-15730000D03*
X22850000Y-105500000D03*
X17770000Y-105500000D03*
X12690000Y-105500000D03*
X20310000Y-102500000D03*
X15230000Y-102500000D03*
X10150000Y-102500000D03*
D39*
X51460380Y-18950000D03*
X55539620Y-18950000D03*
X93479620Y-52578000D03*
X89400380Y-52578000D03*
X18960380Y-71500000D03*
X23039620Y-71500000D03*
X26960380Y-71500000D03*
X31039620Y-71500000D03*
X68937380Y-71500000D03*
X73016620Y-71500000D03*
X76960380Y-71500000D03*
X81039620Y-71500000D03*
X2170780Y-97500000D03*
X6250020Y-97500000D03*
X27937380Y-97500000D03*
X32016620Y-97500000D03*
X68937380Y-97500000D03*
X73016620Y-97500000D03*
X93937380Y-97500000D03*
X98016620Y-97500000D03*
X2170780Y-122500000D03*
X6250020Y-122500000D03*
X27937380Y-122500000D03*
X32016620Y-122500000D03*
X68937380Y-122500000D03*
X73016620Y-122500000D03*
X93937380Y-122500000D03*
X98016620Y-122500000D03*
X5960380Y-147500000D03*
X10039620Y-147500000D03*
X27937380Y-147500000D03*
X32016620Y-147500000D03*
X68937380Y-147500000D03*
X73016620Y-147500000D03*
X89210380Y-147750000D03*
X93289620Y-147750000D03*
D40*
X60500000Y-18230000D03*
X60500000Y-20770000D03*
D24*
X61145000Y-15240000D03*
X62045000Y-15240000D03*
X64991400Y-15240000D03*
X64091400Y-15240000D03*
D41*
X85150000Y-25850300D03*
X85150000Y-19650300D03*
X88850000Y-19650300D03*
X88850000Y-25850300D03*
D10*
G36*
X60535891Y-35838478D02*
X60323759Y-36050610D01*
X59263099Y-34989950D01*
X59475231Y-34777818D01*
X60535891Y-35838478D01*
X60535891Y-35838478D01*
G37*
G36*
X60182338Y-36192031D02*
X59970206Y-36404163D01*
X58909546Y-35343503D01*
X59121678Y-35131371D01*
X60182338Y-36192031D01*
X60182338Y-36192031D01*
G37*
G36*
X59828784Y-36545584D02*
X59616652Y-36757716D01*
X58555992Y-35697056D01*
X58768124Y-35484924D01*
X59828784Y-36545584D01*
X59828784Y-36545584D01*
G37*
G36*
X59475231Y-36899138D02*
X59263099Y-37111270D01*
X58202439Y-36050610D01*
X58414571Y-35838478D01*
X59475231Y-36899138D01*
X59475231Y-36899138D01*
G37*
G36*
X59121677Y-37252691D02*
X58909545Y-37464823D01*
X57848885Y-36404163D01*
X58061017Y-36192031D01*
X59121677Y-37252691D01*
X59121677Y-37252691D01*
G37*
G36*
X58768124Y-37606245D02*
X58555992Y-37818377D01*
X57495332Y-36757717D01*
X57707464Y-36545585D01*
X58768124Y-37606245D01*
X58768124Y-37606245D01*
G37*
G36*
X58414571Y-37959798D02*
X58202439Y-38171930D01*
X57141779Y-37111270D01*
X57353911Y-36899138D01*
X58414571Y-37959798D01*
X58414571Y-37959798D01*
G37*
G36*
X58061017Y-38313351D02*
X57848885Y-38525483D01*
X56788225Y-37464823D01*
X57000357Y-37252691D01*
X58061017Y-38313351D01*
X58061017Y-38313351D01*
G37*
G36*
X57707464Y-38666905D02*
X57495332Y-38879037D01*
X56434672Y-37818377D01*
X56646804Y-37606245D01*
X57707464Y-38666905D01*
X57707464Y-38666905D01*
G37*
G36*
X57353910Y-39020458D02*
X57141778Y-39232590D01*
X56081118Y-38171930D01*
X56293250Y-37959798D01*
X57353910Y-39020458D01*
X57353910Y-39020458D01*
G37*
G36*
X57000357Y-39374011D02*
X56788225Y-39586143D01*
X55727565Y-38525483D01*
X55939697Y-38313351D01*
X57000357Y-39374011D01*
X57000357Y-39374011D01*
G37*
G36*
X56646804Y-39727565D02*
X56434672Y-39939697D01*
X55374012Y-38879037D01*
X55586144Y-38666905D01*
X56646804Y-39727565D01*
X56646804Y-39727565D01*
G37*
G36*
X56293250Y-40081118D02*
X56081118Y-40293250D01*
X55020458Y-39232590D01*
X55232590Y-39020458D01*
X56293250Y-40081118D01*
X56293250Y-40081118D01*
G37*
G36*
X55939697Y-40434672D02*
X55727565Y-40646804D01*
X54666905Y-39586144D01*
X54879037Y-39374012D01*
X55939697Y-40434672D01*
X55939697Y-40434672D01*
G37*
G36*
X55586143Y-40788225D02*
X55374011Y-41000357D01*
X54313351Y-39939697D01*
X54525483Y-39727565D01*
X55586143Y-40788225D01*
X55586143Y-40788225D01*
G37*
G36*
X55232590Y-41141778D02*
X55020458Y-41353910D01*
X53959798Y-40293250D01*
X54171930Y-40081118D01*
X55232590Y-41141778D01*
X55232590Y-41141778D01*
G37*
G36*
X54879037Y-41495332D02*
X54666905Y-41707464D01*
X53606245Y-40646804D01*
X53818377Y-40434672D01*
X54879037Y-41495332D01*
X54879037Y-41495332D01*
G37*
G36*
X54525483Y-41848885D02*
X54313351Y-42061017D01*
X53252691Y-41000357D01*
X53464823Y-40788225D01*
X54525483Y-41848885D01*
X54525483Y-41848885D01*
G37*
G36*
X54171930Y-42202439D02*
X53959798Y-42414571D01*
X52899138Y-41353911D01*
X53111270Y-41141779D01*
X54171930Y-42202439D01*
X54171930Y-42202439D01*
G37*
G36*
X53818377Y-42555992D02*
X53606245Y-42768124D01*
X52545585Y-41707464D01*
X52757717Y-41495332D01*
X53818377Y-42555992D01*
X53818377Y-42555992D01*
G37*
G36*
X53464823Y-42909545D02*
X53252691Y-43121677D01*
X52192031Y-42061017D01*
X52404163Y-41848885D01*
X53464823Y-42909545D01*
X53464823Y-42909545D01*
G37*
G36*
X53111270Y-43263099D02*
X52899138Y-43475231D01*
X51838478Y-42414571D01*
X52050610Y-42202439D01*
X53111270Y-43263099D01*
X53111270Y-43263099D01*
G37*
G36*
X52757716Y-43616652D02*
X52545584Y-43828784D01*
X51484924Y-42768124D01*
X51697056Y-42555992D01*
X52757716Y-43616652D01*
X52757716Y-43616652D01*
G37*
G36*
X52404163Y-43970206D02*
X52192031Y-44182338D01*
X51131371Y-43121678D01*
X51343503Y-42909546D01*
X52404163Y-43970206D01*
X52404163Y-43970206D01*
G37*
G36*
X52050610Y-44323759D02*
X51838478Y-44535891D01*
X50777818Y-43475231D01*
X50989950Y-43263099D01*
X52050610Y-44323759D01*
X52050610Y-44323759D01*
G37*
G36*
X49222182Y-43475231D02*
X48161522Y-44535891D01*
X47949390Y-44323759D01*
X49010050Y-43263099D01*
X49222182Y-43475231D01*
X49222182Y-43475231D01*
G37*
G36*
X48868629Y-43121678D02*
X47807969Y-44182338D01*
X47595837Y-43970206D01*
X48656497Y-42909546D01*
X48868629Y-43121678D01*
X48868629Y-43121678D01*
G37*
G36*
X48515076Y-42768124D02*
X47454416Y-43828784D01*
X47242284Y-43616652D01*
X48302944Y-42555992D01*
X48515076Y-42768124D01*
X48515076Y-42768124D01*
G37*
G36*
X48161522Y-42414571D02*
X47100862Y-43475231D01*
X46888730Y-43263099D01*
X47949390Y-42202439D01*
X48161522Y-42414571D01*
X48161522Y-42414571D01*
G37*
G36*
X47807969Y-42061017D02*
X46747309Y-43121677D01*
X46535177Y-42909545D01*
X47595837Y-41848885D01*
X47807969Y-42061017D01*
X47807969Y-42061017D01*
G37*
G36*
X47454415Y-41707464D02*
X46393755Y-42768124D01*
X46181623Y-42555992D01*
X47242283Y-41495332D01*
X47454415Y-41707464D01*
X47454415Y-41707464D01*
G37*
G36*
X47100862Y-41353911D02*
X46040202Y-42414571D01*
X45828070Y-42202439D01*
X46888730Y-41141779D01*
X47100862Y-41353911D01*
X47100862Y-41353911D01*
G37*
G36*
X46747309Y-41000357D02*
X45686649Y-42061017D01*
X45474517Y-41848885D01*
X46535177Y-40788225D01*
X46747309Y-41000357D01*
X46747309Y-41000357D01*
G37*
G36*
X46393755Y-40646804D02*
X45333095Y-41707464D01*
X45120963Y-41495332D01*
X46181623Y-40434672D01*
X46393755Y-40646804D01*
X46393755Y-40646804D01*
G37*
G36*
X46040202Y-40293250D02*
X44979542Y-41353910D01*
X44767410Y-41141778D01*
X45828070Y-40081118D01*
X46040202Y-40293250D01*
X46040202Y-40293250D01*
G37*
G36*
X45686649Y-39939697D02*
X44625989Y-41000357D01*
X44413857Y-40788225D01*
X45474517Y-39727565D01*
X45686649Y-39939697D01*
X45686649Y-39939697D01*
G37*
G36*
X45333095Y-39586144D02*
X44272435Y-40646804D01*
X44060303Y-40434672D01*
X45120963Y-39374012D01*
X45333095Y-39586144D01*
X45333095Y-39586144D01*
G37*
G36*
X44979542Y-39232590D02*
X43918882Y-40293250D01*
X43706750Y-40081118D01*
X44767410Y-39020458D01*
X44979542Y-39232590D01*
X44979542Y-39232590D01*
G37*
G36*
X44625988Y-38879037D02*
X43565328Y-39939697D01*
X43353196Y-39727565D01*
X44413856Y-38666905D01*
X44625988Y-38879037D01*
X44625988Y-38879037D01*
G37*
G36*
X44272435Y-38525483D02*
X43211775Y-39586143D01*
X42999643Y-39374011D01*
X44060303Y-38313351D01*
X44272435Y-38525483D01*
X44272435Y-38525483D01*
G37*
G36*
X43918882Y-38171930D02*
X42858222Y-39232590D01*
X42646090Y-39020458D01*
X43706750Y-37959798D01*
X43918882Y-38171930D01*
X43918882Y-38171930D01*
G37*
G36*
X43565328Y-37818377D02*
X42504668Y-38879037D01*
X42292536Y-38666905D01*
X43353196Y-37606245D01*
X43565328Y-37818377D01*
X43565328Y-37818377D01*
G37*
G36*
X43211775Y-37464823D02*
X42151115Y-38525483D01*
X41938983Y-38313351D01*
X42999643Y-37252691D01*
X43211775Y-37464823D01*
X43211775Y-37464823D01*
G37*
G36*
X42858221Y-37111270D02*
X41797561Y-38171930D01*
X41585429Y-37959798D01*
X42646089Y-36899138D01*
X42858221Y-37111270D01*
X42858221Y-37111270D01*
G37*
G36*
X42504668Y-36757717D02*
X41444008Y-37818377D01*
X41231876Y-37606245D01*
X42292536Y-36545585D01*
X42504668Y-36757717D01*
X42504668Y-36757717D01*
G37*
G36*
X42151115Y-36404163D02*
X41090455Y-37464823D01*
X40878323Y-37252691D01*
X41938983Y-36192031D01*
X42151115Y-36404163D01*
X42151115Y-36404163D01*
G37*
G36*
X41797561Y-36050610D02*
X40736901Y-37111270D01*
X40524769Y-36899138D01*
X41585429Y-35838478D01*
X41797561Y-36050610D01*
X41797561Y-36050610D01*
G37*
G36*
X41444008Y-35697056D02*
X40383348Y-36757716D01*
X40171216Y-36545584D01*
X41231876Y-35484924D01*
X41444008Y-35697056D01*
X41444008Y-35697056D01*
G37*
G36*
X41090454Y-35343503D02*
X40029794Y-36404163D01*
X39817662Y-36192031D01*
X40878322Y-35131371D01*
X41090454Y-35343503D01*
X41090454Y-35343503D01*
G37*
G36*
X40736901Y-34989950D02*
X39676241Y-36050610D01*
X39464109Y-35838478D01*
X40524769Y-34777818D01*
X40736901Y-34989950D01*
X40736901Y-34989950D01*
G37*
G36*
X40736901Y-33010050D02*
X40524769Y-33222182D01*
X39464109Y-32161522D01*
X39676241Y-31949390D01*
X40736901Y-33010050D01*
X40736901Y-33010050D01*
G37*
G36*
X41090454Y-32656497D02*
X40878322Y-32868629D01*
X39817662Y-31807969D01*
X40029794Y-31595837D01*
X41090454Y-32656497D01*
X41090454Y-32656497D01*
G37*
G36*
X41444008Y-32302944D02*
X41231876Y-32515076D01*
X40171216Y-31454416D01*
X40383348Y-31242284D01*
X41444008Y-32302944D01*
X41444008Y-32302944D01*
G37*
G36*
X41797561Y-31949390D02*
X41585429Y-32161522D01*
X40524769Y-31100862D01*
X40736901Y-30888730D01*
X41797561Y-31949390D01*
X41797561Y-31949390D01*
G37*
G36*
X42151115Y-31595837D02*
X41938983Y-31807969D01*
X40878323Y-30747309D01*
X41090455Y-30535177D01*
X42151115Y-31595837D01*
X42151115Y-31595837D01*
G37*
G36*
X42504668Y-31242283D02*
X42292536Y-31454415D01*
X41231876Y-30393755D01*
X41444008Y-30181623D01*
X42504668Y-31242283D01*
X42504668Y-31242283D01*
G37*
G36*
X42858221Y-30888730D02*
X42646089Y-31100862D01*
X41585429Y-30040202D01*
X41797561Y-29828070D01*
X42858221Y-30888730D01*
X42858221Y-30888730D01*
G37*
G36*
X43211775Y-30535177D02*
X42999643Y-30747309D01*
X41938983Y-29686649D01*
X42151115Y-29474517D01*
X43211775Y-30535177D01*
X43211775Y-30535177D01*
G37*
G36*
X43565328Y-30181623D02*
X43353196Y-30393755D01*
X42292536Y-29333095D01*
X42504668Y-29120963D01*
X43565328Y-30181623D01*
X43565328Y-30181623D01*
G37*
G36*
X43918882Y-29828070D02*
X43706750Y-30040202D01*
X42646090Y-28979542D01*
X42858222Y-28767410D01*
X43918882Y-29828070D01*
X43918882Y-29828070D01*
G37*
G36*
X44272435Y-29474517D02*
X44060303Y-29686649D01*
X42999643Y-28625989D01*
X43211775Y-28413857D01*
X44272435Y-29474517D01*
X44272435Y-29474517D01*
G37*
G36*
X44625988Y-29120963D02*
X44413856Y-29333095D01*
X43353196Y-28272435D01*
X43565328Y-28060303D01*
X44625988Y-29120963D01*
X44625988Y-29120963D01*
G37*
G36*
X44979542Y-28767410D02*
X44767410Y-28979542D01*
X43706750Y-27918882D01*
X43918882Y-27706750D01*
X44979542Y-28767410D01*
X44979542Y-28767410D01*
G37*
G36*
X45333095Y-28413856D02*
X45120963Y-28625988D01*
X44060303Y-27565328D01*
X44272435Y-27353196D01*
X45333095Y-28413856D01*
X45333095Y-28413856D01*
G37*
G36*
X45686649Y-28060303D02*
X45474517Y-28272435D01*
X44413857Y-27211775D01*
X44625989Y-26999643D01*
X45686649Y-28060303D01*
X45686649Y-28060303D01*
G37*
G36*
X46040202Y-27706750D02*
X45828070Y-27918882D01*
X44767410Y-26858222D01*
X44979542Y-26646090D01*
X46040202Y-27706750D01*
X46040202Y-27706750D01*
G37*
G36*
X46393755Y-27353196D02*
X46181623Y-27565328D01*
X45120963Y-26504668D01*
X45333095Y-26292536D01*
X46393755Y-27353196D01*
X46393755Y-27353196D01*
G37*
G36*
X46747309Y-26999643D02*
X46535177Y-27211775D01*
X45474517Y-26151115D01*
X45686649Y-25938983D01*
X46747309Y-26999643D01*
X46747309Y-26999643D01*
G37*
G36*
X47100862Y-26646089D02*
X46888730Y-26858221D01*
X45828070Y-25797561D01*
X46040202Y-25585429D01*
X47100862Y-26646089D01*
X47100862Y-26646089D01*
G37*
G36*
X47454415Y-26292536D02*
X47242283Y-26504668D01*
X46181623Y-25444008D01*
X46393755Y-25231876D01*
X47454415Y-26292536D01*
X47454415Y-26292536D01*
G37*
G36*
X47807969Y-25938983D02*
X47595837Y-26151115D01*
X46535177Y-25090455D01*
X46747309Y-24878323D01*
X47807969Y-25938983D01*
X47807969Y-25938983D01*
G37*
G36*
X48161522Y-25585429D02*
X47949390Y-25797561D01*
X46888730Y-24736901D01*
X47100862Y-24524769D01*
X48161522Y-25585429D01*
X48161522Y-25585429D01*
G37*
G36*
X48515076Y-25231876D02*
X48302944Y-25444008D01*
X47242284Y-24383348D01*
X47454416Y-24171216D01*
X48515076Y-25231876D01*
X48515076Y-25231876D01*
G37*
G36*
X48868629Y-24878322D02*
X48656497Y-25090454D01*
X47595837Y-24029794D01*
X47807969Y-23817662D01*
X48868629Y-24878322D01*
X48868629Y-24878322D01*
G37*
G36*
X49222182Y-24524769D02*
X49010050Y-24736901D01*
X47949390Y-23676241D01*
X48161522Y-23464109D01*
X49222182Y-24524769D01*
X49222182Y-24524769D01*
G37*
G36*
X52050610Y-23676241D02*
X50989950Y-24736901D01*
X50777818Y-24524769D01*
X51838478Y-23464109D01*
X52050610Y-23676241D01*
X52050610Y-23676241D01*
G37*
G36*
X52404163Y-24029794D02*
X51343503Y-25090454D01*
X51131371Y-24878322D01*
X52192031Y-23817662D01*
X52404163Y-24029794D01*
X52404163Y-24029794D01*
G37*
G36*
X52757716Y-24383348D02*
X51697056Y-25444008D01*
X51484924Y-25231876D01*
X52545584Y-24171216D01*
X52757716Y-24383348D01*
X52757716Y-24383348D01*
G37*
G36*
X53111270Y-24736901D02*
X52050610Y-25797561D01*
X51838478Y-25585429D01*
X52899138Y-24524769D01*
X53111270Y-24736901D01*
X53111270Y-24736901D01*
G37*
G36*
X53464823Y-25090455D02*
X52404163Y-26151115D01*
X52192031Y-25938983D01*
X53252691Y-24878323D01*
X53464823Y-25090455D01*
X53464823Y-25090455D01*
G37*
G36*
X53818377Y-25444008D02*
X52757717Y-26504668D01*
X52545585Y-26292536D01*
X53606245Y-25231876D01*
X53818377Y-25444008D01*
X53818377Y-25444008D01*
G37*
G36*
X54171930Y-25797561D02*
X53111270Y-26858221D01*
X52899138Y-26646089D01*
X53959798Y-25585429D01*
X54171930Y-25797561D01*
X54171930Y-25797561D01*
G37*
G36*
X54525483Y-26151115D02*
X53464823Y-27211775D01*
X53252691Y-26999643D01*
X54313351Y-25938983D01*
X54525483Y-26151115D01*
X54525483Y-26151115D01*
G37*
G36*
X54879037Y-26504668D02*
X53818377Y-27565328D01*
X53606245Y-27353196D01*
X54666905Y-26292536D01*
X54879037Y-26504668D01*
X54879037Y-26504668D01*
G37*
G36*
X55232590Y-26858222D02*
X54171930Y-27918882D01*
X53959798Y-27706750D01*
X55020458Y-26646090D01*
X55232590Y-26858222D01*
X55232590Y-26858222D01*
G37*
G36*
X55586143Y-27211775D02*
X54525483Y-28272435D01*
X54313351Y-28060303D01*
X55374011Y-26999643D01*
X55586143Y-27211775D01*
X55586143Y-27211775D01*
G37*
G36*
X55939697Y-27565328D02*
X54879037Y-28625988D01*
X54666905Y-28413856D01*
X55727565Y-27353196D01*
X55939697Y-27565328D01*
X55939697Y-27565328D01*
G37*
G36*
X56293250Y-27918882D02*
X55232590Y-28979542D01*
X55020458Y-28767410D01*
X56081118Y-27706750D01*
X56293250Y-27918882D01*
X56293250Y-27918882D01*
G37*
G36*
X56646804Y-28272435D02*
X55586144Y-29333095D01*
X55374012Y-29120963D01*
X56434672Y-28060303D01*
X56646804Y-28272435D01*
X56646804Y-28272435D01*
G37*
G36*
X57000357Y-28625989D02*
X55939697Y-29686649D01*
X55727565Y-29474517D01*
X56788225Y-28413857D01*
X57000357Y-28625989D01*
X57000357Y-28625989D01*
G37*
G36*
X57353910Y-28979542D02*
X56293250Y-30040202D01*
X56081118Y-29828070D01*
X57141778Y-28767410D01*
X57353910Y-28979542D01*
X57353910Y-28979542D01*
G37*
G36*
X57707464Y-29333095D02*
X56646804Y-30393755D01*
X56434672Y-30181623D01*
X57495332Y-29120963D01*
X57707464Y-29333095D01*
X57707464Y-29333095D01*
G37*
G36*
X58061017Y-29686649D02*
X57000357Y-30747309D01*
X56788225Y-30535177D01*
X57848885Y-29474517D01*
X58061017Y-29686649D01*
X58061017Y-29686649D01*
G37*
G36*
X58414571Y-30040202D02*
X57353911Y-31100862D01*
X57141779Y-30888730D01*
X58202439Y-29828070D01*
X58414571Y-30040202D01*
X58414571Y-30040202D01*
G37*
G36*
X58768124Y-30393755D02*
X57707464Y-31454415D01*
X57495332Y-31242283D01*
X58555992Y-30181623D01*
X58768124Y-30393755D01*
X58768124Y-30393755D01*
G37*
G36*
X59121677Y-30747309D02*
X58061017Y-31807969D01*
X57848885Y-31595837D01*
X58909545Y-30535177D01*
X59121677Y-30747309D01*
X59121677Y-30747309D01*
G37*
G36*
X59475231Y-31100862D02*
X58414571Y-32161522D01*
X58202439Y-31949390D01*
X59263099Y-30888730D01*
X59475231Y-31100862D01*
X59475231Y-31100862D01*
G37*
G36*
X59828784Y-31454416D02*
X58768124Y-32515076D01*
X58555992Y-32302944D01*
X59616652Y-31242284D01*
X59828784Y-31454416D01*
X59828784Y-31454416D01*
G37*
G36*
X60182338Y-31807969D02*
X59121678Y-32868629D01*
X58909546Y-32656497D01*
X59970206Y-31595837D01*
X60182338Y-31807969D01*
X60182338Y-31807969D01*
G37*
G36*
X60535891Y-32161522D02*
X59475231Y-33222182D01*
X59263099Y-33010050D01*
X60323759Y-31949390D01*
X60535891Y-32161522D01*
X60535891Y-32161522D01*
G37*
D42*
X22400000Y-57822500D03*
X22400000Y-57187500D03*
X22400000Y-56552500D03*
X22400000Y-55917500D03*
X22400000Y-55282500D03*
X22400000Y-54647500D03*
X22400000Y-54012500D03*
X22400000Y-53377500D03*
X27600000Y-53377500D03*
X27600000Y-54012500D03*
X27600000Y-54647500D03*
X27600000Y-55282500D03*
X27600000Y-55917500D03*
X27600000Y-56552500D03*
X27600000Y-57187500D03*
X27600000Y-57822500D03*
X77600000Y-53377500D03*
X77600000Y-54012500D03*
X77600000Y-54647500D03*
X77600000Y-55282500D03*
X77600000Y-55917500D03*
X77600000Y-56552500D03*
X77600000Y-57187500D03*
X77600000Y-57822500D03*
X72400000Y-57822500D03*
X72400000Y-57187500D03*
X72400000Y-56552500D03*
X72400000Y-55917500D03*
X72400000Y-55282500D03*
X72400000Y-54647500D03*
X72400000Y-54012500D03*
X72400000Y-53377500D03*
D38*
X26120000Y-28420000D03*
X26120000Y-33960000D03*
X28660000Y-28420000D03*
X28660000Y-33960000D03*
X31200000Y-28420000D03*
X31200000Y-33960000D03*
X33740000Y-28420000D03*
X33740000Y-33960000D03*
D27*
X42432000Y-101776000D03*
X40908000Y-101776000D03*
X6738000Y-18000000D03*
X8262000Y-18000000D03*
D43*
X41820000Y-21030000D03*
X41820000Y-18490000D03*
X41820000Y-15950000D03*
X41820000Y-13410000D03*
X41820000Y-10870000D03*
X41820000Y-8330000D03*
X39280000Y-22300000D03*
X36740000Y-22300000D03*
X34200000Y-22300000D03*
X31660000Y-22300000D03*
X29120000Y-22300000D03*
X26580000Y-22300000D03*
X24040000Y-22300000D03*
X21500000Y-22300000D03*
X18960000Y-22300000D03*
X16420000Y-22300000D03*
X13880000Y-22300000D03*
X11340000Y-22300000D03*
X39280000Y-7060000D03*
X36740000Y-7060000D03*
X34200000Y-7060000D03*
X31660000Y-7060000D03*
X29120000Y-7060000D03*
X26580000Y-7060000D03*
X24040000Y-7060000D03*
X21500000Y-7060000D03*
X18960000Y-7060000D03*
X16420000Y-7060000D03*
X13880000Y-7060000D03*
X11340000Y-7060000D03*
D44*
X30517000Y-9981000D03*
X27977000Y-9981000D03*
X20103000Y-9981000D03*
X17563000Y-9981000D03*
D38*
X23580000Y-33960000D03*
X23580000Y-28420000D03*
X21040000Y-33960000D03*
X21040000Y-28420000D03*
X18500000Y-33960000D03*
X18500000Y-28420000D03*
X15960000Y-33960000D03*
X15960000Y-28420000D03*
X73900000Y-33960000D03*
X73900000Y-28420000D03*
X71360000Y-33960000D03*
X71360000Y-28420000D03*
X68820000Y-33960000D03*
X68820000Y-28420000D03*
X66280000Y-33960000D03*
X66280000Y-28420000D03*
D20*
X71999980Y-94000000D03*
X71075420Y-94000000D03*
D45*
X31190000Y-89549620D03*
X31190000Y-85470380D03*
D46*
X3500000Y-30000640D03*
X3500000Y-34999360D03*
X96500000Y-34999360D03*
X96500000Y-30000640D03*
D27*
X91694000Y-69850000D03*
X90170000Y-69850000D03*
D47*
X5801080Y-14940000D03*
X5801080Y-9860000D03*
D48*
X8297900Y-12400000D03*
D24*
X73413200Y-15240000D03*
X74313200Y-15240000D03*
X67190200Y-15265400D03*
X68090200Y-15265400D03*
X70314400Y-15240000D03*
X71214400Y-15240000D03*
D13*
X52770000Y-71190000D03*
X47230000Y-71190000D03*
X52770000Y-73730000D03*
X47230000Y-73730000D03*
X52770000Y-76270000D03*
X47230000Y-76270000D03*
X52770000Y-78810000D03*
X47230000Y-78810000D03*
X47230000Y-128810000D03*
X52770000Y-128810000D03*
X47230000Y-126270000D03*
X52770000Y-126270000D03*
X47230000Y-123730000D03*
X52770000Y-123730000D03*
X47230000Y-121190000D03*
X52770000Y-121190000D03*
D49*
X37105400Y-91266400D03*
X84700000Y-134712700D03*
X11031900Y-135800000D03*
X35802300Y-109040200D03*
X11094200Y-110830500D03*
X79986100Y-8104500D03*
X33574700Y-61689000D03*
X56880500Y-36552200D03*
X61018300Y-110830500D03*
X61268800Y-45670300D03*
X79865400Y-57596600D03*
X86040400Y-61126800D03*
X59599800Y-134772700D03*
X33574700Y-138104600D03*
X79257200Y-49978700D03*
X85825300Y-109035900D03*
X60057300Y-33372500D03*
X52053500Y-149204300D03*
X35356900Y-47335500D03*
X30683500Y-57212000D03*
X96296400Y-25136000D03*
X62782900Y-90656900D03*
X61029100Y-61003800D03*
X83034500Y-25734300D03*
X34820300Y-84584600D03*
X35835000Y-43341400D03*
X87595200Y-87123200D03*
X11480900Y-63740700D03*
X11021100Y-85829800D03*
X47745200Y-145436700D03*
X63574700Y-90022000D03*
X41323500Y-42928600D03*
X63383600Y-139262300D03*
X39361600Y-65597300D03*
X95597300Y-16620700D03*
X8455800Y-19735600D03*
X63315300Y-113923200D03*
X65825300Y-61697900D03*
X65950200Y-148058200D03*
X88381100Y-114193600D03*
X38720400Y-159050400D03*
X51744000Y-114143100D03*
X40802300Y-113092300D03*
X15819600Y-112323200D03*
X45355000Y-17378500D03*
X79975400Y-148998800D03*
X90825300Y-63107700D03*
X40825300Y-138078100D03*
X13387200Y-139040300D03*
X51204300Y-133371900D03*
X13737700Y-62024300D03*
X86493700Y-137960800D03*
X63012300Y-151161500D03*
X54834100Y-92802600D03*
X38191200Y-88616500D03*
X64678700Y-158099400D03*
X14267800Y-90009900D03*
X86839500Y-52143700D03*
X37668300Y-83763500D03*
X40149400Y-50125500D03*
X66792900Y-39248800D03*
X66232100Y-55195900D03*
X86928700Y-88968900D03*
X87807700Y-88068700D03*
X19567000Y-159992400D03*
X16940000Y-51912900D03*
X7952000Y-22438000D03*
X48087700Y-140844100D03*
X74126100Y-106860100D03*
X75029400Y-128479500D03*
X6887900Y-17019900D03*
X50380400Y-38306900D03*
X47234900Y-56157000D03*
X45089000Y-42239800D03*
X49097200Y-48136300D03*
X48922300Y-52845000D03*
X60257100Y-30814000D03*
X58127100Y-33233300D03*
X52183500Y-33424200D03*
X48306000Y-66588100D03*
X79207500Y-104635000D03*
X81381200Y-146414000D03*
X74917000Y-160642100D03*
X72197300Y-149669600D03*
X78356100Y-50863100D03*
X31902500Y-43945400D03*
X10701100Y-40296500D03*
X53955800Y-31915500D03*
X43075600Y-32698600D03*
X37326200Y-32698600D03*
X34752600Y-32748700D03*
X59413800Y-44862800D03*
X78456800Y-50062700D03*
X20479400Y-84948400D03*
X30250000Y-51294000D03*
X60382900Y-44852800D03*
X54547500Y-29452500D03*
X62149000Y-48720000D03*
X50017400Y-54201000D03*
X19657900Y-65867000D03*
X72277000Y-30227200D03*
X71242700Y-53981600D03*
X70619800Y-69599300D03*
X55811300Y-42487800D03*
X53448500Y-30425600D03*
X73507100Y-55917500D03*
X71361000Y-96290800D03*
X77953200Y-121198900D03*
X79131300Y-53135200D03*
X74868100Y-43751200D03*
X64339300Y-26557700D03*
X75410900Y-56224900D03*
X74421100Y-26042600D03*
X73926900Y-143078400D03*
X76488000Y-54349500D03*
X75423000Y-27031300D03*
X39235400Y-154423600D03*
X63208400Y-153608100D03*
X22760500Y-36602800D03*
X27411900Y-40792100D03*
X30483600Y-40860100D03*
X25901900Y-38537500D03*
X45424400Y-35520300D03*
X44732800Y-36705100D03*
X39176100Y-35398600D03*
X41539500Y-35084000D03*
X56320900Y-56568900D03*
X48930100Y-72460000D03*
X50067800Y-138067000D03*
X63675900Y-40581400D03*
X76264200Y-25950900D03*
X73167400Y-75225100D03*
X75971500Y-109595500D03*
X75978900Y-39265100D03*
X74229000Y-128458900D03*
X69155500Y-78697200D03*
X39984500Y-73379200D03*
X33296200Y-45862000D03*
X45597900Y-100223600D03*
X38743500Y-38729200D03*
X66827500Y-17760800D03*
X66358300Y-15877000D03*
X53364800Y-23641200D03*
X45204700Y-128608300D03*
X40196600Y-128238400D03*
X30928600Y-24465400D03*
X58193100Y-18869400D03*
X72051000Y-15212400D03*
X40495400Y-24156200D03*
X44449700Y-35709800D03*
X45918300Y-118243500D03*
X37207100Y-38113700D03*
X45535600Y-117336700D03*
X37033900Y-37313300D03*
X46685400Y-119714500D03*
X38407400Y-36577900D03*
X50266700Y-32720000D03*
X49172600Y-117824700D03*
X60530500Y-76223500D03*
X70189700Y-100114500D03*
X47146800Y-27335400D03*
X60504300Y-12824900D03*
X22568700Y-28001000D03*
X22605600Y-18199200D03*
X47704900Y-18158900D03*
X47704800Y-26755100D03*
X62116100Y-25925400D03*
X56812300Y-31313100D03*
X49753600Y-39903300D03*
X30303300Y-14876700D03*
X23165900Y-92123500D03*
X49641400Y-30771500D03*
X54239900Y-30969200D03*
X56202800Y-40885200D03*
X42802500Y-21869800D03*
X43092100Y-27810100D03*
X18094300Y-26068100D03*
X18094300Y-23280700D03*
X75027100Y-24242900D03*
X72542100Y-77775100D03*
X76579800Y-23604600D03*
X77984400Y-74210200D03*
X21061300Y-83664000D03*
X20893500Y-93422000D03*
X12585200Y-78866700D03*
X4389500Y-70671000D03*
X20217000Y-92885500D03*
X4382400Y-67634000D03*
X59518400Y-148966500D03*
X75039600Y-107754700D03*
X78580700Y-119637500D03*
X89592500Y-70846300D03*
X44735200Y-117288500D03*
X29856900Y-39561900D03*
X95196800Y-91650000D03*
X95557000Y-111035200D03*
X88307100Y-71949500D03*
X49187300Y-59757300D03*
X57236900Y-51941100D03*
X95859600Y-159350000D03*
X13467800Y-145564500D03*
X24679300Y-46587300D03*
X17257300Y-50631000D03*
X26418500Y-55791300D03*
X22553300Y-91509700D03*
X44757000Y-55967000D03*
X46829600Y-90889300D03*
X48277400Y-115990400D03*
X43764300Y-142726300D03*
X50204200Y-42248100D03*
X60303900Y-70591800D03*
X55478800Y-92164300D03*
X56604500Y-143557100D03*
X50905900Y-115492000D03*
X67504000Y-42909800D03*
X54138200Y-81373600D03*
X38540400Y-47906700D03*
X9900000Y-43488500D03*
X32122400Y-54212300D03*
X50082200Y-55741300D03*
X86478700Y-38542700D03*
X61262500Y-41208900D03*
X18520100Y-44733900D03*
X52289700Y-46328700D03*
X58445900Y-44919900D03*
X84695000Y-40074900D03*
X40054000Y-47878400D03*
X11232700Y-48918100D03*
X64393700Y-46900300D03*
X61948600Y-46583300D03*
X49597600Y-53476900D03*
X36050800Y-51409500D03*
X89817600Y-43506000D03*
X62135700Y-47383700D03*
X13112400Y-66201200D03*
X79131300Y-70056700D03*
X36430500Y-65944200D03*
X12429500Y-64177300D03*
X63381200Y-60128400D03*
X57752900Y-54748200D03*
X50629200Y-60825100D03*
X33574700Y-62941800D03*
X85944000Y-61946500D03*
X62850400Y-63766900D03*
X15067800Y-87488500D03*
X86648900Y-66283800D03*
X39825300Y-87965600D03*
X11031700Y-88981200D03*
X62492800Y-86956600D03*
X36237700Y-87978100D03*
X88249700Y-85676900D03*
X61024900Y-88563300D03*
X14605300Y-115302300D03*
X52408400Y-116188000D03*
X68417700Y-93374600D03*
X83491200Y-88177900D03*
X35371100Y-112323200D03*
X11474900Y-114243700D03*
X60796000Y-114915700D03*
X35998700Y-114196400D03*
X88364200Y-110800000D03*
X61172600Y-113652700D03*
X14267800Y-134772500D03*
X52837300Y-129831300D03*
X71456100Y-114425400D03*
X83489300Y-113155100D03*
X38703500Y-137948300D03*
X11027000Y-139290800D03*
X62899200Y-134616500D03*
X36694400Y-137531500D03*
X86484600Y-136688700D03*
X61971000Y-138592900D03*
X85825300Y-134658200D03*
X28916400Y-138029200D03*
X63903200Y-156830900D03*
X36609100Y-157489600D03*
X89531000Y-154887900D03*
X85545700Y-157264500D03*
X55524300Y-37181600D03*
X30304700Y-38241100D03*
X34388300Y-31486500D03*
X48519500Y-26332400D03*
X58606300Y-14094800D03*
X16429600Y-39224400D03*
X9824300Y-40032800D03*
X42254000Y-39416000D03*
X32155000Y-39554000D03*
X17254000Y-46708700D03*
X7001400Y-44243200D03*
X39750300Y-42896300D03*
X33751100Y-43369000D03*
X65970500Y-43857400D03*
X57837400Y-44344600D03*
X91412300Y-46730200D03*
X82311900Y-45588100D03*
X70387400Y-146530400D03*
X65317700Y-146530400D03*
X57599900Y-1727000D03*
X32633600Y-4167800D03*
X69761300Y-17322200D03*
X54863400Y-37794900D03*
X55383300Y-24346200D03*
X62167700Y-12789400D03*
X84637100Y-12201200D03*
X43866100Y-36838100D03*
X38078100Y-35085900D03*
X17021300Y-35115700D03*
X50918700Y-36102200D03*
X98620200Y-36759300D03*
X52517900Y-45003200D03*
X66620900Y-18993000D03*
X51791600Y-77276200D03*
X53822200Y-60448400D03*
X51911900Y-41382200D03*
X65560600Y-16527700D03*
X21164900Y-55734700D03*
X25787600Y-53407500D03*
X26486700Y-53840400D03*
X26498100Y-54773700D03*
X91148700Y-35703600D03*
X25287900Y-52656200D03*
X50579900Y-59129600D03*
X58195000Y-53123600D03*
X25941000Y-52139400D03*
X50646000Y-55012900D03*
X58086700Y-50798000D03*
X91780800Y-32785000D03*
X20789400Y-76999900D03*
X39446700Y-15724700D03*
X33412800Y-95817600D03*
X43712600Y-12015600D03*
X47937000Y-34859400D03*
X46843600Y-34971500D03*
X21278300Y-76354400D03*
X13912800Y-102702200D03*
X7542400Y-15397000D03*
D50*
X90712000Y-67318000D02*
X89736700Y-67318000D01*
X42432000Y-101776000D02*
X42432000Y-103554000D01*
X42432000Y-103554000D02*
X42432000Y-104323800D01*
X4716200Y-20721500D02*
X4450000Y-20455300D01*
X4716200Y-23495800D02*
X4716200Y-20721500D01*
X4354800Y-23857200D02*
X4716200Y-23495800D01*
X3756900Y-23857200D02*
X4354800Y-23857200D01*
X3173700Y-23274000D02*
X3756900Y-23857200D01*
X4450000Y-19600000D02*
X4450000Y-20455300D01*
X50462300Y-112500000D02*
X42432000Y-104469700D01*
X42432000Y-104469700D02*
X42432000Y-104323800D01*
X96012000Y-69500000D02*
X96012000Y-70269800D01*
X42432000Y-101776000D02*
X42432000Y-101006200D01*
X41834100Y-105067600D02*
X42432000Y-104469700D01*
X35802300Y-105067600D02*
X41834100Y-105067600D01*
X35802300Y-105067600D02*
X35802300Y-109040200D01*
X73642000Y-5672800D02*
X73966100Y-5996900D01*
X66324100Y-5672800D02*
X73642000Y-5672800D01*
X66000000Y-5996900D02*
X66324100Y-5672800D01*
X75415400Y-5996900D02*
X73966100Y-5996900D01*
X14599400Y-107325300D02*
X11094200Y-110830500D01*
X17770000Y-107325300D02*
X14599400Y-107325300D01*
X17770000Y-105500000D02*
X17770000Y-107325300D01*
X27014300Y-105067600D02*
X35802300Y-105067600D01*
X22621400Y-100674700D02*
X27014300Y-105067600D01*
X19665400Y-100674700D02*
X22621400Y-100674700D01*
X17770000Y-102570100D02*
X19665400Y-100674700D01*
X17770000Y-105500000D02*
X17770000Y-102570100D01*
X71238000Y-103635000D02*
X71238000Y-104404800D01*
X2540000Y-85540000D02*
X3500300Y-85540000D01*
X4450000Y-19600000D02*
X4450000Y-18744700D01*
X2550000Y-19600000D02*
X2550000Y-18744700D01*
X5223500Y-18744700D02*
X4450000Y-18744700D01*
X5968200Y-18000000D02*
X5223500Y-18744700D01*
X4450000Y-18744700D02*
X2550000Y-18744700D01*
X6738000Y-18000000D02*
X5968200Y-18000000D01*
X56717500Y-38596200D02*
X55957100Y-37835700D01*
X79986100Y-8104500D02*
X79760400Y-8104500D01*
X75739500Y-5672800D02*
X75415400Y-5996900D01*
X79382700Y-5672800D02*
X75739500Y-5672800D01*
X79760400Y-6050500D02*
X79382700Y-5672800D01*
X79760400Y-8104500D02*
X79760400Y-6050500D01*
X72000000Y-20500000D02*
X72000000Y-17525500D01*
X72000000Y-20500000D02*
X68575900Y-20500000D01*
X52131800Y-110830500D02*
X61018300Y-110830500D01*
X50462300Y-112500000D02*
X52131800Y-110830500D01*
X89736700Y-64823100D02*
X86040400Y-61126800D01*
X89736700Y-67318000D02*
X89736700Y-64823100D01*
X7537400Y-17285200D02*
X7537400Y-16372500D01*
X6822600Y-18000000D02*
X7537400Y-17285200D01*
X6738000Y-18000000D02*
X6822600Y-18000000D01*
X52828400Y-25514700D02*
X53588900Y-24754200D01*
X72400000Y-53377500D02*
X73325300Y-53377500D01*
X71238000Y-104404800D02*
X71238000Y-104894500D01*
X66954300Y-104894500D02*
X61018300Y-110830500D01*
X71238000Y-104894500D02*
X66954300Y-104894500D01*
X95592100Y-108069900D02*
X96362000Y-107300000D01*
X94248300Y-108069900D02*
X95592100Y-108069900D01*
X94063900Y-107885500D02*
X94248300Y-108069900D01*
X16500000Y-73533000D02*
X15730200Y-73533000D01*
X32612300Y-139127100D02*
X33574700Y-138164700D01*
X29057200Y-139127100D02*
X32612300Y-139127100D01*
X28848700Y-139335600D02*
X29057200Y-139127100D01*
X14567500Y-139335600D02*
X28848700Y-139335600D01*
X11031900Y-135800000D02*
X14567500Y-139335600D01*
X33574700Y-138164700D02*
X33574700Y-138104600D01*
X60089100Y-135262000D02*
X59599800Y-134772700D01*
X63675400Y-135262000D02*
X60089100Y-135262000D01*
X70182400Y-128755000D02*
X63675400Y-135262000D01*
X71738000Y-128755000D02*
X70182400Y-128755000D01*
X78715800Y-49437300D02*
X79257200Y-49978700D01*
X77265500Y-49437300D02*
X78715800Y-49437300D01*
X73325300Y-53377500D02*
X77265500Y-49437300D01*
X77820900Y-127833600D02*
X84700000Y-134712700D01*
X72659400Y-127833600D02*
X77820900Y-127833600D01*
X71738000Y-128755000D02*
X72659400Y-127833600D01*
X85825300Y-108987200D02*
X85825300Y-109035900D01*
X6326300Y-14940000D02*
X5801100Y-14940000D01*
X6326300Y-15161400D02*
X6326300Y-14940000D01*
X7537400Y-16372500D02*
X6326300Y-15161400D01*
X7344100Y-5695900D02*
X10540000Y-2500000D01*
X7344100Y-10403200D02*
X7344100Y-5695900D01*
X6326300Y-11421000D02*
X7344100Y-10403200D01*
X6326300Y-14940000D02*
X6326300Y-11421000D01*
X37525100Y-91266400D02*
X37105400Y-91266400D01*
X46223200Y-99964500D02*
X37525100Y-91266400D01*
X46223200Y-100482700D02*
X46223200Y-99964500D01*
X45699700Y-101006200D02*
X46223200Y-100482700D01*
X42432000Y-101006200D02*
X45699700Y-101006200D01*
X27600000Y-57822500D02*
X30073000Y-57822500D01*
X30073000Y-57822500D02*
X30683500Y-57212000D01*
X33574700Y-61324200D02*
X33574700Y-61689000D01*
X30073000Y-57822500D02*
X33574700Y-61324200D01*
X36965500Y-138164700D02*
X33574700Y-138164700D01*
X42391800Y-132738400D02*
X36965500Y-138164700D01*
X51455200Y-132738400D02*
X42391800Y-132738400D01*
X51829600Y-133112800D02*
X51455200Y-132738400D01*
X51829600Y-133673200D02*
X51829600Y-133112800D01*
X58500300Y-133673200D02*
X59599800Y-134772700D01*
X51829600Y-133673200D02*
X58500300Y-133673200D01*
X51502800Y-134000000D02*
X51829600Y-133673200D01*
X50462300Y-134000000D02*
X51502800Y-134000000D01*
X45238000Y-141945000D02*
X45238000Y-141175200D01*
X50462300Y-135950900D02*
X45238000Y-141175200D01*
X50462300Y-134000000D02*
X50462300Y-135950900D01*
X41397500Y-16372500D02*
X41820000Y-15950000D01*
X7537400Y-16372500D02*
X41397500Y-16372500D01*
X45230200Y-12539800D02*
X45230200Y-12262000D01*
X41820000Y-15950000D02*
X45230200Y-12539800D01*
X61268800Y-47424800D02*
X61268800Y-45670300D01*
X61853300Y-48009300D02*
X61268800Y-47424800D01*
X67031800Y-48009300D02*
X61853300Y-48009300D01*
X72400000Y-53377500D02*
X67031800Y-48009300D01*
X97005700Y-25845300D02*
X98000000Y-25845300D01*
X96296400Y-25136000D02*
X97005700Y-25845300D01*
X98000000Y-24020000D02*
X98000000Y-25845300D01*
X66706700Y-94580700D02*
X62782900Y-90656900D01*
X71419300Y-94580700D02*
X66706700Y-94580700D01*
X72000000Y-94000000D02*
X71419300Y-94580700D01*
X75313700Y-108970200D02*
X71238000Y-104894500D01*
X85808300Y-108970200D02*
X75313700Y-108970200D01*
X85825300Y-108987200D02*
X85808300Y-108970200D01*
X92962200Y-108987200D02*
X85825300Y-108987200D01*
X94063900Y-107885500D02*
X92962200Y-108987200D01*
X54307700Y-24035400D02*
X53588900Y-24754200D01*
X54307700Y-23900600D02*
X54307700Y-24035400D01*
X54937700Y-23270600D02*
X54307700Y-23900600D01*
X54955800Y-23270600D02*
X54937700Y-23270600D01*
X55499300Y-22727100D02*
X54955800Y-23270600D01*
X55616000Y-22727100D02*
X55499300Y-22727100D01*
X57198500Y-21144600D02*
X55616000Y-22727100D01*
X57835300Y-21144600D02*
X57198500Y-21144600D01*
X59170300Y-19809600D02*
X57835300Y-21144600D01*
X67885500Y-19809600D02*
X59170300Y-19809600D01*
X68575900Y-20500000D02*
X67885500Y-19809600D01*
X82510200Y-57596600D02*
X79865400Y-57596600D01*
X86040400Y-61126800D02*
X82510200Y-57596600D01*
X82174100Y-26594700D02*
X81520000Y-26594700D01*
X83034500Y-25734300D02*
X82174100Y-26594700D01*
X81520000Y-26707300D02*
X81520000Y-26594800D01*
X81520000Y-28420000D02*
X81520000Y-26707300D01*
X81520000Y-26594800D02*
X81520000Y-26594700D01*
X77882300Y-26144300D02*
X76738000Y-25000000D01*
X81069500Y-26144300D02*
X77882300Y-26144300D01*
X81520000Y-26594800D02*
X81069500Y-26144300D01*
X19102800Y-75366000D02*
X17269800Y-73533000D01*
X25601700Y-75366000D02*
X19102800Y-75366000D01*
X34820300Y-84584600D02*
X25601700Y-75366000D01*
X16500000Y-73533000D02*
X17269800Y-73533000D01*
X10821700Y-111103000D02*
X11094200Y-110830500D01*
X10821700Y-115788800D02*
X10821700Y-111103000D01*
X11243800Y-116210900D02*
X10821700Y-115788800D01*
X11243800Y-117019400D02*
X11243800Y-116210900D01*
X10389900Y-117873300D02*
X11243800Y-117019400D01*
X4533300Y-117873300D02*
X10389900Y-117873300D01*
X946200Y-121460400D02*
X4533300Y-117873300D01*
X946200Y-125714300D02*
X946200Y-121460400D01*
X11031900Y-135800000D02*
X946200Y-125714300D01*
X36047600Y-43554000D02*
X35835000Y-43341400D01*
X45395700Y-43554000D02*
X36047600Y-43554000D01*
X46818000Y-42131700D02*
X45395700Y-43554000D01*
X35782500Y-46909900D02*
X35356900Y-47335500D01*
X49872200Y-46909900D02*
X35782500Y-46909900D01*
X50462300Y-47500000D02*
X49872200Y-46909900D01*
X62349400Y-62324100D02*
X61029100Y-61003800D01*
X66290900Y-62324100D02*
X62349400Y-62324100D01*
X69816700Y-58798300D02*
X66290900Y-62324100D01*
X78663700Y-58798300D02*
X69816700Y-58798300D01*
X79865400Y-57596600D02*
X78663700Y-58798300D01*
X56103800Y-37689000D02*
X55957100Y-37835700D01*
X56103800Y-37573500D02*
X56103800Y-37689000D01*
X56187300Y-37490000D02*
X56103800Y-37573500D01*
X56187300Y-36552200D02*
X56187300Y-37490000D01*
X56880500Y-36552200D02*
X56187300Y-36552200D01*
X49039500Y-39910200D02*
X46818000Y-42131700D01*
X49039500Y-39631300D02*
X49039500Y-39910200D01*
X49475100Y-39195700D02*
X49039500Y-39631300D01*
X50376000Y-39195700D02*
X49475100Y-39195700D01*
X53019500Y-36552200D02*
X50376000Y-39195700D01*
X56187300Y-36552200D02*
X53019500Y-36552200D01*
X45615100Y-12262000D02*
X45230200Y-12262000D01*
X45615100Y-12262000D02*
X46000000Y-12262000D01*
X64171800Y-5618000D02*
X64550700Y-5996900D01*
X56210700Y-5618000D02*
X64171800Y-5618000D01*
X49566700Y-12262000D02*
X56210700Y-5618000D01*
X46000000Y-12262000D02*
X49566700Y-12262000D01*
X66000000Y-5996900D02*
X64550700Y-5996900D01*
X59899500Y-33214700D02*
X60057300Y-33372500D01*
X59899500Y-32585800D02*
X59899500Y-33214700D01*
X79760400Y-11415800D02*
X79760400Y-8104500D01*
X76454400Y-14721800D02*
X79760400Y-11415800D01*
X76454400Y-15809100D02*
X76454400Y-14721800D01*
X74738000Y-17525500D02*
X76454400Y-15809100D01*
X72000000Y-17525500D02*
X74738000Y-17525500D01*
X83797900Y-95695800D02*
X81835300Y-93733200D01*
X94397900Y-95695800D02*
X83797900Y-95695800D01*
X95181900Y-96479800D02*
X94397900Y-95695800D01*
X95181900Y-100546400D02*
X95181900Y-96479800D01*
X94603100Y-101125200D02*
X95181900Y-100546400D01*
X94603100Y-105869600D02*
X94603100Y-101125200D01*
X94063900Y-106408800D02*
X94603100Y-105869600D01*
X94063900Y-107885500D02*
X94063900Y-106408800D01*
X81568500Y-94000000D02*
X72000000Y-94000000D01*
X81835300Y-93733200D02*
X81568500Y-94000000D01*
X88949600Y-73518700D02*
X89325400Y-73894500D01*
X88949600Y-68105100D02*
X88949600Y-73518700D01*
X89736700Y-67318000D02*
X88949600Y-68105100D01*
X96011900Y-70269800D02*
X96012000Y-70269800D01*
X96011900Y-70361800D02*
X96011900Y-70269800D01*
X92479200Y-73894500D02*
X96011900Y-70361800D01*
X89325400Y-73894500D02*
X92479200Y-73894500D01*
X87760800Y-87123200D02*
X87595200Y-87123200D01*
X89325400Y-85558600D02*
X87760800Y-87123200D01*
X89325400Y-73894500D02*
X89325400Y-85558600D01*
X85974300Y-89594200D02*
X81835300Y-93733200D01*
X87187800Y-89594200D02*
X85974300Y-89594200D01*
X87557600Y-89224400D02*
X87187800Y-89594200D01*
X87557600Y-88709400D02*
X87557600Y-89224400D01*
X87164100Y-88315900D02*
X87557600Y-88709400D01*
X87164100Y-87627400D02*
X87164100Y-88315900D01*
X87595200Y-87196300D02*
X87164100Y-87627400D01*
X87595200Y-87123200D02*
X87595200Y-87196300D01*
X10641100Y-73220400D02*
X5612700Y-73220400D01*
X10707600Y-73153900D02*
X10641100Y-73220400D01*
X15351100Y-73153900D02*
X10707600Y-73153900D01*
X15730200Y-73533000D02*
X15351100Y-73153900D01*
X11480900Y-68296300D02*
X11480900Y-63740700D01*
X8824300Y-70952900D02*
X11480900Y-68296300D01*
X6415400Y-70952900D02*
X8824300Y-70952900D01*
X5612700Y-71755600D02*
X6415400Y-70952900D01*
X5612700Y-73220400D02*
X5612700Y-71755600D01*
X4265100Y-84775200D02*
X5156800Y-84775200D01*
X3500300Y-85540000D02*
X4265100Y-84775200D01*
X5156800Y-73676300D02*
X5612700Y-73220400D01*
X5156800Y-84775200D02*
X5156800Y-73676300D01*
X9966500Y-84775200D02*
X11021100Y-85829800D01*
X5156800Y-84775200D02*
X9966500Y-84775200D01*
X47493200Y-145436700D02*
X47745200Y-145436700D01*
X45238000Y-143181500D02*
X47493200Y-145436700D01*
X45238000Y-141945000D02*
X45238000Y-143181500D01*
X51512800Y-149204300D02*
X52053500Y-149204300D01*
X47745200Y-145436700D02*
X51512800Y-149204300D01*
X75415400Y-2796500D02*
X73966100Y-2796500D01*
X8000000Y-2500000D02*
X8000000Y-3765100D01*
X76440000Y-28420000D02*
X76440000Y-30245300D01*
X9265100Y-1946400D02*
X9265100Y-2500000D01*
X9976600Y-1234900D02*
X9265100Y-1946400D01*
X16894900Y-1234900D02*
X9976600Y-1234900D01*
X18160000Y-2500000D02*
X16894900Y-1234900D01*
X8000000Y-2500000D02*
X9265100Y-2500000D01*
X76440000Y-28420000D02*
X76440000Y-26594700D01*
X73844400Y-2918200D02*
X73966100Y-2796500D01*
X66121700Y-2918200D02*
X73844400Y-2918200D01*
X66000000Y-2796500D02*
X66121700Y-2918200D01*
X5158800Y-6606300D02*
X8000000Y-3765100D01*
X5158800Y-7000000D02*
X5158800Y-6606300D01*
X4389000Y-7000000D02*
X5158800Y-7000000D01*
X1905000Y-72390000D02*
X3556900Y-72390000D01*
X5619700Y-70327200D02*
X5619700Y-67310000D01*
X3556900Y-72390000D02*
X5619700Y-70327200D01*
X7445000Y-67310000D02*
X5619700Y-67310000D01*
X7445000Y-67310000D02*
X9270300Y-67310000D01*
X65950200Y-149850000D02*
X65950200Y-150974100D01*
X65950200Y-149850000D02*
X65950200Y-148725900D01*
X70025400Y-150974100D02*
X70550100Y-150449400D01*
X65950200Y-150974100D02*
X70025400Y-150974100D01*
X70550100Y-150449400D02*
X71575200Y-150449400D01*
X98000000Y-18480000D02*
X98000000Y-16654700D01*
X39579300Y-71962400D02*
X39579300Y-65955900D01*
X38970000Y-72571700D02*
X39579300Y-71962400D01*
X65950200Y-148058200D02*
X65950200Y-148725900D01*
X74674700Y-148091800D02*
X74674700Y-147460000D01*
X72317100Y-150449400D02*
X74674700Y-148091800D01*
X71575200Y-150449400D02*
X72317100Y-150449400D01*
X85150000Y-25850300D02*
X85150000Y-24625000D01*
X75587400Y-147460000D02*
X74674700Y-147460000D01*
X39361600Y-65738200D02*
X39361600Y-65597300D01*
X39579300Y-65955900D02*
X39361600Y-65738200D01*
X5158800Y-9217700D02*
X5158800Y-7000000D01*
X5801100Y-9860000D02*
X5158800Y-9217700D01*
X1899700Y-13761400D02*
X5801100Y-9860000D01*
X1899700Y-20264900D02*
X1899700Y-13761400D01*
X2090100Y-20455300D02*
X1899700Y-20264900D01*
X3500000Y-20455300D02*
X2090100Y-20455300D01*
X3500000Y-19600000D02*
X3500000Y-20455300D01*
X54852900Y-159949000D02*
X54852900Y-159236400D01*
X98332000Y-67318000D02*
X97363900Y-67318000D01*
X22850000Y-105500000D02*
X22850000Y-106412600D01*
X20310000Y-102500000D02*
X20310000Y-104325300D01*
X77600000Y-57187500D02*
X78525300Y-57187500D01*
X51180800Y-114143100D02*
X49537700Y-112500000D01*
X51744000Y-114143100D02*
X51180800Y-114143100D01*
X77600000Y-57187500D02*
X77425000Y-57187500D01*
X77600000Y-57822500D02*
X76674700Y-57822500D01*
X77425000Y-56727500D02*
X77600000Y-56552500D01*
X77425000Y-57187500D02*
X77425000Y-56727500D01*
X76674700Y-57428500D02*
X76674700Y-57822500D01*
X76915700Y-57187500D02*
X76674700Y-57428500D01*
X77425000Y-57187500D02*
X76915700Y-57187500D01*
X48945400Y-113092300D02*
X40802300Y-113092300D01*
X49537700Y-112500000D02*
X48945400Y-113092300D01*
X27112000Y-110674600D02*
X22850000Y-106412600D01*
X38384600Y-110674600D02*
X27112000Y-110674600D01*
X40802300Y-113092300D02*
X38384600Y-110674600D01*
X22063800Y-106079000D02*
X20310000Y-104325300D01*
X22516400Y-106079000D02*
X22063800Y-106079000D01*
X22850000Y-106412600D02*
X22516400Y-106079000D01*
X22063800Y-106079000D02*
X15819600Y-112323200D01*
X63476300Y-22786000D02*
X61460300Y-20770000D01*
X64674600Y-22786000D02*
X63476300Y-22786000D01*
X60500000Y-20770000D02*
X61460300Y-20770000D01*
X60500000Y-20770000D02*
X59539700Y-20770000D01*
X75587400Y-147460000D02*
X76500000Y-147460000D01*
X92276600Y-66407100D02*
X92507300Y-66176400D01*
X92276600Y-68491500D02*
X92276600Y-66407100D01*
X92480400Y-68695300D02*
X92276600Y-68491500D01*
X92480400Y-70450900D02*
X92480400Y-68695300D01*
X90287300Y-72644000D02*
X92480400Y-70450900D01*
X90170000Y-72644000D02*
X90287300Y-72644000D01*
X92507300Y-64789700D02*
X90825300Y-63107700D01*
X92507300Y-66176400D02*
X92507300Y-64789700D01*
X14132900Y-139786000D02*
X13387200Y-139040300D01*
X35981200Y-139786000D02*
X14132900Y-139786000D01*
X38468700Y-137298500D02*
X35981200Y-139786000D01*
X40045700Y-137298500D02*
X38468700Y-137298500D01*
X40825300Y-138078100D02*
X40045700Y-137298500D01*
X78436600Y-147460000D02*
X79975400Y-148998800D01*
X76500000Y-147460000D02*
X78436600Y-147460000D01*
X95631300Y-16654700D02*
X95597300Y-16620700D01*
X98000000Y-16654700D02*
X95631300Y-16654700D01*
X22400000Y-54647500D02*
X23325300Y-54647500D01*
X65950200Y-141538700D02*
X65950200Y-148058200D01*
X65660000Y-141538700D02*
X65950200Y-141538700D01*
X63383600Y-139262300D02*
X65660000Y-141538700D01*
X77319400Y-137960800D02*
X86493700Y-137960800D01*
X73741500Y-141538700D02*
X77319400Y-137960800D01*
X65950200Y-141538700D02*
X73741500Y-141538700D01*
X64674600Y-22786000D02*
X65825400Y-22786000D01*
X87522500Y-115052200D02*
X88381100Y-114193600D01*
X64444300Y-115052200D02*
X87522500Y-115052200D01*
X63315300Y-113923200D02*
X64444300Y-115052200D01*
X85150000Y-24625000D02*
X85150000Y-19650300D01*
X81026000Y-15748000D02*
X81795800Y-15748000D01*
X83252800Y-17205000D02*
X81795800Y-15748000D01*
X85150000Y-17205000D02*
X83252800Y-17205000D01*
X85150000Y-19650300D02*
X85150000Y-17205000D01*
X85150000Y-17205000D02*
X86995000Y-15360000D01*
X62824900Y-150974100D02*
X63012300Y-151161500D01*
X62653200Y-150974100D02*
X62824900Y-150974100D01*
X62653200Y-149850000D02*
X62653200Y-150974100D01*
X56736800Y-90022000D02*
X54834100Y-91924700D01*
X63574700Y-90022000D02*
X56736800Y-90022000D01*
X54834100Y-91924700D02*
X54834100Y-92802600D01*
X50165800Y-133371900D02*
X49537700Y-134000000D01*
X51204300Y-133371900D02*
X50165800Y-133371900D01*
X55752100Y-150347800D02*
X55752100Y-149835200D01*
X45459600Y-138078100D02*
X44468100Y-138078100D01*
X49537700Y-134000000D02*
X45459600Y-138078100D01*
X44468100Y-138078100D02*
X40825300Y-138078100D01*
X51238900Y-149835200D02*
X55752100Y-149835200D01*
X44468100Y-143064400D02*
X51238900Y-149835200D01*
X44468100Y-138078100D02*
X44468100Y-143064400D01*
X62263600Y-148336300D02*
X62653200Y-148725900D01*
X57251000Y-148336300D02*
X62263600Y-148336300D01*
X55752100Y-149835200D02*
X57251000Y-148336300D01*
X62653200Y-149850000D02*
X62653200Y-148725900D01*
X70550100Y-159949000D02*
X70550100Y-158523900D01*
X65103200Y-158523900D02*
X64678700Y-158099400D01*
X70550100Y-158523900D02*
X65103200Y-158523900D01*
X63541700Y-159236400D02*
X64678700Y-158099400D01*
X54852900Y-159236400D02*
X63541700Y-159236400D01*
X80256100Y-14978100D02*
X81026000Y-15748000D01*
X80256100Y-12047100D02*
X80256100Y-14978100D01*
X80625500Y-11677700D02*
X80256100Y-12047100D01*
X80625500Y-4240400D02*
X80625500Y-11677700D01*
X79357900Y-2972800D02*
X80625500Y-4240400D01*
X75591700Y-2972800D02*
X79357900Y-2972800D01*
X75415400Y-2796500D02*
X75591700Y-2972800D01*
X38191200Y-89077000D02*
X38191200Y-88616500D01*
X51986400Y-89077000D02*
X38191200Y-89077000D01*
X54834100Y-91924700D02*
X51986400Y-89077000D01*
X22640000Y-90009900D02*
X14267800Y-90009900D01*
X24323100Y-91693000D02*
X22640000Y-90009900D01*
X32856800Y-91693000D02*
X24323100Y-91693000D01*
X35472800Y-89077000D02*
X32856800Y-91693000D01*
X38191200Y-89077000D02*
X35472800Y-89077000D01*
X7037700Y-21500000D02*
X7037700Y-23500000D01*
X8037700Y-20500000D02*
X7037700Y-21500000D01*
X54758000Y-24292300D02*
X53182000Y-25868300D01*
X54758000Y-24087200D02*
X54758000Y-24292300D01*
X55124300Y-23720900D02*
X54758000Y-24087200D01*
X56588800Y-23720900D02*
X55124300Y-23720900D01*
X59539700Y-20770000D02*
X56588800Y-23720900D01*
X74807200Y-24907300D02*
X75586300Y-24907300D01*
X73484200Y-23584300D02*
X74807200Y-24907300D01*
X66623700Y-23584300D02*
X73484200Y-23584300D01*
X65825400Y-22786000D02*
X66623700Y-23584300D01*
X75586300Y-26157300D02*
X75586300Y-24907300D01*
X76023700Y-26594700D02*
X75586300Y-26157300D01*
X76440000Y-26594700D02*
X76023700Y-26594700D01*
X82431600Y-24625000D02*
X85150000Y-24625000D01*
X82286000Y-24770600D02*
X82431600Y-24625000D01*
X80336800Y-24770600D02*
X82286000Y-24770600D01*
X79796300Y-24230100D02*
X80336800Y-24770600D01*
X76143200Y-24230100D02*
X79796300Y-24230100D01*
X75586300Y-24787000D02*
X76143200Y-24230100D01*
X75586300Y-24907300D02*
X75586300Y-24787000D01*
X85128400Y-53854800D02*
X86839500Y-52143700D01*
X85128400Y-56971300D02*
X85128400Y-53854800D01*
X78741500Y-56971300D02*
X85128400Y-56971300D01*
X78525300Y-57187500D02*
X78741500Y-56971300D01*
X90825300Y-62668200D02*
X90825300Y-63107700D01*
X85128400Y-56971300D02*
X90825300Y-62668200D01*
X62960500Y-114278000D02*
X63315300Y-113923200D01*
X51878900Y-114278000D02*
X62960500Y-114278000D01*
X51744000Y-114143100D02*
X51878900Y-114278000D01*
X42774900Y-47500000D02*
X49537700Y-47500000D01*
X40149400Y-50125500D02*
X42774900Y-47500000D01*
X37327600Y-72571700D02*
X38970000Y-72571700D01*
X35671200Y-74228100D02*
X37327600Y-72571700D01*
X35671200Y-76246600D02*
X35671200Y-74228100D01*
X36704600Y-77280000D02*
X35671200Y-76246600D01*
X37668300Y-79706000D02*
X37668300Y-83763500D01*
X36742300Y-78780000D02*
X37668300Y-79706000D01*
X36742300Y-77317700D02*
X36704600Y-77280000D01*
X36742300Y-78780000D02*
X36742300Y-77317700D01*
X45314100Y-42928600D02*
X41323500Y-42928600D01*
X46464500Y-41778200D02*
X45314100Y-42928600D01*
X8037700Y-20153700D02*
X8455800Y-19735600D01*
X8037700Y-20500000D02*
X8037700Y-20153700D01*
X56364000Y-38949700D02*
X57124500Y-39710100D01*
X40574400Y-19784400D02*
X41820000Y-21030000D01*
X40574400Y-19735600D02*
X40574400Y-19784400D01*
X41820000Y-18490000D02*
X40574400Y-19735600D01*
X40574400Y-19735600D02*
X8455800Y-19735600D01*
X50224400Y-48186700D02*
X49537700Y-47500000D01*
X50224400Y-53507600D02*
X50224400Y-48186700D01*
X51499800Y-54783000D02*
X50224400Y-53507600D01*
X51499800Y-55842000D02*
X51499800Y-54783000D01*
X51704800Y-56047000D02*
X51499800Y-55842000D01*
X51704800Y-61270800D02*
X51704800Y-56047000D01*
X51499800Y-61475800D02*
X51704800Y-61270800D01*
X51499800Y-63018100D02*
X51499800Y-61475800D01*
X48562000Y-65955900D02*
X51499800Y-63018100D01*
X39579300Y-65955900D02*
X48562000Y-65955900D01*
X64374400Y-2972800D02*
X64550700Y-2796500D01*
X55428000Y-2972800D02*
X64374400Y-2972800D01*
X52050800Y-6350000D02*
X55428000Y-2972800D01*
X66000000Y-2796500D02*
X64550700Y-2796500D01*
X59915200Y-39248800D02*
X66792900Y-39248800D01*
X59583000Y-39581000D02*
X59915200Y-39248800D01*
X57253600Y-39581000D02*
X59583000Y-39581000D01*
X57124500Y-39710100D02*
X57253600Y-39581000D01*
X59545900Y-32232200D02*
X60306400Y-31471700D01*
X75109300Y-35241400D02*
X75109300Y-32667700D01*
X71101900Y-39248800D02*
X75109300Y-35241400D01*
X66792900Y-39248800D02*
X71101900Y-39248800D01*
X75109300Y-32667700D02*
X76628900Y-31148100D01*
X86220400Y-31148100D02*
X76628900Y-31148100D01*
X87630000Y-32557700D02*
X86220400Y-31148100D01*
X76440000Y-30959200D02*
X76440000Y-30245300D01*
X76628900Y-31148100D02*
X76440000Y-30959200D01*
X74534800Y-32093200D02*
X75109300Y-32667700D01*
X73241000Y-32093200D02*
X74534800Y-32093200D01*
X73074600Y-32259600D02*
X73241000Y-32093200D01*
X73074600Y-34713100D02*
X73074600Y-32259600D01*
X71936600Y-35851100D02*
X73074600Y-34713100D01*
X71309200Y-35851100D02*
X71936600Y-35851100D01*
X70024100Y-37136200D02*
X71309200Y-35851100D01*
X68339300Y-37136200D02*
X70024100Y-37136200D01*
X67795700Y-37679800D02*
X68339300Y-37136200D01*
X64954900Y-37679800D02*
X67795700Y-37679800D01*
X62576400Y-35301300D02*
X64954900Y-37679800D01*
X62576400Y-34664400D02*
X62576400Y-35301300D01*
X60959500Y-33047500D02*
X62576400Y-34664400D01*
X60959500Y-32124900D02*
X60959500Y-33047500D01*
X60306400Y-31471700D02*
X60959500Y-32124900D01*
X76149300Y-58347900D02*
X68950000Y-58347900D01*
X76674700Y-57822500D02*
X76149300Y-58347900D01*
X68950000Y-57913800D02*
X68950000Y-58347900D01*
X66232100Y-55195900D02*
X68950000Y-57913800D01*
X68950000Y-58573200D02*
X65825300Y-61697900D01*
X68950000Y-58347900D02*
X68950000Y-58573200D01*
X67552700Y-94000000D02*
X71075400Y-94000000D01*
X63574700Y-90022000D02*
X67552700Y-94000000D01*
X97363900Y-67069900D02*
X97363900Y-67318000D01*
X96470400Y-66176400D02*
X97363900Y-67069900D01*
X92507300Y-66176400D02*
X96470400Y-66176400D01*
X85962200Y-88968900D02*
X86928700Y-88968900D01*
X81809500Y-93121600D02*
X85962200Y-88968900D01*
X71953800Y-93121600D02*
X81809500Y-93121600D01*
X71075400Y-94000000D02*
X71953800Y-93121600D01*
X97363900Y-78512500D02*
X87807700Y-88068700D01*
X97363900Y-67318000D02*
X97363900Y-78512500D01*
X9270300Y-65067000D02*
X9270300Y-67310000D01*
X12313000Y-62024300D02*
X9270300Y-65067000D01*
X13737700Y-62024300D02*
X12313000Y-62024300D01*
X44243500Y-18490000D02*
X45355000Y-17378500D01*
X41820000Y-18490000D02*
X44243500Y-18490000D01*
X54666900Y-159050400D02*
X38720400Y-159050400D01*
X54852900Y-159236400D02*
X54666900Y-159050400D01*
X20509000Y-159050400D02*
X19567000Y-159992400D01*
X38720400Y-159050400D02*
X20509000Y-159050400D01*
X16940000Y-54530300D02*
X16940000Y-51912900D01*
X20757600Y-58347900D02*
X16940000Y-54530300D01*
X23146700Y-58347900D02*
X20757600Y-58347900D01*
X23325300Y-58169300D02*
X23146700Y-58347900D01*
X23325300Y-54647500D02*
X23325300Y-58169300D01*
X13694200Y-61980800D02*
X13737700Y-62024300D01*
X13694200Y-55021000D02*
X13694200Y-61980800D01*
X14184900Y-54530300D02*
X13694200Y-55021000D01*
X16940000Y-54530300D02*
X14184900Y-54530300D01*
X23325300Y-53032400D02*
X23325300Y-53377500D01*
X26232200Y-50125500D02*
X23325300Y-53032400D01*
X40149400Y-50125500D02*
X26232200Y-50125500D01*
X22400000Y-53377500D02*
X22750100Y-53377500D01*
X23084300Y-53377500D02*
X23325300Y-53377500D01*
X22750100Y-53377500D02*
X23084300Y-53377500D01*
X22400000Y-54012500D02*
X23212700Y-54012500D01*
X23325300Y-54125100D02*
X23325300Y-54647500D01*
X23212700Y-54012500D02*
X23325300Y-54125100D01*
X23212700Y-53505900D02*
X23212700Y-54012500D01*
X23084300Y-53377500D02*
X23212700Y-53505900D01*
X92459800Y-104807600D02*
X92571200Y-104919000D01*
X92459800Y-104792000D02*
X92459800Y-104807600D01*
X93468000Y-104919000D02*
X92571200Y-104919000D01*
X91690000Y-104792000D02*
X92459800Y-104792000D01*
X8962300Y-21427700D02*
X8962300Y-20500000D01*
X7952000Y-22438000D02*
X8962300Y-21427700D01*
X76032000Y-129771000D02*
X76032000Y-130604300D01*
X77040200Y-129882400D02*
X76928800Y-129771000D01*
X77040200Y-129898000D02*
X77040200Y-129882400D01*
X77810000Y-129898000D02*
X77040200Y-129898000D01*
X76032000Y-129771000D02*
X76928800Y-129771000D01*
X76428800Y-104666600D02*
X76540200Y-104778000D01*
X76428800Y-104651000D02*
X76428800Y-104666600D01*
X75532000Y-104651000D02*
X76428800Y-104651000D01*
X75532000Y-104651000D02*
X75532000Y-105484300D01*
X76032000Y-129771000D02*
X76032000Y-128937700D01*
X74516000Y-106470200D02*
X74126100Y-106860100D01*
X74516000Y-105867800D02*
X74516000Y-106470200D01*
X74899500Y-105484300D02*
X74516000Y-105867800D01*
X75532000Y-105484300D02*
X74899500Y-105484300D01*
X52266400Y-142901400D02*
X52079800Y-143088000D01*
X56759500Y-142901400D02*
X52266400Y-142901400D01*
X66423400Y-133237500D02*
X56759500Y-142901400D01*
X73006600Y-133237500D02*
X66423400Y-133237500D01*
X75016000Y-131228100D02*
X73006600Y-133237500D01*
X75016000Y-131007500D02*
X75016000Y-131228100D01*
X75419200Y-130604300D02*
X75016000Y-131007500D01*
X76032000Y-130604300D02*
X75419200Y-130604300D01*
X61832000Y-146807400D02*
X63750500Y-148725900D01*
X50046600Y-146807400D02*
X61832000Y-146807400D01*
X48635100Y-145395900D02*
X50046600Y-146807400D01*
X48635100Y-144066200D02*
X48635100Y-145395900D01*
X48907000Y-143794300D02*
X48635100Y-144066200D01*
X49532000Y-143794300D02*
X48907000Y-143794300D01*
X49532000Y-142961000D02*
X49532000Y-143794300D01*
X63750500Y-149850000D02*
X63750500Y-148725900D01*
X49371300Y-142127700D02*
X49532000Y-142127700D01*
X48087700Y-140844100D02*
X49371300Y-142127700D01*
X49532000Y-142961000D02*
X49532000Y-142127700D01*
X51694900Y-143088000D02*
X52079800Y-143088000D01*
X51694900Y-143088000D02*
X51310000Y-143088000D01*
X50540200Y-143072400D02*
X50428800Y-142961000D01*
X50540200Y-143088000D02*
X50540200Y-143072400D01*
X49532000Y-142961000D02*
X50428800Y-142961000D01*
X51310000Y-143088000D02*
X50540200Y-143088000D01*
X64213200Y-150974100D02*
X63750500Y-150974100D01*
X65454900Y-152215800D02*
X64213200Y-150974100D01*
X71153800Y-152215800D02*
X65454900Y-152215800D01*
X72305500Y-153367500D02*
X71153800Y-152215800D01*
X78160900Y-153367500D02*
X72305500Y-153367500D01*
X78338600Y-153189800D02*
X78160900Y-153367500D01*
X78338600Y-151650800D02*
X78338600Y-153189800D01*
X77674700Y-150986900D02*
X78338600Y-151650800D01*
X77674700Y-150000000D02*
X77674700Y-150986900D01*
X79500000Y-150000000D02*
X77674700Y-150000000D01*
X63750500Y-149850000D02*
X63750500Y-150974100D01*
X75487600Y-128937700D02*
X75029400Y-128479500D01*
X76032000Y-128937700D02*
X75487600Y-128937700D01*
X76925100Y-104778000D02*
X76540200Y-104778000D01*
X76925100Y-104778000D02*
X77310000Y-104778000D01*
X90412000Y-105300200D02*
X90920200Y-104792000D01*
X78602000Y-105300200D02*
X90412000Y-105300200D01*
X78079800Y-104778000D02*
X78602000Y-105300200D01*
X77310000Y-104778000D02*
X78079800Y-104778000D01*
X91690000Y-104792000D02*
X90920200Y-104792000D01*
X6412700Y-16544700D02*
X4450000Y-16544700D01*
X6887900Y-17019900D02*
X6412700Y-16544700D01*
X4450000Y-17400000D02*
X4450000Y-16544700D01*
X64674600Y-18214000D02*
X63523800Y-18214000D01*
X60500000Y-18230000D02*
X59539700Y-18230000D01*
X60500000Y-18230000D02*
X61460300Y-18230000D01*
X61476300Y-18214000D02*
X61460300Y-18230000D01*
X63523800Y-18214000D02*
X61476300Y-18214000D01*
X55773900Y-18950000D02*
X56764100Y-18950000D01*
X55773900Y-18950000D02*
X55539600Y-18950000D01*
X55539600Y-18950000D02*
X54315100Y-18950000D01*
X57484100Y-18230000D02*
X56764100Y-18950000D01*
X59539700Y-18230000D02*
X57484100Y-18230000D01*
X54315100Y-19080900D02*
X54315100Y-18950000D01*
X52786300Y-20609700D02*
X54315100Y-19080900D01*
X44947000Y-20609700D02*
X52786300Y-20609700D01*
X42499200Y-23057500D02*
X44947000Y-20609700D01*
X40709600Y-23057500D02*
X42499200Y-23057500D01*
X39927100Y-23840000D02*
X40709600Y-23057500D01*
X18426900Y-23840000D02*
X39927100Y-23840000D01*
X18316600Y-23950300D02*
X18426900Y-23840000D01*
X8412600Y-23950300D02*
X18316600Y-23950300D01*
X7962300Y-23500000D02*
X8412600Y-23950300D01*
X35768000Y-77268000D02*
X35780000Y-77280000D01*
X34280000Y-77268000D02*
X35768000Y-77268000D01*
X49228600Y-38306900D02*
X50380400Y-38306900D01*
X46110900Y-41424600D02*
X49228600Y-38306900D01*
X51254500Y-58841500D02*
X50000000Y-57587000D01*
X51254500Y-61084200D02*
X51254500Y-58841500D01*
X51013000Y-61325700D02*
X51254500Y-61084200D01*
X51013000Y-62868000D02*
X51013000Y-61325700D01*
X48930900Y-64950100D02*
X51013000Y-62868000D01*
X39123900Y-64950100D02*
X48930900Y-64950100D01*
X38364300Y-65709700D02*
X39123900Y-64950100D01*
X38364300Y-68793800D02*
X38364300Y-65709700D01*
X34280000Y-72878100D02*
X38364300Y-68793800D01*
X34280000Y-77268000D02*
X34280000Y-72878100D01*
X48570000Y-56157000D02*
X50000000Y-57587000D01*
X47234900Y-56157000D02*
X48570000Y-56157000D01*
X35061800Y-78780000D02*
X35049800Y-78792000D01*
X35817700Y-78780000D02*
X35061800Y-78780000D01*
X34280000Y-78792000D02*
X35049800Y-78792000D01*
X45757400Y-41071100D02*
X44997000Y-41831500D01*
X44923000Y-42073800D02*
X45089000Y-42239800D01*
X44997000Y-41999800D02*
X44923000Y-42073800D01*
X44997000Y-41831600D02*
X44997000Y-41999800D01*
X44997000Y-41831500D02*
X44997000Y-41831600D01*
X41024100Y-62413000D02*
X50000000Y-62413000D01*
X37881100Y-65556000D02*
X41024100Y-62413000D01*
X37881100Y-67623300D02*
X37881100Y-65556000D01*
X33510100Y-71994300D02*
X37881100Y-67623300D01*
X33510100Y-78022100D02*
X33510100Y-71994300D01*
X34280000Y-78792000D02*
X33510100Y-78022100D01*
X48922300Y-48311200D02*
X49097200Y-48136300D01*
X48922300Y-52845000D02*
X48922300Y-48311200D01*
X59192400Y-31878700D02*
X59952800Y-31118300D01*
X45878200Y-66588100D02*
X48306000Y-66588100D01*
X38970000Y-73496300D02*
X45878200Y-66588100D01*
X52374400Y-33233300D02*
X58127100Y-33233300D01*
X52183500Y-33424200D02*
X52374400Y-33233300D01*
X59952800Y-31118300D02*
X60257100Y-30814000D01*
X61553400Y-149850000D02*
X61553400Y-150974100D01*
X75587400Y-157620000D02*
X74674700Y-157620000D01*
X75587400Y-157620000D02*
X76500000Y-157620000D01*
X74674700Y-157620000D02*
X74572400Y-157517600D01*
X62635900Y-152056600D02*
X61553400Y-150974100D01*
X64361600Y-152056600D02*
X62635900Y-152056600D01*
X65196200Y-152891200D02*
X64361600Y-152056600D01*
X69945900Y-152891200D02*
X65196200Y-152891200D01*
X74572400Y-157517600D02*
X69945900Y-152891200D01*
X81381200Y-150793400D02*
X81381200Y-146414000D01*
X78356700Y-153817900D02*
X81381200Y-150793400D01*
X78272100Y-153817900D02*
X78356700Y-153817900D01*
X74572400Y-157517600D02*
X78272100Y-153817900D01*
X80574500Y-103268000D02*
X91690000Y-103268000D01*
X79207500Y-104635000D02*
X80574500Y-103268000D01*
X92459800Y-103252400D02*
X92571200Y-103141000D01*
X92459800Y-103268000D02*
X92459800Y-103252400D01*
X93468000Y-103141000D02*
X92571200Y-103141000D01*
X91690000Y-103268000D02*
X92459800Y-103268000D01*
X50540200Y-144627600D02*
X50428800Y-144739000D01*
X50540200Y-144612000D02*
X50540200Y-144627600D01*
X49532000Y-144739000D02*
X50428800Y-144739000D01*
X50925100Y-144612000D02*
X50540200Y-144612000D01*
X50925100Y-144612000D02*
X51310000Y-144612000D01*
X51310000Y-144612000D02*
X52079800Y-144612000D01*
X64850300Y-149850000D02*
X64850300Y-148725900D01*
X60736400Y-144612000D02*
X64850300Y-148725900D01*
X52079800Y-144612000D02*
X60736400Y-144612000D01*
X65590900Y-151714700D02*
X64850300Y-150974100D01*
X73849400Y-151714700D02*
X65590900Y-151714700D01*
X74674700Y-152540000D02*
X73849400Y-151714700D01*
X76500000Y-152540000D02*
X74674700Y-152540000D01*
X64850300Y-149850000D02*
X64850300Y-150974100D01*
X77040200Y-131437600D02*
X76928800Y-131549000D01*
X77040200Y-131422000D02*
X77040200Y-131437600D01*
X76032000Y-131549000D02*
X76928800Y-131549000D01*
X77810000Y-131422000D02*
X77040200Y-131422000D01*
X77810000Y-131422000D02*
X78579800Y-131422000D01*
X79500000Y-144920000D02*
X79500000Y-141544200D01*
X83794700Y-141544200D02*
X79500000Y-141544200D01*
X87167700Y-138171200D02*
X83794700Y-141544200D01*
X87167700Y-136466600D02*
X87167700Y-138171200D01*
X86648600Y-135947500D02*
X87167700Y-136466600D01*
X83105300Y-135947500D02*
X86648600Y-135947500D01*
X78579800Y-131422000D02*
X83105300Y-135947500D01*
X67050000Y-146382300D02*
X67050000Y-149850000D01*
X71429500Y-142002800D02*
X67050000Y-146382300D01*
X74329100Y-142002800D02*
X71429500Y-142002800D01*
X74787700Y-141544200D02*
X74329100Y-142002800D01*
X79500000Y-141544200D02*
X74787700Y-141544200D01*
X68149800Y-149850000D02*
X68149800Y-148725900D01*
X76500000Y-142380000D02*
X74674700Y-142380000D01*
X67904000Y-148725900D02*
X68149800Y-148725900D01*
X67712800Y-148534700D02*
X67904000Y-148725900D01*
X67712800Y-146409300D02*
X67712800Y-148534700D01*
X71291800Y-142830300D02*
X67712800Y-146409300D01*
X73290800Y-142830300D02*
X71291800Y-142830300D01*
X73290800Y-142830200D02*
X73290800Y-142830300D01*
X73667900Y-142453100D02*
X73290800Y-142830200D01*
X74601600Y-142453100D02*
X73667900Y-142453100D01*
X74674700Y-142380000D02*
X74601600Y-142453100D01*
X74674700Y-160884400D02*
X74917000Y-160642100D01*
X74674700Y-162700000D02*
X74674700Y-160884400D01*
X69249600Y-149850000D02*
X69249600Y-148725900D01*
X76500000Y-162700000D02*
X74674700Y-162700000D01*
X71253600Y-148725900D02*
X72197300Y-149669600D01*
X69249600Y-148725900D02*
X71253600Y-148725900D01*
X72862700Y-55282500D02*
X73325300Y-55282500D01*
X77744700Y-50863100D02*
X78356100Y-50863100D01*
X73325300Y-55282500D02*
X77744700Y-50863100D01*
X43858700Y-31915500D02*
X43075600Y-32698600D01*
X53955800Y-31915500D02*
X43858700Y-31915500D01*
X37276100Y-32748700D02*
X37326200Y-32698600D01*
X34752600Y-32748700D02*
X37276100Y-32748700D01*
X72862700Y-55282500D02*
X72400000Y-55282500D01*
X59413800Y-46869100D02*
X59413800Y-44862800D01*
X62458800Y-49914100D02*
X59413800Y-46869100D01*
X65247000Y-49914100D02*
X62458800Y-49914100D01*
X70615400Y-55282500D02*
X65247000Y-49914100D01*
X72400000Y-55282500D02*
X70615400Y-55282500D01*
X55172900Y-29534200D02*
X56010400Y-28696700D01*
X55172900Y-30920600D02*
X55172900Y-29534200D01*
X54178000Y-31915500D02*
X55172900Y-30920600D01*
X53955800Y-31915500D02*
X54178000Y-31915500D01*
X27070500Y-43945400D02*
X31902500Y-43945400D01*
X23421600Y-40296500D02*
X27070500Y-43945400D01*
X10701100Y-40296500D02*
X23421600Y-40296500D01*
X25081700Y-84948400D02*
X20479400Y-84948400D01*
X29682900Y-89549600D02*
X25081700Y-84948400D01*
X31190000Y-89549600D02*
X29682900Y-89549600D01*
X77908200Y-50062700D02*
X78456800Y-50062700D01*
X73323400Y-54647500D02*
X77908200Y-50062700D01*
X72400000Y-54647500D02*
X73323400Y-54647500D01*
X55656900Y-28343100D02*
X54547500Y-29452500D01*
X64689800Y-48720000D02*
X62149000Y-48720000D01*
X70617300Y-54647500D02*
X64689800Y-48720000D01*
X72400000Y-54647500D02*
X70617300Y-54647500D01*
X60382900Y-47179200D02*
X60382900Y-44852800D01*
X61923700Y-48720000D02*
X60382900Y-47179200D01*
X62149000Y-48720000D02*
X61923700Y-48720000D01*
X31894000Y-52938000D02*
X30250000Y-51294000D01*
X45405000Y-52938000D02*
X31894000Y-52938000D01*
X46668000Y-54201000D02*
X45405000Y-52938000D01*
X50017400Y-54201000D02*
X46668000Y-54201000D01*
X19657900Y-63459100D02*
X19657900Y-65867000D01*
X24662600Y-58454400D02*
X19657900Y-63459100D01*
X24662600Y-52332000D02*
X24662600Y-58454400D01*
X25700600Y-51294000D02*
X24662600Y-52332000D01*
X30250000Y-51294000D02*
X25700600Y-51294000D01*
X18960400Y-71500000D02*
X18960400Y-72709200D01*
X26960400Y-71500000D02*
X26960400Y-72596600D01*
X68937400Y-71500000D02*
X68937400Y-70290800D01*
X55303300Y-27989600D02*
X56063700Y-27229200D01*
X71273600Y-54012500D02*
X71242700Y-53981600D01*
X72400000Y-54012500D02*
X71273600Y-54012500D01*
X26960400Y-73159500D02*
X26960400Y-72596600D01*
X76960400Y-71500000D02*
X76960400Y-70290800D01*
X69928300Y-70290800D02*
X70619800Y-69599300D01*
X68937400Y-70290800D02*
X69928300Y-70290800D01*
X76268900Y-69599300D02*
X76960400Y-70290800D01*
X70619800Y-69599300D02*
X76268900Y-69599300D01*
X76960400Y-71500000D02*
X76960400Y-72709200D01*
X72970100Y-76699500D02*
X76960400Y-72709200D01*
X72085400Y-76699500D02*
X72970100Y-76699500D01*
X66418600Y-82366300D02*
X72085400Y-76699500D01*
X50180700Y-82366300D02*
X66418600Y-82366300D01*
X47675100Y-84871900D02*
X50180700Y-82366300D01*
X37167300Y-84871900D02*
X47675100Y-84871900D01*
X36592600Y-84297200D02*
X37167300Y-84871900D01*
X36592600Y-84160200D02*
X36592600Y-84297200D01*
X26960400Y-74528000D02*
X36592600Y-84160200D01*
X26960400Y-73159500D02*
X26960400Y-74528000D01*
X56063700Y-27229300D02*
X56063700Y-27229200D01*
X57688500Y-27229300D02*
X56063700Y-27229300D01*
X57715800Y-27202000D02*
X57688500Y-27229300D01*
X64929800Y-27202000D02*
X57715800Y-27202000D01*
X65555800Y-26576000D02*
X64929800Y-27202000D01*
X71981500Y-26576000D02*
X65555800Y-26576000D01*
X72277000Y-26871500D02*
X71981500Y-26576000D01*
X72277000Y-30227200D02*
X72277000Y-26871500D01*
X19410700Y-73159500D02*
X26960400Y-73159500D01*
X18960400Y-72709200D02*
X19410700Y-73159500D01*
X93937400Y-97500000D02*
X93937400Y-96290800D01*
X93937400Y-96290800D02*
X71361000Y-96290800D01*
X69542000Y-96290800D02*
X68937400Y-96895400D01*
X71361000Y-96290800D02*
X69542000Y-96290800D01*
X72400000Y-55917500D02*
X73507100Y-55917500D01*
X53448500Y-29137200D02*
X53448500Y-30425600D01*
X54949700Y-27636000D02*
X53448500Y-29137200D01*
X68937400Y-97500000D02*
X68937400Y-97314800D01*
X68937400Y-97314800D02*
X68937400Y-96895400D01*
X27937400Y-97500000D02*
X27937400Y-96309300D01*
X2170800Y-97500000D02*
X2170800Y-96290800D01*
X29191500Y-95995200D02*
X27955900Y-95995200D01*
X35028100Y-90158600D02*
X29191500Y-95995200D01*
X49625800Y-90158600D02*
X35028100Y-90158600D01*
X52940100Y-93472900D02*
X49625800Y-90158600D01*
X55484500Y-93472900D02*
X52940100Y-93472900D01*
X56064500Y-92892900D02*
X55484500Y-93472900D01*
X60569300Y-92892900D02*
X56064500Y-92892900D01*
X64991200Y-97314800D02*
X60569300Y-92892900D01*
X68937400Y-97314800D02*
X64991200Y-97314800D01*
X27955900Y-96290800D02*
X27955900Y-95995200D01*
X27937400Y-96309300D02*
X27955900Y-96290800D01*
X7645000Y-90816600D02*
X2170800Y-96290800D01*
X22777300Y-90816600D02*
X7645000Y-90816600D01*
X27955900Y-95995200D02*
X22777300Y-90816600D01*
X56861300Y-43537800D02*
X55811300Y-42487800D01*
X56861300Y-44283900D02*
X56861300Y-43537800D01*
X57872500Y-45295100D02*
X56861300Y-44283900D01*
X57872500Y-46020100D02*
X57872500Y-45295100D01*
X62467100Y-50614700D02*
X57872500Y-46020100D01*
X64303500Y-50614700D02*
X62467100Y-50614700D01*
X69606300Y-55917500D02*
X64303500Y-50614700D01*
X72400000Y-55917500D02*
X69606300Y-55917500D01*
X2170800Y-122500000D02*
X2170800Y-123709200D01*
X27937400Y-122500000D02*
X26712900Y-122500000D01*
X11158800Y-122500000D02*
X26712900Y-122500000D01*
X9949600Y-123709200D02*
X11158800Y-122500000D01*
X2170800Y-123709200D02*
X9949600Y-123709200D01*
X77600000Y-53377500D02*
X78525300Y-53377500D01*
X68937400Y-122500000D02*
X68937400Y-123709200D01*
X79254300Y-122500000D02*
X77953200Y-121198900D01*
X93937400Y-122500000D02*
X79254300Y-122500000D01*
X69387900Y-124159700D02*
X68937400Y-123709200D01*
X74992400Y-124159700D02*
X69387900Y-124159700D01*
X77953200Y-121198900D02*
X74992400Y-124159700D01*
X27937400Y-122500000D02*
X27937400Y-123709200D01*
X31807700Y-127579500D02*
X27937400Y-123709200D01*
X56489700Y-127579500D02*
X31807700Y-127579500D01*
X57193600Y-126875600D02*
X56489700Y-127579500D01*
X65771000Y-126875600D02*
X57193600Y-126875600D01*
X68937400Y-123709200D02*
X65771000Y-126875600D01*
X55392100Y-26557700D02*
X64339300Y-26557700D01*
X55356600Y-26522100D02*
X55392100Y-26557700D01*
X54596200Y-27282500D02*
X55356600Y-26522100D01*
X78767600Y-53135200D02*
X79131300Y-53135200D01*
X78525300Y-53377500D02*
X78767600Y-53135200D01*
X80363100Y-49246200D02*
X74868100Y-43751200D01*
X80363100Y-51903400D02*
X80363100Y-49246200D01*
X79131300Y-53135200D02*
X80363100Y-51903400D01*
X27937400Y-147500000D02*
X27937400Y-147992000D01*
X5960400Y-147500000D02*
X5960400Y-148709200D01*
X27220200Y-148709200D02*
X27937400Y-147992000D01*
X5960400Y-148709200D02*
X27220200Y-148709200D01*
X77600000Y-55917500D02*
X76674700Y-55917500D01*
X76367300Y-56224900D02*
X75410900Y-56224900D01*
X76674700Y-55917500D02*
X76367300Y-56224900D01*
X54242600Y-26928900D02*
X55003100Y-26168400D01*
X55003100Y-26168500D02*
X55003100Y-26168400D01*
X55007300Y-26168500D02*
X55003100Y-26168500D01*
X55582700Y-25593100D02*
X55007300Y-26168500D01*
X55683400Y-25593100D02*
X55582700Y-25593100D01*
X55695900Y-25580600D02*
X55683400Y-25593100D01*
X55765900Y-25580600D02*
X55695900Y-25580600D01*
X56025200Y-25321300D02*
X55765900Y-25580600D01*
X56213600Y-25321300D02*
X56025200Y-25321300D01*
X56297500Y-25237400D02*
X56213600Y-25321300D01*
X72944200Y-25237400D02*
X56297500Y-25237400D01*
X73352000Y-25645200D02*
X72944200Y-25237400D01*
X73869400Y-25645200D02*
X73352000Y-25645200D01*
X74220000Y-25995800D02*
X73869400Y-25645200D01*
X74374300Y-25995800D02*
X74220000Y-25995800D01*
X74421100Y-26042600D02*
X74374300Y-25995800D01*
X68937400Y-147500000D02*
X68937400Y-146290800D01*
X69819300Y-145408900D02*
X68937400Y-146290800D01*
X71596400Y-145408900D02*
X69819300Y-145408900D01*
X73926900Y-143078400D02*
X71596400Y-145408900D01*
X32902700Y-152957300D02*
X27937400Y-147992000D01*
X63988500Y-152957300D02*
X32902700Y-152957300D01*
X64905800Y-153874600D02*
X63988500Y-152957300D01*
X69316400Y-153874600D02*
X64905800Y-153874600D01*
X76427200Y-160985400D02*
X69316400Y-153874600D01*
X81192000Y-160985400D02*
X76427200Y-160985400D01*
X84499300Y-157678100D02*
X81192000Y-160985400D01*
X84499300Y-147750000D02*
X84499300Y-157678100D01*
X82520400Y-145771100D02*
X84499300Y-147750000D01*
X76619600Y-145771100D02*
X82520400Y-145771100D01*
X73926900Y-143078400D02*
X76619600Y-145771100D01*
X84499300Y-147750000D02*
X89210400Y-147750000D01*
X76674700Y-54162800D02*
X76488000Y-54349500D01*
X76674700Y-54012500D02*
X76674700Y-54162800D01*
X77600000Y-54012500D02*
X76674700Y-54012500D01*
X75088700Y-26697000D02*
X75423000Y-27031300D01*
X75088700Y-25825700D02*
X75088700Y-26697000D01*
X74007600Y-24744600D02*
X75088700Y-25825700D01*
X55887400Y-24744600D02*
X74007600Y-24744600D01*
X55660500Y-24971500D02*
X55887400Y-24744600D01*
X55493000Y-24971500D02*
X55660500Y-24971500D01*
X53889100Y-26575400D02*
X55493000Y-24971500D01*
X39428600Y-153608100D02*
X63208400Y-153608100D01*
X39235400Y-153801300D02*
X39428600Y-153608100D01*
X39235400Y-154423600D02*
X39235400Y-153801300D01*
X9082800Y-6497200D02*
X13080000Y-2500000D01*
X9082800Y-10615400D02*
X9082800Y-6497200D01*
X8297900Y-11400300D02*
X9082800Y-10615400D01*
X8297900Y-12400000D02*
X8297900Y-11400300D01*
X44063900Y-42057400D02*
X45403800Y-40717500D01*
X27709600Y-42057400D02*
X44063900Y-42057400D01*
X22760500Y-37108300D02*
X27709600Y-42057400D01*
X22760500Y-36602800D02*
X22760500Y-37108300D01*
X19300400Y-3899600D02*
X20700000Y-2500000D01*
X14500400Y-3899600D02*
X19300400Y-3899600D01*
X11340000Y-7060000D02*
X14500400Y-3899600D01*
X28153500Y-41533700D02*
X27411900Y-40792100D01*
X43880600Y-41533700D02*
X28153500Y-41533700D01*
X45050300Y-40364000D02*
X43880600Y-41533700D01*
X31550000Y-4350000D02*
X33400000Y-2500000D01*
X20950800Y-4350000D02*
X31550000Y-4350000D01*
X19680800Y-5620000D02*
X20950800Y-4350000D01*
X15320000Y-5620000D02*
X19680800Y-5620000D01*
X13880000Y-7060000D02*
X15320000Y-5620000D01*
X30571200Y-40947700D02*
X30483600Y-40860100D01*
X43759400Y-40947700D02*
X30571200Y-40947700D01*
X44696700Y-40010400D02*
X43759400Y-40947700D01*
X34654100Y-1214100D02*
X35940000Y-2500000D01*
X32857100Y-1214100D02*
X34654100Y-1214100D01*
X32130000Y-1941200D02*
X32857100Y-1214100D01*
X32130000Y-3019300D02*
X32130000Y-1941200D01*
X31249700Y-3899600D02*
X32130000Y-3019300D01*
X20539000Y-3899600D02*
X31249700Y-3899600D01*
X20088600Y-4350000D02*
X20539000Y-3899600D01*
X15001400Y-4350000D02*
X20088600Y-4350000D01*
X12764400Y-6587000D02*
X15001400Y-4350000D01*
X12764400Y-7491700D02*
X12764400Y-6587000D01*
X13433400Y-8160700D02*
X12764400Y-7491700D01*
X15319300Y-8160700D02*
X13433400Y-8160700D01*
X16420000Y-7060000D02*
X15319300Y-8160700D01*
X43422600Y-40417200D02*
X43582800Y-40417200D01*
X43240000Y-40234600D02*
X43422600Y-40417200D01*
X28827800Y-40234600D02*
X43240000Y-40234600D01*
X28563800Y-39970600D02*
X28827800Y-40234600D01*
X27335000Y-39970600D02*
X28563800Y-39970600D01*
X25901900Y-38537500D02*
X27335000Y-39970600D01*
X44343100Y-39656900D02*
X43582800Y-40417200D01*
X21015700Y-5004300D02*
X18960000Y-7060000D01*
X35975700Y-5004300D02*
X21015700Y-5004300D01*
X38480000Y-2500000D02*
X35975700Y-5004300D01*
X45424400Y-37868500D02*
X43989600Y-39303300D01*
X45424400Y-35520300D02*
X45424400Y-37868500D01*
X37997800Y-5522200D02*
X41020000Y-2500000D01*
X23037800Y-5522200D02*
X37997800Y-5522200D01*
X21500000Y-7060000D02*
X23037800Y-5522200D01*
X44732800Y-37852900D02*
X43636000Y-38949700D01*
X44732800Y-36705100D02*
X44732800Y-37852900D01*
X43560000Y-7528200D02*
X43560000Y-2500000D01*
X46000000Y-9968200D02*
X43560000Y-7528200D01*
X46000000Y-10738000D02*
X46000000Y-9968200D01*
X23580000Y-33960000D02*
X23580000Y-35785300D01*
X42077800Y-34545700D02*
X41539500Y-35084000D01*
X44877800Y-34545700D02*
X42077800Y-34545700D01*
X45189400Y-34234100D02*
X44877800Y-34545700D01*
X58719400Y-34234100D02*
X45189400Y-34234100D01*
X59899500Y-35414200D02*
X58719400Y-34234100D01*
X24671000Y-35785300D02*
X23580000Y-35785300D01*
X26501400Y-37615700D02*
X24671000Y-35785300D01*
X35239800Y-37615700D02*
X26501400Y-37615700D01*
X37144300Y-35711200D02*
X35239800Y-37615700D01*
X38863500Y-35711200D02*
X37144300Y-35711200D01*
X39176100Y-35398600D02*
X38863500Y-35711200D01*
X47063900Y-143016700D02*
X47500000Y-143016700D01*
X46762000Y-142714800D02*
X47063900Y-143016700D01*
X47500000Y-143850000D02*
X47500000Y-143016700D01*
X49055300Y-72334800D02*
X48930100Y-72460000D01*
X49055300Y-71190000D02*
X49055300Y-72334800D01*
X47230000Y-71190000D02*
X49055300Y-71190000D01*
X46762000Y-142329900D02*
X46762000Y-142714800D01*
X46762000Y-142329900D02*
X46762000Y-141945000D01*
X49870200Y-138067000D02*
X50067800Y-138067000D01*
X46762000Y-141175200D02*
X49870200Y-138067000D01*
X46762000Y-141945000D02*
X46762000Y-141175200D01*
X56127600Y-56375600D02*
X56320900Y-56568900D01*
X56127600Y-45460900D02*
X56127600Y-56375600D01*
X54575400Y-43908700D02*
X56127600Y-45460900D01*
X54575400Y-43525100D02*
X54575400Y-43908700D01*
X53182000Y-42131700D02*
X54575400Y-43525100D01*
X78980000Y-33960000D02*
X78980000Y-35785300D01*
X72358600Y-40581400D02*
X63675900Y-40581400D01*
X77154700Y-35785300D02*
X72358600Y-40581400D01*
X78980000Y-35785300D02*
X77154700Y-35785300D01*
X52828400Y-42485300D02*
X53588900Y-43245700D01*
X95500000Y-104030000D02*
X95500000Y-104863300D01*
X77154700Y-26594700D02*
X78980000Y-26594700D01*
X76510900Y-25950900D02*
X77154700Y-26594700D01*
X76264200Y-25950900D02*
X76510900Y-25950900D01*
X78980000Y-28420000D02*
X78980000Y-26594700D01*
X51857400Y-73730000D02*
X50944700Y-73730000D01*
X51857400Y-73730000D02*
X52770000Y-73730000D01*
X67209800Y-75225100D02*
X73167400Y-75225100D01*
X65564600Y-76870300D02*
X67209800Y-75225100D01*
X59773600Y-76870300D02*
X65564600Y-76870300D01*
X56633300Y-73730000D02*
X59773600Y-76870300D01*
X52770000Y-73730000D02*
X56633300Y-73730000D01*
X96996600Y-106530100D02*
X95607900Y-106530100D01*
X97146600Y-106680100D02*
X96996600Y-106530100D01*
X97146600Y-107871100D02*
X97146600Y-106680100D01*
X95304100Y-109713600D02*
X97146600Y-107871100D01*
X76089600Y-109713600D02*
X95304100Y-109713600D01*
X75971500Y-109595500D02*
X76089600Y-109713600D01*
X95607900Y-104971200D02*
X95607900Y-106530100D01*
X95500000Y-104863300D02*
X95607900Y-104971200D01*
X95607900Y-106530100D02*
X94838000Y-107300000D01*
X53930400Y-43587300D02*
X53588900Y-43245700D01*
X53930400Y-43934400D02*
X53930400Y-43587300D01*
X54491100Y-44495100D02*
X53930400Y-43934400D01*
X54491100Y-44594200D02*
X54491100Y-44495100D01*
X55677300Y-45780400D02*
X54491100Y-44594200D01*
X55677300Y-62997800D02*
X55677300Y-45780400D01*
X55462400Y-63212700D02*
X55677300Y-62997800D01*
X55462400Y-64486300D02*
X55462400Y-63212700D01*
X55427600Y-64521100D02*
X55462400Y-64486300D01*
X55427600Y-64939600D02*
X55427600Y-64521100D01*
X55219800Y-65147400D02*
X55427600Y-64939600D01*
X55219800Y-65557600D02*
X55219800Y-65147400D01*
X54260500Y-66516900D02*
X55219800Y-65557600D01*
X54260500Y-67239400D02*
X54260500Y-66516900D01*
X50944700Y-70555200D02*
X54260500Y-67239400D01*
X50944700Y-73730000D02*
X50944700Y-70555200D01*
X47230000Y-73730000D02*
X45404700Y-73730000D01*
X52474900Y-42838800D02*
X53235400Y-43599200D01*
X81520000Y-33960000D02*
X81520000Y-35785300D01*
X73262000Y-128755000D02*
X73646900Y-128755000D01*
X73646900Y-128755000D02*
X74031800Y-128755000D01*
X74000000Y-129108100D02*
X74000000Y-130660000D01*
X73646900Y-128755000D02*
X74000000Y-129108100D01*
X78040200Y-39265100D02*
X75978900Y-39265100D01*
X81520000Y-35785300D02*
X78040200Y-39265100D01*
X54967100Y-78697200D02*
X69155500Y-78697200D01*
X54967100Y-79117000D02*
X54967100Y-78697200D01*
X54448700Y-79635400D02*
X54967100Y-79117000D01*
X51113500Y-79635400D02*
X54448700Y-79635400D01*
X49035700Y-77557600D02*
X51113500Y-79635400D01*
X46001000Y-77557600D02*
X49035700Y-77557600D01*
X45404700Y-76961300D02*
X46001000Y-77557600D01*
X45404700Y-73730000D02*
X45404700Y-76961300D01*
X53480100Y-43844000D02*
X53235400Y-43599200D01*
X53480100Y-44121000D02*
X53480100Y-43844000D01*
X54040800Y-44681700D02*
X53480100Y-44121000D01*
X54040800Y-44780800D02*
X54040800Y-44681700D01*
X55227000Y-45967000D02*
X54040800Y-44780800D01*
X55227000Y-62811200D02*
X55227000Y-45967000D01*
X55002000Y-63036200D02*
X55227000Y-62811200D01*
X55002000Y-64309800D02*
X55002000Y-63036200D01*
X54977300Y-64334500D02*
X55002000Y-64309800D01*
X54977300Y-64753000D02*
X54977300Y-64334500D01*
X54769500Y-64960800D02*
X54977300Y-64753000D01*
X54769500Y-65371000D02*
X54769500Y-64960800D01*
X53809000Y-66331500D02*
X54769500Y-65371000D01*
X53809000Y-66410900D02*
X53809000Y-66331500D01*
X53357300Y-66862600D02*
X53809000Y-66410900D01*
X53357300Y-67250400D02*
X53357300Y-66862600D01*
X50494400Y-70113300D02*
X53357300Y-67250400D01*
X50494400Y-73916600D02*
X50494400Y-70113300D01*
X51660100Y-75082300D02*
X50494400Y-73916600D01*
X51660200Y-75082300D02*
X51660100Y-75082300D01*
X51832400Y-75254500D02*
X51660200Y-75082300D01*
X54214600Y-75254500D02*
X51832400Y-75254500D01*
X54967100Y-76007000D02*
X54214600Y-75254500D01*
X54967100Y-78697200D02*
X54967100Y-76007000D01*
X74031800Y-128656100D02*
X74229000Y-128458900D01*
X74031800Y-128755000D02*
X74031800Y-128656100D01*
X52770000Y-76270000D02*
X50944700Y-76270000D01*
X52121300Y-43192400D02*
X52881700Y-43952700D01*
X53029800Y-44100900D02*
X52881700Y-43952700D01*
X53029800Y-44307600D02*
X53029800Y-44100900D01*
X53590500Y-44868300D02*
X53029800Y-44307600D01*
X53590500Y-44967400D02*
X53590500Y-44868300D01*
X53664100Y-45041000D02*
X53590500Y-44967400D01*
X53664100Y-45041100D02*
X53664100Y-45041000D01*
X54776700Y-46153700D02*
X53664100Y-45041100D01*
X54776700Y-62624600D02*
X54776700Y-46153700D01*
X54531800Y-62869500D02*
X54776700Y-62624600D01*
X54531800Y-64143100D02*
X54531800Y-62869500D01*
X54527000Y-64147900D02*
X54531800Y-64143100D01*
X54527000Y-64566400D02*
X54527000Y-64147900D01*
X54319200Y-64774200D02*
X54527000Y-64566400D01*
X54319200Y-65184400D02*
X54319200Y-64774200D01*
X50044000Y-69459600D02*
X54319200Y-65184400D01*
X50044000Y-75369300D02*
X50044000Y-69459600D01*
X50944700Y-76270000D02*
X50044000Y-75369300D01*
X33725200Y-45433000D02*
X33296200Y-45862000D01*
X47052300Y-45433000D02*
X33725200Y-45433000D01*
X48585800Y-43899500D02*
X47052300Y-45433000D01*
X47230000Y-78810000D02*
X45404700Y-78810000D01*
X45404700Y-78799400D02*
X39984500Y-73379200D01*
X45404700Y-78810000D02*
X45404700Y-78799400D01*
X21040000Y-33960000D02*
X21040000Y-35785300D01*
X47048100Y-44023000D02*
X47878700Y-43192400D01*
X46253200Y-44023000D02*
X47048100Y-44023000D01*
X45802900Y-44473300D02*
X46253200Y-44023000D01*
X33314800Y-44473300D02*
X45802900Y-44473300D01*
X32063800Y-43222300D02*
X33314800Y-44473300D01*
X27507500Y-43222300D02*
X32063800Y-43222300D01*
X21040000Y-36754800D02*
X27507500Y-43222300D01*
X21040000Y-35785300D02*
X21040000Y-36754800D01*
X23580000Y-28420000D02*
X23580000Y-30245300D01*
X46791300Y-43572600D02*
X47525100Y-42838800D01*
X46014000Y-43572600D02*
X46791300Y-43572600D01*
X45563600Y-44023000D02*
X46014000Y-43572600D01*
X33501400Y-44023000D02*
X45563600Y-44023000D01*
X32250400Y-42772000D02*
X33501400Y-44023000D01*
X27763500Y-42772000D02*
X32250400Y-42772000D01*
X22082300Y-37090800D02*
X27763500Y-42772000D01*
X22082300Y-32536000D02*
X22082300Y-37090800D01*
X21681000Y-32134700D02*
X22082300Y-32536000D01*
X20367100Y-32134700D02*
X21681000Y-32134700D01*
X19770000Y-32731800D02*
X20367100Y-32134700D01*
X19770000Y-35224200D02*
X19770000Y-32731800D01*
X18308300Y-36685900D02*
X19770000Y-35224200D01*
X14908000Y-36685900D02*
X18308300Y-36685900D01*
X14234000Y-36011900D02*
X14908000Y-36685900D01*
X14234000Y-31909300D02*
X14234000Y-36011900D01*
X15898000Y-30245300D02*
X14234000Y-31909300D01*
X23580000Y-30245300D02*
X15898000Y-30245300D01*
X40908000Y-101776000D02*
X40908000Y-101006200D01*
X70314400Y-15240000D02*
X69671600Y-15240000D01*
X66547400Y-15687900D02*
X66547400Y-15265400D01*
X66358300Y-15877000D02*
X66547400Y-15687900D01*
X67190200Y-15265400D02*
X66547400Y-15265400D01*
X69671600Y-15802400D02*
X69671600Y-15240000D01*
X67713200Y-17760800D02*
X69671600Y-15802400D01*
X66827500Y-17760800D02*
X67713200Y-17760800D01*
X41690600Y-100223600D02*
X45597900Y-100223600D01*
X40908000Y-101006200D02*
X41690600Y-100223600D01*
X41735300Y-38729200D02*
X38743500Y-38729200D01*
X42575400Y-37889100D02*
X41735300Y-38729200D01*
X45404700Y-128808300D02*
X45204700Y-128608300D01*
X45404700Y-128810000D02*
X45404700Y-128808300D01*
X47230000Y-128810000D02*
X45404700Y-128810000D01*
X66827500Y-17880900D02*
X66827500Y-17760800D01*
X65349200Y-19359200D02*
X66827500Y-17880900D01*
X58587700Y-19359200D02*
X65349200Y-19359200D01*
X58397700Y-19549200D02*
X58587700Y-19359200D01*
X58076100Y-19549200D02*
X58397700Y-19549200D01*
X55651600Y-21973700D02*
X58076100Y-19549200D01*
X55032300Y-21973700D02*
X55651600Y-21973700D01*
X53364800Y-23641200D02*
X55032300Y-21973700D01*
X52770000Y-128810000D02*
X50944700Y-128810000D01*
X8262000Y-18000000D02*
X8262000Y-18769800D01*
X73413200Y-15240000D02*
X72770400Y-15240000D01*
X72078600Y-15240000D02*
X72051000Y-15212400D01*
X72770400Y-15240000D02*
X72078600Y-15240000D01*
X41598700Y-129640500D02*
X40196600Y-128238400D01*
X50114200Y-129640500D02*
X41598700Y-129640500D01*
X50944700Y-128810000D02*
X50114200Y-129640500D01*
X30928600Y-24400600D02*
X30928600Y-24465400D01*
X7064700Y-24400600D02*
X30928600Y-24400600D01*
X6419000Y-23754900D02*
X7064700Y-24400600D01*
X6419000Y-20612800D02*
X6419000Y-23754900D01*
X8262000Y-18769800D02*
X6419000Y-20612800D01*
X40320400Y-24331200D02*
X40495400Y-24156200D01*
X30998000Y-24331200D02*
X40320400Y-24331200D01*
X30928600Y-24400600D02*
X30998000Y-24331200D01*
X44047500Y-35709800D02*
X42221800Y-37535500D01*
X44449700Y-35709800D02*
X44047500Y-35709800D01*
X57871400Y-18869400D02*
X58193100Y-18869400D01*
X55501500Y-21239300D02*
X57871400Y-18869400D01*
X44954300Y-21239300D02*
X55501500Y-21239300D01*
X42685800Y-23507800D02*
X44954300Y-21239300D01*
X41143800Y-23507800D02*
X42685800Y-23507800D01*
X40495400Y-24156200D02*
X41143800Y-23507800D01*
X44944400Y-119217400D02*
X45918300Y-118243500D01*
X44944400Y-123269700D02*
X44944400Y-119217400D01*
X45404700Y-123730000D02*
X44944400Y-123269700D01*
X47230000Y-123730000D02*
X45404700Y-123730000D01*
X37667200Y-37653600D02*
X37207100Y-38113700D01*
X39982500Y-37653600D02*
X37667200Y-37653600D01*
X41161200Y-36474900D02*
X39982500Y-37653600D01*
X52770000Y-123730000D02*
X50944700Y-123730000D01*
X45896100Y-117336700D02*
X45535600Y-117336700D01*
X50944700Y-122385300D02*
X45896100Y-117336700D01*
X50944700Y-123730000D02*
X50944700Y-122385300D01*
X37143900Y-37203300D02*
X37033900Y-37313300D01*
X39725600Y-37203300D02*
X37143900Y-37203300D01*
X40807600Y-36121300D02*
X39725600Y-37203300D01*
X40454100Y-35767800D02*
X39693700Y-36528200D01*
X47230000Y-121190000D02*
X45404700Y-121190000D01*
X38454400Y-36577900D02*
X38407400Y-36577900D01*
X38504100Y-36528200D02*
X38454400Y-36577900D01*
X39693600Y-36528200D02*
X38504100Y-36528200D01*
X39693700Y-36528200D02*
X39693600Y-36528200D01*
X45855000Y-120544900D02*
X46685400Y-119714500D01*
X45855000Y-120654400D02*
X45855000Y-120544900D01*
X45579700Y-120929700D02*
X45855000Y-120654400D01*
X45477800Y-120929700D02*
X45579700Y-120929700D01*
X45404700Y-121002800D02*
X45477800Y-120929700D01*
X45404700Y-121190000D02*
X45404700Y-121002800D01*
X40100500Y-35414200D02*
X40860900Y-34653800D01*
X50944700Y-119596800D02*
X49172600Y-117824700D01*
X50944700Y-121190000D02*
X50944700Y-119596800D01*
X52770000Y-121190000D02*
X50944700Y-121190000D01*
X40860900Y-34653900D02*
X40860900Y-34653800D01*
X40864900Y-34653900D02*
X40860900Y-34653900D01*
X41051300Y-34467500D02*
X40864900Y-34653900D01*
X41117800Y-34467500D02*
X41051300Y-34467500D01*
X41574000Y-34011300D02*
X41117800Y-34467500D01*
X41727900Y-34011300D02*
X41574000Y-34011300D01*
X41818800Y-33920400D02*
X41727900Y-34011300D01*
X42145100Y-33920400D02*
X41818800Y-33920400D01*
X42165700Y-33899800D02*
X42145100Y-33920400D01*
X42823200Y-33899800D02*
X42165700Y-33899800D01*
X43518700Y-33204300D02*
X42823200Y-33899800D01*
X43929700Y-33204300D02*
X43518700Y-33204300D01*
X43969000Y-33165000D02*
X43929700Y-33204300D01*
X45600100Y-33165000D02*
X43969000Y-33165000D01*
X46045100Y-32720000D02*
X45600100Y-33165000D01*
X50266700Y-32720000D02*
X46045100Y-32720000D01*
X18500000Y-28420000D02*
X18500000Y-26594700D01*
X40100500Y-32585800D02*
X39340200Y-31825400D01*
X24231000Y-26594700D02*
X18500000Y-26594700D01*
X24814500Y-27178200D02*
X24231000Y-26594700D01*
X24814500Y-28638500D02*
X24814500Y-27178200D01*
X25264800Y-29088800D02*
X24814500Y-28638500D01*
X25264800Y-30087000D02*
X25264800Y-29088800D01*
X26447100Y-31269300D02*
X25264800Y-30087000D01*
X26684900Y-31269300D02*
X26447100Y-31269300D01*
X27715000Y-32299400D02*
X26684900Y-31269300D01*
X27715000Y-35483700D02*
X27715000Y-32299400D01*
X28017800Y-35786500D02*
X27715000Y-35483700D01*
X34434400Y-35786500D02*
X28017800Y-35786500D01*
X36798500Y-33422400D02*
X34434400Y-35786500D01*
X37486800Y-33422400D02*
X36798500Y-33422400D01*
X38323400Y-32585800D02*
X37486800Y-33422400D01*
X38579800Y-32585800D02*
X38323400Y-32585800D01*
X39340200Y-31825400D02*
X38579800Y-32585800D01*
X18500000Y-33960000D02*
X18500000Y-35785300D01*
X40454100Y-32232200D02*
X41214600Y-32992600D01*
X17231700Y-35785300D02*
X18500000Y-35785300D01*
X16781400Y-36235600D02*
X17231700Y-35785300D01*
X15094600Y-36235600D02*
X16781400Y-36235600D01*
X14684300Y-35825300D02*
X15094600Y-36235600D01*
X14684300Y-32095900D02*
X14684300Y-35825300D01*
X15587900Y-31192300D02*
X14684300Y-32095900D01*
X18801700Y-31192300D02*
X15587900Y-31192300D01*
X19210200Y-30783800D02*
X18801700Y-31192300D01*
X22240800Y-30783800D02*
X19210200Y-30783800D01*
X22649300Y-31192300D02*
X22240800Y-30783800D01*
X24114200Y-31192300D02*
X22649300Y-31192300D01*
X24570600Y-31648700D02*
X24114200Y-31192300D01*
X24889100Y-31648700D02*
X24570600Y-31648700D01*
X24895400Y-31655000D02*
X24889100Y-31648700D01*
X25481200Y-31655000D02*
X24895400Y-31655000D01*
X25931500Y-32105300D02*
X25481200Y-31655000D01*
X26805600Y-32105300D02*
X25931500Y-32105300D01*
X26945400Y-32245100D02*
X26805600Y-32105300D01*
X26945400Y-35353300D02*
X26945400Y-32245100D01*
X27829000Y-36236900D02*
X26945400Y-35353300D01*
X34620900Y-36236900D02*
X27829000Y-36236900D01*
X36985100Y-33872700D02*
X34620900Y-36236900D01*
X37673400Y-33872700D02*
X36985100Y-33872700D01*
X37980800Y-33565300D02*
X37673400Y-33872700D01*
X37986600Y-33565300D02*
X37980800Y-33565300D01*
X37995600Y-33556300D02*
X37986600Y-33565300D01*
X40650900Y-33556300D02*
X37995600Y-33556300D01*
X41214600Y-32992600D02*
X40650900Y-33556300D01*
X73063900Y-104706700D02*
X73500000Y-104706700D01*
X72762000Y-104404800D02*
X73063900Y-104706700D01*
X72762000Y-103635000D02*
X72762000Y-104404800D01*
X73500000Y-105540000D02*
X73500000Y-104706700D01*
X52770000Y-71190000D02*
X54482700Y-71190000D01*
X54482700Y-71190000D02*
X55497000Y-71190000D01*
X55497000Y-71190000D02*
X60530500Y-76223500D01*
X72762000Y-102686800D02*
X70189700Y-100114500D01*
X72762000Y-103635000D02*
X72762000Y-102686800D01*
X56980300Y-69706700D02*
X55497000Y-71190000D01*
X56980300Y-55496800D02*
X56980300Y-69706700D01*
X56577900Y-55094400D02*
X56980300Y-55496800D01*
X56577900Y-45274300D02*
X56577900Y-55094400D01*
X55025700Y-43722100D02*
X56577900Y-45274300D01*
X55025700Y-43268400D02*
X55025700Y-43722100D01*
X53535500Y-41778200D02*
X55025700Y-43268400D01*
X45050300Y-27636000D02*
X45810600Y-28396300D01*
X64091400Y-15240000D02*
X63448600Y-15240000D01*
X63448600Y-14999000D02*
X63448600Y-15240000D01*
X61274500Y-12824900D02*
X63448600Y-14999000D01*
X60504300Y-12824900D02*
X61274500Y-12824900D01*
X46085900Y-28396300D02*
X47146800Y-27335400D01*
X45810600Y-28396300D02*
X46085900Y-28396300D01*
X22149700Y-28420000D02*
X22568700Y-28001000D01*
X21040000Y-28420000D02*
X22149700Y-28420000D01*
X23584800Y-17220000D02*
X22605600Y-18199200D01*
X44172000Y-17220000D02*
X23584800Y-17220000D01*
X44638800Y-16753200D02*
X44172000Y-17220000D01*
X46299200Y-16753200D02*
X44638800Y-16753200D01*
X47704900Y-18158900D02*
X46299200Y-16753200D01*
X46818000Y-25868300D02*
X47704800Y-26755100D01*
X33740000Y-33960000D02*
X33740000Y-32134700D01*
X46563400Y-24906500D02*
X47171600Y-25514700D01*
X46156100Y-24906500D02*
X46563400Y-24906500D01*
X44402700Y-26659900D02*
X46156100Y-24906500D01*
X42697500Y-26659900D02*
X44402700Y-26659900D01*
X41874100Y-27483300D02*
X42697500Y-26659900D01*
X37507000Y-27483300D02*
X41874100Y-27483300D01*
X33740000Y-31250300D02*
X37507000Y-27483300D01*
X33740000Y-32134700D02*
X33740000Y-31250300D01*
X47525100Y-25161200D02*
X46764700Y-24400700D01*
X46747800Y-24417600D02*
X46764700Y-24400700D01*
X45999700Y-24417600D02*
X46747800Y-24417600D01*
X44307700Y-26109600D02*
X45999700Y-24417600D01*
X43947400Y-26109600D02*
X44307700Y-26109600D01*
X43847400Y-26209600D02*
X43947400Y-26109600D01*
X42510900Y-26209600D02*
X43847400Y-26209600D01*
X41687500Y-27033000D02*
X42510900Y-26209600D01*
X35127000Y-27033000D02*
X41687500Y-27033000D01*
X33740000Y-28420000D02*
X35127000Y-27033000D01*
X31200000Y-33960000D02*
X31200000Y-32134700D01*
X47878700Y-24807600D02*
X47118400Y-24047200D01*
X47118300Y-24047300D02*
X47118400Y-24047200D01*
X47048200Y-24047300D02*
X47118300Y-24047300D01*
X46942100Y-23941200D02*
X47048200Y-24047300D01*
X45755500Y-23941200D02*
X46942100Y-23941200D01*
X44387700Y-25309000D02*
X45755500Y-23941200D01*
X44111100Y-25309000D02*
X44387700Y-25309000D01*
X43660800Y-25759300D02*
X44111100Y-25309000D01*
X42324300Y-25759300D02*
X43660800Y-25759300D01*
X41500900Y-26582700D02*
X42324300Y-25759300D01*
X33049100Y-26582700D02*
X41500900Y-26582700D01*
X32844900Y-26786900D02*
X33049100Y-26582700D01*
X32844900Y-30489800D02*
X32844900Y-26786900D01*
X31200000Y-32134700D02*
X32844900Y-30489800D01*
X49552500Y-24654700D02*
X48992700Y-25214500D01*
X49552500Y-24348400D02*
X49552500Y-24654700D01*
X48244700Y-23040600D02*
X49552500Y-24348400D01*
X45082100Y-23040600D02*
X48244700Y-23040600D01*
X43264000Y-24858700D02*
X45082100Y-23040600D01*
X41951100Y-24858700D02*
X43264000Y-24858700D01*
X41127700Y-25682100D02*
X41951100Y-24858700D01*
X32669600Y-25682100D02*
X41127700Y-25682100D01*
X31757000Y-26594700D02*
X32669600Y-25682100D01*
X31200000Y-26594700D02*
X31757000Y-26594700D01*
X31200000Y-28420000D02*
X31200000Y-26594700D01*
X48232200Y-24454100D02*
X48992700Y-25214500D01*
X28660000Y-33960000D02*
X28660000Y-32134700D01*
X47976200Y-23490900D02*
X48585800Y-24100500D01*
X45291400Y-23490900D02*
X47976200Y-23490900D01*
X43473300Y-25309000D02*
X45291400Y-23490900D01*
X42137700Y-25309000D02*
X43473300Y-25309000D01*
X41314300Y-26132400D02*
X42137700Y-25309000D01*
X32860000Y-26132400D02*
X41314300Y-26132400D01*
X32050700Y-26941700D02*
X32860000Y-26132400D01*
X32050700Y-30113000D02*
X32050700Y-26941700D01*
X30029000Y-32134700D02*
X32050700Y-30113000D01*
X28660000Y-32134700D02*
X30029000Y-32134700D01*
X28660000Y-28420000D02*
X28660000Y-26594700D01*
X51414200Y-24100500D02*
X50653900Y-24860800D01*
X29572600Y-25682100D02*
X28660000Y-26594700D01*
X31411000Y-25682100D02*
X29572600Y-25682100D01*
X31861300Y-25231800D02*
X31411000Y-25682100D01*
X40941100Y-25231800D02*
X31861300Y-25231800D01*
X41764500Y-24408400D02*
X40941100Y-25231800D01*
X43077400Y-24408400D02*
X41764500Y-24408400D01*
X44895500Y-22590300D02*
X43077400Y-24408400D01*
X48462900Y-22590300D02*
X44895500Y-22590300D01*
X50447000Y-24574400D02*
X48462900Y-22590300D01*
X50447000Y-24654000D02*
X50447000Y-24574400D01*
X50653900Y-24860800D02*
X50447000Y-24654000D01*
X26120000Y-33960000D02*
X26120000Y-35785300D01*
X46399500Y-29822400D02*
X51767800Y-24454100D01*
X45067300Y-29822400D02*
X46399500Y-29822400D01*
X40872600Y-34017100D02*
X45067300Y-29822400D01*
X38635600Y-34017100D02*
X40872600Y-34017100D01*
X38264700Y-34388000D02*
X38635600Y-34017100D01*
X37131900Y-34388000D02*
X38264700Y-34388000D01*
X34804900Y-36715000D02*
X37131900Y-34388000D01*
X27049700Y-36715000D02*
X34804900Y-36715000D01*
X26120000Y-35785300D02*
X27049700Y-36715000D01*
X26120000Y-28420000D02*
X26120000Y-26594700D01*
X52121300Y-24807600D02*
X52881700Y-24047200D01*
X27482900Y-25231800D02*
X26120000Y-26594700D01*
X31139400Y-25231800D02*
X27482900Y-25231800D01*
X31589700Y-24781500D02*
X31139400Y-25231800D01*
X40754500Y-24781500D02*
X31589700Y-24781500D01*
X41577900Y-23958100D02*
X40754500Y-24781500D01*
X42890800Y-23958100D02*
X41577900Y-23958100D01*
X44708900Y-22140000D02*
X42890800Y-23958100D01*
X49206800Y-22140000D02*
X44708900Y-22140000D01*
X49616300Y-22549500D02*
X49206800Y-22140000D01*
X51443400Y-22549500D02*
X49616300Y-22549500D01*
X52734500Y-23840600D02*
X51443400Y-22549500D01*
X52734500Y-23900100D02*
X52734500Y-23840600D01*
X52881700Y-24047200D02*
X52734500Y-23900100D01*
X56364000Y-29050300D02*
X57080300Y-28334000D01*
X57563700Y-27850600D02*
X57080300Y-28334000D01*
X65710600Y-27850600D02*
X57563700Y-27850600D01*
X66280000Y-28420000D02*
X65710600Y-27850600D01*
X66280000Y-33960000D02*
X66280000Y-32134700D01*
X57820400Y-28300900D02*
X56717500Y-29403800D01*
X62446200Y-28300900D02*
X57820400Y-28300900D01*
X66280000Y-32134700D02*
X62446200Y-28300900D01*
X68820000Y-28420000D02*
X68820000Y-30245300D01*
X58077300Y-28751200D02*
X57071100Y-29757400D01*
X61110900Y-28751200D02*
X58077300Y-28751200D01*
X65322900Y-32963200D02*
X61110900Y-28751200D01*
X65322900Y-35478100D02*
X65322900Y-32963200D01*
X65630100Y-35785300D02*
X65322900Y-35478100D01*
X66994700Y-35785300D02*
X65630100Y-35785300D01*
X67994700Y-34785300D02*
X66994700Y-35785300D01*
X67994700Y-31070600D02*
X67994700Y-34785300D01*
X68820000Y-30245300D02*
X67994700Y-31070600D01*
X68820000Y-33960000D02*
X68820000Y-35785300D01*
X58332200Y-29203300D02*
X57424600Y-30110900D01*
X60926100Y-29203300D02*
X58332200Y-29203300D01*
X64872600Y-33149800D02*
X60926100Y-29203300D01*
X64872600Y-35664700D02*
X64872600Y-33149800D01*
X65443500Y-36235600D02*
X64872600Y-35664700D01*
X67181300Y-36235600D02*
X65443500Y-36235600D01*
X67631600Y-35785300D02*
X67181300Y-36235600D01*
X68820000Y-35785300D02*
X67631600Y-35785300D01*
X71360000Y-28420000D02*
X71360000Y-30245300D01*
X57778200Y-30464500D02*
X58538700Y-29704000D01*
X58539000Y-29704400D02*
X58538700Y-29704000D01*
X60363900Y-29704400D02*
X58539000Y-29704400D01*
X60397900Y-29738400D02*
X60363900Y-29704400D01*
X60769200Y-29738400D02*
X60397900Y-29738400D01*
X61621900Y-30591100D02*
X60769200Y-29738400D01*
X61621900Y-30962400D02*
X61621900Y-30591100D01*
X62331500Y-31672000D02*
X61621900Y-30962400D01*
X62331500Y-32308900D02*
X62331500Y-31672000D01*
X63972000Y-33949400D02*
X62331500Y-32308900D01*
X63972000Y-35401000D02*
X63972000Y-33949400D01*
X65313100Y-36742100D02*
X63972000Y-35401000D01*
X67405100Y-36742100D02*
X65313100Y-36742100D01*
X67911600Y-36235600D02*
X67405100Y-36742100D01*
X69023200Y-36235600D02*
X67911600Y-36235600D01*
X70534700Y-34724100D02*
X69023200Y-36235600D01*
X70534700Y-31070600D02*
X70534700Y-34724100D01*
X71360000Y-30245300D02*
X70534700Y-31070600D01*
X58761000Y-30188700D02*
X58131700Y-30818000D01*
X60582600Y-30188700D02*
X58761000Y-30188700D01*
X61171600Y-30777700D02*
X60582600Y-30188700D01*
X61171600Y-31149000D02*
X61171600Y-30777700D01*
X61722100Y-31699500D02*
X61171600Y-31149000D01*
X61722100Y-32569100D02*
X61722100Y-31699500D01*
X63186000Y-34033000D02*
X61722100Y-32569100D01*
X63186000Y-35274000D02*
X63186000Y-34033000D01*
X65141500Y-37229500D02*
X63186000Y-35274000D01*
X67609100Y-37229500D02*
X65141500Y-37229500D01*
X68152700Y-36685900D02*
X67609100Y-37229500D01*
X69245600Y-36685900D02*
X68152700Y-36685900D01*
X71360000Y-34571500D02*
X69245600Y-36685900D01*
X71360000Y-33960000D02*
X71360000Y-34571500D01*
X58485300Y-31171600D02*
X57724900Y-31932000D01*
X73900000Y-28420000D02*
X73900000Y-26594700D01*
X56865800Y-31366600D02*
X56812300Y-31313100D01*
X57291200Y-31792000D02*
X56865800Y-31366600D01*
X57584800Y-31792000D02*
X57291200Y-31792000D01*
X57724900Y-31932000D02*
X57584800Y-31792000D01*
X72995300Y-25925400D02*
X62116100Y-25925400D01*
X73664600Y-26594700D02*
X72995300Y-25925400D01*
X73900000Y-26594700D02*
X73664600Y-26594700D01*
X84830800Y-2796500D02*
X84830800Y-5996900D01*
X83987700Y-7121000D02*
X84830800Y-7121000D01*
X83356900Y-7751800D02*
X83987700Y-7121000D01*
X83356900Y-12467000D02*
X83356900Y-7751800D01*
X85745000Y-14855100D02*
X83356900Y-12467000D01*
X85745000Y-15852500D02*
X85745000Y-14855100D01*
X84992100Y-16605400D02*
X85745000Y-15852500D01*
X83984800Y-16605400D02*
X84992100Y-16605400D01*
X81795800Y-14416400D02*
X83984800Y-16605400D01*
X81795800Y-14224000D02*
X81795800Y-14416400D01*
X81026000Y-14224000D02*
X81795800Y-14224000D01*
X84830800Y-5996900D02*
X84830800Y-7121000D01*
X1905000Y-74930000D02*
X1905000Y-77470000D01*
X3730300Y-82806900D02*
X3730300Y-77470000D01*
X2540000Y-83997200D02*
X3730300Y-82806900D01*
X2540000Y-84640000D02*
X2540000Y-83997200D01*
X1905000Y-77470000D02*
X3730300Y-77470000D01*
X88850000Y-25850300D02*
X88850000Y-19650300D01*
X76440000Y-33960000D02*
X76440000Y-32134700D01*
X10150000Y-102500000D02*
X10150000Y-100674700D01*
X86376800Y-32134700D02*
X87630000Y-33387900D01*
X76440000Y-32134700D02*
X86376800Y-32134700D01*
X87630000Y-33387900D02*
X87630000Y-33482300D01*
X88850000Y-25850300D02*
X88850000Y-27075600D01*
X78262000Y-25000000D02*
X79031800Y-25000000D01*
X88280500Y-32737400D02*
X88280500Y-27645100D01*
X87630000Y-33387900D02*
X88280500Y-32737400D01*
X88280500Y-27645100D02*
X88850000Y-27075600D01*
X79285000Y-25253200D02*
X79031800Y-25000000D01*
X82440300Y-25253200D02*
X79285000Y-25253200D01*
X82585800Y-25107700D02*
X82440300Y-25253200D01*
X83292300Y-25107700D02*
X82585800Y-25107700D01*
X83659800Y-25475200D02*
X83292300Y-25107700D01*
X83659800Y-26281200D02*
X83659800Y-25475200D01*
X85023700Y-27645100D02*
X83659800Y-26281200D01*
X88280500Y-27645100D02*
X85023700Y-27645100D01*
X23039900Y-92249500D02*
X23165900Y-92123500D01*
X18575200Y-92249500D02*
X23039900Y-92249500D01*
X10150000Y-100674700D02*
X18575200Y-92249500D01*
X36850000Y-8330000D02*
X30303300Y-14876700D01*
X41820000Y-8330000D02*
X36850000Y-8330000D01*
X76440000Y-33960000D02*
X76440000Y-35785300D01*
X49947400Y-31077500D02*
X49641400Y-30771500D01*
X54131600Y-31077500D02*
X49947400Y-31077500D01*
X54239900Y-30969200D02*
X54131600Y-31077500D01*
X47171600Y-42485300D02*
X49753600Y-39903300D01*
X56894500Y-40193500D02*
X56202800Y-40885200D01*
X63095500Y-40193500D02*
X56894500Y-40193500D01*
X63375400Y-39913600D02*
X63095500Y-40193500D01*
X72311700Y-39913600D02*
X63375400Y-39913600D01*
X76440000Y-35785300D02*
X72311700Y-39913600D01*
X57970000Y-15240000D02*
X57970000Y-14279700D01*
X59253800Y-9095700D02*
X59253800Y-10219800D01*
X74313200Y-15240000D02*
X74313200Y-14279700D01*
X57970000Y-15240000D02*
X57970000Y-16200300D01*
X57970000Y-13846800D02*
X57970000Y-14279700D01*
X59253800Y-12563000D02*
X57970000Y-13846800D01*
X59253800Y-10219800D02*
X59253800Y-12563000D01*
X69828200Y-14279700D02*
X74313200Y-14279700D01*
X68831500Y-15276400D02*
X69828200Y-14279700D01*
X68831500Y-15936700D02*
X68831500Y-15276400D01*
X67632800Y-17135400D02*
X68831500Y-15936700D01*
X65929700Y-17135400D02*
X67632800Y-17135400D01*
X65912100Y-17153000D02*
X65929700Y-17135400D01*
X58922700Y-17153000D02*
X65912100Y-17153000D01*
X57970000Y-16200300D02*
X58922700Y-17153000D01*
X43319400Y-27582800D02*
X43582800Y-27582800D01*
X43092100Y-27810100D02*
X43319400Y-27582800D01*
X44343100Y-28343100D02*
X43582800Y-27582800D01*
X44513000Y-20159300D02*
X42802500Y-21869800D01*
X52547900Y-20159300D02*
X44513000Y-20159300D01*
X53620400Y-19086800D02*
X52547900Y-20159300D01*
X53620400Y-18593700D02*
X53620400Y-19086800D01*
X56974100Y-15240000D02*
X53620400Y-18593700D01*
X57970000Y-15240000D02*
X56974100Y-15240000D01*
X18203200Y-23389600D02*
X18094300Y-23280700D01*
X39734300Y-23389600D02*
X18203200Y-23389600D01*
X40518100Y-22605800D02*
X39734300Y-23389600D01*
X42066500Y-22605800D02*
X40518100Y-22605800D01*
X42802500Y-21869800D02*
X42066500Y-22605800D01*
X17567700Y-26594700D02*
X18094300Y-26068100D01*
X15960000Y-26594700D02*
X17567700Y-26594700D01*
X15960000Y-28420000D02*
X15960000Y-26594700D01*
X7445000Y-72390000D02*
X9270300Y-72390000D01*
X78000000Y-21270000D02*
X75027100Y-24242900D01*
X66854400Y-83462800D02*
X72542100Y-77775100D01*
X50358100Y-83462800D02*
X66854400Y-83462800D01*
X47958300Y-85862600D02*
X50358100Y-83462800D01*
X36884200Y-85862600D02*
X47958300Y-85862600D01*
X35692000Y-84670400D02*
X36884200Y-85862600D01*
X35692000Y-84533500D02*
X35692000Y-84670400D01*
X25668900Y-74510400D02*
X35692000Y-84533500D01*
X19034200Y-74510400D02*
X25668900Y-74510400D01*
X16913800Y-72390000D02*
X19034200Y-74510400D01*
X9270300Y-72390000D02*
X16913800Y-72390000D01*
X78000000Y-15730000D02*
X78000000Y-17555300D01*
X7445000Y-74930000D02*
X5619700Y-74930000D01*
X78127200Y-23604600D02*
X76579800Y-23604600D01*
X78825300Y-22906500D02*
X78127200Y-23604600D01*
X78825300Y-18380600D02*
X78825300Y-22906500D01*
X78000000Y-17555300D02*
X78825300Y-18380600D01*
X5619700Y-78158200D02*
X5619700Y-74930000D01*
X11784600Y-84323100D02*
X5619700Y-78158200D01*
X26062700Y-84323100D02*
X11784600Y-84323100D01*
X28434600Y-86695000D02*
X26062700Y-84323100D01*
X34200400Y-86695000D02*
X28434600Y-86695000D01*
X34530100Y-86365300D02*
X34200400Y-86695000D01*
X60166400Y-86365300D02*
X34530100Y-86365300D01*
X61653800Y-84877900D02*
X60166400Y-86365300D01*
X67316700Y-84877900D02*
X61653800Y-84877900D01*
X77984400Y-74210200D02*
X67316700Y-84877900D01*
X36494000Y-103737000D02*
X35597200Y-103737000D01*
X35470200Y-103610000D02*
X34208000Y-103610000D01*
X35597200Y-103737000D02*
X35470200Y-103610000D01*
X17200700Y-78750000D02*
X17200700Y-79375000D01*
X16690600Y-78239900D02*
X17200700Y-78750000D01*
X10040200Y-78239900D02*
X16690600Y-78239900D01*
X9270300Y-77470000D02*
X10040200Y-78239900D01*
X7445000Y-77470000D02*
X9270300Y-77470000D01*
X18034000Y-79375000D02*
X17200700Y-79375000D01*
X18034000Y-79375000D02*
X18034000Y-80271800D01*
X18034000Y-82288200D02*
X18034000Y-80271800D01*
X17907000Y-82415200D02*
X18034000Y-82288200D01*
X17907000Y-83185000D02*
X17907000Y-82800100D01*
X17907000Y-82800100D02*
X17907000Y-82415200D01*
X20197400Y-82800100D02*
X21061300Y-83664000D01*
X17907000Y-82800100D02*
X20197400Y-82800100D01*
X31081500Y-103610000D02*
X34208000Y-103610000D01*
X20893500Y-93422000D02*
X31081500Y-103610000D01*
X16256000Y-79823400D02*
X16256000Y-80271800D01*
X16256000Y-82288200D02*
X16256000Y-80271800D01*
X16383000Y-82415200D02*
X16256000Y-82288200D01*
X16383000Y-83185000D02*
X16383000Y-82415200D01*
X16256000Y-79823400D02*
X16256000Y-79375000D01*
X1905000Y-69850000D02*
X3730300Y-69850000D01*
X13093500Y-79375000D02*
X12585200Y-78866700D01*
X16256000Y-79375000D02*
X13093500Y-79375000D01*
X3730300Y-70011800D02*
X4389500Y-70671000D01*
X3730300Y-69850000D02*
X3730300Y-70011800D01*
X36494000Y-101959000D02*
X35597200Y-101959000D01*
X35470200Y-102086000D02*
X34208000Y-102086000D01*
X35597200Y-101959000D02*
X35470200Y-102086000D01*
X4054300Y-67634000D02*
X3730300Y-67310000D01*
X4382400Y-67634000D02*
X4054300Y-67634000D01*
X1905000Y-67310000D02*
X3730300Y-67310000D01*
X34208000Y-102086000D02*
X33438200Y-102086000D01*
X20305800Y-92796700D02*
X20217000Y-92885500D01*
X21152600Y-92796700D02*
X20305800Y-92796700D01*
X21518800Y-93162900D02*
X21152600Y-92796700D01*
X21518800Y-93366500D02*
X21518800Y-93162900D01*
X30238300Y-102086000D02*
X21518800Y-93366500D01*
X33438200Y-102086000D02*
X30238300Y-102086000D01*
X76540200Y-106317600D02*
X76428800Y-106429000D01*
X76540200Y-106302000D02*
X76540200Y-106317600D01*
X75532000Y-106429000D02*
X76428800Y-106429000D01*
X77310000Y-106302000D02*
X76540200Y-106302000D01*
X75532000Y-106429000D02*
X75532000Y-107262300D01*
X75532000Y-107262300D02*
X75039600Y-107754700D01*
X60401900Y-149850000D02*
X59518400Y-148966500D01*
X60453600Y-149850000D02*
X60401900Y-149850000D01*
X60453600Y-149850000D02*
X60453600Y-150974100D01*
X61986400Y-152506900D02*
X60453600Y-150974100D01*
X64175000Y-152506900D02*
X61986400Y-152506900D01*
X65092400Y-153424300D02*
X64175000Y-152506900D01*
X69728100Y-153424300D02*
X65092400Y-153424300D01*
X76463800Y-160160000D02*
X69728100Y-153424300D01*
X79500000Y-160160000D02*
X76463800Y-160160000D01*
X91694000Y-72644000D02*
X91694000Y-71874200D01*
X93252000Y-70316200D02*
X93252000Y-67318000D01*
X91694000Y-71874200D02*
X93252000Y-70316200D01*
X90170000Y-69850000D02*
X90170000Y-70619800D01*
X48030100Y-126270000D02*
X49055300Y-126270000D01*
X48030100Y-126270000D02*
X47230000Y-126270000D01*
X47230000Y-126270000D02*
X45404700Y-126270000D01*
X89819000Y-70619800D02*
X89592500Y-70846300D01*
X90170000Y-70619800D02*
X89819000Y-70619800D01*
X44494000Y-125359300D02*
X45404700Y-126270000D01*
X44494000Y-117529700D02*
X44494000Y-125359300D01*
X44735200Y-117288500D02*
X44494000Y-117529700D01*
X74508900Y-123709300D02*
X78580700Y-119637500D01*
X71950100Y-123709300D02*
X74508900Y-123709300D01*
X71146600Y-122905800D02*
X71950100Y-123709300D01*
X71146600Y-122423600D02*
X71146600Y-122905800D01*
X70013700Y-121290700D02*
X71146600Y-122423600D01*
X60235800Y-121290700D02*
X70013700Y-121290700D01*
X54431200Y-127095300D02*
X60235800Y-121290700D01*
X49880600Y-127095300D02*
X54431200Y-127095300D01*
X49055300Y-126270000D02*
X49880600Y-127095300D01*
X30552400Y-38866400D02*
X29856900Y-39561900D01*
X37564200Y-38866400D02*
X30552400Y-38866400D01*
X38326700Y-38103900D02*
X37564200Y-38866400D01*
X40946400Y-38103900D02*
X38326700Y-38103900D01*
X41868300Y-37182000D02*
X40946400Y-38103900D01*
X94487000Y-116650000D02*
X85400000Y-116650000D01*
X53889100Y-41424600D02*
X54649500Y-42184900D01*
X85400000Y-91650000D02*
X95196800Y-91650000D01*
X94487000Y-112105200D02*
X95557000Y-111035200D01*
X94487000Y-116650000D02*
X94487000Y-112105200D01*
X88307100Y-67037400D02*
X88307100Y-71949500D01*
X86894500Y-65624800D02*
X88307100Y-67037400D01*
X86342000Y-65624800D02*
X86894500Y-65624800D01*
X85400000Y-66566800D02*
X86342000Y-65624800D01*
X85400000Y-66650000D02*
X85400000Y-66566800D01*
X27600000Y-55282500D02*
X28525300Y-55282500D01*
X85400000Y-141650000D02*
X95341700Y-141650000D01*
X99241200Y-137750500D02*
X95341700Y-141650000D01*
X99241200Y-121404200D02*
X99241200Y-137750500D01*
X94487000Y-116650000D02*
X99241200Y-121404200D01*
X95341700Y-158832100D02*
X95859600Y-159350000D01*
X95341700Y-141650000D02*
X95341700Y-158832100D01*
X46159300Y-56729300D02*
X49187300Y-59757300D01*
X46159300Y-56443000D02*
X46159300Y-56729300D01*
X45004200Y-55287900D02*
X46159300Y-56443000D01*
X28530700Y-55287900D02*
X45004200Y-55287900D01*
X28525300Y-55282500D02*
X28530700Y-55287900D01*
X57206300Y-51910500D02*
X57236900Y-51941100D01*
X57206300Y-45265800D02*
X57206300Y-51910500D01*
X56411000Y-44470500D02*
X57206300Y-45265800D01*
X56411000Y-44353600D02*
X56411000Y-44470500D01*
X55476000Y-43418600D02*
X56411000Y-44353600D01*
X55476000Y-43046300D02*
X55476000Y-43418600D01*
X54649400Y-42219700D02*
X55476000Y-43046300D01*
X54649400Y-42185000D02*
X54649400Y-42219700D01*
X54649500Y-42184900D02*
X54649400Y-42185000D01*
X64832700Y-66650000D02*
X85400000Y-66650000D01*
X58959200Y-60776500D02*
X64832700Y-66650000D01*
X58959200Y-56838800D02*
X58959200Y-60776500D01*
X57127600Y-55007200D02*
X58959200Y-56838800D01*
X57127600Y-52050400D02*
X57127600Y-55007200D01*
X57236900Y-51941100D02*
X57127600Y-52050400D01*
X12800000Y-55088300D02*
X17257300Y-50631000D01*
X12800000Y-58010000D02*
X12800000Y-55088300D01*
X54949700Y-40364000D02*
X54189400Y-39603700D01*
X26544700Y-55917500D02*
X26418500Y-55791300D01*
X27600000Y-55917500D02*
X26544700Y-55917500D01*
X10540300Y-91509700D02*
X10400000Y-91650000D01*
X22553300Y-91509700D02*
X10540300Y-91509700D01*
X51964300Y-39603700D02*
X54189400Y-39603700D01*
X49578900Y-41989100D02*
X51964300Y-39603700D01*
X49578900Y-43664100D02*
X49578900Y-41989100D01*
X47359700Y-45883300D02*
X49578900Y-43664100D01*
X35264300Y-45883300D02*
X47359700Y-45883300D01*
X34560300Y-46587300D02*
X35264300Y-45883300D01*
X24679300Y-46587300D02*
X34560300Y-46587300D01*
X13467800Y-144717800D02*
X13467800Y-145564500D01*
X10400000Y-141650000D02*
X13467800Y-144717800D01*
X459500Y-131709500D02*
X10400000Y-141650000D01*
X459500Y-121306500D02*
X459500Y-131709500D01*
X6194000Y-115572000D02*
X459500Y-121306500D01*
X9322000Y-115572000D02*
X6194000Y-115572000D01*
X9322000Y-92728000D02*
X9322000Y-115572000D01*
X10400000Y-91650000D02*
X9322000Y-92728000D01*
X9322000Y-115572000D02*
X10400000Y-116650000D01*
X27137400Y-56552500D02*
X26674700Y-56552500D01*
X27137400Y-56552500D02*
X27600000Y-56552500D01*
X44171500Y-56552500D02*
X27600000Y-56552500D01*
X44757000Y-55967000D02*
X44171500Y-56552500D01*
X36036600Y-115990400D02*
X35377000Y-116650000D01*
X48277400Y-115990400D02*
X36036600Y-115990400D01*
X36476300Y-142726300D02*
X43764300Y-142726300D01*
X35400000Y-141650000D02*
X36476300Y-142726300D01*
X53932800Y-40054100D02*
X54596200Y-40717500D01*
X52321000Y-40054100D02*
X53932800Y-40054100D01*
X50204200Y-42170900D02*
X52321000Y-40054100D01*
X50204200Y-42248100D02*
X50204200Y-42170900D01*
X46563700Y-90623400D02*
X46829600Y-90889300D01*
X36426600Y-90623400D02*
X46563700Y-90623400D01*
X35400000Y-91650000D02*
X36426600Y-90623400D01*
X26594600Y-56552500D02*
X26674700Y-56552500D01*
X26184300Y-56962800D02*
X26594600Y-56552500D01*
X26184300Y-58378900D02*
X26184300Y-56962800D01*
X34455400Y-66650000D02*
X26184300Y-58378900D01*
X35400000Y-66650000D02*
X34455400Y-66650000D01*
X60303900Y-66746100D02*
X60400000Y-66650000D01*
X60303900Y-70591800D02*
X60303900Y-66746100D01*
X59885700Y-92164300D02*
X60400000Y-91650000D01*
X55478800Y-92164300D02*
X59885700Y-92164300D01*
X56809900Y-143557100D02*
X56604500Y-143557100D01*
X58717000Y-141650000D02*
X56809900Y-143557100D01*
X60400000Y-141650000D02*
X58717000Y-141650000D01*
X54242600Y-41071100D02*
X55003100Y-41831500D01*
X27600000Y-57187500D02*
X26674700Y-57187500D01*
X26674700Y-58162200D02*
X26674700Y-57187500D01*
X32737500Y-64225000D02*
X26674700Y-58162200D01*
X35614500Y-64225000D02*
X32737500Y-64225000D01*
X37137900Y-65748400D02*
X35614500Y-64225000D01*
X37137900Y-67092700D02*
X37137900Y-65748400D01*
X33059700Y-71170900D02*
X37137900Y-67092700D01*
X33059700Y-79324800D02*
X33059700Y-71170900D01*
X37042900Y-83308000D02*
X33059700Y-79324800D01*
X37042900Y-84022500D02*
X37042900Y-83308000D01*
X37441900Y-84421500D02*
X37042900Y-84022500D01*
X38345100Y-84421500D02*
X37441900Y-84421500D01*
X41393000Y-81373600D02*
X38345100Y-84421500D01*
X54138200Y-81373600D02*
X41393000Y-81373600D01*
X59242000Y-115492000D02*
X60400000Y-116650000D01*
X50905900Y-115492000D02*
X59242000Y-115492000D01*
X60931600Y-42909800D02*
X67504000Y-42909800D01*
X60769700Y-42747900D02*
X60931600Y-42909800D01*
X58667200Y-42747900D02*
X60769700Y-42747900D01*
X57750800Y-41831500D02*
X58667200Y-42747900D01*
X55003100Y-41831500D02*
X57750800Y-41831500D01*
X11578600Y-45167100D02*
X9900000Y-43488500D01*
X16862500Y-45167100D02*
X11578600Y-45167100D01*
X19675600Y-47980200D02*
X16862500Y-45167100D01*
X38466900Y-47980200D02*
X19675600Y-47980200D01*
X38540400Y-47906700D02*
X38466900Y-47980200D01*
X49872500Y-55531600D02*
X50082200Y-55741300D01*
X46724800Y-55531600D02*
X49872500Y-55531600D01*
X45405500Y-54212300D02*
X46724800Y-55531600D01*
X32122400Y-54212300D02*
X45405500Y-54212300D01*
X82142900Y-38542700D02*
X86478700Y-38542700D01*
X79476700Y-41208900D02*
X82142900Y-38542700D01*
X61262500Y-41208900D02*
X79476700Y-41208900D01*
X52284800Y-46333600D02*
X52289700Y-46328700D01*
X35450900Y-46333600D02*
X52284800Y-46333600D01*
X34521900Y-47262600D02*
X35450900Y-46333600D01*
X21048800Y-47262600D02*
X34521900Y-47262600D01*
X18520100Y-44733900D02*
X21048800Y-47262600D01*
X59194200Y-44171600D02*
X58445900Y-44919900D01*
X60649700Y-44171600D02*
X59194200Y-44171600D01*
X61024200Y-44546100D02*
X60649700Y-44171600D01*
X70358100Y-44546100D02*
X61024200Y-44546100D01*
X73212600Y-41691600D02*
X70358100Y-44546100D01*
X83078300Y-41691600D02*
X73212600Y-41691600D01*
X84695000Y-40074900D02*
X83078300Y-41691600D01*
X39014300Y-48918100D02*
X40054000Y-47878400D01*
X11232700Y-48918100D02*
X39014300Y-48918100D01*
X64076700Y-46583300D02*
X64393700Y-46900300D01*
X61948600Y-46583300D02*
X64076700Y-46583300D01*
X45720100Y-51409500D02*
X36050800Y-51409500D01*
X47787500Y-53476900D02*
X45720100Y-51409500D01*
X49597600Y-53476900D02*
X47787500Y-53476900D01*
X92406100Y-40917500D02*
X89817600Y-43506000D01*
X92406100Y-32525900D02*
X92406100Y-40917500D01*
X91996400Y-32116200D02*
X92406100Y-32525900D01*
X91462300Y-32116200D02*
X91996400Y-32116200D01*
X87122800Y-36455700D02*
X91462300Y-32116200D01*
X87122800Y-38783000D02*
X87122800Y-36455700D01*
X86499900Y-39405900D02*
X87122800Y-38783000D01*
X86283700Y-39405900D02*
X86499900Y-39405900D01*
X83454400Y-42235200D02*
X86283700Y-39405900D01*
X73305900Y-42235200D02*
X83454400Y-42235200D01*
X67982100Y-47559000D02*
X73305900Y-42235200D01*
X62311000Y-47559000D02*
X67982100Y-47559000D01*
X62135700Y-47383700D02*
X62311000Y-47559000D01*
X79131300Y-71581500D02*
X79131300Y-70056700D01*
X73563000Y-77149800D02*
X79131300Y-71581500D01*
X72272000Y-77149800D02*
X73563000Y-77149800D01*
X66605200Y-82816600D02*
X72272000Y-77149800D01*
X50367400Y-82816600D02*
X66605200Y-82816600D01*
X47833200Y-85350800D02*
X50367400Y-82816600D01*
X37009300Y-85350800D02*
X47833200Y-85350800D01*
X36142300Y-84483800D02*
X37009300Y-85350800D01*
X36142300Y-84346900D02*
X36142300Y-84483800D01*
X25855400Y-74060000D02*
X36142300Y-84346900D01*
X19220800Y-74060000D02*
X25855400Y-74060000D01*
X13112400Y-67951600D02*
X19220800Y-74060000D01*
X13112400Y-66201200D02*
X13112400Y-67951600D01*
X13942800Y-64177300D02*
X12429500Y-64177300D01*
X21815000Y-72049500D02*
X13942800Y-64177300D01*
X21815000Y-72572100D02*
X21815000Y-72049500D01*
X21952100Y-72709200D02*
X21815000Y-72572100D01*
X24110600Y-72709200D02*
X21952100Y-72709200D01*
X25735800Y-71084000D02*
X24110600Y-72709200D01*
X25735800Y-70411600D02*
X25735800Y-71084000D01*
X28400200Y-67747200D02*
X25735800Y-70411600D01*
X35541700Y-67747200D02*
X28400200Y-67747200D01*
X36430500Y-66858400D02*
X35541700Y-67747200D01*
X36430500Y-65944200D02*
X36430500Y-66858400D01*
X35691400Y-60825100D02*
X33574700Y-62941800D01*
X50629200Y-60825100D02*
X35691400Y-60825100D01*
X58001000Y-54748200D02*
X63381200Y-60128400D01*
X57752900Y-54748200D02*
X58001000Y-54748200D01*
X83525400Y-64365100D02*
X85944000Y-61946500D01*
X63448600Y-64365100D02*
X83525400Y-64365100D01*
X62850400Y-63766900D02*
X63448600Y-64365100D01*
X21770200Y-87488500D02*
X15067800Y-87488500D01*
X25055900Y-90774200D02*
X21770200Y-87488500D01*
X32243200Y-90774200D02*
X25055900Y-90774200D01*
X36168100Y-86849300D02*
X32243200Y-90774200D01*
X61487300Y-86849300D02*
X36168100Y-86849300D01*
X62005300Y-86331300D02*
X61487300Y-86849300D01*
X68471100Y-86331300D02*
X62005300Y-86331300D01*
X86648900Y-68153500D02*
X68471100Y-86331300D01*
X86648900Y-66283800D02*
X86648900Y-68153500D01*
X22626000Y-88981200D02*
X11031700Y-88981200D01*
X24873300Y-91228500D02*
X22626000Y-88981200D01*
X32684400Y-91228500D02*
X24873300Y-91228500D01*
X35286300Y-88626600D02*
X32684400Y-91228500D01*
X37254500Y-88626600D02*
X35286300Y-88626600D01*
X37915500Y-87965600D02*
X37254500Y-88626600D01*
X39825300Y-87965600D02*
X37915500Y-87965600D01*
X36916100Y-87299700D02*
X36237700Y-87978100D01*
X62149700Y-87299700D02*
X36916100Y-87299700D01*
X62492800Y-86956600D02*
X62149700Y-87299700D01*
X88161000Y-85588200D02*
X88249700Y-85676900D01*
X72230400Y-85588200D02*
X88161000Y-85588200D01*
X69255300Y-88563300D02*
X72230400Y-85588200D01*
X61024900Y-88563300D02*
X69255300Y-88563300D01*
X48473700Y-115302300D02*
X14605300Y-115302300D01*
X49359400Y-116188000D02*
X48473700Y-115302300D01*
X52408400Y-116188000D02*
X49359400Y-116188000D01*
X70080100Y-91712200D02*
X68417700Y-93374600D01*
X70080100Y-91712100D02*
X70080100Y-91712200D01*
X77540800Y-91712100D02*
X70080100Y-91712100D01*
X77540800Y-91525500D02*
X77540800Y-91712100D01*
X77804500Y-91261800D02*
X77540800Y-91525500D01*
X80330300Y-91261800D02*
X77804500Y-91261800D01*
X80368800Y-91300300D02*
X80330300Y-91261800D01*
X83491200Y-88177900D02*
X80368800Y-91300300D01*
X11569700Y-114338500D02*
X11474900Y-114243700D01*
X33355800Y-114338500D02*
X11569700Y-114338500D01*
X35371100Y-112323200D02*
X33355800Y-114338500D01*
X60732200Y-114851900D02*
X60796000Y-114915700D01*
X36654200Y-114851900D02*
X60732200Y-114851900D01*
X35998700Y-114196400D02*
X36654200Y-114851900D01*
X64218900Y-110606400D02*
X61172600Y-113652700D01*
X88170600Y-110606400D02*
X64218900Y-110606400D01*
X88364200Y-110800000D02*
X88170600Y-110606400D01*
X82219000Y-114425400D02*
X83489300Y-113155100D01*
X71456100Y-114425400D02*
X82219000Y-114425400D01*
X52408400Y-130260200D02*
X52837300Y-129831300D01*
X18780100Y-130260200D02*
X52408400Y-130260200D01*
X14267800Y-134772500D02*
X18780100Y-130260200D01*
X36401400Y-140250400D02*
X38703500Y-137948300D01*
X11986600Y-140250400D02*
X36401400Y-140250400D01*
X11027000Y-139290800D02*
X11986600Y-140250400D01*
X41940800Y-132285100D02*
X36694400Y-137531500D01*
X60567800Y-132285100D02*
X41940800Y-132285100D01*
X62899200Y-134616500D02*
X60567800Y-132285100D01*
X64891300Y-135672600D02*
X61971000Y-138592900D01*
X76024300Y-135672600D02*
X64891300Y-135672600D01*
X77040400Y-136688700D02*
X76024300Y-135672600D01*
X86484600Y-136688700D02*
X77040400Y-136688700D01*
X78550400Y-127383300D02*
X85825300Y-134658200D01*
X60551900Y-127383300D02*
X78550400Y-127383300D01*
X56599800Y-131335400D02*
X60551900Y-127383300D01*
X35610200Y-131335400D02*
X56599800Y-131335400D01*
X28916400Y-138029200D02*
X35610200Y-131335400D01*
X37267800Y-156830900D02*
X63903200Y-156830900D01*
X36609100Y-157489600D02*
X37267800Y-156830900D01*
X87922300Y-154887900D02*
X85545700Y-157264500D01*
X89531000Y-154887900D02*
X87922300Y-154887900D01*
X47852000Y-43926100D02*
X47471800Y-44306300D01*
X89635600Y-30000600D02*
X89495000Y-29860000D01*
X96500000Y-30000600D02*
X89635600Y-30000600D01*
X47852000Y-43926100D02*
X48232200Y-43545900D01*
X49128500Y-42649600D02*
X48232200Y-43545900D01*
X49128500Y-41802600D02*
X49128500Y-42649600D01*
X53761500Y-37169600D02*
X49128500Y-41802600D01*
X55512300Y-37169600D02*
X53761500Y-37169600D01*
X55524300Y-37181600D02*
X55512300Y-37169600D01*
X6349100Y-37848500D02*
X6349100Y-42852100D01*
X3500000Y-34999400D02*
X6349100Y-37848500D01*
X47249300Y-44528800D02*
X47471800Y-44306300D01*
X46384300Y-44528800D02*
X47249300Y-44528800D01*
X45989500Y-44923600D02*
X46384300Y-44528800D01*
X33128200Y-44923600D02*
X45989500Y-44923600D01*
X32820600Y-44616000D02*
X33128200Y-44923600D01*
X31688700Y-44616000D02*
X32820600Y-44616000D01*
X31601500Y-44528800D02*
X31688700Y-44616000D01*
X24589000Y-44528800D02*
X31601500Y-44528800D01*
X24439200Y-44379000D02*
X24589000Y-44528800D01*
X21156600Y-44379000D02*
X24439200Y-44379000D01*
X20706300Y-43928700D02*
X21156600Y-44379000D01*
X14735100Y-43928700D02*
X20706300Y-43928700D01*
X13658500Y-42852100D02*
X14735100Y-43928700D01*
X6349100Y-42852100D02*
X13658500Y-42852100D01*
X6349100Y-44953400D02*
X6349100Y-42852100D01*
X11296100Y-49900400D02*
X6349100Y-44953400D01*
X17428400Y-49900400D02*
X11296100Y-49900400D01*
X19419800Y-51891800D02*
X17428400Y-49900400D01*
X19419800Y-55767600D02*
X19419800Y-51891800D01*
X21474700Y-57822500D02*
X19419800Y-55767600D01*
X22400000Y-57822500D02*
X21474700Y-57822500D01*
X15960000Y-33960000D02*
X15960000Y-32134700D01*
X62045000Y-15240000D02*
X62045000Y-14279700D01*
X61860100Y-14094800D02*
X58606300Y-14094800D01*
X62045000Y-14279700D02*
X61860100Y-14094800D01*
X38507800Y-31486500D02*
X34388300Y-31486500D01*
X42884100Y-27110200D02*
X38507800Y-31486500D01*
X43817300Y-27110200D02*
X42884100Y-27110200D01*
X44696700Y-27989600D02*
X43817300Y-27110200D01*
X48519500Y-26855500D02*
X48519500Y-26332400D01*
X46495200Y-28879800D02*
X48519500Y-26855500D01*
X45586900Y-28879800D02*
X46495200Y-28879800D01*
X44696700Y-27989600D02*
X45586900Y-28879800D01*
X26489900Y-38241100D02*
X30304700Y-38241100D01*
X26161000Y-37912200D02*
X26489900Y-38241100D01*
X25054700Y-37912200D02*
X26161000Y-37912200D01*
X22532600Y-35390100D02*
X25054700Y-37912200D01*
X22532600Y-32349400D02*
X22532600Y-35390100D01*
X21867600Y-31684400D02*
X22532600Y-32349400D01*
X19583500Y-31684400D02*
X21867600Y-31684400D01*
X19133200Y-32134700D02*
X19583500Y-31684400D01*
X15960000Y-32134700D02*
X19133200Y-32134700D01*
X58838800Y-31525100D02*
X58078400Y-32285500D01*
X73900000Y-33960000D02*
X73900000Y-35785300D01*
X72639300Y-35785300D02*
X73900000Y-35785300D01*
X71963900Y-36460700D02*
X72639300Y-35785300D01*
X71336600Y-36460700D02*
X71963900Y-36460700D01*
X70210800Y-37586500D02*
X71336600Y-36460700D01*
X68525900Y-37586500D02*
X70210800Y-37586500D01*
X67982300Y-38130100D02*
X68525900Y-37586500D01*
X64768300Y-38130100D02*
X67982300Y-38130100D01*
X61642200Y-35004000D02*
X64768300Y-38130100D01*
X60796800Y-35004000D02*
X61642200Y-35004000D01*
X58078400Y-32285500D02*
X60796800Y-35004000D01*
X52025400Y-17175800D02*
X52025400Y-13670800D01*
X51460400Y-17740800D02*
X52025400Y-17175800D01*
X51460400Y-18950000D02*
X51460400Y-17740800D01*
X2611000Y-7000000D02*
X2611000Y-7960300D01*
X1396900Y-20572600D02*
X4098300Y-23274000D01*
X1396900Y-9174400D02*
X1396900Y-20572600D01*
X2611000Y-7960300D02*
X1396900Y-9174400D01*
X95862000Y-56169600D02*
X95862000Y-57778000D01*
X93479600Y-53787200D02*
X95862000Y-56169600D01*
X93479600Y-53182600D02*
X93479600Y-53787200D01*
X93479600Y-53182600D02*
X93479600Y-52578000D01*
X93479600Y-52578000D02*
X93479600Y-51368800D01*
X94246200Y-8696900D02*
X95695400Y-8696900D01*
X97913100Y-46935300D02*
X93479600Y-51368800D01*
X97913100Y-29037100D02*
X97913100Y-46935300D01*
X98834500Y-28115700D02*
X97913100Y-29037100D01*
X98834500Y-11836000D02*
X98834500Y-28115700D01*
X95695400Y-8696900D02*
X98834500Y-11836000D01*
X92365900Y-56752700D02*
X93322000Y-56752700D01*
X89400400Y-53787200D02*
X92365900Y-56752700D01*
X93322000Y-57778000D02*
X93322000Y-56752700D01*
X89400400Y-53182600D02*
X89400400Y-53787200D01*
X89400400Y-53182600D02*
X89400400Y-52578000D01*
X89400400Y-52578000D02*
X89400400Y-51368800D01*
X95330000Y-19552000D02*
X95330000Y-20321800D01*
X97462800Y-43306400D02*
X89400400Y-51368800D01*
X97462800Y-28850500D02*
X97462800Y-43306400D01*
X95330000Y-26717700D02*
X97462800Y-28850500D01*
X95330000Y-20321800D02*
X95330000Y-26717700D01*
X10632700Y-39224400D02*
X9824300Y-40032800D01*
X16429600Y-39224400D02*
X10632700Y-39224400D01*
X32293000Y-39416000D02*
X42254000Y-39416000D01*
X32155000Y-39554000D02*
X32293000Y-39416000D01*
X9466900Y-46708700D02*
X17254000Y-46708700D01*
X7001400Y-44243200D02*
X9466900Y-46708700D01*
X34408200Y-42711900D02*
X33751100Y-43369000D01*
X39565900Y-42711900D02*
X34408200Y-42711900D01*
X39750300Y-42896300D02*
X39565900Y-42711900D01*
X58523400Y-43658600D02*
X57837400Y-44344600D01*
X65771700Y-43658600D02*
X58523400Y-43658600D01*
X65970500Y-43857400D02*
X65771700Y-43658600D01*
X83454000Y-46730200D02*
X82311900Y-45588100D01*
X91412300Y-46730200D02*
X83454000Y-46730200D01*
X23039600Y-71500000D02*
X23039600Y-70290800D01*
X14570000Y-61821200D02*
X23039600Y-70290800D01*
X14570000Y-55390000D02*
X14570000Y-61821200D01*
X31039600Y-71500000D02*
X31039600Y-70290800D01*
X32580400Y-68750000D02*
X31039600Y-70290800D01*
X33050000Y-68750000D02*
X32580400Y-68750000D01*
X73016600Y-71500000D02*
X73016600Y-72709200D01*
X61537000Y-72709200D02*
X73016600Y-72709200D01*
X58050000Y-69222200D02*
X61537000Y-72709200D01*
X58050000Y-68750000D02*
X58050000Y-69222200D01*
X81509200Y-70290800D02*
X83050000Y-68750000D01*
X81039600Y-70290800D02*
X81509200Y-70290800D01*
X81039600Y-71500000D02*
X81039600Y-70290800D01*
X8050000Y-94490800D02*
X8050000Y-93750000D01*
X6250000Y-96290800D02*
X8050000Y-94490800D01*
X6250000Y-97500000D02*
X6250000Y-96290800D01*
X33050000Y-95257400D02*
X33050000Y-93750000D01*
X32016600Y-96290800D02*
X33050000Y-95257400D01*
X32016600Y-97500000D02*
X32016600Y-96290800D01*
X73016600Y-97500000D02*
X73016600Y-98709200D01*
X63009200Y-98709200D02*
X73016600Y-98709200D01*
X58050000Y-93750000D02*
X63009200Y-98709200D01*
X95475800Y-93750000D02*
X83050000Y-93750000D01*
X98016600Y-96290800D02*
X95475800Y-93750000D01*
X98016600Y-97500000D02*
X98016600Y-96290800D01*
X8050000Y-119490800D02*
X8050000Y-118750000D01*
X6250000Y-121290800D02*
X8050000Y-119490800D01*
X6250000Y-122500000D02*
X6250000Y-121290800D01*
X33027000Y-120280400D02*
X33027000Y-118750000D01*
X32016600Y-121290800D02*
X33027000Y-120280400D01*
X32016600Y-122500000D02*
X32016600Y-121290800D01*
X70475800Y-118750000D02*
X58050000Y-118750000D01*
X73016600Y-121290800D02*
X70475800Y-118750000D01*
X73016600Y-122500000D02*
X73016600Y-121290800D01*
X85590800Y-121290800D02*
X83050000Y-118750000D01*
X98016600Y-121290800D02*
X85590800Y-121290800D01*
X98016600Y-122500000D02*
X98016600Y-121290800D01*
X10039600Y-145739600D02*
X8050000Y-143750000D01*
X10039600Y-147500000D02*
X10039600Y-145739600D01*
X33050000Y-145257400D02*
X33050000Y-143750000D01*
X32016600Y-146290800D02*
X33050000Y-145257400D01*
X32016600Y-147500000D02*
X32016600Y-146290800D01*
X73016600Y-147500000D02*
X71792100Y-147500000D01*
X62537300Y-143750000D02*
X65317700Y-146530400D01*
X58050000Y-143750000D02*
X62537300Y-143750000D01*
X70822500Y-146530400D02*
X70387400Y-146530400D01*
X71792100Y-147500000D02*
X70822500Y-146530400D01*
X93289600Y-147750000D02*
X93289600Y-146540800D01*
X85840800Y-146540800D02*
X83050000Y-143750000D01*
X93289600Y-146540800D02*
X85840800Y-146540800D01*
X57097200Y-1224300D02*
X57599900Y-1727000D01*
X42970600Y-1224300D02*
X57097200Y-1224300D01*
X42290000Y-1904900D02*
X42970600Y-1224300D01*
X42290000Y-3021800D02*
X42290000Y-1904900D01*
X39339200Y-5972600D02*
X42290000Y-3021800D01*
X27667400Y-5972600D02*
X39339200Y-5972600D01*
X26580000Y-7060000D02*
X27667400Y-5972600D01*
X36103300Y-4167800D02*
X32633600Y-4167800D01*
X37210000Y-3061100D02*
X36103300Y-4167800D01*
X37210000Y-1919600D02*
X37210000Y-3061100D01*
X38408600Y-721000D02*
X37210000Y-1919600D01*
X79402100Y-721000D02*
X38408600Y-721000D01*
X82246200Y-3565100D02*
X79402100Y-721000D01*
X82246200Y-13111200D02*
X82246200Y-3565100D01*
X84495000Y-15360000D02*
X82246200Y-13111200D01*
X55303300Y-40010400D02*
X54543000Y-39250000D01*
X75415400Y-10896600D02*
X75415400Y-12020700D01*
X54695000Y-37963300D02*
X54863400Y-37794900D01*
X54695000Y-39098000D02*
X54695000Y-37963300D01*
X54543000Y-39250000D02*
X54695000Y-39098000D01*
X70379900Y-16703600D02*
X69761300Y-17322200D01*
X74923000Y-16703600D02*
X70379900Y-16703600D01*
X75490800Y-16135800D02*
X74923000Y-16703600D01*
X75490800Y-12096100D02*
X75490800Y-16135800D01*
X75415400Y-12020700D02*
X75490800Y-12096100D01*
X55383300Y-24374000D02*
X55383300Y-24346200D01*
X53535500Y-26221800D02*
X55383300Y-24374000D01*
X66000000Y-10896600D02*
X66000000Y-12020700D01*
X65231300Y-12789400D02*
X62167700Y-12789400D01*
X66000000Y-12020700D02*
X65231300Y-12789400D01*
X88291600Y-10219800D02*
X87500000Y-10219800D01*
X95330000Y-17258200D02*
X88291600Y-10219800D01*
X95330000Y-18028000D02*
X95330000Y-17258200D01*
X87500000Y-9095700D02*
X87500000Y-10219800D01*
X84830800Y-10896600D02*
X84830800Y-12020700D01*
X84817600Y-12020700D02*
X84637100Y-12201200D01*
X84830800Y-12020700D02*
X84817600Y-12020700D01*
X61145000Y-15240000D02*
X61145000Y-15720100D01*
X58870000Y-15240000D02*
X59512800Y-15240000D01*
X64991400Y-15720100D02*
X64991400Y-16200300D01*
X64991400Y-15720100D02*
X64991400Y-15240000D01*
X68669200Y-12205000D02*
X68669200Y-10219800D01*
X65634200Y-15240000D02*
X68669200Y-12205000D01*
X64991400Y-15240000D02*
X65634200Y-15240000D01*
X68669200Y-9095700D02*
X68669200Y-10219800D01*
X59992900Y-15720100D02*
X59512800Y-15240000D01*
X61145000Y-15720100D02*
X59992900Y-15720100D01*
X61145000Y-15779600D02*
X61145000Y-15720100D01*
X61565700Y-16200300D02*
X61145000Y-15779600D01*
X64991400Y-16200300D02*
X61565700Y-16200300D01*
X43890600Y-36862600D02*
X43866100Y-36838100D01*
X43890600Y-37683400D02*
X43890600Y-36862600D01*
X44043000Y-37835700D02*
X43890600Y-37683400D01*
X17021300Y-35358800D02*
X17021300Y-35115700D01*
X16594800Y-35785300D02*
X17021300Y-35358800D01*
X15281200Y-35785300D02*
X16594800Y-35785300D01*
X15134600Y-35638700D02*
X15281200Y-35785300D01*
X15134600Y-32282500D02*
X15134600Y-35638700D01*
X15774500Y-31642600D02*
X15134600Y-32282500D01*
X18988300Y-31642600D02*
X15774500Y-31642600D01*
X19396800Y-31234100D02*
X18988300Y-31642600D01*
X22054200Y-31234100D02*
X19396800Y-31234100D01*
X22462700Y-31642600D02*
X22054200Y-31234100D01*
X23732800Y-31642600D02*
X22462700Y-31642600D01*
X24702500Y-32612300D02*
X23732800Y-31642600D01*
X24702500Y-35004700D02*
X24702500Y-32612300D01*
X26863200Y-37165400D02*
X24702500Y-35004700D01*
X35053200Y-37165400D02*
X26863200Y-37165400D01*
X37132700Y-35085900D02*
X35053200Y-37165400D01*
X38078100Y-35085900D02*
X37132700Y-35085900D01*
X43282500Y-38596200D02*
X44043000Y-37835700D01*
X52770000Y-126270000D02*
X54595300Y-126270000D01*
X85606500Y-7921200D02*
X84830800Y-8696900D01*
X90885900Y-7921200D02*
X85606500Y-7921200D01*
X91234400Y-7572700D02*
X90885900Y-7921200D01*
X95531000Y-7572700D02*
X91234400Y-7572700D01*
X99315500Y-11357200D02*
X95531000Y-7572700D01*
X99315500Y-28710200D02*
X99315500Y-11357200D01*
X98620200Y-29405500D02*
X99315500Y-28710200D01*
X98620200Y-36759300D02*
X98620200Y-29405500D01*
X99390500Y-37529600D02*
X98620200Y-36759300D01*
X99390500Y-106280700D02*
X99390500Y-37529600D01*
X89887700Y-115783500D02*
X99390500Y-106280700D01*
X80584000Y-115783500D02*
X89887700Y-115783500D01*
X78498200Y-117869300D02*
X80584000Y-115783500D01*
X57695100Y-117869300D02*
X78498200Y-117869300D01*
X54595300Y-120969100D02*
X57695100Y-117869300D01*
X54595300Y-126270000D02*
X54595300Y-120969100D01*
X43258700Y-35084400D02*
X41514700Y-36828400D01*
X44976000Y-35084400D02*
X43258700Y-35084400D01*
X45165400Y-34895000D02*
X44976000Y-35084400D01*
X45683500Y-34895000D02*
X45165400Y-34895000D01*
X46890600Y-36102100D02*
X45683500Y-34895000D01*
X50918700Y-36102100D02*
X46890600Y-36102100D01*
X50918700Y-36102200D02*
X50918700Y-36102100D01*
X71214400Y-15240000D02*
X71214400Y-16087700D01*
X75415400Y-8696900D02*
X73966100Y-8696900D01*
X51414200Y-43899500D02*
X52517900Y-45003200D01*
X74777300Y-16200300D02*
X71214400Y-16200300D01*
X74967100Y-16010500D02*
X74777300Y-16200300D01*
X74967100Y-14270300D02*
X74967100Y-16010500D01*
X73966100Y-13269300D02*
X74967100Y-14270300D01*
X73966100Y-8696900D02*
X73966100Y-13269300D01*
X71214400Y-16200300D02*
X71214400Y-16087700D01*
X52770000Y-78810000D02*
X50944700Y-78810000D01*
X54326300Y-46811600D02*
X52517900Y-45003200D01*
X54326300Y-59944300D02*
X54326300Y-46811600D01*
X53822200Y-60448400D02*
X54326300Y-59944300D01*
X50944700Y-78123100D02*
X51791600Y-77276200D01*
X50944700Y-78810000D02*
X50944700Y-78123100D01*
X67206200Y-18993000D02*
X66620900Y-18993000D01*
X69998900Y-16200300D02*
X67206200Y-18993000D01*
X71214400Y-16200300D02*
X69998900Y-16200300D01*
X70118500Y-12276800D02*
X68090200Y-14305100D01*
X70118500Y-8128700D02*
X70118500Y-12276800D01*
X69961300Y-7971500D02*
X70118500Y-8128700D01*
X66725400Y-7971500D02*
X69961300Y-7971500D01*
X66000000Y-8696900D02*
X66725400Y-7971500D01*
X47230000Y-76270000D02*
X49055300Y-76270000D01*
X68090200Y-14785200D02*
X68090200Y-14305100D01*
X68090200Y-14785200D02*
X68090200Y-15265400D01*
X67409700Y-16527700D02*
X65560600Y-16527700D01*
X68090200Y-15847200D02*
X67409700Y-16527700D01*
X68090200Y-15265400D02*
X68090200Y-15847200D01*
X51767800Y-43545900D02*
X51007400Y-42785400D01*
X51696500Y-41597600D02*
X51911900Y-41382200D01*
X51696500Y-41660400D02*
X51696500Y-41597600D01*
X51588000Y-41768900D02*
X51696500Y-41660400D01*
X51588000Y-42204800D02*
X51588000Y-41768900D01*
X51007400Y-42785400D02*
X51588000Y-42204800D01*
X50442600Y-43350200D02*
X51007400Y-42785400D01*
X50442600Y-43705600D02*
X50442600Y-43350200D01*
X51892600Y-45155600D02*
X50442600Y-43705600D01*
X51892600Y-45283900D02*
X51892600Y-45155600D01*
X52312100Y-45703400D02*
X51892600Y-45283900D01*
X52548800Y-45703400D02*
X52312100Y-45703400D01*
X52915000Y-46069600D02*
X52548800Y-45703400D01*
X52915000Y-48781000D02*
X52915000Y-46069600D01*
X52857600Y-48838400D02*
X52915000Y-48781000D01*
X52857600Y-48991100D02*
X52857600Y-48838400D01*
X50674700Y-51174000D02*
X52857600Y-48991100D01*
X50674700Y-53256100D02*
X50674700Y-51174000D01*
X51950100Y-54531500D02*
X50674700Y-53256100D01*
X51950100Y-55655400D02*
X51950100Y-54531500D01*
X52155100Y-55860400D02*
X51950100Y-55655400D01*
X52155100Y-61457400D02*
X52155100Y-55860400D01*
X51950100Y-61662400D02*
X52155100Y-61457400D01*
X51950100Y-66087900D02*
X51950100Y-61662400D01*
X49578300Y-68459700D02*
X51950100Y-66087900D01*
X49578300Y-75747000D02*
X49578300Y-68459700D01*
X49055300Y-76270000D02*
X49578300Y-75747000D01*
X21164900Y-56242700D02*
X21474700Y-56552500D01*
X21164900Y-55734700D02*
X21164900Y-56242700D01*
X22400000Y-56552500D02*
X21474700Y-56552500D01*
X25980000Y-53215100D02*
X25787600Y-53407500D01*
X27437600Y-53215100D02*
X25980000Y-53215100D01*
X27600000Y-53377500D02*
X27437600Y-53215100D01*
X27600000Y-54012500D02*
X26674700Y-54012500D01*
X26502600Y-53840400D02*
X26486700Y-53840400D01*
X26674700Y-54012500D02*
X26502600Y-53840400D01*
X26624300Y-54647500D02*
X27600000Y-54647500D01*
X26498100Y-54773700D02*
X26624300Y-54647500D01*
X77600000Y-54647500D02*
X78525300Y-54647500D01*
X91148700Y-36030900D02*
X91148700Y-35703600D01*
X86873100Y-40306500D02*
X91148700Y-36030900D01*
X86656900Y-40306500D02*
X86873100Y-40306500D01*
X81015400Y-45948000D02*
X86656900Y-40306500D01*
X81015400Y-52157400D02*
X81015400Y-45948000D01*
X78525300Y-54647500D02*
X81015400Y-52157400D01*
X58645200Y-53573800D02*
X58195000Y-53123600D01*
X65583100Y-53573800D02*
X58645200Y-53573800D01*
X69831800Y-57822500D02*
X65583100Y-53573800D01*
X72400000Y-57822500D02*
X69831800Y-57822500D01*
X25396500Y-52764800D02*
X25287900Y-52656200D01*
X29790600Y-52764800D02*
X25396500Y-52764800D01*
X31863400Y-54837600D02*
X29790600Y-52764800D01*
X45190800Y-54837600D02*
X31863400Y-54837600D01*
X46609600Y-56256400D02*
X45190800Y-54837600D01*
X46609600Y-56416000D02*
X46609600Y-56256400D01*
X49323200Y-59129600D02*
X46609600Y-56416000D01*
X50579900Y-59129600D02*
X49323200Y-59129600D01*
X69833700Y-57187500D02*
X72400000Y-57187500D01*
X65544600Y-52898400D02*
X69833700Y-57187500D01*
X60187100Y-52898400D02*
X65544600Y-52898400D01*
X58086700Y-50798000D02*
X60187100Y-52898400D01*
X25941000Y-52139500D02*
X25941000Y-52139400D01*
X30172500Y-52139500D02*
X25941000Y-52139500D01*
X31421300Y-53388300D02*
X30172500Y-52139500D01*
X45218400Y-53388300D02*
X31421300Y-53388300D01*
X46843000Y-55012900D02*
X45218400Y-53388300D01*
X50646000Y-55012900D02*
X46843000Y-55012900D01*
X88829700Y-35736100D02*
X91780800Y-32785000D01*
X88829700Y-37713000D02*
X88829700Y-35736100D01*
X86686500Y-39856200D02*
X88829700Y-37713000D01*
X86470300Y-39856200D02*
X86686500Y-39856200D01*
X83200600Y-43125900D02*
X86470300Y-39856200D01*
X74609100Y-43125900D02*
X83200600Y-43125900D01*
X74201600Y-43533400D02*
X74609100Y-43125900D01*
X74201600Y-43989500D02*
X74201600Y-43533400D01*
X79886600Y-49674500D02*
X74201600Y-43989500D01*
X79886600Y-50233900D02*
X79886600Y-49674500D01*
X77550400Y-52570100D02*
X79886600Y-50233900D01*
X77140700Y-52570100D02*
X77550400Y-52570100D01*
X74785500Y-54925300D02*
X77140700Y-52570100D01*
X74785500Y-55568800D02*
X74785500Y-54925300D01*
X73801800Y-56552500D02*
X74785500Y-55568800D01*
X72400000Y-56552500D02*
X73801800Y-56552500D01*
X21510300Y-76999900D02*
X29980800Y-85470400D01*
X20789400Y-76999900D02*
X21510300Y-76999900D01*
X31190000Y-85470400D02*
X29980800Y-85470400D01*
X95644700Y-68343300D02*
X94488000Y-69500000D01*
X95792000Y-68343300D02*
X95644700Y-68343300D01*
X95792000Y-67318000D02*
X95792000Y-68343300D01*
X91611400Y-69850000D02*
X91694000Y-69850000D01*
X89400200Y-72061200D02*
X91611400Y-69850000D01*
X89400200Y-73237600D02*
X89400200Y-72061200D01*
X89577700Y-73415100D02*
X89400200Y-73237600D01*
X92292600Y-73415100D02*
X89577700Y-73415100D01*
X94488000Y-71219700D02*
X92292600Y-73415100D01*
X94488000Y-69500000D02*
X94488000Y-71219700D01*
X38526000Y-102848000D02*
X38526000Y-103264600D01*
X40908000Y-103554000D02*
X40138200Y-103554000D01*
X15230000Y-102500000D02*
X15230000Y-100674700D01*
X39848800Y-103264600D02*
X40138200Y-103554000D01*
X38526000Y-103264600D02*
X39848800Y-103264600D01*
X15685900Y-100218800D02*
X15230000Y-100674700D01*
X24795100Y-100218800D02*
X15685900Y-100218800D01*
X29146700Y-104570400D02*
X24795100Y-100218800D01*
X37220200Y-104570400D02*
X29146700Y-104570400D01*
X38526000Y-103264600D02*
X37220200Y-104570400D01*
X38526000Y-100930800D02*
X33412800Y-95817600D01*
X38526000Y-102848000D02*
X38526000Y-100930800D01*
X58637500Y-34859400D02*
X59545900Y-35767800D01*
X47937000Y-34859400D02*
X58637500Y-34859400D01*
X39505300Y-15724700D02*
X41820000Y-13410000D01*
X39446700Y-15724700D02*
X39505300Y-15724700D01*
X42318200Y-13410000D02*
X43712600Y-12015600D01*
X41820000Y-13410000D02*
X42318200Y-13410000D01*
X17119400Y-76446200D02*
X17145000Y-76446200D01*
X16500000Y-75826800D02*
X17119400Y-76446200D01*
X16500000Y-75057000D02*
X16500000Y-75826800D01*
X17145000Y-77343000D02*
X17145000Y-76446200D01*
X59192400Y-36121300D02*
X58432000Y-35360800D01*
X17236800Y-76354400D02*
X17145000Y-76446200D01*
X21278300Y-76354400D02*
X17236800Y-76354400D01*
X12940300Y-103674700D02*
X13912800Y-102702200D01*
X12690000Y-103674700D02*
X12940300Y-103674700D01*
X12690000Y-105500000D02*
X12690000Y-103674700D01*
X47018700Y-35146600D02*
X46843600Y-34971500D01*
X47018700Y-35230500D02*
X47018700Y-35146600D01*
X47385000Y-35596800D02*
X47018700Y-35230500D01*
X50539800Y-35596800D02*
X47385000Y-35596800D01*
X50659700Y-35476900D02*
X50539800Y-35596800D01*
X50869300Y-35476900D02*
X50659700Y-35476900D01*
X50882100Y-35464100D02*
X50869300Y-35476900D01*
X58328700Y-35464100D02*
X50882100Y-35464100D01*
X58432000Y-35360800D02*
X58328700Y-35464100D01*
X7661000Y-15515600D02*
X7542400Y-15397000D01*
X37174400Y-15515600D02*
X7661000Y-15515600D01*
X41820000Y-10870000D02*
X37174400Y-15515600D01*
M02*
