M48
;DRILL file {KiCad 4.0.4-stable} date 07/12/17 10:02:33
;FORMAT={2:4/ absolute / inch / suppress leading zeros}
FMAT,2
INCH,TZ
T1C0.110
T2C0.118
%
G90
G05
M72
T1
X984Y-984
T2
X984Y-40354
X984Y-58071
X4921Y-29528
X4921Y-49213
X9843Y-24606
X9843Y-34449
X9843Y-44291
X9843Y-54134
X14764Y-49213
X18701Y-38386
X20669Y-20669
X20669Y-40354
X24606Y-29528
X24606Y-49213
X29528Y-24606
X29528Y-34449
X29528Y-44291
X29528Y-54134
X34449Y-29528
X34449Y-49213
X38386Y-984
X38386Y-20669
X38386Y-40354
X38386Y-58071
T0
M30
