M48
;DRILL file {KiCad 4.0.4-stable} date 07/12/17 10:02:33
;FORMAT={2:4/ absolute / inch / suppress leading zeros}
FMAT,2
INCH,TZ
T1C0.016
T2C0.020
T3C0.024
T4C0.030
T5C0.031
T6C0.032
T7C0.040
T8C0.043
T9C0.083
T10C0.118
T11C0.118
T12C0.126
%
G90
G05
M72
T1
X1725Y-26628
X1728Y-27823
X2712Y-6701
X2756Y-17419
X2969Y-6062
X3131Y-8834
X3329Y-7770
X3868Y-15761
X3898Y-17121
X4213Y-15865
X4339Y-33791
X4341Y-54839
X4343Y-35032
X4343Y-53465
X4368Y-43634
X4422Y-19259
X4518Y-44978
X4520Y-25095
X4894Y-25267
X4955Y-31050
X5162Y-26063
X5271Y-54740
X5302Y-57309
X5409Y-24419
X5477Y-40434
X5617Y-35437
X5617Y-53060
X5750Y-45395
X5932Y-34444
X6228Y-44222
X6468Y-15443
X6669Y-20438
X6701Y-13825
X6793Y-18389
X6794Y-19933
X7124Y-9166
X7124Y-10263
X7291Y-17612
X7704Y-62989
X7739Y-25932
X7959Y-36569
X8063Y-33444
X8185Y-30315
X8226Y-36780
X8292Y-32939
X8333Y-21943
X8377Y-30061
X8879Y-36027
X8885Y-11024
X8900Y-7165
X8961Y-14411
X9120Y-36269
X9716Y-18341
X9956Y-20731
X10153Y-21027
X10198Y-15172
X10213Y-20527
X10401Y-21965
X10428Y-21197
X10432Y-21564
X10792Y-16060
X11384Y-54342
X11755Y-15576
X11909Y-20194
X11930Y-5857
X11931Y-15056
X12001Y-16087
X12080Y-22524
X12177Y-9632
X12560Y-17301
X12647Y-21343
X12659Y-15572
X12848Y-1641
X13109Y-18056
X13155Y-37723
X13218Y-24287
X13218Y-24780
X13218Y-54372
X13288Y-17074
X13539Y-12396
X13682Y-12893
X13709Y-33301
X13920Y-18636
X13926Y-44222
X14095Y-42929
X14108Y-17064
X14173Y-44959
X14193Y-20240
X14267Y-34637
X14343Y-25962
X14413Y-62004
X14447Y-54146
X14580Y-14690
X14608Y-35932
X14648Y-15005
X14695Y-12873
X14830Y-32978
X14991Y-13813
X15036Y-34888
X15121Y-14401
X15173Y-18861
X15238Y-54310
X15244Y-62618
X15253Y-15248
X15424Y-13936
X15447Y-60797
X15497Y-25826
X15530Y-6191
X15650Y-16888
X15679Y-34632
X15742Y-28889
X15769Y-18850
X15807Y-19734
X15825Y-50488
X15943Y-9510
X16064Y-44525
X16073Y-54361
X16269Y-16901
X16354Y-13813
X16635Y-15518
X16851Y-8610
X16959Y-12873
X16965Y-10949
X17210Y-4731
X17230Y-56191
X17270Y-14503
X17500Y-14059
X17611Y-14451
X17612Y-46177
X17621Y-22034
X17752Y-16630
X17797Y-50633
X17856Y-6842
X17884Y-13984
X17927Y-46196
X17952Y-39458
X18078Y-46553
X18380Y-47132
X18437Y-35783
X18442Y-13768
X18562Y-10762
X18596Y-22109
X18781Y-10534
X18781Y-7149
X18797Y-57259
X18873Y-13724
X18932Y-55450
X19007Y-45666
X19018Y-26216
X19102Y-10367
X19261Y-20805
X19264Y-28528
X19330Y-18951
X19359Y-46388
X19365Y-23526
X19527Y-21054
X19544Y-12115
X19588Y-15710
X19692Y-21339
X19712Y-54357
X19717Y-21945
X19765Y-16633
X19790Y-12882
X19835Y-15081
X19913Y-23279
X19933Y-23947
X19939Y-21659
X20042Y-45469
X20047Y-14213
X20159Y-52509
X20372Y-44938
X20390Y-30424
X20438Y-16292
X20494Y-58742
X20545Y-13159
X20586Y-18240
X20633Y-45743
X20676Y-17718
X20802Y-51115
X21010Y-9308
X21043Y-11979
X21190Y-23799
X21242Y-12565
X21314Y-32037
X21354Y-12193
X21475Y-11595
X21588Y-36536
X21600Y-14880
X21804Y-9585
X21842Y-36285
X21860Y-14638
X21973Y-16727
X22127Y-16097
X22174Y-22271
X22285Y-56519
X22367Y-12328
X22394Y-14391
X22534Y-20449
X22677Y-680
X22737Y-21554
X22771Y-17459
X22869Y-19999
X22885Y-13084
X22911Y-7429
X22911Y-20915
X23010Y-17685
X23073Y-5549
X23391Y-17663
X23432Y-58648
X23464Y-53060
X23645Y-13139
X23723Y-12131
X23742Y-27792
X23773Y-17659
X23821Y-5049
X23831Y-30009
X23935Y-45242
X24023Y-43634
X24026Y-34867
X24027Y-24017
X24084Y-44745
X24119Y-16224
X24122Y-17980
X24389Y-18340
X24398Y-54564
X24455Y-10207
X24463Y-18655
X24468Y-19181
X24475Y-5035
X24603Y-34235
X24718Y-35692
X24744Y-25105
X24763Y-52999
X24808Y-59512
X24885Y-60476
X24927Y-44852
X24953Y-23673
X24954Y-54828
X25029Y-35442
X25069Y-15977
X25159Y-61744
X25330Y-10456
X25352Y-18465
X25464Y-62244
X25716Y-57689
X25811Y-6507
X25915Y-24291
X25965Y-58291
X25973Y-17267
X26076Y-21731
X26125Y-6251
X26229Y-7478
X26296Y-15452
X26310Y-6992
X26576Y-16894
X26936Y-36762
X27227Y-30983
X27465Y-6820
X27634Y-39415
X27712Y-57689
X27803Y-27401
X28048Y-21253
X28095Y-37910
X28132Y-45049
X28367Y-5989
X28424Y-58925
X28456Y-11900
X28560Y-30620
X28806Y-29616
X28940Y-22015
X29105Y-56330
X29184Y-42071
X29224Y-50574
X29300Y-10253
X29476Y-17225
X29495Y-63245
X29538Y-9544
X29539Y-50582
X29543Y-42423
X29689Y-22136
X29694Y-10642
X29910Y-43148
X29913Y-15459
X30025Y-10217
X30113Y-21397
X30150Y-9293
X30690Y-47716
X30703Y-29217
X30849Y-20025
X30889Y-19710
X30937Y-47101
X31154Y-20919
X31154Y-27581
X31184Y-41195
X31204Y-19677
X31443Y-22676
X31486Y-58661
X31491Y-3191
X32040Y-57643
X32406Y-17948
X32691Y-10132
X32870Y-44549
X32871Y-34716
X33322Y-4804
X33344Y-15778
X33346Y-53036
X33679Y-61915
X33789Y-42928
X33789Y-53015
X33836Y-24388
X33874Y-24066
X34047Y-15174
X34049Y-53814
X34053Y-54315
X34114Y-26096
X34189Y-20529
X34224Y-35027
X34486Y-34300
X34570Y-34673
X34744Y-33731
X34767Y-28327
X34789Y-43622
X34796Y-44958
X35248Y-60979
X35273Y-27892
X35361Y-17128
X35758Y-24846
X35885Y-14057
X35989Y-18398
X36134Y-12907
X37479Y-36083
X37621Y-43715
X37637Y-6544
X37740Y-62736
X37912Y-9896
X38827Y-14472
T2
X3169Y-36909
X3169Y-46752
X3169Y-56594
X4094Y-36083
X4094Y-45925
X4094Y-55768
X5039Y-22839
X5736Y-21807
X13003Y-46752
X13012Y-27067
X13012Y-36909
X13012Y-56594
X13928Y-45925
X13937Y-26240
X13937Y-36083
X13937Y-55768
X22854Y-27067
X22854Y-36909
X22854Y-46752
X22854Y-56594
X23780Y-26240
X23780Y-36083
X23780Y-45925
X23780Y-55768
X32697Y-27067
X32697Y-36909
X32697Y-46752
X32697Y-56594
X33622Y-26240
X33622Y-36083
X33622Y-45925
X33622Y-55768
T3
X6915Y-3930
X7915Y-3930
X11015Y-3930
X12015Y-3930
T4
X4465Y-2780
X4465Y-8780
X5465Y-2780
X5465Y-8780
X6465Y-2780
X6465Y-8780
X7465Y-2780
X7465Y-8780
X8465Y-2780
X8465Y-8780
X9465Y-2780
X9465Y-8780
X10465Y-2780
X10465Y-8780
X11465Y-2780
X11465Y-8780
X12465Y-2780
X12465Y-8780
X13465Y-2780
X13465Y-8780
X14465Y-2780
X14465Y-8780
X15465Y-2780
X15465Y-8780
X16465Y-3280
X16465Y-4280
X16465Y-5280
X16465Y-6280
X16465Y-7280
X16465Y-8280
T5
X1378Y-11811
X1378Y-13779
X2284Y-3882
X2284Y-5882
X3267Y-4882
X37992Y-11811
X37992Y-13779
T6
X19685Y-22672
X19685Y-24572
T7
X3150Y-984
X4150Y-984
X5150Y-984
X6150Y-984
X7150Y-984
X8150Y-984
X9150Y-984
X10150Y-984
X11150Y-984
X12150Y-984
X13150Y-984
X14150Y-984
X15150Y-984
X16150Y-984
X17150Y-984
X18150Y-984
T8
X33266Y-6047
X33266Y-11756
X34250Y-6047
X35234Y-6047
X35234Y-11756
T9
X32065Y-9000
X36435Y-9000
T10
X20492Y-2500
X21963Y-4131
T11
X984Y-20669
X14764Y-29528
T12
X20482Y-5382
T0
M30
