G04 #@! TF.FileFunction,Legend,Top*
%FSLAX46Y46*%
G04 Gerber Fmt 4.6, Leading zero omitted, Abs format (unit mm)*
G04 Created by KiCad (PCBNEW 4.0.4-stable) date 07/22/17 12:12:15*
%MOMM*%
%LPD*%
G01*
G04 APERTURE LIST*
%ADD10C,2.000000*%
%ADD11C,0.150000*%
%ADD12C,0.254000*%
%ADD13C,0.203200*%
%ADD14C,0.127000*%
%ADD15C,0.066040*%
%ADD16C,0.101600*%
%ADD17C,0.076200*%
%ADD18C,0.081280*%
%ADD19C,0.048768*%
%ADD20C,0.152400*%
G04 APERTURE END LIST*
D10*
D11*
X4000000Y-52500000D02*
G75*
G03X4000000Y-52500000I-1500000J0D01*
G01*
X14000000Y-75000000D02*
G75*
G03X14000000Y-75000000I-1500000J0D01*
G01*
X26500000Y-62500000D02*
G75*
G03X26500000Y-62500000I-1500000J0D01*
G01*
X12300000Y-64900000D02*
X14700000Y-62500000D01*
X9700000Y-64900000D02*
X12300000Y-64900000D01*
X9700000Y-59900000D02*
X9700000Y-64900000D01*
X14700000Y-59900000D02*
X9700000Y-59900000D01*
X14700000Y-62500000D02*
X14700000Y-59900000D01*
D12*
X0Y-75000000D02*
X0Y-50000000D01*
X0Y-50000000D02*
X25000000Y-50000000D01*
X25000000Y-50000000D02*
X25000000Y-75000000D01*
X25000000Y-75000000D02*
X0Y-75000000D01*
D11*
X29000000Y-52500000D02*
G75*
G03X29000000Y-52500000I-1500000J0D01*
G01*
X39000000Y-75000000D02*
G75*
G03X39000000Y-75000000I-1500000J0D01*
G01*
X51500000Y-62500000D02*
G75*
G03X51500000Y-62500000I-1500000J0D01*
G01*
X37300000Y-64900000D02*
X39700000Y-62500000D01*
X34700000Y-64900000D02*
X37300000Y-64900000D01*
X34700000Y-59900000D02*
X34700000Y-64900000D01*
X39700000Y-59900000D02*
X34700000Y-59900000D01*
X39700000Y-62500000D02*
X39700000Y-59900000D01*
D12*
X25000000Y-75000000D02*
X25000000Y-50000000D01*
X25000000Y-50000000D02*
X50000000Y-50000000D01*
X50000000Y-50000000D02*
X50000000Y-75000000D01*
X50000000Y-75000000D02*
X25000000Y-75000000D01*
D13*
X0Y0D02*
X80000000Y0D01*
X80000000Y0D02*
X80000000Y-36000000D01*
X80000000Y-36000000D02*
X0Y-36000000D01*
X0Y-36000000D02*
X0Y0D01*
X4350000Y-4850000D02*
X75650000Y-4850000D01*
X75650000Y-4850000D02*
X75650000Y-31150000D01*
X75650000Y-31150000D02*
X4350000Y-31150000D01*
X4350000Y-31150000D02*
X4350000Y-4850000D01*
X93195000Y-24560000D02*
X93195000Y-28753800D01*
X92388800Y-29560000D02*
G75*
G03X93195000Y-28753800I0J806200D01*
G01*
X92388800Y-29560000D02*
X90895000Y-29560000D01*
X81601200Y-29560000D02*
G75*
G02X80795000Y-28753800I0J806200D01*
G01*
X81601200Y-29560000D02*
X83095000Y-29560000D01*
X80795000Y-24560000D02*
X80795000Y-28753800D01*
X80795000Y-21160000D02*
X80795000Y-16966200D01*
X81601200Y-16160000D02*
G75*
G03X80795000Y-16966200I0J-806200D01*
G01*
X81601200Y-16160000D02*
X83595000Y-16160000D01*
X92388800Y-16160000D02*
G75*
G02X93195000Y-16966200I0J-806200D01*
G01*
X92388800Y-16160000D02*
X90395000Y-16160000D01*
X93195000Y-21160000D02*
X93195000Y-16966200D01*
X89995000Y-22860000D02*
G75*
G03X89995000Y-22860000I-3000000J0D01*
G01*
D14*
X82423000Y-3937000D02*
X82423000Y-6731000D01*
X82423000Y-6731000D02*
X81153000Y-6731000D01*
X81153000Y-6731000D02*
X81153000Y-3937000D01*
X81153000Y-3937000D02*
X82423000Y-3937000D01*
D13*
X9987800Y-37637797D02*
X9987800Y-37383797D01*
X9987800Y-37383797D02*
X10038600Y-37383797D01*
X10038600Y-37383797D02*
X10038600Y-37388878D01*
X10038600Y-37388878D02*
X14989059Y-37388878D01*
X14989059Y-37388878D02*
X14989059Y-37620019D01*
X9967481Y-42319022D02*
X9967481Y-42590800D01*
X9967481Y-42590800D02*
X10018281Y-42590800D01*
X10018281Y-42590800D02*
X10018281Y-42593341D01*
X10018281Y-42593341D02*
X14986519Y-42593341D01*
X14986519Y-42593341D02*
X14986519Y-42367281D01*
X9937000Y-40889000D02*
X9937000Y-39187200D01*
X15017000Y-39136400D02*
X15017000Y-40000000D01*
X15017000Y-40000000D02*
X15017000Y-40863600D01*
X15017000Y-40000000D02*
X12477000Y-42540000D01*
X35010800Y-37637797D02*
X35010800Y-37383797D01*
X35010800Y-37383797D02*
X35061600Y-37383797D01*
X35061600Y-37383797D02*
X35061600Y-37388878D01*
X35061600Y-37388878D02*
X40012059Y-37388878D01*
X40012059Y-37388878D02*
X40012059Y-37620019D01*
X34990481Y-42319022D02*
X34990481Y-42590800D01*
X34990481Y-42590800D02*
X35041281Y-42590800D01*
X35041281Y-42590800D02*
X35041281Y-42593341D01*
X35041281Y-42593341D02*
X40009519Y-42593341D01*
X40009519Y-42593341D02*
X40009519Y-42367281D01*
X34960000Y-40889000D02*
X34960000Y-39187200D01*
X40040000Y-39136400D02*
X40040000Y-40000000D01*
X40040000Y-40000000D02*
X40040000Y-40863600D01*
X40040000Y-40000000D02*
X37500000Y-42540000D01*
X60010800Y-37637797D02*
X60010800Y-37383797D01*
X60010800Y-37383797D02*
X60061600Y-37383797D01*
X60061600Y-37383797D02*
X60061600Y-37388878D01*
X60061600Y-37388878D02*
X65012059Y-37388878D01*
X65012059Y-37388878D02*
X65012059Y-37620019D01*
X59990481Y-42319022D02*
X59990481Y-42590800D01*
X59990481Y-42590800D02*
X60041281Y-42590800D01*
X60041281Y-42590800D02*
X60041281Y-42593341D01*
X60041281Y-42593341D02*
X65009519Y-42593341D01*
X65009519Y-42593341D02*
X65009519Y-42367281D01*
X59960000Y-40889000D02*
X59960000Y-39187200D01*
X65040000Y-39136400D02*
X65040000Y-40000000D01*
X65040000Y-40000000D02*
X65040000Y-40863600D01*
X65040000Y-40000000D02*
X62500000Y-42540000D01*
X84987800Y-37637797D02*
X84987800Y-37383797D01*
X84987800Y-37383797D02*
X85038600Y-37383797D01*
X85038600Y-37383797D02*
X85038600Y-37388878D01*
X85038600Y-37388878D02*
X89989059Y-37388878D01*
X89989059Y-37388878D02*
X89989059Y-37620019D01*
X84967481Y-42319022D02*
X84967481Y-42590800D01*
X84967481Y-42590800D02*
X85018281Y-42590800D01*
X85018281Y-42590800D02*
X85018281Y-42593341D01*
X85018281Y-42593341D02*
X89986519Y-42593341D01*
X89986519Y-42593341D02*
X89986519Y-42367281D01*
X84937000Y-40889000D02*
X84937000Y-39187200D01*
X90017000Y-39136400D02*
X90017000Y-40000000D01*
X90017000Y-40000000D02*
X90017000Y-40863600D01*
X90017000Y-40000000D02*
X87477000Y-42540000D01*
X9987800Y-45137797D02*
X9987800Y-44883797D01*
X9987800Y-44883797D02*
X10038600Y-44883797D01*
X10038600Y-44883797D02*
X10038600Y-44888878D01*
X10038600Y-44888878D02*
X14989059Y-44888878D01*
X14989059Y-44888878D02*
X14989059Y-45120019D01*
X9967481Y-49819022D02*
X9967481Y-50090800D01*
X9967481Y-50090800D02*
X10018281Y-50090800D01*
X10018281Y-50090800D02*
X10018281Y-50093341D01*
X10018281Y-50093341D02*
X14986519Y-50093341D01*
X14986519Y-50093341D02*
X14986519Y-49867281D01*
X9937000Y-48389000D02*
X9937000Y-46687200D01*
X15017000Y-46636400D02*
X15017000Y-47500000D01*
X15017000Y-47500000D02*
X15017000Y-48363600D01*
X15017000Y-47500000D02*
X12477000Y-50040000D01*
X34987800Y-45137797D02*
X34987800Y-44883797D01*
X34987800Y-44883797D02*
X35038600Y-44883797D01*
X35038600Y-44883797D02*
X35038600Y-44888878D01*
X35038600Y-44888878D02*
X39989059Y-44888878D01*
X39989059Y-44888878D02*
X39989059Y-45120019D01*
X34967481Y-49819022D02*
X34967481Y-50090800D01*
X34967481Y-50090800D02*
X35018281Y-50090800D01*
X35018281Y-50090800D02*
X35018281Y-50093341D01*
X35018281Y-50093341D02*
X39986519Y-50093341D01*
X39986519Y-50093341D02*
X39986519Y-49867281D01*
X34937000Y-48389000D02*
X34937000Y-46687200D01*
X40017000Y-46636400D02*
X40017000Y-47500000D01*
X40017000Y-47500000D02*
X40017000Y-48363600D01*
X40017000Y-47500000D02*
X37477000Y-50040000D01*
X60010800Y-45137797D02*
X60010800Y-44883797D01*
X60010800Y-44883797D02*
X60061600Y-44883797D01*
X60061600Y-44883797D02*
X60061600Y-44888878D01*
X60061600Y-44888878D02*
X65012059Y-44888878D01*
X65012059Y-44888878D02*
X65012059Y-45120019D01*
X59990481Y-49819022D02*
X59990481Y-50090800D01*
X59990481Y-50090800D02*
X60041281Y-50090800D01*
X60041281Y-50090800D02*
X60041281Y-50093341D01*
X60041281Y-50093341D02*
X65009519Y-50093341D01*
X65009519Y-50093341D02*
X65009519Y-49867281D01*
X59960000Y-48389000D02*
X59960000Y-46687200D01*
X65040000Y-46636400D02*
X65040000Y-47500000D01*
X65040000Y-47500000D02*
X65040000Y-48363600D01*
X65040000Y-47500000D02*
X62500000Y-50040000D01*
X85010800Y-45137797D02*
X85010800Y-44883797D01*
X85010800Y-44883797D02*
X85061600Y-44883797D01*
X85061600Y-44883797D02*
X85061600Y-44888878D01*
X85061600Y-44888878D02*
X90012059Y-44888878D01*
X90012059Y-44888878D02*
X90012059Y-45120019D01*
X84990481Y-49819022D02*
X84990481Y-50090800D01*
X84990481Y-50090800D02*
X85041281Y-50090800D01*
X85041281Y-50090800D02*
X85041281Y-50093341D01*
X85041281Y-50093341D02*
X90009519Y-50093341D01*
X90009519Y-50093341D02*
X90009519Y-49867281D01*
X84960000Y-48389000D02*
X84960000Y-46687200D01*
X90040000Y-46636400D02*
X90040000Y-47500000D01*
X90040000Y-47500000D02*
X90040000Y-48363600D01*
X90040000Y-47500000D02*
X87500000Y-50040000D01*
X10010800Y-155137797D02*
X10010800Y-154883797D01*
X10010800Y-154883797D02*
X10061600Y-154883797D01*
X10061600Y-154883797D02*
X10061600Y-154888878D01*
X10061600Y-154888878D02*
X15012059Y-154888878D01*
X15012059Y-154888878D02*
X15012059Y-155120019D01*
X9990481Y-159819022D02*
X9990481Y-160090800D01*
X9990481Y-160090800D02*
X10041281Y-160090800D01*
X10041281Y-160090800D02*
X10041281Y-160093341D01*
X10041281Y-160093341D02*
X15009519Y-160093341D01*
X15009519Y-160093341D02*
X15009519Y-159867281D01*
X9960000Y-158389000D02*
X9960000Y-156687200D01*
X15040000Y-156636400D02*
X15040000Y-157500000D01*
X15040000Y-157500000D02*
X15040000Y-158363600D01*
X15040000Y-157500000D02*
X12500000Y-160040000D01*
X34987800Y-155137797D02*
X34987800Y-154883797D01*
X34987800Y-154883797D02*
X35038600Y-154883797D01*
X35038600Y-154883797D02*
X35038600Y-154888878D01*
X35038600Y-154888878D02*
X39989059Y-154888878D01*
X39989059Y-154888878D02*
X39989059Y-155120019D01*
X34967481Y-159819022D02*
X34967481Y-160090800D01*
X34967481Y-160090800D02*
X35018281Y-160090800D01*
X35018281Y-160090800D02*
X35018281Y-160093341D01*
X35018281Y-160093341D02*
X39986519Y-160093341D01*
X39986519Y-160093341D02*
X39986519Y-159867281D01*
X34937000Y-158389000D02*
X34937000Y-156687200D01*
X40017000Y-156636400D02*
X40017000Y-157500000D01*
X40017000Y-157500000D02*
X40017000Y-158363600D01*
X40017000Y-157500000D02*
X37477000Y-160040000D01*
X59987800Y-155137797D02*
X59987800Y-154883797D01*
X59987800Y-154883797D02*
X60038600Y-154883797D01*
X60038600Y-154883797D02*
X60038600Y-154888878D01*
X60038600Y-154888878D02*
X64989059Y-154888878D01*
X64989059Y-154888878D02*
X64989059Y-155120019D01*
X59967481Y-159819022D02*
X59967481Y-160090800D01*
X59967481Y-160090800D02*
X60018281Y-160090800D01*
X60018281Y-160090800D02*
X60018281Y-160093341D01*
X60018281Y-160093341D02*
X64986519Y-160093341D01*
X64986519Y-160093341D02*
X64986519Y-159867281D01*
X59937000Y-158389000D02*
X59937000Y-156687200D01*
X65017000Y-156636400D02*
X65017000Y-157500000D01*
X65017000Y-157500000D02*
X65017000Y-158363600D01*
X65017000Y-157500000D02*
X62477000Y-160040000D01*
X84987800Y-155137797D02*
X84987800Y-154883797D01*
X84987800Y-154883797D02*
X85038600Y-154883797D01*
X85038600Y-154883797D02*
X85038600Y-154888878D01*
X85038600Y-154888878D02*
X89989059Y-154888878D01*
X89989059Y-154888878D02*
X89989059Y-155120019D01*
X84967481Y-159819022D02*
X84967481Y-160090800D01*
X84967481Y-160090800D02*
X85018281Y-160090800D01*
X85018281Y-160090800D02*
X85018281Y-160093341D01*
X85018281Y-160093341D02*
X89986519Y-160093341D01*
X89986519Y-160093341D02*
X89986519Y-159867281D01*
X84937000Y-158389000D02*
X84937000Y-156687200D01*
X90017000Y-156636400D02*
X90017000Y-157500000D01*
X90017000Y-157500000D02*
X90017000Y-158363600D01*
X90017000Y-157500000D02*
X87477000Y-160040000D01*
D11*
X54000000Y-52500000D02*
G75*
G03X54000000Y-52500000I-1500000J0D01*
G01*
X64000000Y-75000000D02*
G75*
G03X64000000Y-75000000I-1500000J0D01*
G01*
X76500000Y-62500000D02*
G75*
G03X76500000Y-62500000I-1500000J0D01*
G01*
X62300000Y-64900000D02*
X64700000Y-62500000D01*
X59700000Y-64900000D02*
X62300000Y-64900000D01*
X59700000Y-59900000D02*
X59700000Y-64900000D01*
X64700000Y-59900000D02*
X59700000Y-59900000D01*
X64700000Y-62500000D02*
X64700000Y-59900000D01*
D12*
X50000000Y-75000000D02*
X50000000Y-50000000D01*
X50000000Y-50000000D02*
X75000000Y-50000000D01*
X75000000Y-50000000D02*
X75000000Y-75000000D01*
X75000000Y-75000000D02*
X50000000Y-75000000D01*
D11*
X79000000Y-52500000D02*
G75*
G03X79000000Y-52500000I-1500000J0D01*
G01*
X89000000Y-75000000D02*
G75*
G03X89000000Y-75000000I-1500000J0D01*
G01*
X101500000Y-62500000D02*
G75*
G03X101500000Y-62500000I-1500000J0D01*
G01*
X87300000Y-64900000D02*
X89700000Y-62500000D01*
X84700000Y-64900000D02*
X87300000Y-64900000D01*
X84700000Y-59900000D02*
X84700000Y-64900000D01*
X89700000Y-59900000D02*
X84700000Y-59900000D01*
X89700000Y-62500000D02*
X89700000Y-59900000D01*
D12*
X75000000Y-75000000D02*
X75000000Y-50000000D01*
X75000000Y-50000000D02*
X100000000Y-50000000D01*
X100000000Y-50000000D02*
X100000000Y-75000000D01*
X100000000Y-75000000D02*
X75000000Y-75000000D01*
D11*
X4000000Y-77500000D02*
G75*
G03X4000000Y-77500000I-1500000J0D01*
G01*
X14000000Y-100000000D02*
G75*
G03X14000000Y-100000000I-1500000J0D01*
G01*
X26500000Y-87500000D02*
G75*
G03X26500000Y-87500000I-1500000J0D01*
G01*
X12300000Y-89900000D02*
X14700000Y-87500000D01*
X9700000Y-89900000D02*
X12300000Y-89900000D01*
X9700000Y-84900000D02*
X9700000Y-89900000D01*
X14700000Y-84900000D02*
X9700000Y-84900000D01*
X14700000Y-87500000D02*
X14700000Y-84900000D01*
D12*
X0Y-100000000D02*
X0Y-75000000D01*
X0Y-75000000D02*
X25000000Y-75000000D01*
X25000000Y-75000000D02*
X25000000Y-100000000D01*
X25000000Y-100000000D02*
X0Y-100000000D01*
D11*
X29000000Y-77500000D02*
G75*
G03X29000000Y-77500000I-1500000J0D01*
G01*
X39000000Y-100000000D02*
G75*
G03X39000000Y-100000000I-1500000J0D01*
G01*
X51500000Y-87500000D02*
G75*
G03X51500000Y-87500000I-1500000J0D01*
G01*
X37300000Y-89900000D02*
X39700000Y-87500000D01*
X34700000Y-89900000D02*
X37300000Y-89900000D01*
X34700000Y-84900000D02*
X34700000Y-89900000D01*
X39700000Y-84900000D02*
X34700000Y-84900000D01*
X39700000Y-87500000D02*
X39700000Y-84900000D01*
D12*
X25000000Y-100000000D02*
X25000000Y-75000000D01*
X25000000Y-75000000D02*
X50000000Y-75000000D01*
X50000000Y-75000000D02*
X50000000Y-100000000D01*
X50000000Y-100000000D02*
X25000000Y-100000000D01*
D11*
X54000000Y-77500000D02*
G75*
G03X54000000Y-77500000I-1500000J0D01*
G01*
X64000000Y-100000000D02*
G75*
G03X64000000Y-100000000I-1500000J0D01*
G01*
X76500000Y-87500000D02*
G75*
G03X76500000Y-87500000I-1500000J0D01*
G01*
X62300000Y-89900000D02*
X64700000Y-87500000D01*
X59700000Y-89900000D02*
X62300000Y-89900000D01*
X59700000Y-84900000D02*
X59700000Y-89900000D01*
X64700000Y-84900000D02*
X59700000Y-84900000D01*
X64700000Y-87500000D02*
X64700000Y-84900000D01*
D12*
X50000000Y-100000000D02*
X50000000Y-75000000D01*
X50000000Y-75000000D02*
X75000000Y-75000000D01*
X75000000Y-75000000D02*
X75000000Y-100000000D01*
X75000000Y-100000000D02*
X50000000Y-100000000D01*
D11*
X79000000Y-77500000D02*
G75*
G03X79000000Y-77500000I-1500000J0D01*
G01*
X89000000Y-100000000D02*
G75*
G03X89000000Y-100000000I-1500000J0D01*
G01*
X101500000Y-87500000D02*
G75*
G03X101500000Y-87500000I-1500000J0D01*
G01*
X87300000Y-89900000D02*
X89700000Y-87500000D01*
X84700000Y-89900000D02*
X87300000Y-89900000D01*
X84700000Y-84900000D02*
X84700000Y-89900000D01*
X89700000Y-84900000D02*
X84700000Y-84900000D01*
X89700000Y-87500000D02*
X89700000Y-84900000D01*
D12*
X75000000Y-100000000D02*
X75000000Y-75000000D01*
X75000000Y-75000000D02*
X100000000Y-75000000D01*
X100000000Y-75000000D02*
X100000000Y-100000000D01*
X100000000Y-100000000D02*
X75000000Y-100000000D01*
D11*
X4000000Y-102500000D02*
G75*
G03X4000000Y-102500000I-1500000J0D01*
G01*
X14000000Y-125000000D02*
G75*
G03X14000000Y-125000000I-1500000J0D01*
G01*
X26500000Y-112500000D02*
G75*
G03X26500000Y-112500000I-1500000J0D01*
G01*
X12300000Y-114900000D02*
X14700000Y-112500000D01*
X9700000Y-114900000D02*
X12300000Y-114900000D01*
X9700000Y-109900000D02*
X9700000Y-114900000D01*
X14700000Y-109900000D02*
X9700000Y-109900000D01*
X14700000Y-112500000D02*
X14700000Y-109900000D01*
D12*
X0Y-125000000D02*
X0Y-100000000D01*
X0Y-100000000D02*
X25000000Y-100000000D01*
X25000000Y-100000000D02*
X25000000Y-125000000D01*
X25000000Y-125000000D02*
X0Y-125000000D01*
D11*
X28977000Y-102500000D02*
G75*
G03X28977000Y-102500000I-1500000J0D01*
G01*
X38977000Y-125000000D02*
G75*
G03X38977000Y-125000000I-1500000J0D01*
G01*
X51477000Y-112500000D02*
G75*
G03X51477000Y-112500000I-1500000J0D01*
G01*
X37277000Y-114900000D02*
X39677000Y-112500000D01*
X34677000Y-114900000D02*
X37277000Y-114900000D01*
X34677000Y-109900000D02*
X34677000Y-114900000D01*
X39677000Y-109900000D02*
X34677000Y-109900000D01*
X39677000Y-112500000D02*
X39677000Y-109900000D01*
D12*
X24977000Y-125000000D02*
X24977000Y-100000000D01*
X24977000Y-100000000D02*
X49977000Y-100000000D01*
X49977000Y-100000000D02*
X49977000Y-125000000D01*
X49977000Y-125000000D02*
X24977000Y-125000000D01*
D11*
X54000000Y-102500000D02*
G75*
G03X54000000Y-102500000I-1500000J0D01*
G01*
X64000000Y-125000000D02*
G75*
G03X64000000Y-125000000I-1500000J0D01*
G01*
X76500000Y-112500000D02*
G75*
G03X76500000Y-112500000I-1500000J0D01*
G01*
X62300000Y-114900000D02*
X64700000Y-112500000D01*
X59700000Y-114900000D02*
X62300000Y-114900000D01*
X59700000Y-109900000D02*
X59700000Y-114900000D01*
X64700000Y-109900000D02*
X59700000Y-109900000D01*
X64700000Y-112500000D02*
X64700000Y-109900000D01*
D12*
X50000000Y-125000000D02*
X50000000Y-100000000D01*
X50000000Y-100000000D02*
X75000000Y-100000000D01*
X75000000Y-100000000D02*
X75000000Y-125000000D01*
X75000000Y-125000000D02*
X50000000Y-125000000D01*
D11*
X79000000Y-102500000D02*
G75*
G03X79000000Y-102500000I-1500000J0D01*
G01*
X89000000Y-125000000D02*
G75*
G03X89000000Y-125000000I-1500000J0D01*
G01*
X101500000Y-112500000D02*
G75*
G03X101500000Y-112500000I-1500000J0D01*
G01*
X87300000Y-114900000D02*
X89700000Y-112500000D01*
X84700000Y-114900000D02*
X87300000Y-114900000D01*
X84700000Y-109900000D02*
X84700000Y-114900000D01*
X89700000Y-109900000D02*
X84700000Y-109900000D01*
X89700000Y-112500000D02*
X89700000Y-109900000D01*
D12*
X75000000Y-125000000D02*
X75000000Y-100000000D01*
X75000000Y-100000000D02*
X100000000Y-100000000D01*
X100000000Y-100000000D02*
X100000000Y-125000000D01*
X100000000Y-125000000D02*
X75000000Y-125000000D01*
D11*
X4000000Y-127500000D02*
G75*
G03X4000000Y-127500000I-1500000J0D01*
G01*
X14000000Y-150000000D02*
G75*
G03X14000000Y-150000000I-1500000J0D01*
G01*
X26500000Y-137500000D02*
G75*
G03X26500000Y-137500000I-1500000J0D01*
G01*
X12300000Y-139900000D02*
X14700000Y-137500000D01*
X9700000Y-139900000D02*
X12300000Y-139900000D01*
X9700000Y-134900000D02*
X9700000Y-139900000D01*
X14700000Y-134900000D02*
X9700000Y-134900000D01*
X14700000Y-137500000D02*
X14700000Y-134900000D01*
D12*
X0Y-150000000D02*
X0Y-125000000D01*
X0Y-125000000D02*
X25000000Y-125000000D01*
X25000000Y-125000000D02*
X25000000Y-150000000D01*
X25000000Y-150000000D02*
X0Y-150000000D01*
D11*
X29000000Y-127500000D02*
G75*
G03X29000000Y-127500000I-1500000J0D01*
G01*
X39000000Y-150000000D02*
G75*
G03X39000000Y-150000000I-1500000J0D01*
G01*
X51500000Y-137500000D02*
G75*
G03X51500000Y-137500000I-1500000J0D01*
G01*
X37300000Y-139900000D02*
X39700000Y-137500000D01*
X34700000Y-139900000D02*
X37300000Y-139900000D01*
X34700000Y-134900000D02*
X34700000Y-139900000D01*
X39700000Y-134900000D02*
X34700000Y-134900000D01*
X39700000Y-137500000D02*
X39700000Y-134900000D01*
D12*
X25000000Y-150000000D02*
X25000000Y-125000000D01*
X25000000Y-125000000D02*
X50000000Y-125000000D01*
X50000000Y-125000000D02*
X50000000Y-150000000D01*
X50000000Y-150000000D02*
X25000000Y-150000000D01*
D11*
X54000000Y-127500000D02*
G75*
G03X54000000Y-127500000I-1500000J0D01*
G01*
X64000000Y-150000000D02*
G75*
G03X64000000Y-150000000I-1500000J0D01*
G01*
X76500000Y-137500000D02*
G75*
G03X76500000Y-137500000I-1500000J0D01*
G01*
X62300000Y-139900000D02*
X64700000Y-137500000D01*
X59700000Y-139900000D02*
X62300000Y-139900000D01*
X59700000Y-134900000D02*
X59700000Y-139900000D01*
X64700000Y-134900000D02*
X59700000Y-134900000D01*
X64700000Y-137500000D02*
X64700000Y-134900000D01*
D12*
X50000000Y-150000000D02*
X50000000Y-125000000D01*
X50000000Y-125000000D02*
X75000000Y-125000000D01*
X75000000Y-125000000D02*
X75000000Y-150000000D01*
X75000000Y-150000000D02*
X50000000Y-150000000D01*
D11*
X79000000Y-127500000D02*
G75*
G03X79000000Y-127500000I-1500000J0D01*
G01*
X89000000Y-150000000D02*
G75*
G03X89000000Y-150000000I-1500000J0D01*
G01*
X101500000Y-137500000D02*
G75*
G03X101500000Y-137500000I-1500000J0D01*
G01*
X87300000Y-139900000D02*
X89700000Y-137500000D01*
X84700000Y-139900000D02*
X87300000Y-139900000D01*
X84700000Y-134900000D02*
X84700000Y-139900000D01*
X89700000Y-134900000D02*
X84700000Y-134900000D01*
X89700000Y-137500000D02*
X89700000Y-134900000D01*
D12*
X75000000Y-150000000D02*
X75000000Y-125000000D01*
X75000000Y-125000000D02*
X100000000Y-125000000D01*
X100000000Y-125000000D02*
X100000000Y-150000000D01*
X100000000Y-150000000D02*
X75000000Y-150000000D01*
D15*
X6230000Y-37841000D02*
X6230000Y-42159000D01*
X6230000Y-42159000D02*
X8770000Y-42159000D01*
X8770000Y-37841000D02*
X8770000Y-42159000D01*
X6230000Y-37841000D02*
X8770000Y-37841000D01*
D14*
X8848740Y-37856240D02*
X8848740Y-42143760D01*
X6151260Y-42143760D02*
X6151260Y-37856240D01*
X8797940Y-42148840D02*
X8498220Y-42148840D01*
X6202060Y-42148840D02*
X6501780Y-42148840D01*
X6202060Y-37851160D02*
X6501780Y-37851160D01*
X8797940Y-37851160D02*
X8498220Y-37851160D01*
X8262000Y-39619000D02*
X7500000Y-40508000D01*
X7500000Y-40508000D02*
X6738000Y-39619000D01*
X6738000Y-39619000D02*
X8262000Y-39619000D01*
D15*
X33425000Y-42349000D02*
X33425000Y-38031000D01*
X33425000Y-38031000D02*
X30885000Y-38031000D01*
X30885000Y-42349000D02*
X30885000Y-38031000D01*
X33425000Y-42349000D02*
X30885000Y-42349000D01*
D14*
X30806260Y-42333760D02*
X30806260Y-38046240D01*
X33503740Y-38046240D02*
X33503740Y-42333760D01*
X30857060Y-38041160D02*
X31156780Y-38041160D01*
X33452940Y-38041160D02*
X33153220Y-38041160D01*
X33452940Y-42338840D02*
X33153220Y-42338840D01*
X30857060Y-42338840D02*
X31156780Y-42338840D01*
X31393000Y-40571000D02*
X32155000Y-39682000D01*
X32155000Y-39682000D02*
X32917000Y-40571000D01*
X32917000Y-40571000D02*
X31393000Y-40571000D01*
D15*
X59225000Y-42349000D02*
X59225000Y-38031000D01*
X59225000Y-38031000D02*
X56685000Y-38031000D01*
X56685000Y-42349000D02*
X56685000Y-38031000D01*
X59225000Y-42349000D02*
X56685000Y-42349000D01*
D14*
X56606260Y-42333760D02*
X56606260Y-38046240D01*
X59303740Y-38046240D02*
X59303740Y-42333760D01*
X56657060Y-38041160D02*
X56956780Y-38041160D01*
X59252940Y-38041160D02*
X58953220Y-38041160D01*
X59252940Y-42338840D02*
X58953220Y-42338840D01*
X56657060Y-42338840D02*
X56956780Y-42338840D01*
X57193000Y-40571000D02*
X57955000Y-39682000D01*
X57955000Y-39682000D02*
X58717000Y-40571000D01*
X58717000Y-40571000D02*
X57193000Y-40571000D01*
D15*
X83070000Y-42119400D02*
X83070000Y-37801400D01*
X83070000Y-37801400D02*
X80530000Y-37801400D01*
X80530000Y-42119400D02*
X80530000Y-37801400D01*
X83070000Y-42119400D02*
X80530000Y-42119400D01*
D14*
X80451260Y-42104160D02*
X80451260Y-37816640D01*
X83148740Y-37816640D02*
X83148740Y-42104160D01*
X80502060Y-37811560D02*
X80801780Y-37811560D01*
X83097940Y-37811560D02*
X82798220Y-37811560D01*
X83097940Y-42109240D02*
X82798220Y-42109240D01*
X80502060Y-42109240D02*
X80801780Y-42109240D01*
X81038000Y-40341400D02*
X81800000Y-39452400D01*
X81800000Y-39452400D02*
X82562000Y-40341400D01*
X82562000Y-40341400D02*
X81038000Y-40341400D01*
D15*
X81407000Y-36322000D02*
X85725000Y-36322000D01*
X85725000Y-36322000D02*
X85725000Y-33782000D01*
X81407000Y-33782000D02*
X85725000Y-33782000D01*
X81407000Y-36322000D02*
X81407000Y-33782000D01*
D14*
X81422240Y-33703260D02*
X85709760Y-33703260D01*
X85709760Y-36400740D02*
X81422240Y-36400740D01*
X85714840Y-33754060D02*
X85714840Y-34053780D01*
X85714840Y-36349940D02*
X85714840Y-36050220D01*
X81417160Y-36349940D02*
X81417160Y-36050220D01*
X81417160Y-33754060D02*
X81417160Y-34053780D01*
X83185000Y-34290000D02*
X84074000Y-35052000D01*
X84074000Y-35052000D02*
X83185000Y-35814000D01*
X83185000Y-35814000D02*
X83185000Y-34290000D01*
D15*
X6865000Y-48639000D02*
X6865000Y-44321000D01*
X6865000Y-44321000D02*
X4325000Y-44321000D01*
X4325000Y-48639000D02*
X4325000Y-44321000D01*
X6865000Y-48639000D02*
X4325000Y-48639000D01*
D14*
X4246260Y-48623760D02*
X4246260Y-44336240D01*
X6943740Y-44336240D02*
X6943740Y-48623760D01*
X4297060Y-44331160D02*
X4596780Y-44331160D01*
X6892940Y-44331160D02*
X6593220Y-44331160D01*
X6892940Y-48628840D02*
X6593220Y-48628840D01*
X4297060Y-48628840D02*
X4596780Y-48628840D01*
X4833000Y-46861000D02*
X5595000Y-45972000D01*
X5595000Y-45972000D02*
X6357000Y-46861000D01*
X6357000Y-46861000D02*
X4833000Y-46861000D01*
D15*
X31520000Y-48579000D02*
X31520000Y-44261000D01*
X31520000Y-44261000D02*
X28980000Y-44261000D01*
X28980000Y-48579000D02*
X28980000Y-44261000D01*
X31520000Y-48579000D02*
X28980000Y-48579000D01*
D14*
X28901260Y-48563760D02*
X28901260Y-44276240D01*
X31598740Y-44276240D02*
X31598740Y-48563760D01*
X28952060Y-44271160D02*
X29251780Y-44271160D01*
X31547940Y-44271160D02*
X31248220Y-44271160D01*
X31547940Y-48568840D02*
X31248220Y-48568840D01*
X28952060Y-48568840D02*
X29251780Y-48568840D01*
X29488000Y-46801000D02*
X30250000Y-45912000D01*
X30250000Y-45912000D02*
X31012000Y-46801000D01*
X31012000Y-46801000D02*
X29488000Y-46801000D01*
D15*
X57320000Y-48579000D02*
X57320000Y-44261000D01*
X57320000Y-44261000D02*
X54780000Y-44261000D01*
X54780000Y-48579000D02*
X54780000Y-44261000D01*
X57320000Y-48579000D02*
X54780000Y-48579000D01*
D14*
X54701260Y-48563760D02*
X54701260Y-44276240D01*
X57398740Y-44276240D02*
X57398740Y-48563760D01*
X54752060Y-44271160D02*
X55051780Y-44271160D01*
X57347940Y-44271160D02*
X57048220Y-44271160D01*
X57347940Y-48568840D02*
X57048220Y-48568840D01*
X54752060Y-48568840D02*
X55051780Y-48568840D01*
X55288000Y-46801000D02*
X56050000Y-45912000D01*
X56050000Y-45912000D02*
X56812000Y-46801000D01*
X56812000Y-46801000D02*
X55288000Y-46801000D01*
D15*
X81165000Y-48579000D02*
X81165000Y-44261000D01*
X81165000Y-44261000D02*
X78625000Y-44261000D01*
X78625000Y-48579000D02*
X78625000Y-44261000D01*
X81165000Y-48579000D02*
X78625000Y-48579000D01*
D14*
X78546260Y-48563760D02*
X78546260Y-44276240D01*
X81243740Y-44276240D02*
X81243740Y-48563760D01*
X78597060Y-44271160D02*
X78896780Y-44271160D01*
X81192940Y-44271160D02*
X80893220Y-44271160D01*
X81192940Y-48568840D02*
X80893220Y-48568840D01*
X78597060Y-48568840D02*
X78896780Y-48568840D01*
X79133000Y-46801000D02*
X79895000Y-45912000D01*
X79895000Y-45912000D02*
X80657000Y-46801000D01*
X80657000Y-46801000D02*
X79133000Y-46801000D01*
D15*
X17526000Y-154305000D02*
X21844000Y-154305000D01*
X21844000Y-154305000D02*
X21844000Y-151765000D01*
X17526000Y-151765000D02*
X21844000Y-151765000D01*
X17526000Y-154305000D02*
X17526000Y-151765000D01*
D14*
X17541240Y-151686260D02*
X21828760Y-151686260D01*
X21828760Y-154383740D02*
X17541240Y-154383740D01*
X21833840Y-151737060D02*
X21833840Y-152036780D01*
X21833840Y-154332940D02*
X21833840Y-154033220D01*
X17536160Y-154332940D02*
X17536160Y-154033220D01*
X17536160Y-151737060D02*
X17536160Y-152036780D01*
X19304000Y-152273000D02*
X20193000Y-153035000D01*
X20193000Y-153035000D02*
X19304000Y-153797000D01*
X19304000Y-153797000D02*
X19304000Y-152273000D01*
D15*
X39116000Y-154305000D02*
X43434000Y-154305000D01*
X43434000Y-154305000D02*
X43434000Y-151765000D01*
X39116000Y-151765000D02*
X43434000Y-151765000D01*
X39116000Y-154305000D02*
X39116000Y-151765000D01*
D14*
X39131240Y-151686260D02*
X43418760Y-151686260D01*
X43418760Y-154383740D02*
X39131240Y-154383740D01*
X43423840Y-151737060D02*
X43423840Y-152036780D01*
X43423840Y-154332940D02*
X43423840Y-154033220D01*
X39126160Y-154332940D02*
X39126160Y-154033220D01*
X39126160Y-151737060D02*
X39126160Y-152036780D01*
X40894000Y-152273000D02*
X41783000Y-153035000D01*
X41783000Y-153035000D02*
X40894000Y-153797000D01*
X40894000Y-153797000D02*
X40894000Y-152273000D01*
D15*
X64516000Y-154305000D02*
X68834000Y-154305000D01*
X68834000Y-154305000D02*
X68834000Y-151765000D01*
X64516000Y-151765000D02*
X68834000Y-151765000D01*
X64516000Y-154305000D02*
X64516000Y-151765000D01*
D14*
X64531240Y-151686260D02*
X68818760Y-151686260D01*
X68818760Y-154383740D02*
X64531240Y-154383740D01*
X68823840Y-151737060D02*
X68823840Y-152036780D01*
X68823840Y-154332940D02*
X68823840Y-154033220D01*
X64526160Y-154332940D02*
X64526160Y-154033220D01*
X64526160Y-151737060D02*
X64526160Y-152036780D01*
X66294000Y-152273000D02*
X67183000Y-153035000D01*
X67183000Y-153035000D02*
X66294000Y-153797000D01*
X66294000Y-153797000D02*
X66294000Y-152273000D01*
D15*
X93818000Y-154305000D02*
X98136000Y-154305000D01*
X98136000Y-154305000D02*
X98136000Y-151765000D01*
X93818000Y-151765000D02*
X98136000Y-151765000D01*
X93818000Y-154305000D02*
X93818000Y-151765000D01*
D14*
X93833240Y-151686260D02*
X98120760Y-151686260D01*
X98120760Y-154383740D02*
X93833240Y-154383740D01*
X98125840Y-151737060D02*
X98125840Y-152036780D01*
X98125840Y-154332940D02*
X98125840Y-154033220D01*
X93828160Y-154332940D02*
X93828160Y-154033220D01*
X93828160Y-151737060D02*
X93828160Y-152036780D01*
X95596000Y-152273000D02*
X96485000Y-153035000D01*
X96485000Y-153035000D02*
X95596000Y-153797000D01*
X95596000Y-153797000D02*
X95596000Y-152273000D01*
D15*
X17854640Y-42598420D02*
X22952420Y-42598420D01*
X22952420Y-42598420D02*
X22952420Y-37401580D01*
X17854640Y-37401580D02*
X22952420Y-37401580D01*
X17854640Y-42598420D02*
X17854640Y-37401580D01*
D14*
X22952420Y-38567440D02*
X22952420Y-41468120D01*
X21852600Y-42598420D02*
X19254180Y-42598420D01*
X19254180Y-42598420D02*
X18896040Y-42598420D01*
X17755580Y-41457960D02*
X17755580Y-38605540D01*
X18954460Y-37401580D02*
X21852600Y-37401580D01*
X18954460Y-37401580D02*
X17956240Y-38402340D01*
X21852600Y-37401580D02*
X22751760Y-38300740D01*
X21852600Y-42598420D02*
X22751760Y-41699260D01*
X18896040Y-42598420D02*
X18855400Y-42598420D01*
X18855400Y-42598420D02*
X17956240Y-41699260D01*
D15*
X42854640Y-42598420D02*
X47952420Y-42598420D01*
X47952420Y-42598420D02*
X47952420Y-37401580D01*
X42854640Y-37401580D02*
X47952420Y-37401580D01*
X42854640Y-42598420D02*
X42854640Y-37401580D01*
D14*
X47952420Y-38567440D02*
X47952420Y-41468120D01*
X46852600Y-42598420D02*
X44254180Y-42598420D01*
X44254180Y-42598420D02*
X43896040Y-42598420D01*
X42755580Y-41457960D02*
X42755580Y-38605540D01*
X43954460Y-37401580D02*
X46852600Y-37401580D01*
X43954460Y-37401580D02*
X42956240Y-38402340D01*
X46852600Y-37401580D02*
X47751760Y-38300740D01*
X46852600Y-42598420D02*
X47751760Y-41699260D01*
X43896040Y-42598420D02*
X43855400Y-42598420D01*
X43855400Y-42598420D02*
X42956240Y-41699260D01*
D15*
X67854640Y-42598420D02*
X72952420Y-42598420D01*
X72952420Y-42598420D02*
X72952420Y-37401580D01*
X67854640Y-37401580D02*
X72952420Y-37401580D01*
X67854640Y-42598420D02*
X67854640Y-37401580D01*
D14*
X72952420Y-38567440D02*
X72952420Y-41468120D01*
X71852600Y-42598420D02*
X69254180Y-42598420D01*
X69254180Y-42598420D02*
X68896040Y-42598420D01*
X67755580Y-41457960D02*
X67755580Y-38605540D01*
X68954460Y-37401580D02*
X71852600Y-37401580D01*
X68954460Y-37401580D02*
X67956240Y-38402340D01*
X71852600Y-37401580D02*
X72751760Y-38300740D01*
X71852600Y-42598420D02*
X72751760Y-41699260D01*
X68896040Y-42598420D02*
X68855400Y-42598420D01*
X68855400Y-42598420D02*
X67956240Y-41699260D01*
D15*
X92854640Y-42598420D02*
X97952420Y-42598420D01*
X97952420Y-42598420D02*
X97952420Y-37401580D01*
X92854640Y-37401580D02*
X97952420Y-37401580D01*
X92854640Y-42598420D02*
X92854640Y-37401580D01*
D14*
X97952420Y-38567440D02*
X97952420Y-41468120D01*
X96852600Y-42598420D02*
X94254180Y-42598420D01*
X94254180Y-42598420D02*
X93896040Y-42598420D01*
X92755580Y-41457960D02*
X92755580Y-38605540D01*
X93954460Y-37401580D02*
X96852600Y-37401580D01*
X93954460Y-37401580D02*
X92956240Y-38402340D01*
X96852600Y-37401580D02*
X97751760Y-38300740D01*
X96852600Y-42598420D02*
X97751760Y-41699260D01*
X93896040Y-42598420D02*
X93855400Y-42598420D01*
X93855400Y-42598420D02*
X92956240Y-41699260D01*
D15*
X17854640Y-50098420D02*
X22952420Y-50098420D01*
X22952420Y-50098420D02*
X22952420Y-44901580D01*
X17854640Y-44901580D02*
X22952420Y-44901580D01*
X17854640Y-50098420D02*
X17854640Y-44901580D01*
D14*
X22952420Y-46067440D02*
X22952420Y-48968120D01*
X21852600Y-50098420D02*
X19254180Y-50098420D01*
X19254180Y-50098420D02*
X18896040Y-50098420D01*
X17755580Y-48957960D02*
X17755580Y-46105540D01*
X18954460Y-44901580D02*
X21852600Y-44901580D01*
X18954460Y-44901580D02*
X17956240Y-45902340D01*
X21852600Y-44901580D02*
X22751760Y-45800740D01*
X21852600Y-50098420D02*
X22751760Y-49199260D01*
X18896040Y-50098420D02*
X18855400Y-50098420D01*
X18855400Y-50098420D02*
X17956240Y-49199260D01*
D15*
X42854640Y-50098420D02*
X47952420Y-50098420D01*
X47952420Y-50098420D02*
X47952420Y-44901580D01*
X42854640Y-44901580D02*
X47952420Y-44901580D01*
X42854640Y-50098420D02*
X42854640Y-44901580D01*
D14*
X47952420Y-46067440D02*
X47952420Y-48968120D01*
X46852600Y-50098420D02*
X44254180Y-50098420D01*
X44254180Y-50098420D02*
X43896040Y-50098420D01*
X42755580Y-48957960D02*
X42755580Y-46105540D01*
X43954460Y-44901580D02*
X46852600Y-44901580D01*
X43954460Y-44901580D02*
X42956240Y-45902340D01*
X46852600Y-44901580D02*
X47751760Y-45800740D01*
X46852600Y-50098420D02*
X47751760Y-49199260D01*
X43896040Y-50098420D02*
X43855400Y-50098420D01*
X43855400Y-50098420D02*
X42956240Y-49199260D01*
D15*
X67854640Y-50098420D02*
X72952420Y-50098420D01*
X72952420Y-50098420D02*
X72952420Y-44901580D01*
X67854640Y-44901580D02*
X72952420Y-44901580D01*
X67854640Y-50098420D02*
X67854640Y-44901580D01*
D14*
X72952420Y-46067440D02*
X72952420Y-48968120D01*
X71852600Y-50098420D02*
X69254180Y-50098420D01*
X69254180Y-50098420D02*
X68896040Y-50098420D01*
X67755580Y-48957960D02*
X67755580Y-46105540D01*
X68954460Y-44901580D02*
X71852600Y-44901580D01*
X68954460Y-44901580D02*
X67956240Y-45902340D01*
X71852600Y-44901580D02*
X72751760Y-45800740D01*
X71852600Y-50098420D02*
X72751760Y-49199260D01*
X68896040Y-50098420D02*
X68855400Y-50098420D01*
X68855400Y-50098420D02*
X67956240Y-49199260D01*
D15*
X92831640Y-50098420D02*
X97929420Y-50098420D01*
X97929420Y-50098420D02*
X97929420Y-44901580D01*
X92831640Y-44901580D02*
X97929420Y-44901580D01*
X92831640Y-50098420D02*
X92831640Y-44901580D01*
D14*
X97929420Y-46067440D02*
X97929420Y-48968120D01*
X96829600Y-50098420D02*
X94231180Y-50098420D01*
X94231180Y-50098420D02*
X93873040Y-50098420D01*
X92732580Y-48957960D02*
X92732580Y-46105540D01*
X93931460Y-44901580D02*
X96829600Y-44901580D01*
X93931460Y-44901580D02*
X92933240Y-45902340D01*
X96829600Y-44901580D02*
X97728760Y-45800740D01*
X96829600Y-50098420D02*
X97728760Y-49199260D01*
X93873040Y-50098420D02*
X93832400Y-50098420D01*
X93832400Y-50098420D02*
X92933240Y-49199260D01*
D15*
X17854640Y-160098420D02*
X22952420Y-160098420D01*
X22952420Y-160098420D02*
X22952420Y-154901580D01*
X17854640Y-154901580D02*
X22952420Y-154901580D01*
X17854640Y-160098420D02*
X17854640Y-154901580D01*
D14*
X22952420Y-156067440D02*
X22952420Y-158968120D01*
X21852600Y-160098420D02*
X19254180Y-160098420D01*
X19254180Y-160098420D02*
X18896040Y-160098420D01*
X17755580Y-158957960D02*
X17755580Y-156105540D01*
X18954460Y-154901580D02*
X21852600Y-154901580D01*
X18954460Y-154901580D02*
X17956240Y-155902340D01*
X21852600Y-154901580D02*
X22751760Y-155800740D01*
X21852600Y-160098420D02*
X22751760Y-159199260D01*
X18896040Y-160098420D02*
X18855400Y-160098420D01*
X18855400Y-160098420D02*
X17956240Y-159199260D01*
D15*
X42854640Y-160098420D02*
X47952420Y-160098420D01*
X47952420Y-160098420D02*
X47952420Y-154901580D01*
X42854640Y-154901580D02*
X47952420Y-154901580D01*
X42854640Y-160098420D02*
X42854640Y-154901580D01*
D14*
X47952420Y-156067440D02*
X47952420Y-158968120D01*
X46852600Y-160098420D02*
X44254180Y-160098420D01*
X44254180Y-160098420D02*
X43896040Y-160098420D01*
X42755580Y-158957960D02*
X42755580Y-156105540D01*
X43954460Y-154901580D02*
X46852600Y-154901580D01*
X43954460Y-154901580D02*
X42956240Y-155902340D01*
X46852600Y-154901580D02*
X47751760Y-155800740D01*
X46852600Y-160098420D02*
X47751760Y-159199260D01*
X43896040Y-160098420D02*
X43855400Y-160098420D01*
X43855400Y-160098420D02*
X42956240Y-159199260D01*
D15*
X67854640Y-160098420D02*
X72952420Y-160098420D01*
X72952420Y-160098420D02*
X72952420Y-154901580D01*
X67854640Y-154901580D02*
X72952420Y-154901580D01*
X67854640Y-160098420D02*
X67854640Y-154901580D01*
D14*
X72952420Y-156067440D02*
X72952420Y-158968120D01*
X71852600Y-160098420D02*
X69254180Y-160098420D01*
X69254180Y-160098420D02*
X68896040Y-160098420D01*
X67755580Y-158957960D02*
X67755580Y-156105540D01*
X68954460Y-154901580D02*
X71852600Y-154901580D01*
X68954460Y-154901580D02*
X67956240Y-155902340D01*
X71852600Y-154901580D02*
X72751760Y-155800740D01*
X71852600Y-160098420D02*
X72751760Y-159199260D01*
X68896040Y-160098420D02*
X68855400Y-160098420D01*
X68855400Y-160098420D02*
X67956240Y-159199260D01*
D15*
X92854640Y-160098420D02*
X97952420Y-160098420D01*
X97952420Y-160098420D02*
X97952420Y-154901580D01*
X92854640Y-154901580D02*
X97952420Y-154901580D01*
X92854640Y-160098420D02*
X92854640Y-154901580D01*
D14*
X97952420Y-156067440D02*
X97952420Y-158968120D01*
X96852600Y-160098420D02*
X94254180Y-160098420D01*
X94254180Y-160098420D02*
X93896040Y-160098420D01*
X92755580Y-158957960D02*
X92755580Y-156105540D01*
X93954460Y-154901580D02*
X96852600Y-154901580D01*
X93954460Y-154901580D02*
X92956240Y-155902340D01*
X96852600Y-154901580D02*
X97751760Y-155800740D01*
X96852600Y-160098420D02*
X97751760Y-159199260D01*
X93896040Y-160098420D02*
X93855400Y-160098420D01*
X93855400Y-160098420D02*
X92956240Y-159199260D01*
D15*
X89341000Y-34270000D02*
X93659000Y-34270000D01*
X93659000Y-34270000D02*
X93659000Y-31730000D01*
X89341000Y-31730000D02*
X93659000Y-31730000D01*
X89341000Y-34270000D02*
X89341000Y-31730000D01*
D14*
X89356240Y-31651260D02*
X93643760Y-31651260D01*
X93643760Y-34348740D02*
X89356240Y-34348740D01*
X93648840Y-31702060D02*
X93648840Y-32001780D01*
X93648840Y-34297940D02*
X93648840Y-33998220D01*
X89351160Y-34297940D02*
X89351160Y-33998220D01*
X89351160Y-31702060D02*
X89351160Y-32001780D01*
X91119000Y-32238000D02*
X92008000Y-33000000D01*
X92008000Y-33000000D02*
X91119000Y-33762000D01*
X91119000Y-33762000D02*
X91119000Y-32238000D01*
D11*
X1665429Y-65366572D02*
X3189429Y-65003715D01*
X2100857Y-64713429D01*
X3189429Y-64423143D01*
X1665429Y-64060286D01*
X3116857Y-63552286D02*
X3189429Y-63334572D01*
X3189429Y-62971715D01*
X3116857Y-62826572D01*
X3044286Y-62754001D01*
X2899143Y-62681429D01*
X2754000Y-62681429D01*
X2608857Y-62754001D01*
X2536286Y-62826572D01*
X2463714Y-62971715D01*
X2391143Y-63262001D01*
X2318571Y-63407143D01*
X2246000Y-63479715D01*
X2100857Y-63552286D01*
X1955714Y-63552286D01*
X1810571Y-63479715D01*
X1738000Y-63407143D01*
X1665429Y-63262001D01*
X1665429Y-62899143D01*
X1738000Y-62681429D01*
X2391143Y-61520286D02*
X2463714Y-61302572D01*
X2536286Y-61230000D01*
X2681429Y-61157429D01*
X2899143Y-61157429D01*
X3044286Y-61230000D01*
X3116857Y-61302572D01*
X3189429Y-61447714D01*
X3189429Y-62028286D01*
X1665429Y-62028286D01*
X1665429Y-61520286D01*
X1738000Y-61375143D01*
X1810571Y-61302572D01*
X1955714Y-61230000D01*
X2100857Y-61230000D01*
X2246000Y-61302572D01*
X2318571Y-61375143D01*
X2391143Y-61520286D01*
X2391143Y-62028286D01*
X3189429Y-60431714D02*
X3189429Y-60141429D01*
X3116857Y-59996286D01*
X3044286Y-59923714D01*
X2826571Y-59778572D01*
X2536286Y-59706000D01*
X1955714Y-59706000D01*
X1810571Y-59778572D01*
X1738000Y-59851143D01*
X1665429Y-59996286D01*
X1665429Y-60286572D01*
X1738000Y-60431714D01*
X1810571Y-60504286D01*
X1955714Y-60576857D01*
X2318571Y-60576857D01*
X2463714Y-60504286D01*
X2536286Y-60431714D01*
X2608857Y-60286572D01*
X2608857Y-59996286D01*
X2536286Y-59851143D01*
X2463714Y-59778572D01*
X2318571Y-59706000D01*
X26665429Y-66092286D02*
X28189429Y-65729429D01*
X27100857Y-65439143D01*
X28189429Y-65148857D01*
X26665429Y-64786000D01*
X28116857Y-64278000D02*
X28189429Y-64060286D01*
X28189429Y-63697429D01*
X28116857Y-63552286D01*
X28044286Y-63479715D01*
X27899143Y-63407143D01*
X27754000Y-63407143D01*
X27608857Y-63479715D01*
X27536286Y-63552286D01*
X27463714Y-63697429D01*
X27391143Y-63987715D01*
X27318571Y-64132857D01*
X27246000Y-64205429D01*
X27100857Y-64278000D01*
X26955714Y-64278000D01*
X26810571Y-64205429D01*
X26738000Y-64132857D01*
X26665429Y-63987715D01*
X26665429Y-63624857D01*
X26738000Y-63407143D01*
X27391143Y-62246000D02*
X27463714Y-62028286D01*
X27536286Y-61955714D01*
X27681429Y-61883143D01*
X27899143Y-61883143D01*
X28044286Y-61955714D01*
X28116857Y-62028286D01*
X28189429Y-62173428D01*
X28189429Y-62754000D01*
X26665429Y-62754000D01*
X26665429Y-62246000D01*
X26738000Y-62100857D01*
X26810571Y-62028286D01*
X26955714Y-61955714D01*
X27100857Y-61955714D01*
X27246000Y-62028286D01*
X27318571Y-62100857D01*
X27391143Y-62246000D01*
X27391143Y-62754000D01*
X28189429Y-60431714D02*
X28189429Y-61302571D01*
X28189429Y-60867143D02*
X26665429Y-60867143D01*
X26883143Y-61012286D01*
X27028286Y-61157428D01*
X27100857Y-61302571D01*
X26665429Y-59488285D02*
X26665429Y-59343142D01*
X26738000Y-59197999D01*
X26810571Y-59125428D01*
X26955714Y-59052857D01*
X27246000Y-58980285D01*
X27608857Y-58980285D01*
X27899143Y-59052857D01*
X28044286Y-59125428D01*
X28116857Y-59197999D01*
X28189429Y-59343142D01*
X28189429Y-59488285D01*
X28116857Y-59633428D01*
X28044286Y-59705999D01*
X27899143Y-59778571D01*
X27608857Y-59851142D01*
X27246000Y-59851142D01*
X26955714Y-59778571D01*
X26810571Y-59705999D01*
X26738000Y-59633428D01*
X26665429Y-59488285D01*
X38149428Y-18689429D02*
X38149428Y-17165429D01*
X38512285Y-17165429D01*
X38730000Y-17238000D01*
X38875142Y-17383143D01*
X38947714Y-17528286D01*
X39020285Y-17818571D01*
X39020285Y-18036286D01*
X38947714Y-18326571D01*
X38875142Y-18471714D01*
X38730000Y-18616857D01*
X38512285Y-18689429D01*
X38149428Y-18689429D01*
X39600857Y-18616857D02*
X39818571Y-18689429D01*
X40181428Y-18689429D01*
X40326571Y-18616857D01*
X40399142Y-18544286D01*
X40471714Y-18399143D01*
X40471714Y-18254000D01*
X40399142Y-18108857D01*
X40326571Y-18036286D01*
X40181428Y-17963714D01*
X39891142Y-17891143D01*
X39746000Y-17818571D01*
X39673428Y-17746000D01*
X39600857Y-17600857D01*
X39600857Y-17455714D01*
X39673428Y-17310571D01*
X39746000Y-17238000D01*
X39891142Y-17165429D01*
X40254000Y-17165429D01*
X40471714Y-17238000D01*
X41923143Y-18689429D02*
X41052286Y-18689429D01*
X41487714Y-18689429D02*
X41487714Y-17165429D01*
X41342571Y-17383143D01*
X41197429Y-17528286D01*
X41052286Y-17600857D01*
X36044856Y-18689429D02*
X35319142Y-18689429D01*
X35319142Y-17165429D01*
X37423713Y-18544286D02*
X37351142Y-18616857D01*
X37133428Y-18689429D01*
X36988285Y-18689429D01*
X36770570Y-18616857D01*
X36625428Y-18471714D01*
X36552856Y-18326571D01*
X36480285Y-18036286D01*
X36480285Y-17818571D01*
X36552856Y-17528286D01*
X36625428Y-17383143D01*
X36770570Y-17238000D01*
X36988285Y-17165429D01*
X37133428Y-17165429D01*
X37351142Y-17238000D01*
X37423713Y-17310571D01*
X38076856Y-18689429D02*
X38076856Y-17165429D01*
X38439713Y-17165429D01*
X38657428Y-17238000D01*
X38802570Y-17383143D01*
X38875142Y-17528286D01*
X38947713Y-17818571D01*
X38947713Y-18036286D01*
X38875142Y-18326571D01*
X38802570Y-18471714D01*
X38657428Y-18616857D01*
X38439713Y-18689429D01*
X38076856Y-18689429D01*
X40399142Y-18689429D02*
X39528285Y-18689429D01*
X39963713Y-18689429D02*
X39963713Y-17165429D01*
X39818570Y-17383143D01*
X39673428Y-17528286D01*
X39528285Y-17600857D01*
X41705428Y-17165429D02*
X41415142Y-17165429D01*
X41269999Y-17238000D01*
X41197428Y-17310571D01*
X41052285Y-17528286D01*
X40979714Y-17818571D01*
X40979714Y-18399143D01*
X41052285Y-18544286D01*
X41124857Y-18616857D01*
X41269999Y-18689429D01*
X41560285Y-18689429D01*
X41705428Y-18616857D01*
X41777999Y-18544286D01*
X41850571Y-18399143D01*
X41850571Y-18036286D01*
X41777999Y-17891143D01*
X41705428Y-17818571D01*
X41560285Y-17746000D01*
X41269999Y-17746000D01*
X41124857Y-17818571D01*
X41052285Y-17891143D01*
X40979714Y-18036286D01*
X42358571Y-17165429D02*
X43374571Y-18689429D01*
X43374571Y-17165429D02*
X42358571Y-18689429D01*
X43882572Y-17310571D02*
X43955143Y-17238000D01*
X44100286Y-17165429D01*
X44463143Y-17165429D01*
X44608286Y-17238000D01*
X44680857Y-17310571D01*
X44753429Y-17455714D01*
X44753429Y-17600857D01*
X44680857Y-17818571D01*
X43810000Y-18689429D01*
X44753429Y-18689429D01*
X84963000Y-18476857D02*
X85180714Y-18549429D01*
X85543571Y-18549429D01*
X85688714Y-18476857D01*
X85761285Y-18404286D01*
X85833857Y-18259143D01*
X85833857Y-18114000D01*
X85761285Y-17968857D01*
X85688714Y-17896286D01*
X85543571Y-17823714D01*
X85253285Y-17751143D01*
X85108143Y-17678571D01*
X85035571Y-17606000D01*
X84963000Y-17460857D01*
X84963000Y-17315714D01*
X85035571Y-17170571D01*
X85108143Y-17098000D01*
X85253285Y-17025429D01*
X85616143Y-17025429D01*
X85833857Y-17098000D01*
X86341857Y-17025429D02*
X86704714Y-18549429D01*
X86995000Y-17460857D01*
X87285286Y-18549429D01*
X87648143Y-17025429D01*
X88156143Y-17170571D02*
X88228714Y-17098000D01*
X88373857Y-17025429D01*
X88736714Y-17025429D01*
X88881857Y-17098000D01*
X88954428Y-17170571D01*
X89027000Y-17315714D01*
X89027000Y-17460857D01*
X88954428Y-17678571D01*
X88083571Y-18549429D01*
X89027000Y-18549429D01*
D16*
X80729667Y-5164666D02*
X80306333Y-5461000D01*
X80729667Y-5672666D02*
X79840667Y-5672666D01*
X79840667Y-5334000D01*
X79883000Y-5249333D01*
X79925333Y-5207000D01*
X80010000Y-5164666D01*
X80137000Y-5164666D01*
X80221667Y-5207000D01*
X80264000Y-5249333D01*
X80306333Y-5334000D01*
X80306333Y-5672666D01*
X79925333Y-4826000D02*
X79883000Y-4783666D01*
X79840667Y-4699000D01*
X79840667Y-4487333D01*
X79883000Y-4402666D01*
X79925333Y-4360333D01*
X80010000Y-4318000D01*
X80094667Y-4318000D01*
X80221667Y-4360333D01*
X80729667Y-4868333D01*
X80729667Y-4318000D01*
D17*
X82615798Y-5820471D02*
X82585560Y-5790233D01*
X82555322Y-5729756D01*
X82555322Y-5578566D01*
X82585560Y-5518090D01*
X82615798Y-5487852D01*
X82676274Y-5457613D01*
X82736750Y-5457613D01*
X82827465Y-5487852D01*
X83190322Y-5850709D01*
X83190322Y-5457613D01*
X82615798Y-5215709D02*
X82585560Y-5185471D01*
X82555322Y-5124994D01*
X82555322Y-4973804D01*
X82585560Y-4913328D01*
X82615798Y-4883090D01*
X82676274Y-4852851D01*
X82736750Y-4852851D01*
X82827465Y-4883090D01*
X83190322Y-5245947D01*
X83190322Y-4852851D01*
X82555322Y-4459756D02*
X82555322Y-4399280D01*
X82585560Y-4338804D01*
X82615798Y-4308566D01*
X82676274Y-4278328D01*
X82797227Y-4248089D01*
X82948417Y-4248089D01*
X83069370Y-4278328D01*
X83129846Y-4308566D01*
X83160084Y-4338804D01*
X83190322Y-4399280D01*
X83190322Y-4459756D01*
X83160084Y-4520232D01*
X83129846Y-4550470D01*
X83069370Y-4580709D01*
X82948417Y-4610947D01*
X82797227Y-4610947D01*
X82676274Y-4580709D01*
X82615798Y-4550470D01*
X82585560Y-4520232D01*
X82555322Y-4459756D01*
D18*
X10805886Y-36326838D02*
X11035695Y-37292038D01*
X11219543Y-36602610D01*
X11403390Y-37292038D01*
X11633200Y-36326838D01*
X11954934Y-37246076D02*
X12092819Y-37292038D01*
X12322629Y-37292038D01*
X12414553Y-37246076D01*
X12460515Y-37200114D01*
X12506476Y-37108190D01*
X12506476Y-37016267D01*
X12460515Y-36924343D01*
X12414553Y-36878381D01*
X12322629Y-36832419D01*
X12138781Y-36786457D01*
X12046857Y-36740495D01*
X12000896Y-36694533D01*
X11954934Y-36602610D01*
X11954934Y-36510686D01*
X12000896Y-36418762D01*
X12046857Y-36372800D01*
X12138781Y-36326838D01*
X12368591Y-36326838D01*
X12506476Y-36372800D01*
X13241867Y-36786457D02*
X13379753Y-36832419D01*
X13425714Y-36878381D01*
X13471676Y-36970305D01*
X13471676Y-37108190D01*
X13425714Y-37200114D01*
X13379753Y-37246076D01*
X13287829Y-37292038D01*
X12920134Y-37292038D01*
X12920134Y-36326838D01*
X13241867Y-36326838D01*
X13333791Y-36372800D01*
X13379753Y-36418762D01*
X13425714Y-36510686D01*
X13425714Y-36602610D01*
X13379753Y-36694533D01*
X13333791Y-36740495D01*
X13241867Y-36786457D01*
X12920134Y-36786457D01*
X14390914Y-37292038D02*
X13839372Y-37292038D01*
X14115143Y-37292038D02*
X14115143Y-36326838D01*
X14023219Y-36464724D01*
X13931295Y-36556648D01*
X13839372Y-36602610D01*
D19*
X10750731Y-40287303D02*
X10888617Y-40866423D01*
X10998926Y-40452766D01*
X11109234Y-40866423D01*
X11247120Y-40287303D01*
X11440160Y-40838846D02*
X11522891Y-40866423D01*
X11660777Y-40866423D01*
X11715931Y-40838846D01*
X11743508Y-40811269D01*
X11771085Y-40756114D01*
X11771085Y-40700960D01*
X11743508Y-40645806D01*
X11715931Y-40618229D01*
X11660777Y-40590651D01*
X11550468Y-40563074D01*
X11495314Y-40535497D01*
X11467737Y-40507920D01*
X11440160Y-40452766D01*
X11440160Y-40397611D01*
X11467737Y-40342457D01*
X11495314Y-40314880D01*
X11550468Y-40287303D01*
X11688354Y-40287303D01*
X11771085Y-40314880D01*
X11991703Y-40342457D02*
X12019280Y-40314880D01*
X12074434Y-40287303D01*
X12212320Y-40287303D01*
X12267474Y-40314880D01*
X12295051Y-40342457D01*
X12322628Y-40397611D01*
X12322628Y-40452766D01*
X12295051Y-40535497D01*
X11964125Y-40866423D01*
X12322628Y-40866423D01*
X12653554Y-40535497D02*
X12598400Y-40507920D01*
X12570823Y-40480343D01*
X12543246Y-40425189D01*
X12543246Y-40397611D01*
X12570823Y-40342457D01*
X12598400Y-40314880D01*
X12653554Y-40287303D01*
X12763863Y-40287303D01*
X12819017Y-40314880D01*
X12846594Y-40342457D01*
X12874171Y-40397611D01*
X12874171Y-40425189D01*
X12846594Y-40480343D01*
X12819017Y-40507920D01*
X12763863Y-40535497D01*
X12653554Y-40535497D01*
X12598400Y-40563074D01*
X12570823Y-40590651D01*
X12543246Y-40645806D01*
X12543246Y-40756114D01*
X12570823Y-40811269D01*
X12598400Y-40838846D01*
X12653554Y-40866423D01*
X12763863Y-40866423D01*
X12819017Y-40838846D01*
X12846594Y-40811269D01*
X12874171Y-40756114D01*
X12874171Y-40645806D01*
X12846594Y-40590651D01*
X12819017Y-40563074D01*
X12763863Y-40535497D01*
X13425714Y-40866423D02*
X13094789Y-40866423D01*
X13260251Y-40866423D02*
X13260251Y-40287303D01*
X13205097Y-40370034D01*
X13149943Y-40425189D01*
X13094789Y-40452766D01*
X13646332Y-40342457D02*
X13673909Y-40314880D01*
X13729063Y-40287303D01*
X13866949Y-40287303D01*
X13922103Y-40314880D01*
X13949680Y-40342457D01*
X13977257Y-40397611D01*
X13977257Y-40452766D01*
X13949680Y-40535497D01*
X13618754Y-40866423D01*
X13977257Y-40866423D01*
D18*
X35148686Y-36372635D02*
X35378495Y-37337835D01*
X35562343Y-36648407D01*
X35746190Y-37337835D01*
X35976000Y-36372635D01*
X36297734Y-37291873D02*
X36435619Y-37337835D01*
X36665429Y-37337835D01*
X36757353Y-37291873D01*
X36803315Y-37245911D01*
X36849276Y-37153987D01*
X36849276Y-37062064D01*
X36803315Y-36970140D01*
X36757353Y-36924178D01*
X36665429Y-36878216D01*
X36481581Y-36832254D01*
X36389657Y-36786292D01*
X36343696Y-36740330D01*
X36297734Y-36648407D01*
X36297734Y-36556483D01*
X36343696Y-36464559D01*
X36389657Y-36418597D01*
X36481581Y-36372635D01*
X36711391Y-36372635D01*
X36849276Y-36418597D01*
X37584667Y-36832254D02*
X37722553Y-36878216D01*
X37768514Y-36924178D01*
X37814476Y-37016102D01*
X37814476Y-37153987D01*
X37768514Y-37245911D01*
X37722553Y-37291873D01*
X37630629Y-37337835D01*
X37262934Y-37337835D01*
X37262934Y-36372635D01*
X37584667Y-36372635D01*
X37676591Y-36418597D01*
X37722553Y-36464559D01*
X37768514Y-36556483D01*
X37768514Y-36648407D01*
X37722553Y-36740330D01*
X37676591Y-36786292D01*
X37584667Y-36832254D01*
X37262934Y-36832254D01*
X38182172Y-36464559D02*
X38228134Y-36418597D01*
X38320057Y-36372635D01*
X38549867Y-36372635D01*
X38641791Y-36418597D01*
X38687753Y-36464559D01*
X38733714Y-36556483D01*
X38733714Y-36648407D01*
X38687753Y-36786292D01*
X38136210Y-37337835D01*
X38733714Y-37337835D01*
D19*
X35896731Y-40287303D02*
X36034617Y-40866423D01*
X36144926Y-40452766D01*
X36255234Y-40866423D01*
X36393120Y-40287303D01*
X36586160Y-40838846D02*
X36668891Y-40866423D01*
X36806777Y-40866423D01*
X36861931Y-40838846D01*
X36889508Y-40811269D01*
X36917085Y-40756114D01*
X36917085Y-40700960D01*
X36889508Y-40645806D01*
X36861931Y-40618229D01*
X36806777Y-40590651D01*
X36696468Y-40563074D01*
X36641314Y-40535497D01*
X36613737Y-40507920D01*
X36586160Y-40452766D01*
X36586160Y-40397611D01*
X36613737Y-40342457D01*
X36641314Y-40314880D01*
X36696468Y-40287303D01*
X36834354Y-40287303D01*
X36917085Y-40314880D01*
X37137703Y-40342457D02*
X37165280Y-40314880D01*
X37220434Y-40287303D01*
X37358320Y-40287303D01*
X37413474Y-40314880D01*
X37441051Y-40342457D01*
X37468628Y-40397611D01*
X37468628Y-40452766D01*
X37441051Y-40535497D01*
X37110125Y-40866423D01*
X37468628Y-40866423D01*
X37799554Y-40535497D02*
X37744400Y-40507920D01*
X37716823Y-40480343D01*
X37689246Y-40425189D01*
X37689246Y-40397611D01*
X37716823Y-40342457D01*
X37744400Y-40314880D01*
X37799554Y-40287303D01*
X37909863Y-40287303D01*
X37965017Y-40314880D01*
X37992594Y-40342457D01*
X38020171Y-40397611D01*
X38020171Y-40425189D01*
X37992594Y-40480343D01*
X37965017Y-40507920D01*
X37909863Y-40535497D01*
X37799554Y-40535497D01*
X37744400Y-40563074D01*
X37716823Y-40590651D01*
X37689246Y-40645806D01*
X37689246Y-40756114D01*
X37716823Y-40811269D01*
X37744400Y-40838846D01*
X37799554Y-40866423D01*
X37909863Y-40866423D01*
X37965017Y-40838846D01*
X37992594Y-40811269D01*
X38020171Y-40756114D01*
X38020171Y-40645806D01*
X37992594Y-40590651D01*
X37965017Y-40563074D01*
X37909863Y-40535497D01*
X38571714Y-40866423D02*
X38240789Y-40866423D01*
X38406251Y-40866423D02*
X38406251Y-40287303D01*
X38351097Y-40370034D01*
X38295943Y-40425189D01*
X38240789Y-40452766D01*
X38792332Y-40342457D02*
X38819909Y-40314880D01*
X38875063Y-40287303D01*
X39012949Y-40287303D01*
X39068103Y-40314880D01*
X39095680Y-40342457D01*
X39123257Y-40397611D01*
X39123257Y-40452766D01*
X39095680Y-40535497D01*
X38764754Y-40866423D01*
X39123257Y-40866423D01*
D18*
X60199486Y-36377716D02*
X60429295Y-37342916D01*
X60613143Y-36653488D01*
X60796990Y-37342916D01*
X61026800Y-36377716D01*
X61348534Y-37296954D02*
X61486419Y-37342916D01*
X61716229Y-37342916D01*
X61808153Y-37296954D01*
X61854115Y-37250992D01*
X61900076Y-37159068D01*
X61900076Y-37067145D01*
X61854115Y-36975221D01*
X61808153Y-36929259D01*
X61716229Y-36883297D01*
X61532381Y-36837335D01*
X61440457Y-36791373D01*
X61394496Y-36745411D01*
X61348534Y-36653488D01*
X61348534Y-36561564D01*
X61394496Y-36469640D01*
X61440457Y-36423678D01*
X61532381Y-36377716D01*
X61762191Y-36377716D01*
X61900076Y-36423678D01*
X62635467Y-36837335D02*
X62773353Y-36883297D01*
X62819314Y-36929259D01*
X62865276Y-37021183D01*
X62865276Y-37159068D01*
X62819314Y-37250992D01*
X62773353Y-37296954D01*
X62681429Y-37342916D01*
X62313734Y-37342916D01*
X62313734Y-36377716D01*
X62635467Y-36377716D01*
X62727391Y-36423678D01*
X62773353Y-36469640D01*
X62819314Y-36561564D01*
X62819314Y-36653488D01*
X62773353Y-36745411D01*
X62727391Y-36791373D01*
X62635467Y-36837335D01*
X62313734Y-36837335D01*
X63187010Y-36377716D02*
X63784514Y-36377716D01*
X63462781Y-36745411D01*
X63600667Y-36745411D01*
X63692591Y-36791373D01*
X63738553Y-36837335D01*
X63784514Y-36929259D01*
X63784514Y-37159068D01*
X63738553Y-37250992D01*
X63692591Y-37296954D01*
X63600667Y-37342916D01*
X63324895Y-37342916D01*
X63232972Y-37296954D01*
X63187010Y-37250992D01*
D19*
X61042731Y-40033303D02*
X61180617Y-40612423D01*
X61290926Y-40198766D01*
X61401234Y-40612423D01*
X61539120Y-40033303D01*
X61732160Y-40584846D02*
X61814891Y-40612423D01*
X61952777Y-40612423D01*
X62007931Y-40584846D01*
X62035508Y-40557269D01*
X62063085Y-40502114D01*
X62063085Y-40446960D01*
X62035508Y-40391806D01*
X62007931Y-40364229D01*
X61952777Y-40336651D01*
X61842468Y-40309074D01*
X61787314Y-40281497D01*
X61759737Y-40253920D01*
X61732160Y-40198766D01*
X61732160Y-40143611D01*
X61759737Y-40088457D01*
X61787314Y-40060880D01*
X61842468Y-40033303D01*
X61980354Y-40033303D01*
X62063085Y-40060880D01*
X62283703Y-40088457D02*
X62311280Y-40060880D01*
X62366434Y-40033303D01*
X62504320Y-40033303D01*
X62559474Y-40060880D01*
X62587051Y-40088457D01*
X62614628Y-40143611D01*
X62614628Y-40198766D01*
X62587051Y-40281497D01*
X62256125Y-40612423D01*
X62614628Y-40612423D01*
X62945554Y-40281497D02*
X62890400Y-40253920D01*
X62862823Y-40226343D01*
X62835246Y-40171189D01*
X62835246Y-40143611D01*
X62862823Y-40088457D01*
X62890400Y-40060880D01*
X62945554Y-40033303D01*
X63055863Y-40033303D01*
X63111017Y-40060880D01*
X63138594Y-40088457D01*
X63166171Y-40143611D01*
X63166171Y-40171189D01*
X63138594Y-40226343D01*
X63111017Y-40253920D01*
X63055863Y-40281497D01*
X62945554Y-40281497D01*
X62890400Y-40309074D01*
X62862823Y-40336651D01*
X62835246Y-40391806D01*
X62835246Y-40502114D01*
X62862823Y-40557269D01*
X62890400Y-40584846D01*
X62945554Y-40612423D01*
X63055863Y-40612423D01*
X63111017Y-40584846D01*
X63138594Y-40557269D01*
X63166171Y-40502114D01*
X63166171Y-40391806D01*
X63138594Y-40336651D01*
X63111017Y-40309074D01*
X63055863Y-40281497D01*
X63717714Y-40612423D02*
X63386789Y-40612423D01*
X63552251Y-40612423D02*
X63552251Y-40033303D01*
X63497097Y-40116034D01*
X63441943Y-40171189D01*
X63386789Y-40198766D01*
X63938332Y-40088457D02*
X63965909Y-40060880D01*
X64021063Y-40033303D01*
X64158949Y-40033303D01*
X64214103Y-40060880D01*
X64241680Y-40088457D01*
X64269257Y-40143611D01*
X64269257Y-40198766D01*
X64241680Y-40281497D01*
X63910754Y-40612423D01*
X64269257Y-40612423D01*
D18*
X83957886Y-36326838D02*
X84187695Y-37292038D01*
X84371543Y-36602610D01*
X84555390Y-37292038D01*
X84785200Y-36326838D01*
X85106934Y-37246076D02*
X85244819Y-37292038D01*
X85474629Y-37292038D01*
X85566553Y-37246076D01*
X85612515Y-37200114D01*
X85658476Y-37108190D01*
X85658476Y-37016267D01*
X85612515Y-36924343D01*
X85566553Y-36878381D01*
X85474629Y-36832419D01*
X85290781Y-36786457D01*
X85198857Y-36740495D01*
X85152896Y-36694533D01*
X85106934Y-36602610D01*
X85106934Y-36510686D01*
X85152896Y-36418762D01*
X85198857Y-36372800D01*
X85290781Y-36326838D01*
X85520591Y-36326838D01*
X85658476Y-36372800D01*
X86393867Y-36786457D02*
X86531753Y-36832419D01*
X86577714Y-36878381D01*
X86623676Y-36970305D01*
X86623676Y-37108190D01*
X86577714Y-37200114D01*
X86531753Y-37246076D01*
X86439829Y-37292038D01*
X86072134Y-37292038D01*
X86072134Y-36326838D01*
X86393867Y-36326838D01*
X86485791Y-36372800D01*
X86531753Y-36418762D01*
X86577714Y-36510686D01*
X86577714Y-36602610D01*
X86531753Y-36694533D01*
X86485791Y-36740495D01*
X86393867Y-36786457D01*
X86072134Y-36786457D01*
X87450991Y-36648571D02*
X87450991Y-37292038D01*
X87221181Y-36280876D02*
X86991372Y-36970305D01*
X87588876Y-36970305D01*
D19*
X85934731Y-40287303D02*
X86072617Y-40866423D01*
X86182926Y-40452766D01*
X86293234Y-40866423D01*
X86431120Y-40287303D01*
X86624160Y-40838846D02*
X86706891Y-40866423D01*
X86844777Y-40866423D01*
X86899931Y-40838846D01*
X86927508Y-40811269D01*
X86955085Y-40756114D01*
X86955085Y-40700960D01*
X86927508Y-40645806D01*
X86899931Y-40618229D01*
X86844777Y-40590651D01*
X86734468Y-40563074D01*
X86679314Y-40535497D01*
X86651737Y-40507920D01*
X86624160Y-40452766D01*
X86624160Y-40397611D01*
X86651737Y-40342457D01*
X86679314Y-40314880D01*
X86734468Y-40287303D01*
X86872354Y-40287303D01*
X86955085Y-40314880D01*
X87175703Y-40342457D02*
X87203280Y-40314880D01*
X87258434Y-40287303D01*
X87396320Y-40287303D01*
X87451474Y-40314880D01*
X87479051Y-40342457D01*
X87506628Y-40397611D01*
X87506628Y-40452766D01*
X87479051Y-40535497D01*
X87148125Y-40866423D01*
X87506628Y-40866423D01*
X87837554Y-40535497D02*
X87782400Y-40507920D01*
X87754823Y-40480343D01*
X87727246Y-40425189D01*
X87727246Y-40397611D01*
X87754823Y-40342457D01*
X87782400Y-40314880D01*
X87837554Y-40287303D01*
X87947863Y-40287303D01*
X88003017Y-40314880D01*
X88030594Y-40342457D01*
X88058171Y-40397611D01*
X88058171Y-40425189D01*
X88030594Y-40480343D01*
X88003017Y-40507920D01*
X87947863Y-40535497D01*
X87837554Y-40535497D01*
X87782400Y-40563074D01*
X87754823Y-40590651D01*
X87727246Y-40645806D01*
X87727246Y-40756114D01*
X87754823Y-40811269D01*
X87782400Y-40838846D01*
X87837554Y-40866423D01*
X87947863Y-40866423D01*
X88003017Y-40838846D01*
X88030594Y-40811269D01*
X88058171Y-40756114D01*
X88058171Y-40645806D01*
X88030594Y-40590651D01*
X88003017Y-40563074D01*
X87947863Y-40535497D01*
X88609714Y-40866423D02*
X88278789Y-40866423D01*
X88444251Y-40866423D02*
X88444251Y-40287303D01*
X88389097Y-40370034D01*
X88333943Y-40425189D01*
X88278789Y-40452766D01*
X88830332Y-40342457D02*
X88857909Y-40314880D01*
X88913063Y-40287303D01*
X89050949Y-40287303D01*
X89106103Y-40314880D01*
X89133680Y-40342457D01*
X89161257Y-40397611D01*
X89161257Y-40452766D01*
X89133680Y-40535497D01*
X88802754Y-40866423D01*
X89161257Y-40866423D01*
D18*
X10805886Y-43692838D02*
X11035695Y-44658038D01*
X11219543Y-43968610D01*
X11403390Y-44658038D01*
X11633200Y-43692838D01*
X11954934Y-44612076D02*
X12092819Y-44658038D01*
X12322629Y-44658038D01*
X12414553Y-44612076D01*
X12460515Y-44566114D01*
X12506476Y-44474190D01*
X12506476Y-44382267D01*
X12460515Y-44290343D01*
X12414553Y-44244381D01*
X12322629Y-44198419D01*
X12138781Y-44152457D01*
X12046857Y-44106495D01*
X12000896Y-44060533D01*
X11954934Y-43968610D01*
X11954934Y-43876686D01*
X12000896Y-43784762D01*
X12046857Y-43738800D01*
X12138781Y-43692838D01*
X12368591Y-43692838D01*
X12506476Y-43738800D01*
X13241867Y-44152457D02*
X13379753Y-44198419D01*
X13425714Y-44244381D01*
X13471676Y-44336305D01*
X13471676Y-44474190D01*
X13425714Y-44566114D01*
X13379753Y-44612076D01*
X13287829Y-44658038D01*
X12920134Y-44658038D01*
X12920134Y-43692838D01*
X13241867Y-43692838D01*
X13333791Y-43738800D01*
X13379753Y-43784762D01*
X13425714Y-43876686D01*
X13425714Y-43968610D01*
X13379753Y-44060533D01*
X13333791Y-44106495D01*
X13241867Y-44152457D01*
X12920134Y-44152457D01*
X14344953Y-43692838D02*
X13885334Y-43692838D01*
X13839372Y-44152457D01*
X13885334Y-44106495D01*
X13977257Y-44060533D01*
X14207067Y-44060533D01*
X14298991Y-44106495D01*
X14344953Y-44152457D01*
X14390914Y-44244381D01*
X14390914Y-44474190D01*
X14344953Y-44566114D01*
X14298991Y-44612076D01*
X14207067Y-44658038D01*
X13977257Y-44658038D01*
X13885334Y-44612076D01*
X13839372Y-44566114D01*
D19*
X10750731Y-47907303D02*
X10888617Y-48486423D01*
X10998926Y-48072766D01*
X11109234Y-48486423D01*
X11247120Y-47907303D01*
X11440160Y-48458846D02*
X11522891Y-48486423D01*
X11660777Y-48486423D01*
X11715931Y-48458846D01*
X11743508Y-48431269D01*
X11771085Y-48376114D01*
X11771085Y-48320960D01*
X11743508Y-48265806D01*
X11715931Y-48238229D01*
X11660777Y-48210651D01*
X11550468Y-48183074D01*
X11495314Y-48155497D01*
X11467737Y-48127920D01*
X11440160Y-48072766D01*
X11440160Y-48017611D01*
X11467737Y-47962457D01*
X11495314Y-47934880D01*
X11550468Y-47907303D01*
X11688354Y-47907303D01*
X11771085Y-47934880D01*
X11991703Y-47962457D02*
X12019280Y-47934880D01*
X12074434Y-47907303D01*
X12212320Y-47907303D01*
X12267474Y-47934880D01*
X12295051Y-47962457D01*
X12322628Y-48017611D01*
X12322628Y-48072766D01*
X12295051Y-48155497D01*
X11964125Y-48486423D01*
X12322628Y-48486423D01*
X12653554Y-48155497D02*
X12598400Y-48127920D01*
X12570823Y-48100343D01*
X12543246Y-48045189D01*
X12543246Y-48017611D01*
X12570823Y-47962457D01*
X12598400Y-47934880D01*
X12653554Y-47907303D01*
X12763863Y-47907303D01*
X12819017Y-47934880D01*
X12846594Y-47962457D01*
X12874171Y-48017611D01*
X12874171Y-48045189D01*
X12846594Y-48100343D01*
X12819017Y-48127920D01*
X12763863Y-48155497D01*
X12653554Y-48155497D01*
X12598400Y-48183074D01*
X12570823Y-48210651D01*
X12543246Y-48265806D01*
X12543246Y-48376114D01*
X12570823Y-48431269D01*
X12598400Y-48458846D01*
X12653554Y-48486423D01*
X12763863Y-48486423D01*
X12819017Y-48458846D01*
X12846594Y-48431269D01*
X12874171Y-48376114D01*
X12874171Y-48265806D01*
X12846594Y-48210651D01*
X12819017Y-48183074D01*
X12763863Y-48155497D01*
X13425714Y-48486423D02*
X13094789Y-48486423D01*
X13260251Y-48486423D02*
X13260251Y-47907303D01*
X13205097Y-47990034D01*
X13149943Y-48045189D01*
X13094789Y-48072766D01*
X13646332Y-47962457D02*
X13673909Y-47934880D01*
X13729063Y-47907303D01*
X13866949Y-47907303D01*
X13922103Y-47934880D01*
X13949680Y-47962457D01*
X13977257Y-48017611D01*
X13977257Y-48072766D01*
X13949680Y-48155497D01*
X13618754Y-48486423D01*
X13977257Y-48486423D01*
D18*
X35189886Y-43692838D02*
X35419695Y-44658038D01*
X35603543Y-43968610D01*
X35787390Y-44658038D01*
X36017200Y-43692838D01*
X36338934Y-44612076D02*
X36476819Y-44658038D01*
X36706629Y-44658038D01*
X36798553Y-44612076D01*
X36844515Y-44566114D01*
X36890476Y-44474190D01*
X36890476Y-44382267D01*
X36844515Y-44290343D01*
X36798553Y-44244381D01*
X36706629Y-44198419D01*
X36522781Y-44152457D01*
X36430857Y-44106495D01*
X36384896Y-44060533D01*
X36338934Y-43968610D01*
X36338934Y-43876686D01*
X36384896Y-43784762D01*
X36430857Y-43738800D01*
X36522781Y-43692838D01*
X36752591Y-43692838D01*
X36890476Y-43738800D01*
X37625867Y-44152457D02*
X37763753Y-44198419D01*
X37809714Y-44244381D01*
X37855676Y-44336305D01*
X37855676Y-44474190D01*
X37809714Y-44566114D01*
X37763753Y-44612076D01*
X37671829Y-44658038D01*
X37304134Y-44658038D01*
X37304134Y-43692838D01*
X37625867Y-43692838D01*
X37717791Y-43738800D01*
X37763753Y-43784762D01*
X37809714Y-43876686D01*
X37809714Y-43968610D01*
X37763753Y-44060533D01*
X37717791Y-44106495D01*
X37625867Y-44152457D01*
X37304134Y-44152457D01*
X38682991Y-43692838D02*
X38499143Y-43692838D01*
X38407219Y-43738800D01*
X38361257Y-43784762D01*
X38269334Y-43922648D01*
X38223372Y-44106495D01*
X38223372Y-44474190D01*
X38269334Y-44566114D01*
X38315295Y-44612076D01*
X38407219Y-44658038D01*
X38591067Y-44658038D01*
X38682991Y-44612076D01*
X38728953Y-44566114D01*
X38774914Y-44474190D01*
X38774914Y-44244381D01*
X38728953Y-44152457D01*
X38682991Y-44106495D01*
X38591067Y-44060533D01*
X38407219Y-44060533D01*
X38315295Y-44106495D01*
X38269334Y-44152457D01*
X38223372Y-44244381D01*
D19*
X36150731Y-47653303D02*
X36288617Y-48232423D01*
X36398926Y-47818766D01*
X36509234Y-48232423D01*
X36647120Y-47653303D01*
X36840160Y-48204846D02*
X36922891Y-48232423D01*
X37060777Y-48232423D01*
X37115931Y-48204846D01*
X37143508Y-48177269D01*
X37171085Y-48122114D01*
X37171085Y-48066960D01*
X37143508Y-48011806D01*
X37115931Y-47984229D01*
X37060777Y-47956651D01*
X36950468Y-47929074D01*
X36895314Y-47901497D01*
X36867737Y-47873920D01*
X36840160Y-47818766D01*
X36840160Y-47763611D01*
X36867737Y-47708457D01*
X36895314Y-47680880D01*
X36950468Y-47653303D01*
X37088354Y-47653303D01*
X37171085Y-47680880D01*
X37391703Y-47708457D02*
X37419280Y-47680880D01*
X37474434Y-47653303D01*
X37612320Y-47653303D01*
X37667474Y-47680880D01*
X37695051Y-47708457D01*
X37722628Y-47763611D01*
X37722628Y-47818766D01*
X37695051Y-47901497D01*
X37364125Y-48232423D01*
X37722628Y-48232423D01*
X38053554Y-47901497D02*
X37998400Y-47873920D01*
X37970823Y-47846343D01*
X37943246Y-47791189D01*
X37943246Y-47763611D01*
X37970823Y-47708457D01*
X37998400Y-47680880D01*
X38053554Y-47653303D01*
X38163863Y-47653303D01*
X38219017Y-47680880D01*
X38246594Y-47708457D01*
X38274171Y-47763611D01*
X38274171Y-47791189D01*
X38246594Y-47846343D01*
X38219017Y-47873920D01*
X38163863Y-47901497D01*
X38053554Y-47901497D01*
X37998400Y-47929074D01*
X37970823Y-47956651D01*
X37943246Y-48011806D01*
X37943246Y-48122114D01*
X37970823Y-48177269D01*
X37998400Y-48204846D01*
X38053554Y-48232423D01*
X38163863Y-48232423D01*
X38219017Y-48204846D01*
X38246594Y-48177269D01*
X38274171Y-48122114D01*
X38274171Y-48011806D01*
X38246594Y-47956651D01*
X38219017Y-47929074D01*
X38163863Y-47901497D01*
X38825714Y-48232423D02*
X38494789Y-48232423D01*
X38660251Y-48232423D02*
X38660251Y-47653303D01*
X38605097Y-47736034D01*
X38549943Y-47791189D01*
X38494789Y-47818766D01*
X39046332Y-47708457D02*
X39073909Y-47680880D01*
X39129063Y-47653303D01*
X39266949Y-47653303D01*
X39322103Y-47680880D01*
X39349680Y-47708457D01*
X39377257Y-47763611D01*
X39377257Y-47818766D01*
X39349680Y-47901497D01*
X39018754Y-48232423D01*
X39377257Y-48232423D01*
D18*
X60081886Y-43692838D02*
X60311695Y-44658038D01*
X60495543Y-43968610D01*
X60679390Y-44658038D01*
X60909200Y-43692838D01*
X61230934Y-44612076D02*
X61368819Y-44658038D01*
X61598629Y-44658038D01*
X61690553Y-44612076D01*
X61736515Y-44566114D01*
X61782476Y-44474190D01*
X61782476Y-44382267D01*
X61736515Y-44290343D01*
X61690553Y-44244381D01*
X61598629Y-44198419D01*
X61414781Y-44152457D01*
X61322857Y-44106495D01*
X61276896Y-44060533D01*
X61230934Y-43968610D01*
X61230934Y-43876686D01*
X61276896Y-43784762D01*
X61322857Y-43738800D01*
X61414781Y-43692838D01*
X61644591Y-43692838D01*
X61782476Y-43738800D01*
X62517867Y-44152457D02*
X62655753Y-44198419D01*
X62701714Y-44244381D01*
X62747676Y-44336305D01*
X62747676Y-44474190D01*
X62701714Y-44566114D01*
X62655753Y-44612076D01*
X62563829Y-44658038D01*
X62196134Y-44658038D01*
X62196134Y-43692838D01*
X62517867Y-43692838D01*
X62609791Y-43738800D01*
X62655753Y-43784762D01*
X62701714Y-43876686D01*
X62701714Y-43968610D01*
X62655753Y-44060533D01*
X62609791Y-44106495D01*
X62517867Y-44152457D01*
X62196134Y-44152457D01*
X63069410Y-43692838D02*
X63712876Y-43692838D01*
X63299219Y-44658038D01*
D19*
X61296731Y-47399303D02*
X61434617Y-47978423D01*
X61544926Y-47564766D01*
X61655234Y-47978423D01*
X61793120Y-47399303D01*
X61986160Y-47950846D02*
X62068891Y-47978423D01*
X62206777Y-47978423D01*
X62261931Y-47950846D01*
X62289508Y-47923269D01*
X62317085Y-47868114D01*
X62317085Y-47812960D01*
X62289508Y-47757806D01*
X62261931Y-47730229D01*
X62206777Y-47702651D01*
X62096468Y-47675074D01*
X62041314Y-47647497D01*
X62013737Y-47619920D01*
X61986160Y-47564766D01*
X61986160Y-47509611D01*
X62013737Y-47454457D01*
X62041314Y-47426880D01*
X62096468Y-47399303D01*
X62234354Y-47399303D01*
X62317085Y-47426880D01*
X62537703Y-47454457D02*
X62565280Y-47426880D01*
X62620434Y-47399303D01*
X62758320Y-47399303D01*
X62813474Y-47426880D01*
X62841051Y-47454457D01*
X62868628Y-47509611D01*
X62868628Y-47564766D01*
X62841051Y-47647497D01*
X62510125Y-47978423D01*
X62868628Y-47978423D01*
X63199554Y-47647497D02*
X63144400Y-47619920D01*
X63116823Y-47592343D01*
X63089246Y-47537189D01*
X63089246Y-47509611D01*
X63116823Y-47454457D01*
X63144400Y-47426880D01*
X63199554Y-47399303D01*
X63309863Y-47399303D01*
X63365017Y-47426880D01*
X63392594Y-47454457D01*
X63420171Y-47509611D01*
X63420171Y-47537189D01*
X63392594Y-47592343D01*
X63365017Y-47619920D01*
X63309863Y-47647497D01*
X63199554Y-47647497D01*
X63144400Y-47675074D01*
X63116823Y-47702651D01*
X63089246Y-47757806D01*
X63089246Y-47868114D01*
X63116823Y-47923269D01*
X63144400Y-47950846D01*
X63199554Y-47978423D01*
X63309863Y-47978423D01*
X63365017Y-47950846D01*
X63392594Y-47923269D01*
X63420171Y-47868114D01*
X63420171Y-47757806D01*
X63392594Y-47702651D01*
X63365017Y-47675074D01*
X63309863Y-47647497D01*
X63971714Y-47978423D02*
X63640789Y-47978423D01*
X63806251Y-47978423D02*
X63806251Y-47399303D01*
X63751097Y-47482034D01*
X63695943Y-47537189D01*
X63640789Y-47564766D01*
X64192332Y-47454457D02*
X64219909Y-47426880D01*
X64275063Y-47399303D01*
X64412949Y-47399303D01*
X64468103Y-47426880D01*
X64495680Y-47454457D01*
X64523257Y-47509611D01*
X64523257Y-47564766D01*
X64495680Y-47647497D01*
X64164754Y-47978423D01*
X64523257Y-47978423D01*
D18*
X85989886Y-43692838D02*
X86219695Y-44658038D01*
X86403543Y-43968610D01*
X86587390Y-44658038D01*
X86817200Y-43692838D01*
X87138934Y-44612076D02*
X87276819Y-44658038D01*
X87506629Y-44658038D01*
X87598553Y-44612076D01*
X87644515Y-44566114D01*
X87690476Y-44474190D01*
X87690476Y-44382267D01*
X87644515Y-44290343D01*
X87598553Y-44244381D01*
X87506629Y-44198419D01*
X87322781Y-44152457D01*
X87230857Y-44106495D01*
X87184896Y-44060533D01*
X87138934Y-43968610D01*
X87138934Y-43876686D01*
X87184896Y-43784762D01*
X87230857Y-43738800D01*
X87322781Y-43692838D01*
X87552591Y-43692838D01*
X87690476Y-43738800D01*
X88425867Y-44152457D02*
X88563753Y-44198419D01*
X88609714Y-44244381D01*
X88655676Y-44336305D01*
X88655676Y-44474190D01*
X88609714Y-44566114D01*
X88563753Y-44612076D01*
X88471829Y-44658038D01*
X88104134Y-44658038D01*
X88104134Y-43692838D01*
X88425867Y-43692838D01*
X88517791Y-43738800D01*
X88563753Y-43784762D01*
X88609714Y-43876686D01*
X88609714Y-43968610D01*
X88563753Y-44060533D01*
X88517791Y-44106495D01*
X88425867Y-44152457D01*
X88104134Y-44152457D01*
X89207219Y-44106495D02*
X89115295Y-44060533D01*
X89069334Y-44014571D01*
X89023372Y-43922648D01*
X89023372Y-43876686D01*
X89069334Y-43784762D01*
X89115295Y-43738800D01*
X89207219Y-43692838D01*
X89391067Y-43692838D01*
X89482991Y-43738800D01*
X89528953Y-43784762D01*
X89574914Y-43876686D01*
X89574914Y-43922648D01*
X89528953Y-44014571D01*
X89482991Y-44060533D01*
X89391067Y-44106495D01*
X89207219Y-44106495D01*
X89115295Y-44152457D01*
X89069334Y-44198419D01*
X89023372Y-44290343D01*
X89023372Y-44474190D01*
X89069334Y-44566114D01*
X89115295Y-44612076D01*
X89207219Y-44658038D01*
X89391067Y-44658038D01*
X89482991Y-44612076D01*
X89528953Y-44566114D01*
X89574914Y-44474190D01*
X89574914Y-44290343D01*
X89528953Y-44198419D01*
X89482991Y-44152457D01*
X89391067Y-44106495D01*
D19*
X85934731Y-47653303D02*
X86072617Y-48232423D01*
X86182926Y-47818766D01*
X86293234Y-48232423D01*
X86431120Y-47653303D01*
X86624160Y-48204846D02*
X86706891Y-48232423D01*
X86844777Y-48232423D01*
X86899931Y-48204846D01*
X86927508Y-48177269D01*
X86955085Y-48122114D01*
X86955085Y-48066960D01*
X86927508Y-48011806D01*
X86899931Y-47984229D01*
X86844777Y-47956651D01*
X86734468Y-47929074D01*
X86679314Y-47901497D01*
X86651737Y-47873920D01*
X86624160Y-47818766D01*
X86624160Y-47763611D01*
X86651737Y-47708457D01*
X86679314Y-47680880D01*
X86734468Y-47653303D01*
X86872354Y-47653303D01*
X86955085Y-47680880D01*
X87175703Y-47708457D02*
X87203280Y-47680880D01*
X87258434Y-47653303D01*
X87396320Y-47653303D01*
X87451474Y-47680880D01*
X87479051Y-47708457D01*
X87506628Y-47763611D01*
X87506628Y-47818766D01*
X87479051Y-47901497D01*
X87148125Y-48232423D01*
X87506628Y-48232423D01*
X87837554Y-47901497D02*
X87782400Y-47873920D01*
X87754823Y-47846343D01*
X87727246Y-47791189D01*
X87727246Y-47763611D01*
X87754823Y-47708457D01*
X87782400Y-47680880D01*
X87837554Y-47653303D01*
X87947863Y-47653303D01*
X88003017Y-47680880D01*
X88030594Y-47708457D01*
X88058171Y-47763611D01*
X88058171Y-47791189D01*
X88030594Y-47846343D01*
X88003017Y-47873920D01*
X87947863Y-47901497D01*
X87837554Y-47901497D01*
X87782400Y-47929074D01*
X87754823Y-47956651D01*
X87727246Y-48011806D01*
X87727246Y-48122114D01*
X87754823Y-48177269D01*
X87782400Y-48204846D01*
X87837554Y-48232423D01*
X87947863Y-48232423D01*
X88003017Y-48204846D01*
X88030594Y-48177269D01*
X88058171Y-48122114D01*
X88058171Y-48011806D01*
X88030594Y-47956651D01*
X88003017Y-47929074D01*
X87947863Y-47901497D01*
X88609714Y-48232423D02*
X88278789Y-48232423D01*
X88444251Y-48232423D02*
X88444251Y-47653303D01*
X88389097Y-47736034D01*
X88333943Y-47791189D01*
X88278789Y-47818766D01*
X88830332Y-47708457D02*
X88857909Y-47680880D01*
X88913063Y-47653303D01*
X89050949Y-47653303D01*
X89106103Y-47680880D01*
X89133680Y-47708457D01*
X89161257Y-47763611D01*
X89161257Y-47818766D01*
X89133680Y-47901497D01*
X88802754Y-48232423D01*
X89161257Y-48232423D01*
D18*
X10237886Y-160288838D02*
X10467695Y-161254038D01*
X10651543Y-160564610D01*
X10835390Y-161254038D01*
X11065200Y-160288838D01*
X11386934Y-161208076D02*
X11524819Y-161254038D01*
X11754629Y-161254038D01*
X11846553Y-161208076D01*
X11892515Y-161162114D01*
X11938476Y-161070190D01*
X11938476Y-160978267D01*
X11892515Y-160886343D01*
X11846553Y-160840381D01*
X11754629Y-160794419D01*
X11570781Y-160748457D01*
X11478857Y-160702495D01*
X11432896Y-160656533D01*
X11386934Y-160564610D01*
X11386934Y-160472686D01*
X11432896Y-160380762D01*
X11478857Y-160334800D01*
X11570781Y-160288838D01*
X11800591Y-160288838D01*
X11938476Y-160334800D01*
X12673867Y-160748457D02*
X12811753Y-160794419D01*
X12857714Y-160840381D01*
X12903676Y-160932305D01*
X12903676Y-161070190D01*
X12857714Y-161162114D01*
X12811753Y-161208076D01*
X12719829Y-161254038D01*
X12352134Y-161254038D01*
X12352134Y-160288838D01*
X12673867Y-160288838D01*
X12765791Y-160334800D01*
X12811753Y-160380762D01*
X12857714Y-160472686D01*
X12857714Y-160564610D01*
X12811753Y-160656533D01*
X12765791Y-160702495D01*
X12673867Y-160748457D01*
X12352134Y-160748457D01*
X13271372Y-160380762D02*
X13317334Y-160334800D01*
X13409257Y-160288838D01*
X13639067Y-160288838D01*
X13730991Y-160334800D01*
X13776953Y-160380762D01*
X13822914Y-160472686D01*
X13822914Y-160564610D01*
X13776953Y-160702495D01*
X13225410Y-161254038D01*
X13822914Y-161254038D01*
X14696191Y-160288838D02*
X14236572Y-160288838D01*
X14190610Y-160748457D01*
X14236572Y-160702495D01*
X14328495Y-160656533D01*
X14558305Y-160656533D01*
X14650229Y-160702495D01*
X14696191Y-160748457D01*
X14742152Y-160840381D01*
X14742152Y-161070190D01*
X14696191Y-161162114D01*
X14650229Y-161208076D01*
X14558305Y-161254038D01*
X14328495Y-161254038D01*
X14236572Y-161208076D01*
X14190610Y-161162114D01*
D19*
X10782731Y-161393303D02*
X10920617Y-161972423D01*
X11030926Y-161558766D01*
X11141234Y-161972423D01*
X11279120Y-161393303D01*
X11472160Y-161944846D02*
X11554891Y-161972423D01*
X11692777Y-161972423D01*
X11747931Y-161944846D01*
X11775508Y-161917269D01*
X11803085Y-161862114D01*
X11803085Y-161806960D01*
X11775508Y-161751806D01*
X11747931Y-161724229D01*
X11692777Y-161696651D01*
X11582468Y-161669074D01*
X11527314Y-161641497D01*
X11499737Y-161613920D01*
X11472160Y-161558766D01*
X11472160Y-161503611D01*
X11499737Y-161448457D01*
X11527314Y-161420880D01*
X11582468Y-161393303D01*
X11720354Y-161393303D01*
X11803085Y-161420880D01*
X12023703Y-161448457D02*
X12051280Y-161420880D01*
X12106434Y-161393303D01*
X12244320Y-161393303D01*
X12299474Y-161420880D01*
X12327051Y-161448457D01*
X12354628Y-161503611D01*
X12354628Y-161558766D01*
X12327051Y-161641497D01*
X11996125Y-161972423D01*
X12354628Y-161972423D01*
X12685554Y-161641497D02*
X12630400Y-161613920D01*
X12602823Y-161586343D01*
X12575246Y-161531189D01*
X12575246Y-161503611D01*
X12602823Y-161448457D01*
X12630400Y-161420880D01*
X12685554Y-161393303D01*
X12795863Y-161393303D01*
X12851017Y-161420880D01*
X12878594Y-161448457D01*
X12906171Y-161503611D01*
X12906171Y-161531189D01*
X12878594Y-161586343D01*
X12851017Y-161613920D01*
X12795863Y-161641497D01*
X12685554Y-161641497D01*
X12630400Y-161669074D01*
X12602823Y-161696651D01*
X12575246Y-161751806D01*
X12575246Y-161862114D01*
X12602823Y-161917269D01*
X12630400Y-161944846D01*
X12685554Y-161972423D01*
X12795863Y-161972423D01*
X12851017Y-161944846D01*
X12878594Y-161917269D01*
X12906171Y-161862114D01*
X12906171Y-161751806D01*
X12878594Y-161696651D01*
X12851017Y-161669074D01*
X12795863Y-161641497D01*
X13457714Y-161972423D02*
X13126789Y-161972423D01*
X13292251Y-161972423D02*
X13292251Y-161393303D01*
X13237097Y-161476034D01*
X13181943Y-161531189D01*
X13126789Y-161558766D01*
X13678332Y-161448457D02*
X13705909Y-161420880D01*
X13761063Y-161393303D01*
X13898949Y-161393303D01*
X13954103Y-161420880D01*
X13981680Y-161448457D01*
X14009257Y-161503611D01*
X14009257Y-161558766D01*
X13981680Y-161641497D01*
X13650754Y-161972423D01*
X14009257Y-161972423D01*
D18*
X35337886Y-160288838D02*
X35567695Y-161254038D01*
X35751543Y-160564610D01*
X35935390Y-161254038D01*
X36165200Y-160288838D01*
X36486934Y-161208076D02*
X36624819Y-161254038D01*
X36854629Y-161254038D01*
X36946553Y-161208076D01*
X36992515Y-161162114D01*
X37038476Y-161070190D01*
X37038476Y-160978267D01*
X36992515Y-160886343D01*
X36946553Y-160840381D01*
X36854629Y-160794419D01*
X36670781Y-160748457D01*
X36578857Y-160702495D01*
X36532896Y-160656533D01*
X36486934Y-160564610D01*
X36486934Y-160472686D01*
X36532896Y-160380762D01*
X36578857Y-160334800D01*
X36670781Y-160288838D01*
X36900591Y-160288838D01*
X37038476Y-160334800D01*
X37773867Y-160748457D02*
X37911753Y-160794419D01*
X37957714Y-160840381D01*
X38003676Y-160932305D01*
X38003676Y-161070190D01*
X37957714Y-161162114D01*
X37911753Y-161208076D01*
X37819829Y-161254038D01*
X37452134Y-161254038D01*
X37452134Y-160288838D01*
X37773867Y-160288838D01*
X37865791Y-160334800D01*
X37911753Y-160380762D01*
X37957714Y-160472686D01*
X37957714Y-160564610D01*
X37911753Y-160656533D01*
X37865791Y-160702495D01*
X37773867Y-160748457D01*
X37452134Y-160748457D01*
X38371372Y-160380762D02*
X38417334Y-160334800D01*
X38509257Y-160288838D01*
X38739067Y-160288838D01*
X38830991Y-160334800D01*
X38876953Y-160380762D01*
X38922914Y-160472686D01*
X38922914Y-160564610D01*
X38876953Y-160702495D01*
X38325410Y-161254038D01*
X38922914Y-161254038D01*
X39750229Y-160288838D02*
X39566381Y-160288838D01*
X39474457Y-160334800D01*
X39428495Y-160380762D01*
X39336572Y-160518648D01*
X39290610Y-160702495D01*
X39290610Y-161070190D01*
X39336572Y-161162114D01*
X39382533Y-161208076D01*
X39474457Y-161254038D01*
X39658305Y-161254038D01*
X39750229Y-161208076D01*
X39796191Y-161162114D01*
X39842152Y-161070190D01*
X39842152Y-160840381D01*
X39796191Y-160748457D01*
X39750229Y-160702495D01*
X39658305Y-160656533D01*
X39474457Y-160656533D01*
X39382533Y-160702495D01*
X39336572Y-160748457D01*
X39290610Y-160840381D01*
D19*
X35882731Y-161493303D02*
X36020617Y-162072423D01*
X36130926Y-161658766D01*
X36241234Y-162072423D01*
X36379120Y-161493303D01*
X36572160Y-162044846D02*
X36654891Y-162072423D01*
X36792777Y-162072423D01*
X36847931Y-162044846D01*
X36875508Y-162017269D01*
X36903085Y-161962114D01*
X36903085Y-161906960D01*
X36875508Y-161851806D01*
X36847931Y-161824229D01*
X36792777Y-161796651D01*
X36682468Y-161769074D01*
X36627314Y-161741497D01*
X36599737Y-161713920D01*
X36572160Y-161658766D01*
X36572160Y-161603611D01*
X36599737Y-161548457D01*
X36627314Y-161520880D01*
X36682468Y-161493303D01*
X36820354Y-161493303D01*
X36903085Y-161520880D01*
X37123703Y-161548457D02*
X37151280Y-161520880D01*
X37206434Y-161493303D01*
X37344320Y-161493303D01*
X37399474Y-161520880D01*
X37427051Y-161548457D01*
X37454628Y-161603611D01*
X37454628Y-161658766D01*
X37427051Y-161741497D01*
X37096125Y-162072423D01*
X37454628Y-162072423D01*
X37785554Y-161741497D02*
X37730400Y-161713920D01*
X37702823Y-161686343D01*
X37675246Y-161631189D01*
X37675246Y-161603611D01*
X37702823Y-161548457D01*
X37730400Y-161520880D01*
X37785554Y-161493303D01*
X37895863Y-161493303D01*
X37951017Y-161520880D01*
X37978594Y-161548457D01*
X38006171Y-161603611D01*
X38006171Y-161631189D01*
X37978594Y-161686343D01*
X37951017Y-161713920D01*
X37895863Y-161741497D01*
X37785554Y-161741497D01*
X37730400Y-161769074D01*
X37702823Y-161796651D01*
X37675246Y-161851806D01*
X37675246Y-161962114D01*
X37702823Y-162017269D01*
X37730400Y-162044846D01*
X37785554Y-162072423D01*
X37895863Y-162072423D01*
X37951017Y-162044846D01*
X37978594Y-162017269D01*
X38006171Y-161962114D01*
X38006171Y-161851806D01*
X37978594Y-161796651D01*
X37951017Y-161769074D01*
X37895863Y-161741497D01*
X38557714Y-162072423D02*
X38226789Y-162072423D01*
X38392251Y-162072423D02*
X38392251Y-161493303D01*
X38337097Y-161576034D01*
X38281943Y-161631189D01*
X38226789Y-161658766D01*
X38778332Y-161548457D02*
X38805909Y-161520880D01*
X38861063Y-161493303D01*
X38998949Y-161493303D01*
X39054103Y-161520880D01*
X39081680Y-161548457D01*
X39109257Y-161603611D01*
X39109257Y-161658766D01*
X39081680Y-161741497D01*
X38750754Y-162072423D01*
X39109257Y-162072423D01*
D18*
X60237886Y-160388838D02*
X60467695Y-161354038D01*
X60651543Y-160664610D01*
X60835390Y-161354038D01*
X61065200Y-160388838D01*
X61386934Y-161308076D02*
X61524819Y-161354038D01*
X61754629Y-161354038D01*
X61846553Y-161308076D01*
X61892515Y-161262114D01*
X61938476Y-161170190D01*
X61938476Y-161078267D01*
X61892515Y-160986343D01*
X61846553Y-160940381D01*
X61754629Y-160894419D01*
X61570781Y-160848457D01*
X61478857Y-160802495D01*
X61432896Y-160756533D01*
X61386934Y-160664610D01*
X61386934Y-160572686D01*
X61432896Y-160480762D01*
X61478857Y-160434800D01*
X61570781Y-160388838D01*
X61800591Y-160388838D01*
X61938476Y-160434800D01*
X62673867Y-160848457D02*
X62811753Y-160894419D01*
X62857714Y-160940381D01*
X62903676Y-161032305D01*
X62903676Y-161170190D01*
X62857714Y-161262114D01*
X62811753Y-161308076D01*
X62719829Y-161354038D01*
X62352134Y-161354038D01*
X62352134Y-160388838D01*
X62673867Y-160388838D01*
X62765791Y-160434800D01*
X62811753Y-160480762D01*
X62857714Y-160572686D01*
X62857714Y-160664610D01*
X62811753Y-160756533D01*
X62765791Y-160802495D01*
X62673867Y-160848457D01*
X62352134Y-160848457D01*
X63271372Y-160480762D02*
X63317334Y-160434800D01*
X63409257Y-160388838D01*
X63639067Y-160388838D01*
X63730991Y-160434800D01*
X63776953Y-160480762D01*
X63822914Y-160572686D01*
X63822914Y-160664610D01*
X63776953Y-160802495D01*
X63225410Y-161354038D01*
X63822914Y-161354038D01*
X64144648Y-160388838D02*
X64788114Y-160388838D01*
X64374457Y-161354038D01*
D19*
X60582731Y-161593303D02*
X60720617Y-162172423D01*
X60830926Y-161758766D01*
X60941234Y-162172423D01*
X61079120Y-161593303D01*
X61272160Y-162144846D02*
X61354891Y-162172423D01*
X61492777Y-162172423D01*
X61547931Y-162144846D01*
X61575508Y-162117269D01*
X61603085Y-162062114D01*
X61603085Y-162006960D01*
X61575508Y-161951806D01*
X61547931Y-161924229D01*
X61492777Y-161896651D01*
X61382468Y-161869074D01*
X61327314Y-161841497D01*
X61299737Y-161813920D01*
X61272160Y-161758766D01*
X61272160Y-161703611D01*
X61299737Y-161648457D01*
X61327314Y-161620880D01*
X61382468Y-161593303D01*
X61520354Y-161593303D01*
X61603085Y-161620880D01*
X61823703Y-161648457D02*
X61851280Y-161620880D01*
X61906434Y-161593303D01*
X62044320Y-161593303D01*
X62099474Y-161620880D01*
X62127051Y-161648457D01*
X62154628Y-161703611D01*
X62154628Y-161758766D01*
X62127051Y-161841497D01*
X61796125Y-162172423D01*
X62154628Y-162172423D01*
X62485554Y-161841497D02*
X62430400Y-161813920D01*
X62402823Y-161786343D01*
X62375246Y-161731189D01*
X62375246Y-161703611D01*
X62402823Y-161648457D01*
X62430400Y-161620880D01*
X62485554Y-161593303D01*
X62595863Y-161593303D01*
X62651017Y-161620880D01*
X62678594Y-161648457D01*
X62706171Y-161703611D01*
X62706171Y-161731189D01*
X62678594Y-161786343D01*
X62651017Y-161813920D01*
X62595863Y-161841497D01*
X62485554Y-161841497D01*
X62430400Y-161869074D01*
X62402823Y-161896651D01*
X62375246Y-161951806D01*
X62375246Y-162062114D01*
X62402823Y-162117269D01*
X62430400Y-162144846D01*
X62485554Y-162172423D01*
X62595863Y-162172423D01*
X62651017Y-162144846D01*
X62678594Y-162117269D01*
X62706171Y-162062114D01*
X62706171Y-161951806D01*
X62678594Y-161896651D01*
X62651017Y-161869074D01*
X62595863Y-161841497D01*
X63257714Y-162172423D02*
X62926789Y-162172423D01*
X63092251Y-162172423D02*
X63092251Y-161593303D01*
X63037097Y-161676034D01*
X62981943Y-161731189D01*
X62926789Y-161758766D01*
X63478332Y-161648457D02*
X63505909Y-161620880D01*
X63561063Y-161593303D01*
X63698949Y-161593303D01*
X63754103Y-161620880D01*
X63781680Y-161648457D01*
X63809257Y-161703611D01*
X63809257Y-161758766D01*
X63781680Y-161841497D01*
X63450754Y-162172423D01*
X63809257Y-162172423D01*
D18*
X85237886Y-160388838D02*
X85467695Y-161354038D01*
X85651543Y-160664610D01*
X85835390Y-161354038D01*
X86065200Y-160388838D01*
X86386934Y-161308076D02*
X86524819Y-161354038D01*
X86754629Y-161354038D01*
X86846553Y-161308076D01*
X86892515Y-161262114D01*
X86938476Y-161170190D01*
X86938476Y-161078267D01*
X86892515Y-160986343D01*
X86846553Y-160940381D01*
X86754629Y-160894419D01*
X86570781Y-160848457D01*
X86478857Y-160802495D01*
X86432896Y-160756533D01*
X86386934Y-160664610D01*
X86386934Y-160572686D01*
X86432896Y-160480762D01*
X86478857Y-160434800D01*
X86570781Y-160388838D01*
X86800591Y-160388838D01*
X86938476Y-160434800D01*
X87673867Y-160848457D02*
X87811753Y-160894419D01*
X87857714Y-160940381D01*
X87903676Y-161032305D01*
X87903676Y-161170190D01*
X87857714Y-161262114D01*
X87811753Y-161308076D01*
X87719829Y-161354038D01*
X87352134Y-161354038D01*
X87352134Y-160388838D01*
X87673867Y-160388838D01*
X87765791Y-160434800D01*
X87811753Y-160480762D01*
X87857714Y-160572686D01*
X87857714Y-160664610D01*
X87811753Y-160756533D01*
X87765791Y-160802495D01*
X87673867Y-160848457D01*
X87352134Y-160848457D01*
X88271372Y-160480762D02*
X88317334Y-160434800D01*
X88409257Y-160388838D01*
X88639067Y-160388838D01*
X88730991Y-160434800D01*
X88776953Y-160480762D01*
X88822914Y-160572686D01*
X88822914Y-160664610D01*
X88776953Y-160802495D01*
X88225410Y-161354038D01*
X88822914Y-161354038D01*
X89374457Y-160802495D02*
X89282533Y-160756533D01*
X89236572Y-160710571D01*
X89190610Y-160618648D01*
X89190610Y-160572686D01*
X89236572Y-160480762D01*
X89282533Y-160434800D01*
X89374457Y-160388838D01*
X89558305Y-160388838D01*
X89650229Y-160434800D01*
X89696191Y-160480762D01*
X89742152Y-160572686D01*
X89742152Y-160618648D01*
X89696191Y-160710571D01*
X89650229Y-160756533D01*
X89558305Y-160802495D01*
X89374457Y-160802495D01*
X89282533Y-160848457D01*
X89236572Y-160894419D01*
X89190610Y-160986343D01*
X89190610Y-161170190D01*
X89236572Y-161262114D01*
X89282533Y-161308076D01*
X89374457Y-161354038D01*
X89558305Y-161354038D01*
X89650229Y-161308076D01*
X89696191Y-161262114D01*
X89742152Y-161170190D01*
X89742152Y-160986343D01*
X89696191Y-160894419D01*
X89650229Y-160848457D01*
X89558305Y-160802495D01*
D19*
X85482731Y-161493303D02*
X85620617Y-162072423D01*
X85730926Y-161658766D01*
X85841234Y-162072423D01*
X85979120Y-161493303D01*
X86172160Y-162044846D02*
X86254891Y-162072423D01*
X86392777Y-162072423D01*
X86447931Y-162044846D01*
X86475508Y-162017269D01*
X86503085Y-161962114D01*
X86503085Y-161906960D01*
X86475508Y-161851806D01*
X86447931Y-161824229D01*
X86392777Y-161796651D01*
X86282468Y-161769074D01*
X86227314Y-161741497D01*
X86199737Y-161713920D01*
X86172160Y-161658766D01*
X86172160Y-161603611D01*
X86199737Y-161548457D01*
X86227314Y-161520880D01*
X86282468Y-161493303D01*
X86420354Y-161493303D01*
X86503085Y-161520880D01*
X86723703Y-161548457D02*
X86751280Y-161520880D01*
X86806434Y-161493303D01*
X86944320Y-161493303D01*
X86999474Y-161520880D01*
X87027051Y-161548457D01*
X87054628Y-161603611D01*
X87054628Y-161658766D01*
X87027051Y-161741497D01*
X86696125Y-162072423D01*
X87054628Y-162072423D01*
X87385554Y-161741497D02*
X87330400Y-161713920D01*
X87302823Y-161686343D01*
X87275246Y-161631189D01*
X87275246Y-161603611D01*
X87302823Y-161548457D01*
X87330400Y-161520880D01*
X87385554Y-161493303D01*
X87495863Y-161493303D01*
X87551017Y-161520880D01*
X87578594Y-161548457D01*
X87606171Y-161603611D01*
X87606171Y-161631189D01*
X87578594Y-161686343D01*
X87551017Y-161713920D01*
X87495863Y-161741497D01*
X87385554Y-161741497D01*
X87330400Y-161769074D01*
X87302823Y-161796651D01*
X87275246Y-161851806D01*
X87275246Y-161962114D01*
X87302823Y-162017269D01*
X87330400Y-162044846D01*
X87385554Y-162072423D01*
X87495863Y-162072423D01*
X87551017Y-162044846D01*
X87578594Y-162017269D01*
X87606171Y-161962114D01*
X87606171Y-161851806D01*
X87578594Y-161796651D01*
X87551017Y-161769074D01*
X87495863Y-161741497D01*
X88157714Y-162072423D02*
X87826789Y-162072423D01*
X87992251Y-162072423D02*
X87992251Y-161493303D01*
X87937097Y-161576034D01*
X87881943Y-161631189D01*
X87826789Y-161658766D01*
X88378332Y-161548457D02*
X88405909Y-161520880D01*
X88461063Y-161493303D01*
X88598949Y-161493303D01*
X88654103Y-161520880D01*
X88681680Y-161548457D01*
X88709257Y-161603611D01*
X88709257Y-161658766D01*
X88681680Y-161741497D01*
X88350754Y-162072423D01*
X88709257Y-162072423D01*
D11*
X51665429Y-66092286D02*
X53189429Y-65729429D01*
X52100857Y-65439143D01*
X53189429Y-65148857D01*
X51665429Y-64786000D01*
X53116857Y-64278000D02*
X53189429Y-64060286D01*
X53189429Y-63697429D01*
X53116857Y-63552286D01*
X53044286Y-63479715D01*
X52899143Y-63407143D01*
X52754000Y-63407143D01*
X52608857Y-63479715D01*
X52536286Y-63552286D01*
X52463714Y-63697429D01*
X52391143Y-63987715D01*
X52318571Y-64132857D01*
X52246000Y-64205429D01*
X52100857Y-64278000D01*
X51955714Y-64278000D01*
X51810571Y-64205429D01*
X51738000Y-64132857D01*
X51665429Y-63987715D01*
X51665429Y-63624857D01*
X51738000Y-63407143D01*
X52391143Y-62246000D02*
X52463714Y-62028286D01*
X52536286Y-61955714D01*
X52681429Y-61883143D01*
X52899143Y-61883143D01*
X53044286Y-61955714D01*
X53116857Y-62028286D01*
X53189429Y-62173428D01*
X53189429Y-62754000D01*
X51665429Y-62754000D01*
X51665429Y-62246000D01*
X51738000Y-62100857D01*
X51810571Y-62028286D01*
X51955714Y-61955714D01*
X52100857Y-61955714D01*
X52246000Y-62028286D01*
X52318571Y-62100857D01*
X52391143Y-62246000D01*
X52391143Y-62754000D01*
X53189429Y-60431714D02*
X53189429Y-61302571D01*
X53189429Y-60867143D02*
X51665429Y-60867143D01*
X51883143Y-61012286D01*
X52028286Y-61157428D01*
X52100857Y-61302571D01*
X53189429Y-58980285D02*
X53189429Y-59851142D01*
X53189429Y-59415714D02*
X51665429Y-59415714D01*
X51883143Y-59560857D01*
X52028286Y-59705999D01*
X52100857Y-59851142D01*
X76665429Y-66092286D02*
X78189429Y-65729429D01*
X77100857Y-65439143D01*
X78189429Y-65148857D01*
X76665429Y-64786000D01*
X78116857Y-64278000D02*
X78189429Y-64060286D01*
X78189429Y-63697429D01*
X78116857Y-63552286D01*
X78044286Y-63479715D01*
X77899143Y-63407143D01*
X77754000Y-63407143D01*
X77608857Y-63479715D01*
X77536286Y-63552286D01*
X77463714Y-63697429D01*
X77391143Y-63987715D01*
X77318571Y-64132857D01*
X77246000Y-64205429D01*
X77100857Y-64278000D01*
X76955714Y-64278000D01*
X76810571Y-64205429D01*
X76738000Y-64132857D01*
X76665429Y-63987715D01*
X76665429Y-63624857D01*
X76738000Y-63407143D01*
X77391143Y-62246000D02*
X77463714Y-62028286D01*
X77536286Y-61955714D01*
X77681429Y-61883143D01*
X77899143Y-61883143D01*
X78044286Y-61955714D01*
X78116857Y-62028286D01*
X78189429Y-62173428D01*
X78189429Y-62754000D01*
X76665429Y-62754000D01*
X76665429Y-62246000D01*
X76738000Y-62100857D01*
X76810571Y-62028286D01*
X76955714Y-61955714D01*
X77100857Y-61955714D01*
X77246000Y-62028286D01*
X77318571Y-62100857D01*
X77391143Y-62246000D01*
X77391143Y-62754000D01*
X78189429Y-60431714D02*
X78189429Y-61302571D01*
X78189429Y-60867143D02*
X76665429Y-60867143D01*
X76883143Y-61012286D01*
X77028286Y-61157428D01*
X77100857Y-61302571D01*
X76810571Y-59851142D02*
X76738000Y-59778571D01*
X76665429Y-59633428D01*
X76665429Y-59270571D01*
X76738000Y-59125428D01*
X76810571Y-59052857D01*
X76955714Y-58980285D01*
X77100857Y-58980285D01*
X77318571Y-59052857D01*
X78189429Y-59923714D01*
X78189429Y-58980285D01*
X1665429Y-91092286D02*
X3189429Y-90729429D01*
X2100857Y-90439143D01*
X3189429Y-90148857D01*
X1665429Y-89786000D01*
X3116857Y-89278000D02*
X3189429Y-89060286D01*
X3189429Y-88697429D01*
X3116857Y-88552286D01*
X3044286Y-88479715D01*
X2899143Y-88407143D01*
X2754000Y-88407143D01*
X2608857Y-88479715D01*
X2536286Y-88552286D01*
X2463714Y-88697429D01*
X2391143Y-88987715D01*
X2318571Y-89132857D01*
X2246000Y-89205429D01*
X2100857Y-89278000D01*
X1955714Y-89278000D01*
X1810571Y-89205429D01*
X1738000Y-89132857D01*
X1665429Y-88987715D01*
X1665429Y-88624857D01*
X1738000Y-88407143D01*
X2391143Y-87246000D02*
X2463714Y-87028286D01*
X2536286Y-86955714D01*
X2681429Y-86883143D01*
X2899143Y-86883143D01*
X3044286Y-86955714D01*
X3116857Y-87028286D01*
X3189429Y-87173428D01*
X3189429Y-87754000D01*
X1665429Y-87754000D01*
X1665429Y-87246000D01*
X1738000Y-87100857D01*
X1810571Y-87028286D01*
X1955714Y-86955714D01*
X2100857Y-86955714D01*
X2246000Y-87028286D01*
X2318571Y-87100857D01*
X2391143Y-87246000D01*
X2391143Y-87754000D01*
X3189429Y-85431714D02*
X3189429Y-86302571D01*
X3189429Y-85867143D02*
X1665429Y-85867143D01*
X1883143Y-86012286D01*
X2028286Y-86157428D01*
X2100857Y-86302571D01*
X1665429Y-84923714D02*
X1665429Y-83980285D01*
X2246000Y-84488285D01*
X2246000Y-84270571D01*
X2318571Y-84125428D01*
X2391143Y-84052857D01*
X2536286Y-83980285D01*
X2899143Y-83980285D01*
X3044286Y-84052857D01*
X3116857Y-84125428D01*
X3189429Y-84270571D01*
X3189429Y-84705999D01*
X3116857Y-84851142D01*
X3044286Y-84923714D01*
D20*
X18839133Y-81344714D02*
X18793171Y-81390676D01*
X18655286Y-81436638D01*
X18563362Y-81436638D01*
X18425476Y-81390676D01*
X18333552Y-81298752D01*
X18287591Y-81206829D01*
X18241629Y-81022981D01*
X18241629Y-80885095D01*
X18287591Y-80701248D01*
X18333552Y-80609324D01*
X18425476Y-80517400D01*
X18563362Y-80471438D01*
X18655286Y-80471438D01*
X18793171Y-80517400D01*
X18839133Y-80563362D01*
X19160867Y-80471438D02*
X19758371Y-80471438D01*
X19436638Y-80839133D01*
X19574524Y-80839133D01*
X19666448Y-80885095D01*
X19712410Y-80931057D01*
X19758371Y-81022981D01*
X19758371Y-81252790D01*
X19712410Y-81344714D01*
X19666448Y-81390676D01*
X19574524Y-81436638D01*
X19298752Y-81436638D01*
X19206829Y-81390676D01*
X19160867Y-81344714D01*
D11*
X26665429Y-91092286D02*
X28189429Y-90729429D01*
X27100857Y-90439143D01*
X28189429Y-90148857D01*
X26665429Y-89786000D01*
X28116857Y-89278000D02*
X28189429Y-89060286D01*
X28189429Y-88697429D01*
X28116857Y-88552286D01*
X28044286Y-88479715D01*
X27899143Y-88407143D01*
X27754000Y-88407143D01*
X27608857Y-88479715D01*
X27536286Y-88552286D01*
X27463714Y-88697429D01*
X27391143Y-88987715D01*
X27318571Y-89132857D01*
X27246000Y-89205429D01*
X27100857Y-89278000D01*
X26955714Y-89278000D01*
X26810571Y-89205429D01*
X26738000Y-89132857D01*
X26665429Y-88987715D01*
X26665429Y-88624857D01*
X26738000Y-88407143D01*
X27391143Y-87246000D02*
X27463714Y-87028286D01*
X27536286Y-86955714D01*
X27681429Y-86883143D01*
X27899143Y-86883143D01*
X28044286Y-86955714D01*
X28116857Y-87028286D01*
X28189429Y-87173428D01*
X28189429Y-87754000D01*
X26665429Y-87754000D01*
X26665429Y-87246000D01*
X26738000Y-87100857D01*
X26810571Y-87028286D01*
X26955714Y-86955714D01*
X27100857Y-86955714D01*
X27246000Y-87028286D01*
X27318571Y-87100857D01*
X27391143Y-87246000D01*
X27391143Y-87754000D01*
X28189429Y-85431714D02*
X28189429Y-86302571D01*
X28189429Y-85867143D02*
X26665429Y-85867143D01*
X26883143Y-86012286D01*
X27028286Y-86157428D01*
X27100857Y-86302571D01*
X27173429Y-84125428D02*
X28189429Y-84125428D01*
X26592857Y-84488285D02*
X27681429Y-84851142D01*
X27681429Y-83907714D01*
D20*
X43839133Y-81344714D02*
X43793171Y-81390676D01*
X43655286Y-81436638D01*
X43563362Y-81436638D01*
X43425476Y-81390676D01*
X43333552Y-81298752D01*
X43287591Y-81206829D01*
X43241629Y-81022981D01*
X43241629Y-80885095D01*
X43287591Y-80701248D01*
X43333552Y-80609324D01*
X43425476Y-80517400D01*
X43563362Y-80471438D01*
X43655286Y-80471438D01*
X43793171Y-80517400D01*
X43839133Y-80563362D01*
X44160867Y-80471438D02*
X44758371Y-80471438D01*
X44436638Y-80839133D01*
X44574524Y-80839133D01*
X44666448Y-80885095D01*
X44712410Y-80931057D01*
X44758371Y-81022981D01*
X44758371Y-81252790D01*
X44712410Y-81344714D01*
X44666448Y-81390676D01*
X44574524Y-81436638D01*
X44298752Y-81436638D01*
X44206829Y-81390676D01*
X44160867Y-81344714D01*
D11*
X51665429Y-91092286D02*
X53189429Y-90729429D01*
X52100857Y-90439143D01*
X53189429Y-90148857D01*
X51665429Y-89786000D01*
X53116857Y-89278000D02*
X53189429Y-89060286D01*
X53189429Y-88697429D01*
X53116857Y-88552286D01*
X53044286Y-88479715D01*
X52899143Y-88407143D01*
X52754000Y-88407143D01*
X52608857Y-88479715D01*
X52536286Y-88552286D01*
X52463714Y-88697429D01*
X52391143Y-88987715D01*
X52318571Y-89132857D01*
X52246000Y-89205429D01*
X52100857Y-89278000D01*
X51955714Y-89278000D01*
X51810571Y-89205429D01*
X51738000Y-89132857D01*
X51665429Y-88987715D01*
X51665429Y-88624857D01*
X51738000Y-88407143D01*
X52391143Y-87246000D02*
X52463714Y-87028286D01*
X52536286Y-86955714D01*
X52681429Y-86883143D01*
X52899143Y-86883143D01*
X53044286Y-86955714D01*
X53116857Y-87028286D01*
X53189429Y-87173428D01*
X53189429Y-87754000D01*
X51665429Y-87754000D01*
X51665429Y-87246000D01*
X51738000Y-87100857D01*
X51810571Y-87028286D01*
X51955714Y-86955714D01*
X52100857Y-86955714D01*
X52246000Y-87028286D01*
X52318571Y-87100857D01*
X52391143Y-87246000D01*
X52391143Y-87754000D01*
X53189429Y-85431714D02*
X53189429Y-86302571D01*
X53189429Y-85867143D02*
X51665429Y-85867143D01*
X51883143Y-86012286D01*
X52028286Y-86157428D01*
X52100857Y-86302571D01*
X51665429Y-84052857D02*
X51665429Y-84778571D01*
X52391143Y-84851142D01*
X52318571Y-84778571D01*
X52246000Y-84633428D01*
X52246000Y-84270571D01*
X52318571Y-84125428D01*
X52391143Y-84052857D01*
X52536286Y-83980285D01*
X52899143Y-83980285D01*
X53044286Y-84052857D01*
X53116857Y-84125428D01*
X53189429Y-84270571D01*
X53189429Y-84633428D01*
X53116857Y-84778571D01*
X53044286Y-84851142D01*
D20*
X68839133Y-81344714D02*
X68793171Y-81390676D01*
X68655286Y-81436638D01*
X68563362Y-81436638D01*
X68425476Y-81390676D01*
X68333552Y-81298752D01*
X68287591Y-81206829D01*
X68241629Y-81022981D01*
X68241629Y-80885095D01*
X68287591Y-80701248D01*
X68333552Y-80609324D01*
X68425476Y-80517400D01*
X68563362Y-80471438D01*
X68655286Y-80471438D01*
X68793171Y-80517400D01*
X68839133Y-80563362D01*
X69160867Y-80471438D02*
X69758371Y-80471438D01*
X69436638Y-80839133D01*
X69574524Y-80839133D01*
X69666448Y-80885095D01*
X69712410Y-80931057D01*
X69758371Y-81022981D01*
X69758371Y-81252790D01*
X69712410Y-81344714D01*
X69666448Y-81390676D01*
X69574524Y-81436638D01*
X69298752Y-81436638D01*
X69206829Y-81390676D01*
X69160867Y-81344714D01*
D11*
X76665429Y-91092286D02*
X78189429Y-90729429D01*
X77100857Y-90439143D01*
X78189429Y-90148857D01*
X76665429Y-89786000D01*
X78116857Y-89278000D02*
X78189429Y-89060286D01*
X78189429Y-88697429D01*
X78116857Y-88552286D01*
X78044286Y-88479715D01*
X77899143Y-88407143D01*
X77754000Y-88407143D01*
X77608857Y-88479715D01*
X77536286Y-88552286D01*
X77463714Y-88697429D01*
X77391143Y-88987715D01*
X77318571Y-89132857D01*
X77246000Y-89205429D01*
X77100857Y-89278000D01*
X76955714Y-89278000D01*
X76810571Y-89205429D01*
X76738000Y-89132857D01*
X76665429Y-88987715D01*
X76665429Y-88624857D01*
X76738000Y-88407143D01*
X77391143Y-87246000D02*
X77463714Y-87028286D01*
X77536286Y-86955714D01*
X77681429Y-86883143D01*
X77899143Y-86883143D01*
X78044286Y-86955714D01*
X78116857Y-87028286D01*
X78189429Y-87173428D01*
X78189429Y-87754000D01*
X76665429Y-87754000D01*
X76665429Y-87246000D01*
X76738000Y-87100857D01*
X76810571Y-87028286D01*
X76955714Y-86955714D01*
X77100857Y-86955714D01*
X77246000Y-87028286D01*
X77318571Y-87100857D01*
X77391143Y-87246000D01*
X77391143Y-87754000D01*
X78189429Y-85431714D02*
X78189429Y-86302571D01*
X78189429Y-85867143D02*
X76665429Y-85867143D01*
X76883143Y-86012286D01*
X77028286Y-86157428D01*
X77100857Y-86302571D01*
X76665429Y-84125428D02*
X76665429Y-84415714D01*
X76738000Y-84560857D01*
X76810571Y-84633428D01*
X77028286Y-84778571D01*
X77318571Y-84851142D01*
X77899143Y-84851142D01*
X78044286Y-84778571D01*
X78116857Y-84705999D01*
X78189429Y-84560857D01*
X78189429Y-84270571D01*
X78116857Y-84125428D01*
X78044286Y-84052857D01*
X77899143Y-83980285D01*
X77536286Y-83980285D01*
X77391143Y-84052857D01*
X77318571Y-84125428D01*
X77246000Y-84270571D01*
X77246000Y-84560857D01*
X77318571Y-84705999D01*
X77391143Y-84778571D01*
X77536286Y-84851142D01*
X1665429Y-116092286D02*
X3189429Y-115729429D01*
X2100857Y-115439143D01*
X3189429Y-115148857D01*
X1665429Y-114786000D01*
X3116857Y-114278000D02*
X3189429Y-114060286D01*
X3189429Y-113697429D01*
X3116857Y-113552286D01*
X3044286Y-113479715D01*
X2899143Y-113407143D01*
X2754000Y-113407143D01*
X2608857Y-113479715D01*
X2536286Y-113552286D01*
X2463714Y-113697429D01*
X2391143Y-113987715D01*
X2318571Y-114132857D01*
X2246000Y-114205429D01*
X2100857Y-114278000D01*
X1955714Y-114278000D01*
X1810571Y-114205429D01*
X1738000Y-114132857D01*
X1665429Y-113987715D01*
X1665429Y-113624857D01*
X1738000Y-113407143D01*
X2391143Y-112246000D02*
X2463714Y-112028286D01*
X2536286Y-111955714D01*
X2681429Y-111883143D01*
X2899143Y-111883143D01*
X3044286Y-111955714D01*
X3116857Y-112028286D01*
X3189429Y-112173428D01*
X3189429Y-112754000D01*
X1665429Y-112754000D01*
X1665429Y-112246000D01*
X1738000Y-112100857D01*
X1810571Y-112028286D01*
X1955714Y-111955714D01*
X2100857Y-111955714D01*
X2246000Y-112028286D01*
X2318571Y-112100857D01*
X2391143Y-112246000D01*
X2391143Y-112754000D01*
X3189429Y-110431714D02*
X3189429Y-111302571D01*
X3189429Y-110867143D02*
X1665429Y-110867143D01*
X1883143Y-111012286D01*
X2028286Y-111157428D01*
X2100857Y-111302571D01*
X1665429Y-109923714D02*
X1665429Y-108907714D01*
X3189429Y-109560857D01*
D20*
X18839133Y-106344714D02*
X18793171Y-106390676D01*
X18655286Y-106436638D01*
X18563362Y-106436638D01*
X18425476Y-106390676D01*
X18333552Y-106298752D01*
X18287591Y-106206829D01*
X18241629Y-106022981D01*
X18241629Y-105885095D01*
X18287591Y-105701248D01*
X18333552Y-105609324D01*
X18425476Y-105517400D01*
X18563362Y-105471438D01*
X18655286Y-105471438D01*
X18793171Y-105517400D01*
X18839133Y-105563362D01*
X19160867Y-105471438D02*
X19758371Y-105471438D01*
X19436638Y-105839133D01*
X19574524Y-105839133D01*
X19666448Y-105885095D01*
X19712410Y-105931057D01*
X19758371Y-106022981D01*
X19758371Y-106252790D01*
X19712410Y-106344714D01*
X19666448Y-106390676D01*
X19574524Y-106436638D01*
X19298752Y-106436638D01*
X19206829Y-106390676D01*
X19160867Y-106344714D01*
D11*
X26665429Y-116092286D02*
X28189429Y-115729429D01*
X27100857Y-115439143D01*
X28189429Y-115148857D01*
X26665429Y-114786000D01*
X28116857Y-114278000D02*
X28189429Y-114060286D01*
X28189429Y-113697429D01*
X28116857Y-113552286D01*
X28044286Y-113479715D01*
X27899143Y-113407143D01*
X27754000Y-113407143D01*
X27608857Y-113479715D01*
X27536286Y-113552286D01*
X27463714Y-113697429D01*
X27391143Y-113987715D01*
X27318571Y-114132857D01*
X27246000Y-114205429D01*
X27100857Y-114278000D01*
X26955714Y-114278000D01*
X26810571Y-114205429D01*
X26738000Y-114132857D01*
X26665429Y-113987715D01*
X26665429Y-113624857D01*
X26738000Y-113407143D01*
X27391143Y-112246000D02*
X27463714Y-112028286D01*
X27536286Y-111955714D01*
X27681429Y-111883143D01*
X27899143Y-111883143D01*
X28044286Y-111955714D01*
X28116857Y-112028286D01*
X28189429Y-112173428D01*
X28189429Y-112754000D01*
X26665429Y-112754000D01*
X26665429Y-112246000D01*
X26738000Y-112100857D01*
X26810571Y-112028286D01*
X26955714Y-111955714D01*
X27100857Y-111955714D01*
X27246000Y-112028286D01*
X27318571Y-112100857D01*
X27391143Y-112246000D01*
X27391143Y-112754000D01*
X28189429Y-110431714D02*
X28189429Y-111302571D01*
X28189429Y-110867143D02*
X26665429Y-110867143D01*
X26883143Y-111012286D01*
X27028286Y-111157428D01*
X27100857Y-111302571D01*
X27318571Y-109560857D02*
X27246000Y-109705999D01*
X27173429Y-109778571D01*
X27028286Y-109851142D01*
X26955714Y-109851142D01*
X26810571Y-109778571D01*
X26738000Y-109705999D01*
X26665429Y-109560857D01*
X26665429Y-109270571D01*
X26738000Y-109125428D01*
X26810571Y-109052857D01*
X26955714Y-108980285D01*
X27028286Y-108980285D01*
X27173429Y-109052857D01*
X27246000Y-109125428D01*
X27318571Y-109270571D01*
X27318571Y-109560857D01*
X27391143Y-109705999D01*
X27463714Y-109778571D01*
X27608857Y-109851142D01*
X27899143Y-109851142D01*
X28044286Y-109778571D01*
X28116857Y-109705999D01*
X28189429Y-109560857D01*
X28189429Y-109270571D01*
X28116857Y-109125428D01*
X28044286Y-109052857D01*
X27899143Y-108980285D01*
X27608857Y-108980285D01*
X27463714Y-109052857D01*
X27391143Y-109125428D01*
X27318571Y-109270571D01*
D20*
X43816133Y-106344714D02*
X43770171Y-106390676D01*
X43632286Y-106436638D01*
X43540362Y-106436638D01*
X43402476Y-106390676D01*
X43310552Y-106298752D01*
X43264591Y-106206829D01*
X43218629Y-106022981D01*
X43218629Y-105885095D01*
X43264591Y-105701248D01*
X43310552Y-105609324D01*
X43402476Y-105517400D01*
X43540362Y-105471438D01*
X43632286Y-105471438D01*
X43770171Y-105517400D01*
X43816133Y-105563362D01*
X44137867Y-105471438D02*
X44735371Y-105471438D01*
X44413638Y-105839133D01*
X44551524Y-105839133D01*
X44643448Y-105885095D01*
X44689410Y-105931057D01*
X44735371Y-106022981D01*
X44735371Y-106252790D01*
X44689410Y-106344714D01*
X44643448Y-106390676D01*
X44551524Y-106436638D01*
X44275752Y-106436638D01*
X44183829Y-106390676D01*
X44137867Y-106344714D01*
D11*
X51665429Y-116092286D02*
X53189429Y-115729429D01*
X52100857Y-115439143D01*
X53189429Y-115148857D01*
X51665429Y-114786000D01*
X53116857Y-114278000D02*
X53189429Y-114060286D01*
X53189429Y-113697429D01*
X53116857Y-113552286D01*
X53044286Y-113479715D01*
X52899143Y-113407143D01*
X52754000Y-113407143D01*
X52608857Y-113479715D01*
X52536286Y-113552286D01*
X52463714Y-113697429D01*
X52391143Y-113987715D01*
X52318571Y-114132857D01*
X52246000Y-114205429D01*
X52100857Y-114278000D01*
X51955714Y-114278000D01*
X51810571Y-114205429D01*
X51738000Y-114132857D01*
X51665429Y-113987715D01*
X51665429Y-113624857D01*
X51738000Y-113407143D01*
X52391143Y-112246000D02*
X52463714Y-112028286D01*
X52536286Y-111955714D01*
X52681429Y-111883143D01*
X52899143Y-111883143D01*
X53044286Y-111955714D01*
X53116857Y-112028286D01*
X53189429Y-112173428D01*
X53189429Y-112754000D01*
X51665429Y-112754000D01*
X51665429Y-112246000D01*
X51738000Y-112100857D01*
X51810571Y-112028286D01*
X51955714Y-111955714D01*
X52100857Y-111955714D01*
X52246000Y-112028286D01*
X52318571Y-112100857D01*
X52391143Y-112246000D01*
X52391143Y-112754000D01*
X53189429Y-110431714D02*
X53189429Y-111302571D01*
X53189429Y-110867143D02*
X51665429Y-110867143D01*
X51883143Y-111012286D01*
X52028286Y-111157428D01*
X52100857Y-111302571D01*
X53189429Y-109705999D02*
X53189429Y-109415714D01*
X53116857Y-109270571D01*
X53044286Y-109197999D01*
X52826571Y-109052857D01*
X52536286Y-108980285D01*
X51955714Y-108980285D01*
X51810571Y-109052857D01*
X51738000Y-109125428D01*
X51665429Y-109270571D01*
X51665429Y-109560857D01*
X51738000Y-109705999D01*
X51810571Y-109778571D01*
X51955714Y-109851142D01*
X52318571Y-109851142D01*
X52463714Y-109778571D01*
X52536286Y-109705999D01*
X52608857Y-109560857D01*
X52608857Y-109270571D01*
X52536286Y-109125428D01*
X52463714Y-109052857D01*
X52318571Y-108980285D01*
D20*
X68839133Y-106344714D02*
X68793171Y-106390676D01*
X68655286Y-106436638D01*
X68563362Y-106436638D01*
X68425476Y-106390676D01*
X68333552Y-106298752D01*
X68287591Y-106206829D01*
X68241629Y-106022981D01*
X68241629Y-105885095D01*
X68287591Y-105701248D01*
X68333552Y-105609324D01*
X68425476Y-105517400D01*
X68563362Y-105471438D01*
X68655286Y-105471438D01*
X68793171Y-105517400D01*
X68839133Y-105563362D01*
X69160867Y-105471438D02*
X69758371Y-105471438D01*
X69436638Y-105839133D01*
X69574524Y-105839133D01*
X69666448Y-105885095D01*
X69712410Y-105931057D01*
X69758371Y-106022981D01*
X69758371Y-106252790D01*
X69712410Y-106344714D01*
X69666448Y-106390676D01*
X69574524Y-106436638D01*
X69298752Y-106436638D01*
X69206829Y-106390676D01*
X69160867Y-106344714D01*
D11*
X76665429Y-116092286D02*
X78189429Y-115729429D01*
X77100857Y-115439143D01*
X78189429Y-115148857D01*
X76665429Y-114786000D01*
X78116857Y-114278000D02*
X78189429Y-114060286D01*
X78189429Y-113697429D01*
X78116857Y-113552286D01*
X78044286Y-113479715D01*
X77899143Y-113407143D01*
X77754000Y-113407143D01*
X77608857Y-113479715D01*
X77536286Y-113552286D01*
X77463714Y-113697429D01*
X77391143Y-113987715D01*
X77318571Y-114132857D01*
X77246000Y-114205429D01*
X77100857Y-114278000D01*
X76955714Y-114278000D01*
X76810571Y-114205429D01*
X76738000Y-114132857D01*
X76665429Y-113987715D01*
X76665429Y-113624857D01*
X76738000Y-113407143D01*
X77391143Y-112246000D02*
X77463714Y-112028286D01*
X77536286Y-111955714D01*
X77681429Y-111883143D01*
X77899143Y-111883143D01*
X78044286Y-111955714D01*
X78116857Y-112028286D01*
X78189429Y-112173428D01*
X78189429Y-112754000D01*
X76665429Y-112754000D01*
X76665429Y-112246000D01*
X76738000Y-112100857D01*
X76810571Y-112028286D01*
X76955714Y-111955714D01*
X77100857Y-111955714D01*
X77246000Y-112028286D01*
X77318571Y-112100857D01*
X77391143Y-112246000D01*
X77391143Y-112754000D01*
X76810571Y-111302571D02*
X76738000Y-111230000D01*
X76665429Y-111084857D01*
X76665429Y-110722000D01*
X76738000Y-110576857D01*
X76810571Y-110504286D01*
X76955714Y-110431714D01*
X77100857Y-110431714D01*
X77318571Y-110504286D01*
X78189429Y-111375143D01*
X78189429Y-110431714D01*
X76665429Y-109488285D02*
X76665429Y-109343142D01*
X76738000Y-109197999D01*
X76810571Y-109125428D01*
X76955714Y-109052857D01*
X77246000Y-108980285D01*
X77608857Y-108980285D01*
X77899143Y-109052857D01*
X78044286Y-109125428D01*
X78116857Y-109197999D01*
X78189429Y-109343142D01*
X78189429Y-109488285D01*
X78116857Y-109633428D01*
X78044286Y-109705999D01*
X77899143Y-109778571D01*
X77608857Y-109851142D01*
X77246000Y-109851142D01*
X76955714Y-109778571D01*
X76810571Y-109705999D01*
X76738000Y-109633428D01*
X76665429Y-109488285D01*
D20*
X93839133Y-106344714D02*
X93793171Y-106390676D01*
X93655286Y-106436638D01*
X93563362Y-106436638D01*
X93425476Y-106390676D01*
X93333552Y-106298752D01*
X93287591Y-106206829D01*
X93241629Y-106022981D01*
X93241629Y-105885095D01*
X93287591Y-105701248D01*
X93333552Y-105609324D01*
X93425476Y-105517400D01*
X93563362Y-105471438D01*
X93655286Y-105471438D01*
X93793171Y-105517400D01*
X93839133Y-105563362D01*
X94160867Y-105471438D02*
X94758371Y-105471438D01*
X94436638Y-105839133D01*
X94574524Y-105839133D01*
X94666448Y-105885095D01*
X94712410Y-105931057D01*
X94758371Y-106022981D01*
X94758371Y-106252790D01*
X94712410Y-106344714D01*
X94666448Y-106390676D01*
X94574524Y-106436638D01*
X94298752Y-106436638D01*
X94206829Y-106390676D01*
X94160867Y-106344714D01*
D11*
X1665429Y-141092286D02*
X3189429Y-140729429D01*
X2100857Y-140439143D01*
X3189429Y-140148857D01*
X1665429Y-139786000D01*
X3116857Y-139278000D02*
X3189429Y-139060286D01*
X3189429Y-138697429D01*
X3116857Y-138552286D01*
X3044286Y-138479715D01*
X2899143Y-138407143D01*
X2754000Y-138407143D01*
X2608857Y-138479715D01*
X2536286Y-138552286D01*
X2463714Y-138697429D01*
X2391143Y-138987715D01*
X2318571Y-139132857D01*
X2246000Y-139205429D01*
X2100857Y-139278000D01*
X1955714Y-139278000D01*
X1810571Y-139205429D01*
X1738000Y-139132857D01*
X1665429Y-138987715D01*
X1665429Y-138624857D01*
X1738000Y-138407143D01*
X2391143Y-137246000D02*
X2463714Y-137028286D01*
X2536286Y-136955714D01*
X2681429Y-136883143D01*
X2899143Y-136883143D01*
X3044286Y-136955714D01*
X3116857Y-137028286D01*
X3189429Y-137173428D01*
X3189429Y-137754000D01*
X1665429Y-137754000D01*
X1665429Y-137246000D01*
X1738000Y-137100857D01*
X1810571Y-137028286D01*
X1955714Y-136955714D01*
X2100857Y-136955714D01*
X2246000Y-137028286D01*
X2318571Y-137100857D01*
X2391143Y-137246000D01*
X2391143Y-137754000D01*
X1810571Y-136302571D02*
X1738000Y-136230000D01*
X1665429Y-136084857D01*
X1665429Y-135722000D01*
X1738000Y-135576857D01*
X1810571Y-135504286D01*
X1955714Y-135431714D01*
X2100857Y-135431714D01*
X2318571Y-135504286D01*
X3189429Y-136375143D01*
X3189429Y-135431714D01*
X3189429Y-133980285D02*
X3189429Y-134851142D01*
X3189429Y-134415714D02*
X1665429Y-134415714D01*
X1883143Y-134560857D01*
X2028286Y-134705999D01*
X2100857Y-134851142D01*
D20*
X18839133Y-131344714D02*
X18793171Y-131390676D01*
X18655286Y-131436638D01*
X18563362Y-131436638D01*
X18425476Y-131390676D01*
X18333552Y-131298752D01*
X18287591Y-131206829D01*
X18241629Y-131022981D01*
X18241629Y-130885095D01*
X18287591Y-130701248D01*
X18333552Y-130609324D01*
X18425476Y-130517400D01*
X18563362Y-130471438D01*
X18655286Y-130471438D01*
X18793171Y-130517400D01*
X18839133Y-130563362D01*
X19160867Y-130471438D02*
X19758371Y-130471438D01*
X19436638Y-130839133D01*
X19574524Y-130839133D01*
X19666448Y-130885095D01*
X19712410Y-130931057D01*
X19758371Y-131022981D01*
X19758371Y-131252790D01*
X19712410Y-131344714D01*
X19666448Y-131390676D01*
X19574524Y-131436638D01*
X19298752Y-131436638D01*
X19206829Y-131390676D01*
X19160867Y-131344714D01*
D11*
X26665429Y-141092286D02*
X28189429Y-140729429D01*
X27100857Y-140439143D01*
X28189429Y-140148857D01*
X26665429Y-139786000D01*
X28116857Y-139278000D02*
X28189429Y-139060286D01*
X28189429Y-138697429D01*
X28116857Y-138552286D01*
X28044286Y-138479715D01*
X27899143Y-138407143D01*
X27754000Y-138407143D01*
X27608857Y-138479715D01*
X27536286Y-138552286D01*
X27463714Y-138697429D01*
X27391143Y-138987715D01*
X27318571Y-139132857D01*
X27246000Y-139205429D01*
X27100857Y-139278000D01*
X26955714Y-139278000D01*
X26810571Y-139205429D01*
X26738000Y-139132857D01*
X26665429Y-138987715D01*
X26665429Y-138624857D01*
X26738000Y-138407143D01*
X27391143Y-137246000D02*
X27463714Y-137028286D01*
X27536286Y-136955714D01*
X27681429Y-136883143D01*
X27899143Y-136883143D01*
X28044286Y-136955714D01*
X28116857Y-137028286D01*
X28189429Y-137173428D01*
X28189429Y-137754000D01*
X26665429Y-137754000D01*
X26665429Y-137246000D01*
X26738000Y-137100857D01*
X26810571Y-137028286D01*
X26955714Y-136955714D01*
X27100857Y-136955714D01*
X27246000Y-137028286D01*
X27318571Y-137100857D01*
X27391143Y-137246000D01*
X27391143Y-137754000D01*
X26810571Y-136302571D02*
X26738000Y-136230000D01*
X26665429Y-136084857D01*
X26665429Y-135722000D01*
X26738000Y-135576857D01*
X26810571Y-135504286D01*
X26955714Y-135431714D01*
X27100857Y-135431714D01*
X27318571Y-135504286D01*
X28189429Y-136375143D01*
X28189429Y-135431714D01*
X26810571Y-134851142D02*
X26738000Y-134778571D01*
X26665429Y-134633428D01*
X26665429Y-134270571D01*
X26738000Y-134125428D01*
X26810571Y-134052857D01*
X26955714Y-133980285D01*
X27100857Y-133980285D01*
X27318571Y-134052857D01*
X28189429Y-134923714D01*
X28189429Y-133980285D01*
D20*
X43839133Y-131344714D02*
X43793171Y-131390676D01*
X43655286Y-131436638D01*
X43563362Y-131436638D01*
X43425476Y-131390676D01*
X43333552Y-131298752D01*
X43287591Y-131206829D01*
X43241629Y-131022981D01*
X43241629Y-130885095D01*
X43287591Y-130701248D01*
X43333552Y-130609324D01*
X43425476Y-130517400D01*
X43563362Y-130471438D01*
X43655286Y-130471438D01*
X43793171Y-130517400D01*
X43839133Y-130563362D01*
X44160867Y-130471438D02*
X44758371Y-130471438D01*
X44436638Y-130839133D01*
X44574524Y-130839133D01*
X44666448Y-130885095D01*
X44712410Y-130931057D01*
X44758371Y-131022981D01*
X44758371Y-131252790D01*
X44712410Y-131344714D01*
X44666448Y-131390676D01*
X44574524Y-131436638D01*
X44298752Y-131436638D01*
X44206829Y-131390676D01*
X44160867Y-131344714D01*
D11*
X51665429Y-141092286D02*
X53189429Y-140729429D01*
X52100857Y-140439143D01*
X53189429Y-140148857D01*
X51665429Y-139786000D01*
X53116857Y-139278000D02*
X53189429Y-139060286D01*
X53189429Y-138697429D01*
X53116857Y-138552286D01*
X53044286Y-138479715D01*
X52899143Y-138407143D01*
X52754000Y-138407143D01*
X52608857Y-138479715D01*
X52536286Y-138552286D01*
X52463714Y-138697429D01*
X52391143Y-138987715D01*
X52318571Y-139132857D01*
X52246000Y-139205429D01*
X52100857Y-139278000D01*
X51955714Y-139278000D01*
X51810571Y-139205429D01*
X51738000Y-139132857D01*
X51665429Y-138987715D01*
X51665429Y-138624857D01*
X51738000Y-138407143D01*
X52391143Y-137246000D02*
X52463714Y-137028286D01*
X52536286Y-136955714D01*
X52681429Y-136883143D01*
X52899143Y-136883143D01*
X53044286Y-136955714D01*
X53116857Y-137028286D01*
X53189429Y-137173428D01*
X53189429Y-137754000D01*
X51665429Y-137754000D01*
X51665429Y-137246000D01*
X51738000Y-137100857D01*
X51810571Y-137028286D01*
X51955714Y-136955714D01*
X52100857Y-136955714D01*
X52246000Y-137028286D01*
X52318571Y-137100857D01*
X52391143Y-137246000D01*
X52391143Y-137754000D01*
X51810571Y-136302571D02*
X51738000Y-136230000D01*
X51665429Y-136084857D01*
X51665429Y-135722000D01*
X51738000Y-135576857D01*
X51810571Y-135504286D01*
X51955714Y-135431714D01*
X52100857Y-135431714D01*
X52318571Y-135504286D01*
X53189429Y-136375143D01*
X53189429Y-135431714D01*
X51665429Y-134923714D02*
X51665429Y-133980285D01*
X52246000Y-134488285D01*
X52246000Y-134270571D01*
X52318571Y-134125428D01*
X52391143Y-134052857D01*
X52536286Y-133980285D01*
X52899143Y-133980285D01*
X53044286Y-134052857D01*
X53116857Y-134125428D01*
X53189429Y-134270571D01*
X53189429Y-134705999D01*
X53116857Y-134851142D01*
X53044286Y-134923714D01*
D20*
X68839133Y-131344714D02*
X68793171Y-131390676D01*
X68655286Y-131436638D01*
X68563362Y-131436638D01*
X68425476Y-131390676D01*
X68333552Y-131298752D01*
X68287591Y-131206829D01*
X68241629Y-131022981D01*
X68241629Y-130885095D01*
X68287591Y-130701248D01*
X68333552Y-130609324D01*
X68425476Y-130517400D01*
X68563362Y-130471438D01*
X68655286Y-130471438D01*
X68793171Y-130517400D01*
X68839133Y-130563362D01*
X69160867Y-130471438D02*
X69758371Y-130471438D01*
X69436638Y-130839133D01*
X69574524Y-130839133D01*
X69666448Y-130885095D01*
X69712410Y-130931057D01*
X69758371Y-131022981D01*
X69758371Y-131252790D01*
X69712410Y-131344714D01*
X69666448Y-131390676D01*
X69574524Y-131436638D01*
X69298752Y-131436638D01*
X69206829Y-131390676D01*
X69160867Y-131344714D01*
D11*
X76665429Y-141092286D02*
X78189429Y-140729429D01*
X77100857Y-140439143D01*
X78189429Y-140148857D01*
X76665429Y-139786000D01*
X78116857Y-139278000D02*
X78189429Y-139060286D01*
X78189429Y-138697429D01*
X78116857Y-138552286D01*
X78044286Y-138479715D01*
X77899143Y-138407143D01*
X77754000Y-138407143D01*
X77608857Y-138479715D01*
X77536286Y-138552286D01*
X77463714Y-138697429D01*
X77391143Y-138987715D01*
X77318571Y-139132857D01*
X77246000Y-139205429D01*
X77100857Y-139278000D01*
X76955714Y-139278000D01*
X76810571Y-139205429D01*
X76738000Y-139132857D01*
X76665429Y-138987715D01*
X76665429Y-138624857D01*
X76738000Y-138407143D01*
X77391143Y-137246000D02*
X77463714Y-137028286D01*
X77536286Y-136955714D01*
X77681429Y-136883143D01*
X77899143Y-136883143D01*
X78044286Y-136955714D01*
X78116857Y-137028286D01*
X78189429Y-137173428D01*
X78189429Y-137754000D01*
X76665429Y-137754000D01*
X76665429Y-137246000D01*
X76738000Y-137100857D01*
X76810571Y-137028286D01*
X76955714Y-136955714D01*
X77100857Y-136955714D01*
X77246000Y-137028286D01*
X77318571Y-137100857D01*
X77391143Y-137246000D01*
X77391143Y-137754000D01*
X76810571Y-136302571D02*
X76738000Y-136230000D01*
X76665429Y-136084857D01*
X76665429Y-135722000D01*
X76738000Y-135576857D01*
X76810571Y-135504286D01*
X76955714Y-135431714D01*
X77100857Y-135431714D01*
X77318571Y-135504286D01*
X78189429Y-136375143D01*
X78189429Y-135431714D01*
X77173429Y-134125428D02*
X78189429Y-134125428D01*
X76592857Y-134488285D02*
X77681429Y-134851142D01*
X77681429Y-133907714D01*
D20*
X93839133Y-131344714D02*
X93793171Y-131390676D01*
X93655286Y-131436638D01*
X93563362Y-131436638D01*
X93425476Y-131390676D01*
X93333552Y-131298752D01*
X93287591Y-131206829D01*
X93241629Y-131022981D01*
X93241629Y-130885095D01*
X93287591Y-130701248D01*
X93333552Y-130609324D01*
X93425476Y-130517400D01*
X93563362Y-130471438D01*
X93655286Y-130471438D01*
X93793171Y-130517400D01*
X93839133Y-130563362D01*
X94160867Y-130471438D02*
X94758371Y-130471438D01*
X94436638Y-130839133D01*
X94574524Y-130839133D01*
X94666448Y-130885095D01*
X94712410Y-130931057D01*
X94758371Y-131022981D01*
X94758371Y-131252790D01*
X94712410Y-131344714D01*
X94666448Y-131390676D01*
X94574524Y-131436638D01*
X94298752Y-131436638D01*
X94206829Y-131390676D01*
X94160867Y-131344714D01*
D16*
X9997667Y-40973666D02*
X9108667Y-40973666D01*
X9108667Y-40762000D01*
X9151000Y-40635000D01*
X9235667Y-40550333D01*
X9320333Y-40508000D01*
X9489667Y-40465666D01*
X9616667Y-40465666D01*
X9786000Y-40508000D01*
X9870667Y-40550333D01*
X9955333Y-40635000D01*
X9997667Y-40762000D01*
X9997667Y-40973666D01*
X9405000Y-39703666D02*
X9997667Y-39703666D01*
X9066333Y-39915333D02*
X9701333Y-40127000D01*
X9701333Y-39576666D01*
X5806667Y-40994833D02*
X4917667Y-40994833D01*
X4917667Y-40783167D01*
X4960000Y-40656167D01*
X5044667Y-40571500D01*
X5129333Y-40529167D01*
X5298667Y-40486833D01*
X5425667Y-40486833D01*
X5595000Y-40529167D01*
X5679667Y-40571500D01*
X5764333Y-40656167D01*
X5806667Y-40783167D01*
X5806667Y-40994833D01*
X30461667Y-40528666D02*
X29572667Y-40528666D01*
X29572667Y-40317000D01*
X29615000Y-40190000D01*
X29699667Y-40105333D01*
X29784333Y-40063000D01*
X29953667Y-40020666D01*
X30080667Y-40020666D01*
X30250000Y-40063000D01*
X30334667Y-40105333D01*
X30419333Y-40190000D01*
X30461667Y-40317000D01*
X30461667Y-40528666D01*
X29572667Y-39216333D02*
X29572667Y-39639666D01*
X29996000Y-39682000D01*
X29953667Y-39639666D01*
X29911333Y-39555000D01*
X29911333Y-39343333D01*
X29953667Y-39258666D01*
X29996000Y-39216333D01*
X30080667Y-39174000D01*
X30292333Y-39174000D01*
X30377000Y-39216333D01*
X30419333Y-39258666D01*
X30461667Y-39343333D01*
X30461667Y-39555000D01*
X30419333Y-39639666D01*
X30377000Y-39682000D01*
X34652667Y-39660833D02*
X33763667Y-39660833D01*
X33763667Y-39449167D01*
X33806000Y-39322167D01*
X33890667Y-39237500D01*
X33975333Y-39195167D01*
X34144667Y-39152833D01*
X34271667Y-39152833D01*
X34441000Y-39195167D01*
X34525667Y-39237500D01*
X34610333Y-39322167D01*
X34652667Y-39449167D01*
X34652667Y-39660833D01*
X56261667Y-40528666D02*
X55372667Y-40528666D01*
X55372667Y-40317000D01*
X55415000Y-40190000D01*
X55499667Y-40105333D01*
X55584333Y-40063000D01*
X55753667Y-40020666D01*
X55880667Y-40020666D01*
X56050000Y-40063000D01*
X56134667Y-40105333D01*
X56219333Y-40190000D01*
X56261667Y-40317000D01*
X56261667Y-40528666D01*
X55372667Y-39258666D02*
X55372667Y-39428000D01*
X55415000Y-39512666D01*
X55457333Y-39555000D01*
X55584333Y-39639666D01*
X55753667Y-39682000D01*
X56092333Y-39682000D01*
X56177000Y-39639666D01*
X56219333Y-39597333D01*
X56261667Y-39512666D01*
X56261667Y-39343333D01*
X56219333Y-39258666D01*
X56177000Y-39216333D01*
X56092333Y-39174000D01*
X55880667Y-39174000D01*
X55796000Y-39216333D01*
X55753667Y-39258666D01*
X55711333Y-39343333D01*
X55711333Y-39512666D01*
X55753667Y-39597333D01*
X55796000Y-39639666D01*
X55880667Y-39682000D01*
X60452667Y-39660833D02*
X59563667Y-39660833D01*
X59563667Y-39449167D01*
X59606000Y-39322167D01*
X59690667Y-39237500D01*
X59775333Y-39195167D01*
X59944667Y-39152833D01*
X60071667Y-39152833D01*
X60241000Y-39195167D01*
X60325667Y-39237500D01*
X60410333Y-39322167D01*
X60452667Y-39449167D01*
X60452667Y-39660833D01*
X80106667Y-40299066D02*
X79217667Y-40299066D01*
X79217667Y-40087400D01*
X79260000Y-39960400D01*
X79344667Y-39875733D01*
X79429333Y-39833400D01*
X79598667Y-39791066D01*
X79725667Y-39791066D01*
X79895000Y-39833400D01*
X79979667Y-39875733D01*
X80064333Y-39960400D01*
X80106667Y-40087400D01*
X80106667Y-40299066D01*
X79217667Y-39494733D02*
X79217667Y-38902066D01*
X80106667Y-39283066D01*
X84297667Y-39431233D02*
X83408667Y-39431233D01*
X83408667Y-39219567D01*
X83451000Y-39092567D01*
X83535667Y-39007900D01*
X83620333Y-38965567D01*
X83789667Y-38923233D01*
X83916667Y-38923233D01*
X84086000Y-38965567D01*
X84170667Y-39007900D01*
X84255333Y-39092567D01*
X84297667Y-39219567D01*
X84297667Y-39431233D01*
X83227334Y-33358667D02*
X83227334Y-32469667D01*
X83439000Y-32469667D01*
X83566000Y-32512000D01*
X83650667Y-32596667D01*
X83693000Y-32681333D01*
X83735334Y-32850667D01*
X83735334Y-32977667D01*
X83693000Y-33147000D01*
X83650667Y-33231667D01*
X83566000Y-33316333D01*
X83439000Y-33358667D01*
X83227334Y-33358667D01*
X84243334Y-32850667D02*
X84158667Y-32808333D01*
X84116334Y-32766000D01*
X84074000Y-32681333D01*
X84074000Y-32639000D01*
X84116334Y-32554333D01*
X84158667Y-32512000D01*
X84243334Y-32469667D01*
X84412667Y-32469667D01*
X84497334Y-32512000D01*
X84539667Y-32554333D01*
X84582000Y-32639000D01*
X84582000Y-32681333D01*
X84539667Y-32766000D01*
X84497334Y-32808333D01*
X84412667Y-32850667D01*
X84243334Y-32850667D01*
X84158667Y-32893000D01*
X84116334Y-32935333D01*
X84074000Y-33020000D01*
X84074000Y-33189333D01*
X84116334Y-33274000D01*
X84158667Y-33316333D01*
X84243334Y-33358667D01*
X84412667Y-33358667D01*
X84497334Y-33316333D01*
X84539667Y-33274000D01*
X84582000Y-33189333D01*
X84582000Y-33020000D01*
X84539667Y-32935333D01*
X84497334Y-32893000D01*
X84412667Y-32850667D01*
X84095167Y-37549667D02*
X84095167Y-36660667D01*
X84306833Y-36660667D01*
X84433833Y-36703000D01*
X84518500Y-36787667D01*
X84560833Y-36872333D01*
X84603167Y-37041667D01*
X84603167Y-37168667D01*
X84560833Y-37338000D01*
X84518500Y-37422667D01*
X84433833Y-37507333D01*
X84306833Y-37549667D01*
X84095167Y-37549667D01*
X3901667Y-46818666D02*
X3012667Y-46818666D01*
X3012667Y-46607000D01*
X3055000Y-46480000D01*
X3139667Y-46395333D01*
X3224333Y-46353000D01*
X3393667Y-46310666D01*
X3520667Y-46310666D01*
X3690000Y-46353000D01*
X3774667Y-46395333D01*
X3859333Y-46480000D01*
X3901667Y-46607000D01*
X3901667Y-46818666D01*
X3901667Y-45887333D02*
X3901667Y-45718000D01*
X3859333Y-45633333D01*
X3817000Y-45591000D01*
X3690000Y-45506333D01*
X3520667Y-45464000D01*
X3182000Y-45464000D01*
X3097333Y-45506333D01*
X3055000Y-45548666D01*
X3012667Y-45633333D01*
X3012667Y-45802666D01*
X3055000Y-45887333D01*
X3097333Y-45929666D01*
X3182000Y-45972000D01*
X3393667Y-45972000D01*
X3478333Y-45929666D01*
X3520667Y-45887333D01*
X3563000Y-45802666D01*
X3563000Y-45633333D01*
X3520667Y-45548666D01*
X3478333Y-45506333D01*
X3393667Y-45464000D01*
X8092667Y-45950833D02*
X7203667Y-45950833D01*
X7203667Y-45739167D01*
X7246000Y-45612167D01*
X7330667Y-45527500D01*
X7415333Y-45485167D01*
X7584667Y-45442833D01*
X7711667Y-45442833D01*
X7881000Y-45485167D01*
X7965667Y-45527500D01*
X8050333Y-45612167D01*
X8092667Y-45739167D01*
X8092667Y-45950833D01*
X28556667Y-47182000D02*
X27667667Y-47182000D01*
X27667667Y-46970334D01*
X27710000Y-46843334D01*
X27794667Y-46758667D01*
X27879333Y-46716334D01*
X28048667Y-46674000D01*
X28175667Y-46674000D01*
X28345000Y-46716334D01*
X28429667Y-46758667D01*
X28514333Y-46843334D01*
X28556667Y-46970334D01*
X28556667Y-47182000D01*
X28556667Y-45827334D02*
X28556667Y-46335334D01*
X28556667Y-46081334D02*
X27667667Y-46081334D01*
X27794667Y-46166000D01*
X27879333Y-46250667D01*
X27921667Y-46335334D01*
X27667667Y-45277000D02*
X27667667Y-45192333D01*
X27710000Y-45107667D01*
X27752333Y-45065333D01*
X27837000Y-45023000D01*
X28006333Y-44980667D01*
X28218000Y-44980667D01*
X28387333Y-45023000D01*
X28472000Y-45065333D01*
X28514333Y-45107667D01*
X28556667Y-45192333D01*
X28556667Y-45277000D01*
X28514333Y-45361667D01*
X28472000Y-45404000D01*
X28387333Y-45446333D01*
X28218000Y-45488667D01*
X28006333Y-45488667D01*
X27837000Y-45446333D01*
X27752333Y-45404000D01*
X27710000Y-45361667D01*
X27667667Y-45277000D01*
X32747667Y-45890833D02*
X31858667Y-45890833D01*
X31858667Y-45679167D01*
X31901000Y-45552167D01*
X31985667Y-45467500D01*
X32070333Y-45425167D01*
X32239667Y-45382833D01*
X32366667Y-45382833D01*
X32536000Y-45425167D01*
X32620667Y-45467500D01*
X32705333Y-45552167D01*
X32747667Y-45679167D01*
X32747667Y-45890833D01*
X54356667Y-47182000D02*
X53467667Y-47182000D01*
X53467667Y-46970334D01*
X53510000Y-46843334D01*
X53594667Y-46758667D01*
X53679333Y-46716334D01*
X53848667Y-46674000D01*
X53975667Y-46674000D01*
X54145000Y-46716334D01*
X54229667Y-46758667D01*
X54314333Y-46843334D01*
X54356667Y-46970334D01*
X54356667Y-47182000D01*
X54356667Y-45827334D02*
X54356667Y-46335334D01*
X54356667Y-46081334D02*
X53467667Y-46081334D01*
X53594667Y-46166000D01*
X53679333Y-46250667D01*
X53721667Y-46335334D01*
X54356667Y-44980667D02*
X54356667Y-45488667D01*
X54356667Y-45234667D02*
X53467667Y-45234667D01*
X53594667Y-45319333D01*
X53679333Y-45404000D01*
X53721667Y-45488667D01*
X58547667Y-45890833D02*
X57658667Y-45890833D01*
X57658667Y-45679167D01*
X57701000Y-45552167D01*
X57785667Y-45467500D01*
X57870333Y-45425167D01*
X58039667Y-45382833D01*
X58166667Y-45382833D01*
X58336000Y-45425167D01*
X58420667Y-45467500D01*
X58505333Y-45552167D01*
X58547667Y-45679167D01*
X58547667Y-45890833D01*
X78201667Y-47182000D02*
X77312667Y-47182000D01*
X77312667Y-46970334D01*
X77355000Y-46843334D01*
X77439667Y-46758667D01*
X77524333Y-46716334D01*
X77693667Y-46674000D01*
X77820667Y-46674000D01*
X77990000Y-46716334D01*
X78074667Y-46758667D01*
X78159333Y-46843334D01*
X78201667Y-46970334D01*
X78201667Y-47182000D01*
X78201667Y-45827334D02*
X78201667Y-46335334D01*
X78201667Y-46081334D02*
X77312667Y-46081334D01*
X77439667Y-46166000D01*
X77524333Y-46250667D01*
X77566667Y-46335334D01*
X77397333Y-45488667D02*
X77355000Y-45446333D01*
X77312667Y-45361667D01*
X77312667Y-45150000D01*
X77355000Y-45065333D01*
X77397333Y-45023000D01*
X77482000Y-44980667D01*
X77566667Y-44980667D01*
X77693667Y-45023000D01*
X78201667Y-45531000D01*
X78201667Y-44980667D01*
X82392667Y-45890833D02*
X81503667Y-45890833D01*
X81503667Y-45679167D01*
X81546000Y-45552167D01*
X81630667Y-45467500D01*
X81715333Y-45425167D01*
X81884667Y-45382833D01*
X82011667Y-45382833D01*
X82181000Y-45425167D01*
X82265667Y-45467500D01*
X82350333Y-45552167D01*
X82392667Y-45679167D01*
X82392667Y-45890833D01*
X18923000Y-151341667D02*
X18923000Y-150452667D01*
X19134666Y-150452667D01*
X19261666Y-150495000D01*
X19346333Y-150579667D01*
X19388666Y-150664333D01*
X19431000Y-150833667D01*
X19431000Y-150960667D01*
X19388666Y-151130000D01*
X19346333Y-151214667D01*
X19261666Y-151299333D01*
X19134666Y-151341667D01*
X18923000Y-151341667D01*
X19769666Y-150537333D02*
X19812000Y-150495000D01*
X19896666Y-150452667D01*
X20108333Y-150452667D01*
X20193000Y-150495000D01*
X20235333Y-150537333D01*
X20277666Y-150622000D01*
X20277666Y-150706667D01*
X20235333Y-150833667D01*
X19727333Y-151341667D01*
X20277666Y-151341667D01*
X20701000Y-151341667D02*
X20870333Y-151341667D01*
X20955000Y-151299333D01*
X20997333Y-151257000D01*
X21082000Y-151130000D01*
X21124333Y-150960667D01*
X21124333Y-150622000D01*
X21082000Y-150537333D01*
X21039667Y-150495000D01*
X20955000Y-150452667D01*
X20785667Y-150452667D01*
X20701000Y-150495000D01*
X20658667Y-150537333D01*
X20616333Y-150622000D01*
X20616333Y-150833667D01*
X20658667Y-150918333D01*
X20701000Y-150960667D01*
X20785667Y-151003000D01*
X20955000Y-151003000D01*
X21039667Y-150960667D01*
X21082000Y-150918333D01*
X21124333Y-150833667D01*
X17667167Y-151502167D02*
X17667167Y-150613167D01*
X17878833Y-150613167D01*
X18005833Y-150655500D01*
X18090500Y-150740167D01*
X18132833Y-150824833D01*
X18175167Y-150994167D01*
X18175167Y-151121167D01*
X18132833Y-151290500D01*
X18090500Y-151375167D01*
X18005833Y-151459833D01*
X17878833Y-151502167D01*
X17667167Y-151502167D01*
X40513000Y-151341667D02*
X40513000Y-150452667D01*
X40724666Y-150452667D01*
X40851666Y-150495000D01*
X40936333Y-150579667D01*
X40978666Y-150664333D01*
X41021000Y-150833667D01*
X41021000Y-150960667D01*
X40978666Y-151130000D01*
X40936333Y-151214667D01*
X40851666Y-151299333D01*
X40724666Y-151341667D01*
X40513000Y-151341667D01*
X41317333Y-150452667D02*
X41867666Y-150452667D01*
X41571333Y-150791333D01*
X41698333Y-150791333D01*
X41783000Y-150833667D01*
X41825333Y-150876000D01*
X41867666Y-150960667D01*
X41867666Y-151172333D01*
X41825333Y-151257000D01*
X41783000Y-151299333D01*
X41698333Y-151341667D01*
X41444333Y-151341667D01*
X41359666Y-151299333D01*
X41317333Y-151257000D01*
X42418000Y-150452667D02*
X42502667Y-150452667D01*
X42587333Y-150495000D01*
X42629667Y-150537333D01*
X42672000Y-150622000D01*
X42714333Y-150791333D01*
X42714333Y-151003000D01*
X42672000Y-151172333D01*
X42629667Y-151257000D01*
X42587333Y-151299333D01*
X42502667Y-151341667D01*
X42418000Y-151341667D01*
X42333333Y-151299333D01*
X42291000Y-151257000D01*
X42248667Y-151172333D01*
X42206333Y-151003000D01*
X42206333Y-150791333D01*
X42248667Y-150622000D01*
X42291000Y-150537333D01*
X42333333Y-150495000D01*
X42418000Y-150452667D01*
X39467167Y-151302167D02*
X39467167Y-150413167D01*
X39678833Y-150413167D01*
X39805833Y-150455500D01*
X39890500Y-150540167D01*
X39932833Y-150624833D01*
X39975167Y-150794167D01*
X39975167Y-150921167D01*
X39932833Y-151090500D01*
X39890500Y-151175167D01*
X39805833Y-151259833D01*
X39678833Y-151302167D01*
X39467167Y-151302167D01*
X66220500Y-151502167D02*
X66220500Y-150613167D01*
X66432166Y-150613167D01*
X66559166Y-150655500D01*
X66643833Y-150740167D01*
X66686166Y-150824833D01*
X66728500Y-150994167D01*
X66728500Y-151121167D01*
X66686166Y-151290500D01*
X66643833Y-151375167D01*
X66559166Y-151459833D01*
X66432166Y-151502167D01*
X66220500Y-151502167D01*
X67024833Y-150613167D02*
X67575166Y-150613167D01*
X67278833Y-150951833D01*
X67405833Y-150951833D01*
X67490500Y-150994167D01*
X67532833Y-151036500D01*
X67575166Y-151121167D01*
X67575166Y-151332833D01*
X67532833Y-151417500D01*
X67490500Y-151459833D01*
X67405833Y-151502167D01*
X67151833Y-151502167D01*
X67067166Y-151459833D01*
X67024833Y-151417500D01*
X68421833Y-151502167D02*
X67913833Y-151502167D01*
X68167833Y-151502167D02*
X68167833Y-150613167D01*
X68083167Y-150740167D01*
X67998500Y-150824833D01*
X67913833Y-150867167D01*
X64767167Y-151402167D02*
X64767167Y-150513167D01*
X64978833Y-150513167D01*
X65105833Y-150555500D01*
X65190500Y-150640167D01*
X65232833Y-150724833D01*
X65275167Y-150894167D01*
X65275167Y-151021167D01*
X65232833Y-151190500D01*
X65190500Y-151275167D01*
X65105833Y-151359833D01*
X64978833Y-151402167D01*
X64767167Y-151402167D01*
X95215000Y-151402167D02*
X95215000Y-150513167D01*
X95426666Y-150513167D01*
X95553666Y-150555500D01*
X95638333Y-150640167D01*
X95680666Y-150724833D01*
X95723000Y-150894167D01*
X95723000Y-151021167D01*
X95680666Y-151190500D01*
X95638333Y-151275167D01*
X95553666Y-151359833D01*
X95426666Y-151402167D01*
X95215000Y-151402167D01*
X96019333Y-150513167D02*
X96569666Y-150513167D01*
X96273333Y-150851833D01*
X96400333Y-150851833D01*
X96485000Y-150894167D01*
X96527333Y-150936500D01*
X96569666Y-151021167D01*
X96569666Y-151232833D01*
X96527333Y-151317500D01*
X96485000Y-151359833D01*
X96400333Y-151402167D01*
X96146333Y-151402167D01*
X96061666Y-151359833D01*
X96019333Y-151317500D01*
X96908333Y-150597833D02*
X96950667Y-150555500D01*
X97035333Y-150513167D01*
X97247000Y-150513167D01*
X97331667Y-150555500D01*
X97374000Y-150597833D01*
X97416333Y-150682500D01*
X97416333Y-150767167D01*
X97374000Y-150894167D01*
X96866000Y-151402167D01*
X97416333Y-151402167D01*
X93867167Y-151402167D02*
X93867167Y-150513167D01*
X94078833Y-150513167D01*
X94205833Y-150555500D01*
X94290500Y-150640167D01*
X94332833Y-150724833D01*
X94375167Y-150894167D01*
X94375167Y-151021167D01*
X94332833Y-151190500D01*
X94290500Y-151275167D01*
X94205833Y-151359833D01*
X94078833Y-151402167D01*
X93867167Y-151402167D01*
X19168666Y-36959833D02*
X19295666Y-37002167D01*
X19507333Y-37002167D01*
X19592000Y-36959833D01*
X19634333Y-36917500D01*
X19676666Y-36832833D01*
X19676666Y-36748167D01*
X19634333Y-36663500D01*
X19592000Y-36621167D01*
X19507333Y-36578833D01*
X19338000Y-36536500D01*
X19253333Y-36494167D01*
X19211000Y-36451833D01*
X19168666Y-36367167D01*
X19168666Y-36282500D01*
X19211000Y-36197833D01*
X19253333Y-36155500D01*
X19338000Y-36113167D01*
X19549666Y-36113167D01*
X19676666Y-36155500D01*
X19973000Y-36113167D02*
X20184667Y-37002167D01*
X20354000Y-36367167D01*
X20523333Y-37002167D01*
X20735000Y-36113167D01*
X20989000Y-36113167D02*
X21539333Y-36113167D01*
X21243000Y-36451833D01*
X21370000Y-36451833D01*
X21454667Y-36494167D01*
X21497000Y-36536500D01*
X21539333Y-36621167D01*
X21539333Y-36832833D01*
X21497000Y-36917500D01*
X21454667Y-36959833D01*
X21370000Y-37002167D01*
X21116000Y-37002167D01*
X21031333Y-36959833D01*
X20989000Y-36917500D01*
D17*
X18282690Y-40389024D02*
X18373405Y-40419262D01*
X18524595Y-40419262D01*
X18585071Y-40389024D01*
X18615309Y-40358786D01*
X18645548Y-40298310D01*
X18645548Y-40237833D01*
X18615309Y-40177357D01*
X18585071Y-40147119D01*
X18524595Y-40116881D01*
X18403643Y-40086643D01*
X18343167Y-40056405D01*
X18312928Y-40026167D01*
X18282690Y-39965690D01*
X18282690Y-39905214D01*
X18312928Y-39844738D01*
X18343167Y-39814500D01*
X18403643Y-39784262D01*
X18554833Y-39784262D01*
X18645548Y-39814500D01*
X18857214Y-39784262D02*
X19008405Y-40419262D01*
X19129357Y-39965690D01*
X19250310Y-40419262D01*
X19401500Y-39784262D01*
X19492214Y-40479738D02*
X19976024Y-40479738D01*
X20127214Y-40419262D02*
X20127214Y-39784262D01*
X20369119Y-39784262D01*
X20429595Y-39814500D01*
X20459834Y-39844738D01*
X20490072Y-39905214D01*
X20490072Y-39995929D01*
X20459834Y-40056405D01*
X20429595Y-40086643D01*
X20369119Y-40116881D01*
X20127214Y-40116881D01*
X20762214Y-39784262D02*
X20762214Y-40298310D01*
X20792453Y-40358786D01*
X20822691Y-40389024D01*
X20883167Y-40419262D01*
X21004119Y-40419262D01*
X21064595Y-40389024D01*
X21094834Y-40358786D01*
X21125072Y-40298310D01*
X21125072Y-39784262D01*
X21397214Y-40389024D02*
X21487929Y-40419262D01*
X21639119Y-40419262D01*
X21699595Y-40389024D01*
X21729833Y-40358786D01*
X21760072Y-40298310D01*
X21760072Y-40237833D01*
X21729833Y-40177357D01*
X21699595Y-40147119D01*
X21639119Y-40116881D01*
X21518167Y-40086643D01*
X21457691Y-40056405D01*
X21427452Y-40026167D01*
X21397214Y-39965690D01*
X21397214Y-39905214D01*
X21427452Y-39844738D01*
X21457691Y-39814500D01*
X21518167Y-39784262D01*
X21669357Y-39784262D01*
X21760072Y-39814500D01*
X22032214Y-40419262D02*
X22032214Y-39784262D01*
X22032214Y-40086643D02*
X22395072Y-40086643D01*
X22395072Y-40419262D02*
X22395072Y-39784262D01*
D16*
X44168666Y-36959833D02*
X44295666Y-37002167D01*
X44507333Y-37002167D01*
X44592000Y-36959833D01*
X44634333Y-36917500D01*
X44676666Y-36832833D01*
X44676666Y-36748167D01*
X44634333Y-36663500D01*
X44592000Y-36621167D01*
X44507333Y-36578833D01*
X44338000Y-36536500D01*
X44253333Y-36494167D01*
X44211000Y-36451833D01*
X44168666Y-36367167D01*
X44168666Y-36282500D01*
X44211000Y-36197833D01*
X44253333Y-36155500D01*
X44338000Y-36113167D01*
X44549666Y-36113167D01*
X44676666Y-36155500D01*
X44973000Y-36113167D02*
X45184667Y-37002167D01*
X45354000Y-36367167D01*
X45523333Y-37002167D01*
X45735000Y-36113167D01*
X46454667Y-36409500D02*
X46454667Y-37002167D01*
X46243000Y-36070833D02*
X46031333Y-36705833D01*
X46581667Y-36705833D01*
D17*
X43282690Y-40957024D02*
X43373405Y-40987262D01*
X43524595Y-40987262D01*
X43585071Y-40957024D01*
X43615309Y-40926786D01*
X43645548Y-40866310D01*
X43645548Y-40805833D01*
X43615309Y-40745357D01*
X43585071Y-40715119D01*
X43524595Y-40684881D01*
X43403643Y-40654643D01*
X43343167Y-40624405D01*
X43312928Y-40594167D01*
X43282690Y-40533690D01*
X43282690Y-40473214D01*
X43312928Y-40412738D01*
X43343167Y-40382500D01*
X43403643Y-40352262D01*
X43554833Y-40352262D01*
X43645548Y-40382500D01*
X43857214Y-40352262D02*
X44008405Y-40987262D01*
X44129357Y-40533690D01*
X44250310Y-40987262D01*
X44401500Y-40352262D01*
X44492214Y-41047738D02*
X44976024Y-41047738D01*
X45127214Y-40987262D02*
X45127214Y-40352262D01*
X45369119Y-40352262D01*
X45429595Y-40382500D01*
X45459834Y-40412738D01*
X45490072Y-40473214D01*
X45490072Y-40563929D01*
X45459834Y-40624405D01*
X45429595Y-40654643D01*
X45369119Y-40684881D01*
X45127214Y-40684881D01*
X45762214Y-40352262D02*
X45762214Y-40866310D01*
X45792453Y-40926786D01*
X45822691Y-40957024D01*
X45883167Y-40987262D01*
X46004119Y-40987262D01*
X46064595Y-40957024D01*
X46094834Y-40926786D01*
X46125072Y-40866310D01*
X46125072Y-40352262D01*
X46397214Y-40957024D02*
X46487929Y-40987262D01*
X46639119Y-40987262D01*
X46699595Y-40957024D01*
X46729833Y-40926786D01*
X46760072Y-40866310D01*
X46760072Y-40805833D01*
X46729833Y-40745357D01*
X46699595Y-40715119D01*
X46639119Y-40684881D01*
X46518167Y-40654643D01*
X46457691Y-40624405D01*
X46427452Y-40594167D01*
X46397214Y-40533690D01*
X46397214Y-40473214D01*
X46427452Y-40412738D01*
X46457691Y-40382500D01*
X46518167Y-40352262D01*
X46669357Y-40352262D01*
X46760072Y-40382500D01*
X47032214Y-40987262D02*
X47032214Y-40352262D01*
X47032214Y-40654643D02*
X47395072Y-40654643D01*
X47395072Y-40987262D02*
X47395072Y-40352262D01*
D16*
X69168666Y-36959833D02*
X69295666Y-37002167D01*
X69507333Y-37002167D01*
X69592000Y-36959833D01*
X69634333Y-36917500D01*
X69676666Y-36832833D01*
X69676666Y-36748167D01*
X69634333Y-36663500D01*
X69592000Y-36621167D01*
X69507333Y-36578833D01*
X69338000Y-36536500D01*
X69253333Y-36494167D01*
X69211000Y-36451833D01*
X69168666Y-36367167D01*
X69168666Y-36282500D01*
X69211000Y-36197833D01*
X69253333Y-36155500D01*
X69338000Y-36113167D01*
X69549666Y-36113167D01*
X69676666Y-36155500D01*
X69973000Y-36113167D02*
X70184667Y-37002167D01*
X70354000Y-36367167D01*
X70523333Y-37002167D01*
X70735000Y-36113167D01*
X71497000Y-36113167D02*
X71073667Y-36113167D01*
X71031333Y-36536500D01*
X71073667Y-36494167D01*
X71158333Y-36451833D01*
X71370000Y-36451833D01*
X71454667Y-36494167D01*
X71497000Y-36536500D01*
X71539333Y-36621167D01*
X71539333Y-36832833D01*
X71497000Y-36917500D01*
X71454667Y-36959833D01*
X71370000Y-37002167D01*
X71158333Y-37002167D01*
X71073667Y-36959833D01*
X71031333Y-36917500D01*
D17*
X68282690Y-40389024D02*
X68373405Y-40419262D01*
X68524595Y-40419262D01*
X68585071Y-40389024D01*
X68615309Y-40358786D01*
X68645548Y-40298310D01*
X68645548Y-40237833D01*
X68615309Y-40177357D01*
X68585071Y-40147119D01*
X68524595Y-40116881D01*
X68403643Y-40086643D01*
X68343167Y-40056405D01*
X68312928Y-40026167D01*
X68282690Y-39965690D01*
X68282690Y-39905214D01*
X68312928Y-39844738D01*
X68343167Y-39814500D01*
X68403643Y-39784262D01*
X68554833Y-39784262D01*
X68645548Y-39814500D01*
X68857214Y-39784262D02*
X69008405Y-40419262D01*
X69129357Y-39965690D01*
X69250310Y-40419262D01*
X69401500Y-39784262D01*
X69492214Y-40479738D02*
X69976024Y-40479738D01*
X70127214Y-40419262D02*
X70127214Y-39784262D01*
X70369119Y-39784262D01*
X70429595Y-39814500D01*
X70459834Y-39844738D01*
X70490072Y-39905214D01*
X70490072Y-39995929D01*
X70459834Y-40056405D01*
X70429595Y-40086643D01*
X70369119Y-40116881D01*
X70127214Y-40116881D01*
X70762214Y-39784262D02*
X70762214Y-40298310D01*
X70792453Y-40358786D01*
X70822691Y-40389024D01*
X70883167Y-40419262D01*
X71004119Y-40419262D01*
X71064595Y-40389024D01*
X71094834Y-40358786D01*
X71125072Y-40298310D01*
X71125072Y-39784262D01*
X71397214Y-40389024D02*
X71487929Y-40419262D01*
X71639119Y-40419262D01*
X71699595Y-40389024D01*
X71729833Y-40358786D01*
X71760072Y-40298310D01*
X71760072Y-40237833D01*
X71729833Y-40177357D01*
X71699595Y-40147119D01*
X71639119Y-40116881D01*
X71518167Y-40086643D01*
X71457691Y-40056405D01*
X71427452Y-40026167D01*
X71397214Y-39965690D01*
X71397214Y-39905214D01*
X71427452Y-39844738D01*
X71457691Y-39814500D01*
X71518167Y-39784262D01*
X71669357Y-39784262D01*
X71760072Y-39814500D01*
X72032214Y-40419262D02*
X72032214Y-39784262D01*
X72032214Y-40086643D02*
X72395072Y-40086643D01*
X72395072Y-40419262D02*
X72395072Y-39784262D01*
D16*
X94168666Y-36959833D02*
X94295666Y-37002167D01*
X94507333Y-37002167D01*
X94592000Y-36959833D01*
X94634333Y-36917500D01*
X94676666Y-36832833D01*
X94676666Y-36748167D01*
X94634333Y-36663500D01*
X94592000Y-36621167D01*
X94507333Y-36578833D01*
X94338000Y-36536500D01*
X94253333Y-36494167D01*
X94211000Y-36451833D01*
X94168666Y-36367167D01*
X94168666Y-36282500D01*
X94211000Y-36197833D01*
X94253333Y-36155500D01*
X94338000Y-36113167D01*
X94549666Y-36113167D01*
X94676666Y-36155500D01*
X94973000Y-36113167D02*
X95184667Y-37002167D01*
X95354000Y-36367167D01*
X95523333Y-37002167D01*
X95735000Y-36113167D01*
X96454667Y-36113167D02*
X96285333Y-36113167D01*
X96200667Y-36155500D01*
X96158333Y-36197833D01*
X96073667Y-36324833D01*
X96031333Y-36494167D01*
X96031333Y-36832833D01*
X96073667Y-36917500D01*
X96116000Y-36959833D01*
X96200667Y-37002167D01*
X96370000Y-37002167D01*
X96454667Y-36959833D01*
X96497000Y-36917500D01*
X96539333Y-36832833D01*
X96539333Y-36621167D01*
X96497000Y-36536500D01*
X96454667Y-36494167D01*
X96370000Y-36451833D01*
X96200667Y-36451833D01*
X96116000Y-36494167D01*
X96073667Y-36536500D01*
X96031333Y-36621167D01*
D17*
X93282690Y-40957024D02*
X93373405Y-40987262D01*
X93524595Y-40987262D01*
X93585071Y-40957024D01*
X93615309Y-40926786D01*
X93645548Y-40866310D01*
X93645548Y-40805833D01*
X93615309Y-40745357D01*
X93585071Y-40715119D01*
X93524595Y-40684881D01*
X93403643Y-40654643D01*
X93343167Y-40624405D01*
X93312928Y-40594167D01*
X93282690Y-40533690D01*
X93282690Y-40473214D01*
X93312928Y-40412738D01*
X93343167Y-40382500D01*
X93403643Y-40352262D01*
X93554833Y-40352262D01*
X93645548Y-40382500D01*
X93857214Y-40352262D02*
X94008405Y-40987262D01*
X94129357Y-40533690D01*
X94250310Y-40987262D01*
X94401500Y-40352262D01*
X94492214Y-41047738D02*
X94976024Y-41047738D01*
X95127214Y-40987262D02*
X95127214Y-40352262D01*
X95369119Y-40352262D01*
X95429595Y-40382500D01*
X95459834Y-40412738D01*
X95490072Y-40473214D01*
X95490072Y-40563929D01*
X95459834Y-40624405D01*
X95429595Y-40654643D01*
X95369119Y-40684881D01*
X95127214Y-40684881D01*
X95762214Y-40352262D02*
X95762214Y-40866310D01*
X95792453Y-40926786D01*
X95822691Y-40957024D01*
X95883167Y-40987262D01*
X96004119Y-40987262D01*
X96064595Y-40957024D01*
X96094834Y-40926786D01*
X96125072Y-40866310D01*
X96125072Y-40352262D01*
X96397214Y-40957024D02*
X96487929Y-40987262D01*
X96639119Y-40987262D01*
X96699595Y-40957024D01*
X96729833Y-40926786D01*
X96760072Y-40866310D01*
X96760072Y-40805833D01*
X96729833Y-40745357D01*
X96699595Y-40715119D01*
X96639119Y-40684881D01*
X96518167Y-40654643D01*
X96457691Y-40624405D01*
X96427452Y-40594167D01*
X96397214Y-40533690D01*
X96397214Y-40473214D01*
X96427452Y-40412738D01*
X96457691Y-40382500D01*
X96518167Y-40352262D01*
X96669357Y-40352262D01*
X96760072Y-40382500D01*
X97032214Y-40987262D02*
X97032214Y-40352262D01*
X97032214Y-40654643D02*
X97395072Y-40654643D01*
X97395072Y-40987262D02*
X97395072Y-40352262D01*
D16*
X19168666Y-44459833D02*
X19295666Y-44502167D01*
X19507333Y-44502167D01*
X19592000Y-44459833D01*
X19634333Y-44417500D01*
X19676666Y-44332833D01*
X19676666Y-44248167D01*
X19634333Y-44163500D01*
X19592000Y-44121167D01*
X19507333Y-44078833D01*
X19338000Y-44036500D01*
X19253333Y-43994167D01*
X19211000Y-43951833D01*
X19168666Y-43867167D01*
X19168666Y-43782500D01*
X19211000Y-43697833D01*
X19253333Y-43655500D01*
X19338000Y-43613167D01*
X19549666Y-43613167D01*
X19676666Y-43655500D01*
X19973000Y-43613167D02*
X20184667Y-44502167D01*
X20354000Y-43867167D01*
X20523333Y-44502167D01*
X20735000Y-43613167D01*
X20989000Y-43613167D02*
X21581667Y-43613167D01*
X21200667Y-44502167D01*
D17*
X18282690Y-48457024D02*
X18373405Y-48487262D01*
X18524595Y-48487262D01*
X18585071Y-48457024D01*
X18615309Y-48426786D01*
X18645548Y-48366310D01*
X18645548Y-48305833D01*
X18615309Y-48245357D01*
X18585071Y-48215119D01*
X18524595Y-48184881D01*
X18403643Y-48154643D01*
X18343167Y-48124405D01*
X18312928Y-48094167D01*
X18282690Y-48033690D01*
X18282690Y-47973214D01*
X18312928Y-47912738D01*
X18343167Y-47882500D01*
X18403643Y-47852262D01*
X18554833Y-47852262D01*
X18645548Y-47882500D01*
X18857214Y-47852262D02*
X19008405Y-48487262D01*
X19129357Y-48033690D01*
X19250310Y-48487262D01*
X19401500Y-47852262D01*
X19492214Y-48547738D02*
X19976024Y-48547738D01*
X20127214Y-48487262D02*
X20127214Y-47852262D01*
X20369119Y-47852262D01*
X20429595Y-47882500D01*
X20459834Y-47912738D01*
X20490072Y-47973214D01*
X20490072Y-48063929D01*
X20459834Y-48124405D01*
X20429595Y-48154643D01*
X20369119Y-48184881D01*
X20127214Y-48184881D01*
X20762214Y-47852262D02*
X20762214Y-48366310D01*
X20792453Y-48426786D01*
X20822691Y-48457024D01*
X20883167Y-48487262D01*
X21004119Y-48487262D01*
X21064595Y-48457024D01*
X21094834Y-48426786D01*
X21125072Y-48366310D01*
X21125072Y-47852262D01*
X21397214Y-48457024D02*
X21487929Y-48487262D01*
X21639119Y-48487262D01*
X21699595Y-48457024D01*
X21729833Y-48426786D01*
X21760072Y-48366310D01*
X21760072Y-48305833D01*
X21729833Y-48245357D01*
X21699595Y-48215119D01*
X21639119Y-48184881D01*
X21518167Y-48154643D01*
X21457691Y-48124405D01*
X21427452Y-48094167D01*
X21397214Y-48033690D01*
X21397214Y-47973214D01*
X21427452Y-47912738D01*
X21457691Y-47882500D01*
X21518167Y-47852262D01*
X21669357Y-47852262D01*
X21760072Y-47882500D01*
X22032214Y-48487262D02*
X22032214Y-47852262D01*
X22032214Y-48154643D02*
X22395072Y-48154643D01*
X22395072Y-48487262D02*
X22395072Y-47852262D01*
D16*
X44168666Y-44555833D02*
X44295666Y-44598167D01*
X44507333Y-44598167D01*
X44592000Y-44555833D01*
X44634333Y-44513500D01*
X44676666Y-44428833D01*
X44676666Y-44344167D01*
X44634333Y-44259500D01*
X44592000Y-44217167D01*
X44507333Y-44174833D01*
X44338000Y-44132500D01*
X44253333Y-44090167D01*
X44211000Y-44047833D01*
X44168666Y-43963167D01*
X44168666Y-43878500D01*
X44211000Y-43793833D01*
X44253333Y-43751500D01*
X44338000Y-43709167D01*
X44549666Y-43709167D01*
X44676666Y-43751500D01*
X44973000Y-43709167D02*
X45184667Y-44598167D01*
X45354000Y-43963167D01*
X45523333Y-44598167D01*
X45735000Y-43709167D01*
X46200667Y-44090167D02*
X46116000Y-44047833D01*
X46073667Y-44005500D01*
X46031333Y-43920833D01*
X46031333Y-43878500D01*
X46073667Y-43793833D01*
X46116000Y-43751500D01*
X46200667Y-43709167D01*
X46370000Y-43709167D01*
X46454667Y-43751500D01*
X46497000Y-43793833D01*
X46539333Y-43878500D01*
X46539333Y-43920833D01*
X46497000Y-44005500D01*
X46454667Y-44047833D01*
X46370000Y-44090167D01*
X46200667Y-44090167D01*
X46116000Y-44132500D01*
X46073667Y-44174833D01*
X46031333Y-44259500D01*
X46031333Y-44428833D01*
X46073667Y-44513500D01*
X46116000Y-44555833D01*
X46200667Y-44598167D01*
X46370000Y-44598167D01*
X46454667Y-44555833D01*
X46497000Y-44513500D01*
X46539333Y-44428833D01*
X46539333Y-44259500D01*
X46497000Y-44174833D01*
X46454667Y-44132500D01*
X46370000Y-44090167D01*
D17*
X43282690Y-48009024D02*
X43373405Y-48039262D01*
X43524595Y-48039262D01*
X43585071Y-48009024D01*
X43615309Y-47978786D01*
X43645548Y-47918310D01*
X43645548Y-47857833D01*
X43615309Y-47797357D01*
X43585071Y-47767119D01*
X43524595Y-47736881D01*
X43403643Y-47706643D01*
X43343167Y-47676405D01*
X43312928Y-47646167D01*
X43282690Y-47585690D01*
X43282690Y-47525214D01*
X43312928Y-47464738D01*
X43343167Y-47434500D01*
X43403643Y-47404262D01*
X43554833Y-47404262D01*
X43645548Y-47434500D01*
X43857214Y-47404262D02*
X44008405Y-48039262D01*
X44129357Y-47585690D01*
X44250310Y-48039262D01*
X44401500Y-47404262D01*
X44492214Y-48099738D02*
X44976024Y-48099738D01*
X45127214Y-48039262D02*
X45127214Y-47404262D01*
X45369119Y-47404262D01*
X45429595Y-47434500D01*
X45459834Y-47464738D01*
X45490072Y-47525214D01*
X45490072Y-47615929D01*
X45459834Y-47676405D01*
X45429595Y-47706643D01*
X45369119Y-47736881D01*
X45127214Y-47736881D01*
X45762214Y-47404262D02*
X45762214Y-47918310D01*
X45792453Y-47978786D01*
X45822691Y-48009024D01*
X45883167Y-48039262D01*
X46004119Y-48039262D01*
X46064595Y-48009024D01*
X46094834Y-47978786D01*
X46125072Y-47918310D01*
X46125072Y-47404262D01*
X46397214Y-48009024D02*
X46487929Y-48039262D01*
X46639119Y-48039262D01*
X46699595Y-48009024D01*
X46729833Y-47978786D01*
X46760072Y-47918310D01*
X46760072Y-47857833D01*
X46729833Y-47797357D01*
X46699595Y-47767119D01*
X46639119Y-47736881D01*
X46518167Y-47706643D01*
X46457691Y-47676405D01*
X46427452Y-47646167D01*
X46397214Y-47585690D01*
X46397214Y-47525214D01*
X46427452Y-47464738D01*
X46457691Y-47434500D01*
X46518167Y-47404262D01*
X46669357Y-47404262D01*
X46760072Y-47434500D01*
X47032214Y-48039262D02*
X47032214Y-47404262D01*
X47032214Y-47706643D02*
X47395072Y-47706643D01*
X47395072Y-48039262D02*
X47395072Y-47404262D01*
D16*
X69168666Y-44459833D02*
X69295666Y-44502167D01*
X69507333Y-44502167D01*
X69592000Y-44459833D01*
X69634333Y-44417500D01*
X69676666Y-44332833D01*
X69676666Y-44248167D01*
X69634333Y-44163500D01*
X69592000Y-44121167D01*
X69507333Y-44078833D01*
X69338000Y-44036500D01*
X69253333Y-43994167D01*
X69211000Y-43951833D01*
X69168666Y-43867167D01*
X69168666Y-43782500D01*
X69211000Y-43697833D01*
X69253333Y-43655500D01*
X69338000Y-43613167D01*
X69549666Y-43613167D01*
X69676666Y-43655500D01*
X69973000Y-43613167D02*
X70184667Y-44502167D01*
X70354000Y-43867167D01*
X70523333Y-44502167D01*
X70735000Y-43613167D01*
X71116000Y-44502167D02*
X71285333Y-44502167D01*
X71370000Y-44459833D01*
X71412333Y-44417500D01*
X71497000Y-44290500D01*
X71539333Y-44121167D01*
X71539333Y-43782500D01*
X71497000Y-43697833D01*
X71454667Y-43655500D01*
X71370000Y-43613167D01*
X71200667Y-43613167D01*
X71116000Y-43655500D01*
X71073667Y-43697833D01*
X71031333Y-43782500D01*
X71031333Y-43994167D01*
X71073667Y-44078833D01*
X71116000Y-44121167D01*
X71200667Y-44163500D01*
X71370000Y-44163500D01*
X71454667Y-44121167D01*
X71497000Y-44078833D01*
X71539333Y-43994167D01*
D17*
X68282690Y-47501024D02*
X68373405Y-47531262D01*
X68524595Y-47531262D01*
X68585071Y-47501024D01*
X68615309Y-47470786D01*
X68645548Y-47410310D01*
X68645548Y-47349833D01*
X68615309Y-47289357D01*
X68585071Y-47259119D01*
X68524595Y-47228881D01*
X68403643Y-47198643D01*
X68343167Y-47168405D01*
X68312928Y-47138167D01*
X68282690Y-47077690D01*
X68282690Y-47017214D01*
X68312928Y-46956738D01*
X68343167Y-46926500D01*
X68403643Y-46896262D01*
X68554833Y-46896262D01*
X68645548Y-46926500D01*
X68857214Y-46896262D02*
X69008405Y-47531262D01*
X69129357Y-47077690D01*
X69250310Y-47531262D01*
X69401500Y-46896262D01*
X69492214Y-47591738D02*
X69976024Y-47591738D01*
X70127214Y-47531262D02*
X70127214Y-46896262D01*
X70369119Y-46896262D01*
X70429595Y-46926500D01*
X70459834Y-46956738D01*
X70490072Y-47017214D01*
X70490072Y-47107929D01*
X70459834Y-47168405D01*
X70429595Y-47198643D01*
X70369119Y-47228881D01*
X70127214Y-47228881D01*
X70762214Y-46896262D02*
X70762214Y-47410310D01*
X70792453Y-47470786D01*
X70822691Y-47501024D01*
X70883167Y-47531262D01*
X71004119Y-47531262D01*
X71064595Y-47501024D01*
X71094834Y-47470786D01*
X71125072Y-47410310D01*
X71125072Y-46896262D01*
X71397214Y-47501024D02*
X71487929Y-47531262D01*
X71639119Y-47531262D01*
X71699595Y-47501024D01*
X71729833Y-47470786D01*
X71760072Y-47410310D01*
X71760072Y-47349833D01*
X71729833Y-47289357D01*
X71699595Y-47259119D01*
X71639119Y-47228881D01*
X71518167Y-47198643D01*
X71457691Y-47168405D01*
X71427452Y-47138167D01*
X71397214Y-47077690D01*
X71397214Y-47017214D01*
X71427452Y-46956738D01*
X71457691Y-46926500D01*
X71518167Y-46896262D01*
X71669357Y-46896262D01*
X71760072Y-46926500D01*
X72032214Y-47531262D02*
X72032214Y-46896262D01*
X72032214Y-47198643D02*
X72395072Y-47198643D01*
X72395072Y-47531262D02*
X72395072Y-46896262D01*
D16*
X93722333Y-44459833D02*
X93849333Y-44502167D01*
X94061000Y-44502167D01*
X94145667Y-44459833D01*
X94188000Y-44417500D01*
X94230333Y-44332833D01*
X94230333Y-44248167D01*
X94188000Y-44163500D01*
X94145667Y-44121167D01*
X94061000Y-44078833D01*
X93891667Y-44036500D01*
X93807000Y-43994167D01*
X93764667Y-43951833D01*
X93722333Y-43867167D01*
X93722333Y-43782500D01*
X93764667Y-43697833D01*
X93807000Y-43655500D01*
X93891667Y-43613167D01*
X94103333Y-43613167D01*
X94230333Y-43655500D01*
X94526667Y-43613167D02*
X94738334Y-44502167D01*
X94907667Y-43867167D01*
X95077000Y-44502167D01*
X95288667Y-43613167D01*
X96093000Y-44502167D02*
X95585000Y-44502167D01*
X95839000Y-44502167D02*
X95839000Y-43613167D01*
X95754334Y-43740167D01*
X95669667Y-43824833D01*
X95585000Y-43867167D01*
X96643334Y-43613167D02*
X96728001Y-43613167D01*
X96812667Y-43655500D01*
X96855001Y-43697833D01*
X96897334Y-43782500D01*
X96939667Y-43951833D01*
X96939667Y-44163500D01*
X96897334Y-44332833D01*
X96855001Y-44417500D01*
X96812667Y-44459833D01*
X96728001Y-44502167D01*
X96643334Y-44502167D01*
X96558667Y-44459833D01*
X96516334Y-44417500D01*
X96474001Y-44332833D01*
X96431667Y-44163500D01*
X96431667Y-43951833D01*
X96474001Y-43782500D01*
X96516334Y-43697833D01*
X96558667Y-43655500D01*
X96643334Y-43613167D01*
D17*
X93178690Y-48457024D02*
X93269405Y-48487262D01*
X93420595Y-48487262D01*
X93481071Y-48457024D01*
X93511309Y-48426786D01*
X93541548Y-48366310D01*
X93541548Y-48305833D01*
X93511309Y-48245357D01*
X93481071Y-48215119D01*
X93420595Y-48184881D01*
X93299643Y-48154643D01*
X93239167Y-48124405D01*
X93208928Y-48094167D01*
X93178690Y-48033690D01*
X93178690Y-47973214D01*
X93208928Y-47912738D01*
X93239167Y-47882500D01*
X93299643Y-47852262D01*
X93450833Y-47852262D01*
X93541548Y-47882500D01*
X93753214Y-47852262D02*
X93904405Y-48487262D01*
X94025357Y-48033690D01*
X94146310Y-48487262D01*
X94297500Y-47852262D01*
X94388214Y-48547738D02*
X94872024Y-48547738D01*
X95023214Y-48487262D02*
X95023214Y-47852262D01*
X95265119Y-47852262D01*
X95325595Y-47882500D01*
X95355834Y-47912738D01*
X95386072Y-47973214D01*
X95386072Y-48063929D01*
X95355834Y-48124405D01*
X95325595Y-48154643D01*
X95265119Y-48184881D01*
X95023214Y-48184881D01*
X95658214Y-47852262D02*
X95658214Y-48366310D01*
X95688453Y-48426786D01*
X95718691Y-48457024D01*
X95779167Y-48487262D01*
X95900119Y-48487262D01*
X95960595Y-48457024D01*
X95990834Y-48426786D01*
X96021072Y-48366310D01*
X96021072Y-47852262D01*
X96293214Y-48457024D02*
X96383929Y-48487262D01*
X96535119Y-48487262D01*
X96595595Y-48457024D01*
X96625833Y-48426786D01*
X96656072Y-48366310D01*
X96656072Y-48305833D01*
X96625833Y-48245357D01*
X96595595Y-48215119D01*
X96535119Y-48184881D01*
X96414167Y-48154643D01*
X96353691Y-48124405D01*
X96323452Y-48094167D01*
X96293214Y-48033690D01*
X96293214Y-47973214D01*
X96323452Y-47912738D01*
X96353691Y-47882500D01*
X96414167Y-47852262D01*
X96565357Y-47852262D01*
X96656072Y-47882500D01*
X96928214Y-48487262D02*
X96928214Y-47852262D01*
X96928214Y-48154643D02*
X97291072Y-48154643D01*
X97291072Y-48487262D02*
X97291072Y-47852262D01*
D16*
X18791333Y-161159833D02*
X18918333Y-161202167D01*
X19130000Y-161202167D01*
X19214667Y-161159833D01*
X19257000Y-161117500D01*
X19299333Y-161032833D01*
X19299333Y-160948167D01*
X19257000Y-160863500D01*
X19214667Y-160821167D01*
X19130000Y-160778833D01*
X18960667Y-160736500D01*
X18876000Y-160694167D01*
X18833667Y-160651833D01*
X18791333Y-160567167D01*
X18791333Y-160482500D01*
X18833667Y-160397833D01*
X18876000Y-160355500D01*
X18960667Y-160313167D01*
X19172333Y-160313167D01*
X19299333Y-160355500D01*
X19595667Y-160313167D02*
X19807334Y-161202167D01*
X19976667Y-160567167D01*
X20146000Y-161202167D01*
X20357667Y-160313167D01*
X21162000Y-161202167D02*
X20654000Y-161202167D01*
X20908000Y-161202167D02*
X20908000Y-160313167D01*
X20823334Y-160440167D01*
X20738667Y-160524833D01*
X20654000Y-160567167D01*
X22008667Y-161202167D02*
X21500667Y-161202167D01*
X21754667Y-161202167D02*
X21754667Y-160313167D01*
X21670001Y-160440167D01*
X21585334Y-160524833D01*
X21500667Y-160567167D01*
D17*
X18228690Y-162057024D02*
X18319405Y-162087262D01*
X18470595Y-162087262D01*
X18531071Y-162057024D01*
X18561309Y-162026786D01*
X18591548Y-161966310D01*
X18591548Y-161905833D01*
X18561309Y-161845357D01*
X18531071Y-161815119D01*
X18470595Y-161784881D01*
X18349643Y-161754643D01*
X18289167Y-161724405D01*
X18258928Y-161694167D01*
X18228690Y-161633690D01*
X18228690Y-161573214D01*
X18258928Y-161512738D01*
X18289167Y-161482500D01*
X18349643Y-161452262D01*
X18500833Y-161452262D01*
X18591548Y-161482500D01*
X18803214Y-161452262D02*
X18954405Y-162087262D01*
X19075357Y-161633690D01*
X19196310Y-162087262D01*
X19347500Y-161452262D01*
X19438214Y-162147738D02*
X19922024Y-162147738D01*
X20073214Y-162087262D02*
X20073214Y-161452262D01*
X20315119Y-161452262D01*
X20375595Y-161482500D01*
X20405834Y-161512738D01*
X20436072Y-161573214D01*
X20436072Y-161663929D01*
X20405834Y-161724405D01*
X20375595Y-161754643D01*
X20315119Y-161784881D01*
X20073214Y-161784881D01*
X20708214Y-161452262D02*
X20708214Y-161966310D01*
X20738453Y-162026786D01*
X20768691Y-162057024D01*
X20829167Y-162087262D01*
X20950119Y-162087262D01*
X21010595Y-162057024D01*
X21040834Y-162026786D01*
X21071072Y-161966310D01*
X21071072Y-161452262D01*
X21343214Y-162057024D02*
X21433929Y-162087262D01*
X21585119Y-162087262D01*
X21645595Y-162057024D01*
X21675833Y-162026786D01*
X21706072Y-161966310D01*
X21706072Y-161905833D01*
X21675833Y-161845357D01*
X21645595Y-161815119D01*
X21585119Y-161784881D01*
X21464167Y-161754643D01*
X21403691Y-161724405D01*
X21373452Y-161694167D01*
X21343214Y-161633690D01*
X21343214Y-161573214D01*
X21373452Y-161512738D01*
X21403691Y-161482500D01*
X21464167Y-161452262D01*
X21615357Y-161452262D01*
X21706072Y-161482500D01*
X21978214Y-162087262D02*
X21978214Y-161452262D01*
X21978214Y-161754643D02*
X22341072Y-161754643D01*
X22341072Y-162087262D02*
X22341072Y-161452262D01*
D16*
X43791333Y-161159833D02*
X43918333Y-161202167D01*
X44130000Y-161202167D01*
X44214667Y-161159833D01*
X44257000Y-161117500D01*
X44299333Y-161032833D01*
X44299333Y-160948167D01*
X44257000Y-160863500D01*
X44214667Y-160821167D01*
X44130000Y-160778833D01*
X43960667Y-160736500D01*
X43876000Y-160694167D01*
X43833667Y-160651833D01*
X43791333Y-160567167D01*
X43791333Y-160482500D01*
X43833667Y-160397833D01*
X43876000Y-160355500D01*
X43960667Y-160313167D01*
X44172333Y-160313167D01*
X44299333Y-160355500D01*
X44595667Y-160313167D02*
X44807334Y-161202167D01*
X44976667Y-160567167D01*
X45146000Y-161202167D01*
X45357667Y-160313167D01*
X46162000Y-161202167D02*
X45654000Y-161202167D01*
X45908000Y-161202167D02*
X45908000Y-160313167D01*
X45823334Y-160440167D01*
X45738667Y-160524833D01*
X45654000Y-160567167D01*
X46500667Y-160397833D02*
X46543001Y-160355500D01*
X46627667Y-160313167D01*
X46839334Y-160313167D01*
X46924001Y-160355500D01*
X46966334Y-160397833D01*
X47008667Y-160482500D01*
X47008667Y-160567167D01*
X46966334Y-160694167D01*
X46458334Y-161202167D01*
X47008667Y-161202167D01*
D17*
X43228690Y-162057024D02*
X43319405Y-162087262D01*
X43470595Y-162087262D01*
X43531071Y-162057024D01*
X43561309Y-162026786D01*
X43591548Y-161966310D01*
X43591548Y-161905833D01*
X43561309Y-161845357D01*
X43531071Y-161815119D01*
X43470595Y-161784881D01*
X43349643Y-161754643D01*
X43289167Y-161724405D01*
X43258928Y-161694167D01*
X43228690Y-161633690D01*
X43228690Y-161573214D01*
X43258928Y-161512738D01*
X43289167Y-161482500D01*
X43349643Y-161452262D01*
X43500833Y-161452262D01*
X43591548Y-161482500D01*
X43803214Y-161452262D02*
X43954405Y-162087262D01*
X44075357Y-161633690D01*
X44196310Y-162087262D01*
X44347500Y-161452262D01*
X44438214Y-162147738D02*
X44922024Y-162147738D01*
X45073214Y-162087262D02*
X45073214Y-161452262D01*
X45315119Y-161452262D01*
X45375595Y-161482500D01*
X45405834Y-161512738D01*
X45436072Y-161573214D01*
X45436072Y-161663929D01*
X45405834Y-161724405D01*
X45375595Y-161754643D01*
X45315119Y-161784881D01*
X45073214Y-161784881D01*
X45708214Y-161452262D02*
X45708214Y-161966310D01*
X45738453Y-162026786D01*
X45768691Y-162057024D01*
X45829167Y-162087262D01*
X45950119Y-162087262D01*
X46010595Y-162057024D01*
X46040834Y-162026786D01*
X46071072Y-161966310D01*
X46071072Y-161452262D01*
X46343214Y-162057024D02*
X46433929Y-162087262D01*
X46585119Y-162087262D01*
X46645595Y-162057024D01*
X46675833Y-162026786D01*
X46706072Y-161966310D01*
X46706072Y-161905833D01*
X46675833Y-161845357D01*
X46645595Y-161815119D01*
X46585119Y-161784881D01*
X46464167Y-161754643D01*
X46403691Y-161724405D01*
X46373452Y-161694167D01*
X46343214Y-161633690D01*
X46343214Y-161573214D01*
X46373452Y-161512738D01*
X46403691Y-161482500D01*
X46464167Y-161452262D01*
X46615357Y-161452262D01*
X46706072Y-161482500D01*
X46978214Y-162087262D02*
X46978214Y-161452262D01*
X46978214Y-161754643D02*
X47341072Y-161754643D01*
X47341072Y-162087262D02*
X47341072Y-161452262D01*
D16*
X68591333Y-161159833D02*
X68718333Y-161202167D01*
X68930000Y-161202167D01*
X69014667Y-161159833D01*
X69057000Y-161117500D01*
X69099333Y-161032833D01*
X69099333Y-160948167D01*
X69057000Y-160863500D01*
X69014667Y-160821167D01*
X68930000Y-160778833D01*
X68760667Y-160736500D01*
X68676000Y-160694167D01*
X68633667Y-160651833D01*
X68591333Y-160567167D01*
X68591333Y-160482500D01*
X68633667Y-160397833D01*
X68676000Y-160355500D01*
X68760667Y-160313167D01*
X68972333Y-160313167D01*
X69099333Y-160355500D01*
X69395667Y-160313167D02*
X69607334Y-161202167D01*
X69776667Y-160567167D01*
X69946000Y-161202167D01*
X70157667Y-160313167D01*
X70962000Y-161202167D02*
X70454000Y-161202167D01*
X70708000Y-161202167D02*
X70708000Y-160313167D01*
X70623334Y-160440167D01*
X70538667Y-160524833D01*
X70454000Y-160567167D01*
X71258334Y-160313167D02*
X71808667Y-160313167D01*
X71512334Y-160651833D01*
X71639334Y-160651833D01*
X71724001Y-160694167D01*
X71766334Y-160736500D01*
X71808667Y-160821167D01*
X71808667Y-161032833D01*
X71766334Y-161117500D01*
X71724001Y-161159833D01*
X71639334Y-161202167D01*
X71385334Y-161202167D01*
X71300667Y-161159833D01*
X71258334Y-161117500D01*
D17*
X68282690Y-161957024D02*
X68373405Y-161987262D01*
X68524595Y-161987262D01*
X68585071Y-161957024D01*
X68615309Y-161926786D01*
X68645548Y-161866310D01*
X68645548Y-161805833D01*
X68615309Y-161745357D01*
X68585071Y-161715119D01*
X68524595Y-161684881D01*
X68403643Y-161654643D01*
X68343167Y-161624405D01*
X68312928Y-161594167D01*
X68282690Y-161533690D01*
X68282690Y-161473214D01*
X68312928Y-161412738D01*
X68343167Y-161382500D01*
X68403643Y-161352262D01*
X68554833Y-161352262D01*
X68645548Y-161382500D01*
X68857214Y-161352262D02*
X69008405Y-161987262D01*
X69129357Y-161533690D01*
X69250310Y-161987262D01*
X69401500Y-161352262D01*
X69492214Y-162047738D02*
X69976024Y-162047738D01*
X70127214Y-161987262D02*
X70127214Y-161352262D01*
X70369119Y-161352262D01*
X70429595Y-161382500D01*
X70459834Y-161412738D01*
X70490072Y-161473214D01*
X70490072Y-161563929D01*
X70459834Y-161624405D01*
X70429595Y-161654643D01*
X70369119Y-161684881D01*
X70127214Y-161684881D01*
X70762214Y-161352262D02*
X70762214Y-161866310D01*
X70792453Y-161926786D01*
X70822691Y-161957024D01*
X70883167Y-161987262D01*
X71004119Y-161987262D01*
X71064595Y-161957024D01*
X71094834Y-161926786D01*
X71125072Y-161866310D01*
X71125072Y-161352262D01*
X71397214Y-161957024D02*
X71487929Y-161987262D01*
X71639119Y-161987262D01*
X71699595Y-161957024D01*
X71729833Y-161926786D01*
X71760072Y-161866310D01*
X71760072Y-161805833D01*
X71729833Y-161745357D01*
X71699595Y-161715119D01*
X71639119Y-161684881D01*
X71518167Y-161654643D01*
X71457691Y-161624405D01*
X71427452Y-161594167D01*
X71397214Y-161533690D01*
X71397214Y-161473214D01*
X71427452Y-161412738D01*
X71457691Y-161382500D01*
X71518167Y-161352262D01*
X71669357Y-161352262D01*
X71760072Y-161382500D01*
X72032214Y-161987262D02*
X72032214Y-161352262D01*
X72032214Y-161654643D02*
X72395072Y-161654643D01*
X72395072Y-161987262D02*
X72395072Y-161352262D01*
D16*
X93745333Y-161014833D02*
X93872333Y-161057167D01*
X94084000Y-161057167D01*
X94168667Y-161014833D01*
X94211000Y-160972500D01*
X94253333Y-160887833D01*
X94253333Y-160803167D01*
X94211000Y-160718500D01*
X94168667Y-160676167D01*
X94084000Y-160633833D01*
X93914667Y-160591500D01*
X93830000Y-160549167D01*
X93787667Y-160506833D01*
X93745333Y-160422167D01*
X93745333Y-160337500D01*
X93787667Y-160252833D01*
X93830000Y-160210500D01*
X93914667Y-160168167D01*
X94126333Y-160168167D01*
X94253333Y-160210500D01*
X94549667Y-160168167D02*
X94761334Y-161057167D01*
X94930667Y-160422167D01*
X95100000Y-161057167D01*
X95311667Y-160168167D01*
X96116000Y-161057167D02*
X95608000Y-161057167D01*
X95862000Y-161057167D02*
X95862000Y-160168167D01*
X95777334Y-160295167D01*
X95692667Y-160379833D01*
X95608000Y-160422167D01*
X96878001Y-160464500D02*
X96878001Y-161057167D01*
X96666334Y-160125833D02*
X96454667Y-160760833D01*
X97005001Y-160760833D01*
D17*
X93228690Y-161857024D02*
X93319405Y-161887262D01*
X93470595Y-161887262D01*
X93531071Y-161857024D01*
X93561309Y-161826786D01*
X93591548Y-161766310D01*
X93591548Y-161705833D01*
X93561309Y-161645357D01*
X93531071Y-161615119D01*
X93470595Y-161584881D01*
X93349643Y-161554643D01*
X93289167Y-161524405D01*
X93258928Y-161494167D01*
X93228690Y-161433690D01*
X93228690Y-161373214D01*
X93258928Y-161312738D01*
X93289167Y-161282500D01*
X93349643Y-161252262D01*
X93500833Y-161252262D01*
X93591548Y-161282500D01*
X93803214Y-161252262D02*
X93954405Y-161887262D01*
X94075357Y-161433690D01*
X94196310Y-161887262D01*
X94347500Y-161252262D01*
X94438214Y-161947738D02*
X94922024Y-161947738D01*
X95073214Y-161887262D02*
X95073214Y-161252262D01*
X95315119Y-161252262D01*
X95375595Y-161282500D01*
X95405834Y-161312738D01*
X95436072Y-161373214D01*
X95436072Y-161463929D01*
X95405834Y-161524405D01*
X95375595Y-161554643D01*
X95315119Y-161584881D01*
X95073214Y-161584881D01*
X95708214Y-161252262D02*
X95708214Y-161766310D01*
X95738453Y-161826786D01*
X95768691Y-161857024D01*
X95829167Y-161887262D01*
X95950119Y-161887262D01*
X96010595Y-161857024D01*
X96040834Y-161826786D01*
X96071072Y-161766310D01*
X96071072Y-161252262D01*
X96343214Y-161857024D02*
X96433929Y-161887262D01*
X96585119Y-161887262D01*
X96645595Y-161857024D01*
X96675833Y-161826786D01*
X96706072Y-161766310D01*
X96706072Y-161705833D01*
X96675833Y-161645357D01*
X96645595Y-161615119D01*
X96585119Y-161584881D01*
X96464167Y-161554643D01*
X96403691Y-161524405D01*
X96373452Y-161494167D01*
X96343214Y-161433690D01*
X96343214Y-161373214D01*
X96373452Y-161312738D01*
X96403691Y-161282500D01*
X96464167Y-161252262D01*
X96615357Y-161252262D01*
X96706072Y-161282500D01*
X96978214Y-161887262D02*
X96978214Y-161252262D01*
X96978214Y-161554643D02*
X97341072Y-161554643D01*
X97341072Y-161887262D02*
X97341072Y-161252262D01*
D16*
X90738000Y-31306667D02*
X90738000Y-30417667D01*
X90949666Y-30417667D01*
X91076666Y-30460000D01*
X91161333Y-30544667D01*
X91203666Y-30629333D01*
X91246000Y-30798667D01*
X91246000Y-30925667D01*
X91203666Y-31095000D01*
X91161333Y-31179667D01*
X91076666Y-31264333D01*
X90949666Y-31306667D01*
X90738000Y-31306667D01*
X91542333Y-30417667D02*
X92092666Y-30417667D01*
X91796333Y-30756333D01*
X91923333Y-30756333D01*
X92008000Y-30798667D01*
X92050333Y-30841000D01*
X92092666Y-30925667D01*
X92092666Y-31137333D01*
X92050333Y-31222000D01*
X92008000Y-31264333D01*
X91923333Y-31306667D01*
X91669333Y-31306667D01*
X91584666Y-31264333D01*
X91542333Y-31222000D01*
X92854667Y-30714000D02*
X92854667Y-31306667D01*
X92643000Y-30375333D02*
X92431333Y-31010333D01*
X92981667Y-31010333D01*
X92029167Y-35497667D02*
X92029167Y-34608667D01*
X92240833Y-34608667D01*
X92367833Y-34651000D01*
X92452500Y-34735667D01*
X92494833Y-34820333D01*
X92537167Y-34989667D01*
X92537167Y-35116667D01*
X92494833Y-35286000D01*
X92452500Y-35370667D01*
X92367833Y-35455333D01*
X92240833Y-35497667D01*
X92029167Y-35497667D01*
M02*
